<svg width="64" height="80" viewBox="0 0 64 80" fill="none" xmlns="http://www.w3.org/2000/svg">
<path d="M2.25 66.25H14.75V68.75H2.25V66.25Z" fill="white" fill-opacity="0.2"/>
<path d="M-0.249942 6.25H14.7501V8.75H-0.249942V6.25ZM17.2501 26.25C17.0413 26.25 16.8301 26.2612 16.6126 26.2825C15.8494 24.0775 14.4162 22.1661 12.5134 20.8155C10.6107 19.465 8.3334 18.7428 6.00006 18.75C3.62391 18.7473 1.30824 19.499 -0.613342 20.8967C-2.53492 22.2944 -3.96321 24.266 -4.69244 26.5275C-6.28895 26.9439 -7.70156 27.8796 -8.70774 29.1873C-9.71391 30.4949 -10.2565 32.1001 -10.2499 33.75C-10.2499 37.8862 -6.88619 41.25 -2.74994 41.25H17.2501C21.3863 41.25 24.7501 37.8862 24.7501 33.75C24.7501 29.6138 21.3863 26.25 17.2501 26.25ZM17.2501 38.75H-2.74994C-5.50744 38.75 -7.74994 36.5075 -7.74994 33.75C-7.75313 32.5567 -7.32588 31.4022 -6.54659 30.4985C-5.76731 29.5948 -4.68825 29.0024 -3.50744 28.83L-2.68369 28.7037L-2.48369 27.895C-2.01788 25.9974 -0.928577 24.3111 0.60968 23.1062C2.14794 21.9013 4.04611 21.2477 6.00006 21.25C7.97278 21.2442 9.88903 21.9084 11.435 23.1337C12.9811 24.3591 14.0652 26.0731 14.5101 27.995L14.8001 29.2313L16.0313 28.9212C16.4951 28.8037 16.8813 28.75 17.2501 28.75C20.0076 28.75 22.2501 30.9925 22.2501 33.75C22.2501 36.5075 20.0076 38.75 17.2501 38.75ZM3.41131 57.5C3.41131 59.5675 5.09381 61.25 7.16131 61.25C9.22881 61.25 10.9113 59.5675 10.9113 57.5C10.9113 55.4325 9.22881 53.75 7.16131 53.75C5.09381 53.75 3.41131 55.4325 3.41131 57.5ZM8.41131 57.5C8.41131 57.8315 8.27961 58.1495 8.04519 58.3839C7.81077 58.6183 7.49283 58.75 7.16131 58.75C6.82979 58.75 6.51184 58.6183 6.27743 58.3839C6.043 58.1495 5.91131 57.8315 5.91131 57.5C5.91131 57.1685 6.043 56.8505 6.27743 56.6161C6.51184 56.3817 6.82979 56.25 7.16131 56.25C7.49283 56.25 7.81077 56.3817 8.04519 56.6161C8.27961 56.8505 8.41131 57.1685 8.41131 57.5ZM13.3488 51.3137C11.6963 49.6612 9.49881 48.75 7.16131 48.75C4.82381 48.75 2.62631 49.6612 0.975058 51.3137L2.74256 53.0812C3.32147 52.4991 4.01008 52.0375 4.76855 51.7231C5.52702 51.4088 6.34029 51.248 7.16131 51.25C8.83131 51.25 10.4013 51.9012 11.5813 53.0812L13.3488 51.3137Z" fill="white" fill-opacity="0.2"/>
<path d="M-2.5625 47.7768L-0.794999 49.5443C3.5925 45.1568 10.7287 45.1568 15.1162 49.5443L16.8838 47.7768C11.5225 42.4155 2.79875 42.4155 -2.5625 47.7768Z" fill="white" fill-opacity="0.2"/>
<path d="M54.98 47.5C55.237 48.229 55.7133 48.8607 56.3435 49.3083C56.9737 49.7559 57.727 49.9975 58.5 50C60.5675 50 62.25 48.3175 62.25 46.25C62.25 44.1825 60.5675 42.5 58.5 42.5C57.727 42.5025 56.9737 42.7441 56.3435 43.1917C55.7133 43.6393 55.237 44.271 54.98 45H29.75V42.5H41.5175L49.0175 35H54.98C55.237 35.729 55.7133 36.3607 56.3435 36.8083C56.9737 37.2559 57.727 37.4975 58.5 37.5C60.5675 37.5 62.25 35.8175 62.25 33.75C62.25 31.6825 60.5675 30 58.5 30C57.727 30.0025 56.9737 30.2441 56.3435 30.6917C55.7133 31.1393 55.237 31.771 54.98 32.5H47.9825L40.4825 40H29.75V31.1712C32.3578 32.8548 35.396 33.7502 38.5 33.75C47.46 33.75 54.75 26.46 54.75 17.5C54.75 8.54 47.46 1.25 38.5 1.25C34.9113 1.25 31.6012 2.43375 28.9087 4.4125C27.8175 2.51125 25.7725 1.25 23.5 1.25H-9C-12.4462 1.25 -15.25 4.05375 -15.25 7.5V72.5C-15.25 75.9463 -12.4462 78.75 -9 78.75H23.5C26.9463 78.75 29.75 75.9463 29.75 72.5V52.5H40.4825L47.9825 60H54.98C55.237 60.729 55.7133 61.3607 56.3435 61.8083C56.9737 62.2559 57.727 62.4975 58.5 62.5C60.5675 62.5 62.25 60.8175 62.25 58.75C62.25 56.6825 60.5675 55 58.5 55C57.727 55.0025 56.9737 55.2441 56.3435 55.6917C55.7133 56.1393 55.237 56.771 54.98 57.5H49.0175L41.5175 50H29.75V47.5H54.98ZM58.5 45C58.8315 45 59.1495 45.1317 59.3839 45.3661C59.6183 45.6005 59.75 45.9185 59.75 46.25C59.75 46.5815 59.6183 46.8995 59.3839 47.1339C59.1495 47.3683 58.8315 47.5 58.5 47.5C58.1685 47.5 57.8505 47.3683 57.6161 47.1339C57.3817 46.8995 57.25 46.5815 57.25 46.25C57.25 45.9185 57.3817 45.6005 57.6161 45.3661C57.8505 45.1317 58.1685 45 58.5 45ZM58.5 32.5C58.8315 32.5 59.1495 32.6317 59.3839 32.8661C59.6183 33.1005 59.75 33.4185 59.75 33.75C59.75 34.0815 59.6183 34.3995 59.3839 34.6339C59.1495 34.8683 58.8315 35 58.5 35C58.1685 35 57.8505 34.8683 57.6161 34.6339C57.3817 34.3995 57.25 34.0815 57.25 33.75C57.25 33.4185 57.3817 33.1005 57.6161 32.8661C57.8505 32.6317 58.1685 32.5 58.5 32.5ZM58.5 57.5C58.8315 57.5 59.1495 57.6317 59.3839 57.8661C59.6183 58.1005 59.75 58.4185 59.75 58.75C59.75 59.0815 59.6183 59.3995 59.3839 59.6339C59.1495 59.8683 58.8315 60 58.5 60C58.1685 60 57.8505 59.8683 57.6161 59.6339C57.3817 59.3995 57.25 59.0815 57.25 58.75C57.25 58.4185 57.3817 58.1005 57.6161 57.8661C57.8505 57.6317 58.1685 57.5 58.5 57.5ZM33.8575 4.57375C33.165 5.7225 32.5788 7.13125 32.1188 8.75H27.9025C29.4782 6.85031 31.5347 5.4081 33.8575 4.57375ZM42.2612 8.75H34.7375C35.725 5.65875 37.1562 3.75 38.5 3.75C39.8438 3.75 41.275 5.65875 42.2612 8.75ZM52.1862 16.25H45.9725C45.9247 14.5731 45.7538 12.9019 45.4613 11.25H50.7312C51.5338 12.8074 52.0278 14.5052 52.1862 16.25ZM38.5 31.25C37.1562 31.25 35.725 29.3412 34.7388 26.25H42.2625C41.275 29.3412 39.8438 31.25 38.5 31.25ZM34.1012 23.75C33.7744 22.1017 33.5821 20.4295 33.5262 18.75H43.4738C43.4173 20.4295 43.225 22.1016 42.8988 23.75H34.1012ZM45.9725 18.75H52.1862C52.0272 20.4947 51.5332 22.1924 50.7312 23.75H45.4613C45.7425 22.2038 45.9163 20.5238 45.9725 18.75ZM43.4738 16.25H33.5262C33.5827 14.5705 33.775 12.8984 34.1012 11.25H42.8988C43.2038 12.7612 43.4087 14.4412 43.4738 16.25ZM26.2675 11.25H31.5375C31.245 12.9019 31.0741 14.5731 31.0262 16.25H24.8125C24.9721 14.5054 25.4661 12.8079 26.2675 11.25ZM31.0275 18.75C31.085 20.5238 31.2575 22.2038 31.5387 23.75H26.2687C25.4674 22.1921 24.9734 20.4946 24.8137 18.75H31.0275ZM32.1188 26.25C32.5788 27.8687 33.165 29.2775 33.8575 30.4263C31.5344 29.5923 29.4779 28.1501 27.9025 26.25H32.1188ZM43.1425 30.4263C43.8338 29.2775 44.4212 27.8687 44.8812 26.25H49.0975C47.5218 28.1497 45.4653 29.5919 43.1425 30.4263ZM49.0987 8.75H44.8825C44.4225 7.13125 43.8363 5.7225 43.1437 4.57375C45.4662 5.40876 47.5225 6.85085 49.0987 8.75ZM-9 3.75H23.5C25.0275 3.75 26.3925 4.69625 26.9625 6.0725C25.4877 7.56017 24.3134 9.31804 23.5037 11.25H-12.75V7.5C-12.75 5.4325 -11.0675 3.75 -9 3.75ZM23.5 76.25H-9C-11.0675 76.25 -12.75 74.5675 -12.75 72.5V72.4675C-11.6745 73.2948 -10.3568 73.7454 -9 73.75H23.5C24.9125 73.75 26.2025 73.2612 27.25 72.4675V72.5C27.25 74.5675 25.5675 76.25 23.5 76.25ZM23.5 71.25H-9C-11.0675 71.25 -12.75 69.5675 -12.75 67.5V13.75H22.7038C22.4068 14.978 22.2545 16.2366 22.25 17.5C22.25 22.0938 24.175 26.24 27.25 29.1987V67.5C27.25 69.5675 25.5675 71.25 23.5 71.25Z" fill="white" fill-opacity="0.2"/>
</svg>
