<svg width="111" height="111" viewBox="0 0 111 111" fill="none" xmlns="http://www.w3.org/2000/svg">
<path d="M33.1562 52.0625H36.5938V55.5H33.1562V52.0625ZM16.6391 60.3211L19.0694 57.8908L21.4997 60.3211L19.0694 62.7514L16.6391 60.3211ZM10.8125 74.4062H14.25V77.8438H10.8125V74.4062ZM16.6339 91.9152L19.0642 89.4848L21.4945 91.9152L19.0642 94.3455L16.6339 91.9152ZM33.1562 96.75H36.5938V100.188H33.1562V96.75ZM48.2297 91.9203L50.6583 89.49L53.0886 91.9203L50.6583 94.3506L48.2297 91.9203ZM55.5 74.4062H58.9375V77.8438H55.5V74.4062ZM48.2331 60.3262L50.6634 57.8959L53.0938 60.3262L50.6634 62.7566L48.2331 60.3262Z" fill="white"/>
<path d="M84.7188 3.9375C78.8169 4.01495 73.1786 6.39388 69.005 10.5675C64.8314 14.7411 62.4524 20.3794 62.375 26.2812C62.2074 29.0338 62.7258 31.7849 63.8837 34.2877C65.0417 36.7905 66.8029 38.9666 69.0094 40.6208C70.7352 41.7925 71.9902 43.5377 72.5517 45.5467C71.5821 45.9205 70.748 46.5785 70.1588 47.4345C69.5696 48.2905 69.2529 49.3046 69.25 50.3438V53.7812C69.2545 55.0538 69.7324 56.2792 70.5906 57.2188C69.7324 58.1583 69.2545 59.3837 69.25 60.6562V64.0938C69.25 65.4613 69.7933 66.7728 70.7602 67.7398C71.7272 68.7067 73.0387 69.25 74.4062 69.25V70.9688C74.4062 72.3363 74.9495 73.6478 75.9165 74.6148C76.8835 75.5817 78.195 76.125 79.5625 76.125H83V98.4688C83 99.8363 82.4567 101.148 81.4898 102.115C80.5228 103.082 79.2113 103.625 77.8438 103.625C76.4762 103.625 75.1647 103.082 74.1977 102.115C73.2308 101.148 72.6875 99.8363 72.6875 98.4688V76.125C72.6875 75.6692 72.5064 75.232 72.1841 74.9097C71.8618 74.5873 71.4246 74.4062 70.9688 74.4062H65.8125V70.9688C65.8123 70.5619 65.6678 70.1683 65.4047 69.858C65.1416 69.5477 64.777 69.3408 64.3756 69.2741L57.5711 68.1397C57.2827 67.316 56.9493 66.5087 56.5725 65.7214L60.5806 60.1097C60.8171 59.7788 60.9285 59.3748 60.8952 58.9694C60.8618 58.5641 60.6858 58.1837 60.3984 57.8959L53.1041 50.6033C52.8165 50.3156 52.4362 50.1393 52.0309 50.1056C51.6256 50.072 51.2214 50.1831 50.8903 50.4194L45.2803 54.4275C44.4924 54.0509 43.6845 53.7175 42.8603 53.4289L41.7259 46.6227C41.6589 46.2216 41.4518 45.8574 41.1415 45.5946C40.8312 45.3319 40.4378 45.1876 40.0312 45.1875H29.7188C29.3122 45.1876 28.9188 45.3319 28.6085 45.5946C28.2982 45.8574 28.0912 46.2216 28.0241 46.6227L26.8897 53.4289C26.045 53.7263 25.2176 54.0706 24.4112 54.4602C23.3302 53.6162 21.5942 52.377 18.8597 50.4228C18.5286 50.1866 18.1244 50.0754 17.7191 50.1091C17.3138 50.1428 16.9335 50.3191 16.6459 50.6067L9.35156 57.8959C9.06419 58.1837 8.88818 58.5641 8.85482 58.9694C8.82146 59.3748 8.93292 59.7788 9.16938 60.1097L13.1964 65.7472C12.8225 66.5234 12.4937 67.3205 12.2116 68.1345L5.37437 69.2741C4.97304 69.3408 4.60839 69.5477 4.34529 69.858C4.08219 70.1683 3.93769 70.5619 3.9375 70.9688V81.2812C3.93769 81.6881 4.08219 82.0817 4.34529 82.392C4.60839 82.7023 4.97304 82.9092 5.37437 82.9759L12.2098 84.1155C12.4916 84.9333 12.8146 85.7365 13.1775 86.5217L9.16938 92.1403C8.93292 92.4712 8.82146 92.8752 8.85482 93.2806C8.88818 93.6859 9.06419 94.0663 9.35156 94.3541L16.6459 101.647C16.9335 101.934 17.3138 102.111 17.7191 102.144C18.1244 102.178 18.5286 102.067 18.8597 101.831L24.4697 97.8225C25.2576 98.1991 26.0655 98.5325 26.8897 98.8211L28.0241 105.627C28.0912 106.028 28.2982 106.393 28.6085 106.655C28.9188 106.918 29.3122 107.062 29.7188 107.062H40.0312C40.4378 107.062 40.8312 106.918 41.1415 106.655C41.4518 106.393 41.6589 106.028 41.7259 105.627L42.8603 98.8211C43.6845 98.5325 44.4924 98.1991 45.2803 97.8225L50.8903 101.831C51.2214 102.067 51.6256 102.178 52.0309 102.144C52.4362 102.111 52.8165 101.934 53.1041 101.647L60.3984 94.3541C60.6858 94.0663 60.8618 93.6859 60.8952 93.2806C60.9285 92.8752 60.8171 92.4712 60.5806 92.1403L56.5725 86.5286C56.9484 85.7409 57.2817 84.9337 57.5711 84.1103L64.3756 82.9759C64.777 82.9092 65.1416 82.7023 65.4047 82.392C65.6678 82.0817 65.8123 81.6881 65.8125 81.2812V77.8438H69.25V98.4688C69.25 100.748 70.1554 102.934 71.7671 104.545C73.3787 106.157 75.5645 107.062 77.8438 107.062C80.123 107.062 82.3088 106.157 83.9204 104.545C85.5321 102.934 86.4375 100.748 86.4375 98.4688V76.125H89.875C91.2425 76.125 92.554 75.5817 93.521 74.6148C94.488 73.6478 95.0312 72.3363 95.0312 70.9688V69.25C96.3988 69.25 97.7103 68.7067 98.6773 67.7398C99.6442 66.7728 100.188 65.4613 100.188 64.0938V60.6562C100.183 59.3837 99.7051 58.1583 98.8469 57.2188C99.7051 56.2792 100.183 55.0538 100.188 53.7812V50.3438C100.185 49.3046 99.8679 48.2905 99.2787 47.4345C98.6895 46.5785 97.8554 45.9205 96.8858 45.5467C97.4473 43.5377 98.7023 41.7925 100.428 40.6208C102.635 38.9666 104.396 36.7905 105.554 34.2877C106.712 31.7849 107.23 29.0338 107.062 26.2812C106.985 20.3794 104.606 14.7411 100.433 10.5675C96.2589 6.39388 90.6206 4.01495 84.7188 3.9375ZM62.375 79.8255L55.9778 80.8911C55.6609 80.9442 55.3652 81.085 55.1242 81.2977C54.8833 81.5104 54.7068 81.7863 54.6148 82.0942C54.2222 83.4038 53.6988 84.6706 53.0525 85.8755C52.9012 86.1584 52.8321 86.478 52.8531 86.7982C52.8741 87.1183 52.9842 87.4262 53.1711 87.687L56.9386 92.9636L51.7033 98.1955L46.4302 94.428C46.169 94.2416 45.861 94.1321 45.5408 94.1117C45.2207 94.0914 44.9012 94.161 44.6186 94.3128C43.4132 94.9574 42.1465 95.4802 40.8373 95.8734C40.5294 95.9654 40.2535 96.1419 40.0408 96.3828C39.8282 96.6237 39.6873 96.9195 39.6342 97.2364L38.5755 103.625H31.1745L30.1089 97.2278C30.0558 96.9109 29.915 96.6152 29.7023 96.3742C29.4896 96.1333 29.2137 95.9568 28.9058 95.8648C27.5966 95.4716 26.3299 94.9488 25.1245 94.3042C24.8419 94.1524 24.5225 94.0828 24.2023 94.1031C23.8822 94.1235 23.5741 94.233 23.313 94.4194L18.0398 98.1869L12.8114 92.955L16.5789 87.6784C16.7658 87.4176 16.8759 87.1097 16.8969 86.7896C16.9179 86.4694 16.8488 86.1498 16.6975 85.8669C16.0534 84.6315 15.5219 83.3407 15.1094 82.01C15.0067 81.7214 14.8287 81.4655 14.5939 81.2688C14.3591 81.0721 14.076 80.9417 13.7739 80.8911L7.375 79.8255V72.4245L13.7722 71.3589C14.0743 71.3083 14.3574 71.1779 14.5922 70.9812C14.827 70.7845 15.005 70.5286 15.1077 70.24C15.5501 68.8902 16.0936 67.5756 16.7336 66.3075C16.8649 66.0306 16.9198 65.7237 16.8926 65.4185C16.8654 65.1133 16.7571 64.8209 16.5789 64.5716L12.8114 59.295L18.0467 54.0631L23.3061 57.8203C23.5677 58.011 23.8777 58.1239 24.2007 58.1461C24.5236 58.1683 24.8462 58.0989 25.1314 57.9458C26.3368 57.3012 27.6035 56.7784 28.9127 56.3852C29.2206 56.2932 29.4965 56.1167 29.7092 55.8758C29.9218 55.6348 30.0627 55.3391 30.1158 55.0222L31.1745 48.625H38.5755L39.6411 55.0222C39.6942 55.3391 39.835 55.6348 40.0477 55.8758C40.2604 56.1167 40.5363 56.2932 40.8442 56.3852C42.1534 56.7784 43.4201 57.3012 44.6255 57.9458C44.9081 58.0976 45.2275 58.1672 45.5477 58.1469C45.8678 58.1265 46.1759 58.017 46.437 57.8306L51.7102 54.0631L56.9455 59.295L53.178 64.5716C52.9914 64.8325 52.8815 65.1405 52.8609 65.4607C52.8402 65.7808 52.9096 66.1003 53.0611 66.3831C53.706 67.5884 54.2288 68.8551 54.6217 70.1644C54.7137 70.4723 54.8902 70.7482 55.1311 70.9609C55.372 71.1736 55.6677 71.3144 55.9847 71.3675L62.3819 72.4331L62.375 79.8255ZM95.0312 48.625C95.4871 48.625 95.9243 48.8061 96.2466 49.1284C96.5689 49.4507 96.75 49.8879 96.75 50.3438V53.7812C96.75 54.2371 96.5689 54.6743 96.2466 54.9966C95.9243 55.3189 95.4871 55.5 95.0312 55.5H74.4062C73.9504 55.5 73.5132 55.3189 73.1909 54.9966C72.8686 54.6743 72.6875 54.2371 72.6875 53.7812V50.3438C72.6875 49.8879 72.8686 49.4507 73.1909 49.1284C73.5132 48.8061 73.9504 48.625 74.4062 48.625H95.0312ZM91.5938 70.9688C91.5938 71.4246 91.4127 71.8618 91.0903 72.1841C90.768 72.5064 90.3308 72.6875 89.875 72.6875H79.5625C79.1067 72.6875 78.6695 72.5064 78.3472 72.1841C78.0248 71.8618 77.8438 71.4246 77.8438 70.9688V69.25H91.5938V70.9688ZM96.75 64.0938C96.75 64.5496 96.5689 64.9868 96.2466 65.3091C95.9243 65.6314 95.4871 65.8125 95.0312 65.8125H74.4062C73.9504 65.8125 73.5132 65.6314 73.1909 65.3091C72.8686 64.9868 72.6875 64.5496 72.6875 64.0938V60.6562C72.6875 60.2004 72.8686 59.7632 73.1909 59.4409C73.5132 59.1186 73.9504 58.9375 74.4062 58.9375H95.0312C95.4871 58.9375 95.9243 59.1186 96.2466 59.4409C96.5689 59.7632 96.75 60.2004 96.75 60.6562V64.0938ZM98.1456 38.0495C95.735 39.7507 94.057 42.3006 93.4483 45.1875H86.4375V34.7203C88.8378 34.3125 91.0167 33.0694 92.5892 31.2107C94.1618 29.3519 95.0267 26.9972 95.0312 24.5625H91.5938C91.5938 26.3859 90.8694 28.1345 89.5801 29.4239C88.2908 30.7132 86.5421 31.4375 84.7188 31.4375C82.8954 31.4375 81.1467 30.7132 79.8574 29.4239C78.5681 28.1345 77.8438 26.3859 77.8438 24.5625H74.4062C74.4108 26.9972 75.2757 29.3519 76.8483 31.2107C78.4208 33.0694 80.5997 34.3125 83 34.7203V45.1875H75.9892C75.3801 42.3003 73.7014 39.7504 71.2902 38.0495C69.4553 36.7123 67.9901 34.9309 67.032 32.8726C66.0739 30.8142 65.6543 28.5462 65.8125 26.2812C65.8125 21.267 67.8044 16.4581 71.35 12.9125C74.8956 9.3669 79.7045 7.375 84.7188 7.375C89.733 7.375 94.5419 9.3669 98.0875 12.9125C101.633 16.4581 103.625 21.267 103.625 26.2812C103.783 28.5463 103.363 30.8144 102.405 32.8728C101.446 34.9312 99.9808 36.7125 98.1456 38.0495Z" fill="white"/>
<path d="M34.875 60.6563C31.8156 60.6563 28.8248 61.5635 26.281 63.2632C23.7372 64.9629 21.7545 67.3788 20.5837 70.2054C19.4129 73.0319 19.1066 76.1422 19.7035 79.1428C20.3003 82.1435 21.7736 84.8997 23.9369 87.0631C26.1003 89.2264 28.8566 90.6997 31.8572 91.2965C34.8578 91.8934 37.9681 91.5871 40.7946 90.4163C43.6212 89.2455 46.0371 87.2628 47.7368 84.719C49.4365 82.1752 50.3438 79.1844 50.3438 76.125C50.3392 72.0238 48.708 68.0919 45.808 65.192C42.9081 62.292 38.9762 60.6608 34.875 60.6563ZM34.875 88.1563C32.4954 88.1563 30.1693 87.4506 28.1908 86.1286C26.2123 84.8066 24.6702 82.9276 23.7596 80.7292C22.849 78.5307 22.6107 76.1117 23.0749 73.7778C23.5392 71.444 24.685 69.3002 26.3676 67.6176C28.0502 65.935 30.194 64.7892 32.5278 64.3249C34.8617 63.8607 37.2807 64.099 39.4792 65.0096C41.6776 65.9202 43.5566 67.4623 44.8786 69.4408C46.2006 71.4193 46.9062 73.7454 46.9062 76.125C46.9026 79.3148 45.6339 82.3729 43.3784 84.6284C41.1228 86.8839 38.0648 88.1526 34.875 88.1563ZM33.1562 38.3125H36.5938V41.75H33.1562V38.3125ZM33.1562 26.2813H10.8125V29.7188H33.1562V34.875H36.5938V19.4063H52.0625V15.9688H36.5938V5.65625C36.5938 5.20041 36.4127 4.76324 36.0903 4.44091C35.768 4.11858 35.3308 3.9375 34.875 3.9375H14.25V7.375H33.1562V26.2813ZM3.9375 26.2813H7.375V29.7188H3.9375V26.2813ZM55.5 15.9688H58.9375V19.4063H55.5V15.9688ZM7.375 3.9375H10.8125V7.375H7.375V3.9375ZM83 24.5625H86.4375V28H83V24.5625Z" fill="white"/>
</svg>
