<svg width="512" height="512" viewBox="0 0 512 512" fill="none" xmlns="http://www.w3.org/2000/svg">
<path d="M468.02 260.33H390.135V233.341C429.321 227.099 459.366 193.072 459.366 152.157V134.85C459.366 127.681 453.554 121.869 446.386 121.869C439.217 121.869 433.405 127.681 433.405 134.85V152.157C433.405 178.706 414.913 201.001 390.136 206.879V195.427C390.136 183.498 380.431 173.793 368.502 173.793H355.52V126.197C355.52 98.8923 335.961 76.0774 310.119 71.007L319.785 49.2573C322.697 42.7068 319.746 35.0347 313.195 32.1238C306.643 29.211 298.972 32.1624 296.061 38.7139L282.18 69.947H229.82L215.94 38.7121C213.029 32.1616 205.356 29.2102 198.806 32.122C192.255 35.033 189.305 42.705 192.216 49.2556L201.882 71.0052C176.041 76.0765 156.482 98.8896 156.482 126.195V173.791H143.501C131.572 173.791 121.867 183.496 121.867 195.425V206.878C97.09 201 78.5976 178.704 78.5976 152.155V134.848C78.5976 127.679 72.7854 121.867 65.6169 121.867C58.4485 121.867 52.6362 127.679 52.6362 134.848V152.155C52.6362 193.071 82.682 227.096 121.867 233.339V260.329H43.9807C36.8123 260.329 31 266.141 31 273.309C31 280.478 36.8123 286.29 43.9807 286.29H121.866V313.28C82.6802 319.522 52.6345 353.548 52.6345 394.463V411.771C52.6345 418.939 58.4468 424.752 65.6152 424.752C72.7836 424.752 78.5959 418.939 78.5959 411.771V394.463C78.5959 367.915 97.0882 345.619 121.865 339.741V346.867C121.866 420.831 182.039 481.004 256 481.004C329.962 481.004 390.135 420.831 390.135 346.869V339.744C414.912 345.622 433.404 367.918 433.404 394.466V411.774C433.404 418.942 439.216 424.754 446.385 424.754C453.553 424.754 459.365 418.942 459.365 411.774V394.466C459.365 353.551 429.32 319.525 390.134 313.282V286.293H468.019C475.188 286.293 481 280.48 481 273.312C481 266.144 475.189 260.33 468.02 260.33ZM182.442 126.196C182.442 109.495 196.029 95.9075 212.731 95.9075H299.269C315.971 95.9075 329.558 109.495 329.558 126.196V173.792H182.442V126.196ZM364.174 346.869C364.174 406.516 315.647 455.043 256 455.043C196.354 455.043 147.827 406.516 147.827 346.869V199.754H243.02V325.235C243.02 332.403 248.832 338.216 256 338.216C263.169 338.216 268.981 332.403 268.981 325.235V199.754H364.174V346.869Z" fill="white"/>
</svg>
