<svg width="60" height="60" viewBox="0 0 60 60" fill="none" xmlns="http://www.w3.org/2000/svg">
<path d="M43.6203 21.4389C43.2259 18.013 41.5849 14.8519 39.01 12.5579C36.435 10.264 33.1061 8.99756 29.6575 9C22.4542 9 16.4986 14.4477 15.6948 21.4389C9.72767 21.8564 5 26.8471 5 32.9178C5 38.5611 9.19178 43.4433 14.7512 44.2751C14.9647 44.307 15.1824 44.2966 15.3919 44.2444C15.6014 44.1922 15.7985 44.0993 15.9721 43.9709C16.1456 43.8426 16.2922 43.6813 16.4034 43.4962C16.5146 43.3112 16.5883 43.1061 16.6203 42.8926C16.6522 42.6791 16.6418 42.4614 16.5896 42.2519C16.5374 42.0425 16.4445 41.8453 16.3161 41.6718C16.1878 41.4982 16.0265 41.3516 15.8414 41.2404C15.6564 41.1292 15.4513 41.0555 15.2378 41.0236C11.2762 40.4318 8.28767 36.9469 8.28767 32.9178C8.28767 28.3858 11.9748 24.6986 16.5068 24.6986H17.2466C17.6825 24.6986 18.1007 24.5254 18.4089 24.2172C18.7172 23.9089 18.8904 23.4908 18.8904 23.0548C18.8939 20.2002 20.0294 17.4636 22.0479 15.4451C24.0663 13.4267 26.803 12.2912 29.6575 12.2877C31.0719 12.2862 32.4727 12.5636 33.7797 13.1042C35.0867 13.6448 36.2743 14.4378 37.2744 15.4379C38.2745 16.438 39.0676 17.6256 39.6081 18.9326C40.1487 20.2396 40.4262 21.6404 40.4247 23.0548C40.4247 23.4908 40.5978 23.9089 40.9061 24.2172C41.2144 24.5254 41.6325 24.6986 42.0685 24.6986H42.8082C47.3403 24.6986 51.0274 28.3858 51.0274 32.9178C51.0274 36.9452 48.0389 40.4301 44.0773 41.0236C43.8638 41.0555 43.6586 41.1292 43.4736 41.2404C43.2886 41.3516 43.1273 41.4982 42.9989 41.6718C42.8706 41.8453 42.7776 42.0425 42.7254 42.2519C42.6733 42.4614 42.6628 42.6791 42.6948 42.8926C42.7267 43.1061 42.8004 43.3112 42.9116 43.4962C43.0229 43.6813 43.1694 43.8426 43.343 43.9709C43.5165 44.0993 43.7137 44.1922 43.9232 44.2444C44.1326 44.2966 44.3503 44.307 44.5638 44.2751C50.1233 43.4433 54.3151 38.5611 54.3151 32.9162C54.3151 26.8455 49.5874 21.8564 43.6203 21.4389Z" fill="white"/>
<path d="M29.6575 26.402C27.8053 26.4042 26.0296 27.141 24.7199 28.4507C23.4101 29.7604 22.6734 31.5361 22.6712 33.3883V35.0322H20.5161C20.0802 35.0322 19.6621 35.2054 19.3538 35.5136C19.0455 35.8219 18.8723 36.24 18.8723 36.676V49.3566C18.8723 49.7925 19.0455 50.2106 19.3538 50.5189C19.6621 50.8272 20.0802 51.0004 20.5161 51.0004H38.7989C39.2349 51.0004 39.653 50.8272 39.9613 50.5189C40.2695 50.2106 40.4427 49.7925 40.4427 49.3566V36.6744C40.4427 36.2384 40.2695 35.8203 39.9613 35.512C39.653 35.2037 39.2349 35.0305 38.7989 35.0305H36.6438V33.3867C36.6416 31.5345 35.9049 29.7587 34.5952 28.449C33.2855 27.1393 31.5097 26.4042 29.6575 26.402ZM25.9589 33.3883C25.9589 31.35 27.6192 29.6897 29.6575 29.6897C31.6959 29.6897 33.3561 31.35 33.3561 33.3883V35.0322H25.9589V33.3883ZM37.1551 47.7127H22.16V38.3182H37.1551V47.7127Z" fill="white"/>
</svg>
