<svg width="60" height="60" viewBox="0 0 60 60" fill="none" xmlns="http://www.w3.org/2000/svg">
<path d="M38 51H14C12.6744 50.9984 11.4036 50.4711 10.4662 49.5338C9.52888 48.5964 9.00159 47.3256 9 46V14C9.00159 12.6744 9.52888 11.4036 10.4662 10.4662C11.4036 9.52888 12.6744 9.00159 14 9H29.46C30.1259 9.00045 30.785 9.13329 31.3991 9.3908C32.0132 9.64831 32.57 10.0254 33.037 10.5L41.575 19.239C42.4908 20.1739 43.0026 21.4313 43 22.74V30.19C43 30.4552 42.8946 30.7096 42.7071 30.8971C42.5196 31.0846 42.2652 31.19 42 31.19C41.7348 31.19 41.4804 31.0846 41.2929 30.8971C41.1053 30.7096 41 30.4552 41 30.19V22.74C41.0004 21.955 40.6931 21.201 40.144 20.64L31.605 11.9C31.3252 11.615 30.9914 11.3886 30.6231 11.2341C30.2548 11.0796 29.8594 11 29.46 11H14C13.2043 11 12.4413 11.3161 11.8787 11.8787C11.3161 12.4413 11 13.2043 11 14V46C11 46.7956 11.3161 47.5587 11.8787 48.1213C12.4413 48.6839 13.2043 49 14 49H38C38.3772 49.0015 38.7511 48.9284 39.1 48.785C39.3453 48.6841 39.6207 48.6847 39.8655 48.7869C40.1103 48.889 40.3046 49.0842 40.4055 49.3295C40.5064 49.5748 40.5057 49.8502 40.4036 50.095C40.3015 50.3398 40.1063 50.5341 39.861 50.635C39.2706 50.8775 38.6382 51.0015 38 51Z" fill="white"/>
<path d="M41.59 22.0005H35C33.6744 21.999 32.4036 21.4717 31.4662 20.5343C30.5289 19.597 30.0016 18.3261 30 17.0005V10.3105C30 10.0453 30.1054 9.79098 30.2929 9.60344C30.4804 9.4159 30.7348 9.31055 31 9.31055C31.2652 9.31055 31.5196 9.4159 31.7071 9.60344C31.8946 9.79098 32 10.0453 32 10.3105V17.0005C32 17.7962 32.3161 18.5593 32.8787 19.1219C33.4413 19.6845 34.2044 20.0005 35 20.0005H41.59C41.8552 20.0005 42.1096 20.1059 42.2971 20.2934C42.4846 20.481 42.59 20.7353 42.59 21.0005C42.59 21.2658 42.4846 21.5201 42.2971 21.7076C42.1096 21.8952 41.8552 22.0005 41.59 22.0005ZM40 50.8545C39.6056 50.855 39.22 50.7384 38.892 50.5195L35.68 48.3775C33.6237 47.0103 31.9376 45.1555 30.7721 42.9785C29.6065 40.8015 28.9978 38.3699 29 35.9005V34.1885C29.002 33.7386 29.1549 33.3023 29.4343 32.9497C29.7137 32.597 30.1034 32.3483 30.541 32.2435C33.5109 31.4226 36.3362 30.1479 38.917 28.4645C39.2399 28.2565 39.6159 28.1459 40 28.1459C40.3841 28.1459 40.7601 28.2565 41.083 28.4645C43.6637 30.1481 46.489 31.4229 49.459 32.2435C49.8966 32.3483 50.2863 32.597 50.5657 32.9497C50.8451 33.3023 50.998 33.7386 51 34.1885V35.9005C51.0029 38.3706 50.3944 40.803 49.2289 42.9807C48.0633 45.1585 46.3769 47.0139 44.32 48.3815L41.109 50.5225C40.7803 50.7405 40.3944 50.856 40 50.8545ZM40 30.1445C37.2352 31.9482 34.2071 33.3118 31.024 34.1865L31 35.9005C30.9976 38.0412 31.5249 40.1492 32.535 42.0366C33.5451 43.924 35.0065 45.5321 36.789 46.7175L40 48.8545L43.211 46.7135C44.9929 45.5285 46.454 43.921 47.4641 42.0344C48.4741 40.1477 49.0018 38.0405 49 35.9005V34.1885C45.809 33.3142 42.773 31.9504 40 30.1455V30.1445Z" fill="white"/>
<path d="M39 42C38.7348 41.9999 38.4805 41.8945 38.293 41.707L36.293 39.707C36.1108 39.5184 36.01 39.2658 36.0123 39.0036C36.0146 38.7414 36.1198 38.4906 36.3052 38.3052C36.4906 38.1198 36.7414 38.0146 37.0036 38.0123C37.2658 38.01 37.5184 38.1108 37.707 38.293L39 39.586L42.293 36.293C42.4816 36.1108 42.7342 36.01 42.9964 36.0123C43.2586 36.0146 43.5094 36.1198 43.6948 36.3052C43.8802 36.4906 43.9854 36.7414 43.9877 37.0036C43.9899 37.2658 43.8891 37.5184 43.707 37.707L39.707 41.707C39.5195 41.8945 39.2652 41.9999 39 42ZM24 19H16C15.7348 19 15.4804 18.8946 15.2929 18.7071C15.1054 18.5196 15 18.2652 15 18C15 17.7348 15.1054 17.4804 15.2929 17.2929C15.4804 17.1054 15.7348 17 16 17H24C24.2652 17 24.5196 17.1054 24.7071 17.2929C24.8946 17.4804 25 17.7348 25 18C25 18.2652 24.8946 18.5196 24.7071 18.7071C24.5196 18.8946 24.2652 19 24 19ZM30 25H16C15.7348 25 15.4804 24.8946 15.2929 24.7071C15.1054 24.5196 15 24.2652 15 24C15 23.7348 15.1054 23.4804 15.2929 23.2929C15.4804 23.1054 15.7348 23 16 23H30C30.2652 23 30.5196 23.1054 30.7071 23.2929C30.8946 23.4804 31 23.7348 31 24C31 24.2652 30.8946 24.5196 30.7071 24.7071C30.5196 24.8946 30.2652 25 30 25ZM32 31H16C15.7348 31 15.4804 30.8946 15.2929 30.7071C15.1054 30.5196 15 30.2652 15 30C15 29.7348 15.1054 29.4804 15.2929 29.2929C15.4804 29.1054 15.7348 29 16 29H32C32.2652 29 32.5196 29.1054 32.7071 29.2929C32.8946 29.4804 33 29.7348 33 30C33 30.2652 32.8946 30.5196 32.7071 30.7071C32.5196 30.8946 32.2652 31 32 31ZM26 37H16C15.7348 37 15.4804 36.8946 15.2929 36.7071C15.1054 36.5196 15 36.2652 15 36C15 35.7348 15.1054 35.4804 15.2929 35.2929C15.4804 35.1053 15.7348 35 16 35H26C26.2652 35 26.5196 35.1053 26.7071 35.2929C26.8946 35.4804 27 35.7348 27 36C27 36.2652 26.8946 36.5196 26.7071 36.7071C26.5196 36.8946 26.2652 37 26 37ZM26 43H16C15.7348 43 15.4804 42.8946 15.2929 42.7071C15.1054 42.5196 15 42.2652 15 42C15 41.7348 15.1054 41.4804 15.2929 41.2929C15.4804 41.1053 15.7348 41 16 41H26C26.2652 41 26.5196 41.1053 26.7071 41.2929C26.8946 41.4804 27 41.7348 27 42C27 42.2652 26.8946 42.5196 26.7071 42.7071C26.5196 42.8946 26.2652 43 26 43Z" fill="white"/>
</svg>
