<svg width="111" height="111" viewBox="0 0 111 111" fill="none" xmlns="http://www.w3.org/2000/svg">
<path d="M97.0164 6.76562H13.9836C11.3202 6.76881 8.76677 7.82826 6.88345 9.71157C5.00013 11.5949 3.94068 14.1483 3.9375 16.8117V73.4377C3.94068 76.1009 5.00019 78.6541 6.88355 80.5372C8.76692 82.4202 11.3203 83.4793 13.9836 83.482H37.6078V91.2027H36.4391C34.2447 91.2077 32.142 92.0829 30.5921 93.6363C29.0423 95.1897 28.1719 97.2944 28.1719 99.4888V102.514C28.1719 102.97 28.353 103.407 28.6753 103.729C28.9976 104.051 29.4348 104.232 29.8906 104.232H81.1094C81.5652 104.232 82.0024 104.051 82.3247 103.729C82.647 103.407 82.8281 102.97 82.8281 102.514V99.4888C82.8281 97.2944 81.9577 95.1897 80.4079 93.6363C78.858 92.0829 76.7553 91.2077 74.5609 91.2027H73.3922V83.482H97.0164C99.6797 83.4793 102.233 82.4202 104.116 80.5372C106 78.6541 107.059 76.1009 107.062 73.4377V16.8117C107.059 14.1483 106 11.5949 104.117 9.71157C102.233 7.82826 99.6798 6.76881 97.0164 6.76562ZM13.9836 10.2031H97.0164C98.7684 10.2054 100.448 10.9024 101.687 12.1412C102.926 13.3801 103.623 15.0597 103.625 16.8117V66.6366H7.375V16.8117C7.37727 15.0597 8.07426 13.3801 9.31312 12.1412C10.552 10.9024 12.2316 10.2054 13.9836 10.2031ZM79.3906 99.4888V100.795H31.6094V99.4888C31.6085 98.2058 32.1164 96.9749 33.0218 96.0659C33.9272 95.157 35.1561 94.6442 36.4391 94.6402H74.5609C75.8439 94.6442 77.0728 95.157 77.9782 96.0659C78.8836 96.9749 79.3915 98.2058 79.3906 99.4888ZM69.9547 91.2027H41.0453V83.482H69.9547V91.2027ZM97.0164 80.0445H71.7405C71.7164 80.0445 71.6975 80.0308 71.6734 80.0308H39.3266C39.3025 80.0308 39.2836 80.0445 39.2595 80.0445H13.9836C12.2317 80.0427 10.5521 79.3461 9.31323 78.1075C8.07432 76.8689 7.37727 75.1895 7.375 73.4377V70.0741H103.625V73.4377C103.623 75.1895 102.926 76.8689 101.687 78.1075C100.448 79.3461 98.7683 80.0427 97.0164 80.0445Z" fill="white"/>
<path d="M46.657 73.1871H45.1256C44.6697 73.1871 44.2326 73.3682 43.9102 73.6905C43.5879 74.0128 43.4068 74.45 43.4068 74.9058C43.4068 75.3617 43.5879 75.7988 43.9102 76.1212C44.2326 76.4435 44.6697 76.6246 45.1256 76.6246H46.657C47.1128 76.6246 47.55 76.4435 47.8723 76.1212C48.1946 75.7988 48.3757 75.3617 48.3757 74.9058C48.3757 74.45 48.1946 74.0128 47.8723 73.6905C47.55 73.3682 47.1128 73.1871 46.657 73.1871ZM56.1874 73.1871H54.6543C54.1985 73.1871 53.7613 73.3682 53.439 73.6905C53.1166 74.0128 52.9356 74.45 52.9356 74.9058C52.9356 75.3617 53.1166 75.7988 53.439 76.1212C53.7613 76.4435 54.1985 76.6246 54.6543 76.6246H56.1874C56.6433 76.6246 57.0805 76.4435 57.4028 76.1212C57.7251 75.7988 57.9062 75.3617 57.9062 74.9058C57.9062 74.45 57.7251 74.0128 57.4028 73.6905C57.0805 73.3682 56.6433 73.1871 56.1874 73.1871ZM65.7265 73.1871H64.1951C63.7393 73.1871 63.3021 73.3682 62.9798 73.6905C62.6574 74.0128 62.4763 74.45 62.4763 74.9058C62.4763 75.3617 62.6574 75.7988 62.9798 76.1212C63.3021 76.4435 63.7393 76.6246 64.1951 76.6246H65.7265C66.1823 76.6246 66.6195 76.4435 66.9418 76.1212C67.2642 75.7988 67.4453 75.3617 67.4453 74.9058C67.4453 74.45 67.2642 74.0128 66.9418 73.6905C66.6195 73.3682 66.1823 73.1871 65.7265 73.1871ZM24.1053 58.0775C24.963 58.0775 25.8122 57.9086 26.6047 57.5804C27.3971 57.2522 28.1171 56.7711 28.7235 56.1646C29.33 55.5581 29.8111 54.8381 30.1393 54.0457C30.4676 53.2533 30.6365 52.404 30.6365 51.5463C30.6288 50.4683 30.351 49.4093 29.8287 48.4663L41.1587 37.6949C42.3681 38.4446 43.7926 38.7708 45.2078 38.6221C46.6229 38.4734 47.9484 37.8581 48.9756 36.8733L59.8587 43.5593C59.6751 44.1483 59.5773 44.7608 59.5682 45.3777C59.5682 47.1099 60.2563 48.7711 61.4812 49.996C62.706 51.2208 64.3673 51.9089 66.0995 51.9089C67.8317 51.9089 69.4929 51.2208 70.7178 49.996C71.9426 48.7711 72.6307 47.1099 72.6307 45.3777C72.6253 44.4012 72.3985 43.4386 71.9673 42.5624L83.2784 32.7432C84.6158 33.6632 86.2422 34.0652 87.8542 33.8743C89.4662 33.6834 90.9537 32.9125 92.0391 31.7055C93.1246 30.4985 93.7338 28.9379 93.7532 27.3147C93.7726 25.6916 93.2009 24.1168 92.1446 22.8842C91.0883 21.6516 89.6197 20.8454 88.0127 20.616C86.4057 20.3865 84.7702 20.7496 83.4112 21.6374C82.0522 22.5252 81.0626 23.877 80.627 25.4408C80.1915 27.0045 80.3397 28.6733 81.044 30.1358L69.7346 39.9533C68.5128 39.1288 67.0462 38.7461 65.5773 38.8683C64.1085 38.9905 62.7253 39.6103 61.6565 40.6254L50.7699 33.936C50.9515 33.3501 51.0482 32.7412 51.057 32.1279C51.057 30.3957 50.3689 28.7344 49.144 27.5096C47.9192 26.2847 46.2579 25.5966 44.5257 25.5966C42.7935 25.5966 41.1323 26.2847 39.9074 27.5096C38.6826 28.7344 37.9945 30.3957 37.9945 32.1279C38.0011 33.2027 38.2771 34.2586 38.7971 35.1993L27.4534 45.9741C26.4441 45.3547 25.2843 45.0241 24.1001 45.0185C22.3679 45.0185 20.7067 45.7066 19.4818 46.9314C18.257 48.1563 17.5688 49.8175 17.5688 51.5497C17.5688 53.2819 18.257 54.9432 19.4818 56.168C20.7067 57.3929 22.3679 58.081 24.1001 58.081L24.1053 58.0775ZM86.8946 24.2336C87.5065 24.2336 88.1047 24.4151 88.6134 24.755C89.1222 25.095 89.5187 25.5781 89.7529 26.1435C89.987 26.7088 90.0483 27.3308 89.9289 27.9309C89.8096 28.5311 89.5149 29.0823 89.0822 29.515C88.6496 29.9477 88.0983 30.2423 87.4982 30.3617C86.8981 30.4811 86.276 30.4198 85.7107 30.1856C85.1454 29.9515 84.6622 29.5549 84.3223 29.0462C83.9823 28.5374 83.8009 27.9393 83.8009 27.3274C83.8009 26.5069 84.1268 25.72 84.707 25.1398C85.2872 24.5596 86.0741 24.2336 86.8946 24.2336ZM66.0978 42.2925C66.7096 42.2925 67.3078 42.474 67.8166 42.8139C68.3253 43.1539 68.7218 43.6371 68.956 44.2024C69.1902 44.7677 69.2514 45.3897 69.1321 45.9899C69.0127 46.59 68.718 47.1412 68.2854 47.5739C67.8527 48.0066 67.3014 48.3012 66.7013 48.4206C66.1012 48.54 65.4791 48.4787 64.9138 48.2445C64.3485 48.0104 63.8653 47.6138 63.5254 47.1051C63.1854 46.5963 63.004 45.9982 63.004 45.3863C63.004 44.5661 63.3297 43.7794 63.9095 43.1993C64.4894 42.6191 65.2775 42.293 66.0978 42.2925ZM44.5188 29.0427C45.3394 29.0427 46.1263 29.3686 46.7065 29.9488C47.2867 30.529 47.6126 31.3159 47.6126 32.1364C47.61 32.6967 47.4537 33.2454 47.1606 33.7229L47.1451 33.74C47.1451 33.7521 47.1451 33.7641 47.1313 33.7761C46.8459 34.2335 46.4459 34.6084 45.9709 34.8635C45.496 35.1187 44.9626 35.2453 44.4236 35.2308C43.8847 35.2163 43.3589 35.0612 42.8983 34.7809C42.4378 34.5006 42.0585 34.1048 41.798 33.6327C41.5376 33.1607 41.405 32.6288 41.4134 32.0897C41.4219 31.5506 41.5711 31.0231 41.8462 30.5594C42.1213 30.0958 42.5128 29.712 42.9819 29.4463C43.451 29.1806 43.9814 29.042 44.5206 29.0444L44.5188 29.0427ZM24.1053 48.4646C24.5232 48.464 24.9368 48.5486 25.321 48.7132C25.7052 48.8778 26.0517 49.1189 26.3396 49.4219C26.8284 49.9369 27.1245 50.6048 27.1778 51.3128C27.2312 52.0208 27.0386 52.7255 26.6326 53.3079C26.2265 53.8904 25.6319 54.3149 24.9492 54.5097C24.2664 54.7045 23.5373 54.6577 22.8851 54.3772C22.2328 54.0968 21.6973 53.5998 21.3691 52.9702C21.0408 52.3407 20.9398 51.6171 21.0833 50.9217C21.2267 50.2264 21.6057 49.6018 22.1562 49.1535C22.7068 48.7052 23.3952 48.4606 24.1053 48.4611V48.4646Z" fill="white"/>
</svg>
