<svg width="60" height="60" viewBox="0 0 60 60" fill="none" xmlns="http://www.w3.org/2000/svg">
<path d="M32.9903 27.6079C32.9903 25.7757 31.5043 24.2852 29.6777 24.2852C27.851 24.2852 26.365 25.7757 26.365 27.6079C26.365 29.1488 27.4162 30.4478 28.8369 30.8221L28.8536 34.3429C28.8559 34.8077 29.2334 35.1712 29.6978 35.1712H29.7019C30.1681 35.1712 30.5442 34.8058 30.5421 34.3396L30.5253 30.8201C31.9427 30.4434 32.9903 29.1463 32.9903 27.6079ZM29.6778 29.2423C28.7822 29.2423 28.0535 28.5091 28.0535 27.6079C28.0535 26.7067 28.7821 25.9736 29.6778 25.9736C30.5733 25.9736 31.302 26.7067 31.302 27.6079C31.302 28.5091 30.5733 29.2423 29.6778 29.2423Z" fill="white" stroke="white"/>
<path d="M51.218 26.6237C49.7633 26.6237 48.5353 27.5729 48.1645 28.9447H42.482C42.8154 27.3618 43.0578 25.7789 43.2463 24.0905H47.3694C47.8357 24.0905 48.1608 23.7453 48.1608 23.2791V15.2167C49.5327 14.8481 50.5165 13.6201 50.5165 12.1652C50.5165 10.4199 49.1082 9 47.3608 9C45.6135 9 44.1722 10.4199 44.1722 12.1652C44.1722 13.6168 45.206 14.8425 46.4724 15.2142V22.402H43.4208C43.5435 21.1357 43.6414 19.7717 43.7322 18.4272C43.7686 17.8883 43.2831 17.4775 42.7601 17.5587C41.7576 17.7505 40.7439 17.8949 39.7212 17.8949C36.3243 17.8947 33.203 16.3544 30.2298 13.233C29.807 12.8729 29.3912 12.8806 28.9825 13.2561C25.8251 16.9603 21.4439 18.5001 16.6275 17.5584C16.1026 17.4557 15.5866 17.8882 15.6231 18.4274C15.7157 19.7933 15.8131 21.1357 15.932 22.402H13.1256V15.2142C14.392 14.8425 15.4368 13.6169 15.4368 12.1652C15.4368 10.4199 14.0108 9 12.2635 9C10.5161 9 9.10123 10.4199 9.10123 12.1652C9.10123 13.6202 10.0653 14.8481 11.4372 15.2167V23.2789C11.4372 23.7452 11.7972 24.0903 12.2635 24.0903H16.1028C16.2893 25.7788 16.5273 27.3617 16.8556 28.9446H11.2225C10.8516 27.5728 9.62369 26.6236 8.16899 26.6236C6.42156 26.6237 5 28.0437 5 29.7891C5 31.5343 6.42156 32.9541 8.16889 32.9541C9.62359 32.9541 10.8515 32.005 11.2224 30.6332H17.2582C17.7103 32.3253 18.3494 33.8948 19.0613 35.4874H12.2635C11.7972 35.4874 11.4372 35.8327 11.4372 36.2989V44.7845C10.0653 45.1546 9.10365 46.3815 9.10365 47.8348C9.10365 49.5801 10.5207 51 12.268 51C14.0154 51 15.4436 49.5801 15.4436 47.8348C15.4436 46.3815 14.4975 45.1546 13.1256 44.7845V37.1759H20.0278C22.1898 40.5528 25.2806 42.9311 29.3945 44.4653C29.5888 44.5248 29.7964 44.5253 29.9911 44.4668C34.0668 42.9074 37.1359 40.4472 39.291 37.1759H46.4724V44.7845C45.206 45.1546 44.1741 46.3815 44.1741 47.8348C44.1741 49.5801 45.6088 51 47.3563 51C49.1037 51 50.5053 49.5801 50.5053 47.8348C50.5053 46.3815 49.5327 45.1546 48.1608 44.7845V36.2991C48.1608 35.8328 47.8357 35.4875 47.3694 35.4875H40.263C40.9887 33.8997 41.6261 32.3233 42.0772 30.6333H48.1644C48.5353 32.0051 49.7632 32.9542 51.2179 32.9542C52.9654 32.9541 54.3869 31.5343 54.3869 29.7889C54.3869 28.0436 52.9654 26.6237 51.218 26.6237ZM45.8936 12.1652C45.8936 11.3508 46.5577 10.6884 47.374 10.6884C48.1902 10.6884 48.8544 11.3508 48.8544 12.1652C48.8544 12.9796 48.1902 13.6419 47.374 13.6419C46.5577 13.6419 45.8936 12.9796 45.8936 12.1652ZM10.7785 12.1652C10.7785 11.3508 11.4427 10.6884 12.2589 10.6884C13.0752 10.6884 13.7394 11.3508 13.7394 12.1652C13.7394 12.9796 13.0752 13.6419 12.2589 13.6419C11.4427 13.6419 10.7785 12.9796 10.7785 12.1652ZM8.16889 31.2657C7.35263 31.2657 6.68844 30.6033 6.68844 29.7891C6.68844 28.9747 7.35263 28.3123 8.16889 28.3123C8.98515 28.3123 9.64934 28.9747 9.64934 29.7891C9.64944 30.6033 8.98525 31.2657 8.16889 31.2657ZM13.7439 47.8348C13.7439 48.6492 13.0797 49.3116 12.2635 49.3116C11.4472 49.3116 10.7831 48.6492 10.7831 47.8348C10.7831 47.0205 11.4472 46.3581 12.2635 46.3581C13.0797 46.3581 13.7439 47.0205 13.7439 47.8348ZM48.8499 47.8348C48.8499 48.6492 48.1857 49.3116 47.3694 49.3116C46.5532 49.3116 45.889 48.6492 45.889 47.8348C45.889 47.0205 46.5532 46.3581 47.3694 46.3581C48.1857 46.3581 48.8499 47.0205 48.8499 47.8348ZM17.3822 19.39C21.9373 19.9771 26.5913 18.5581 29.6576 15.0487C32.9761 18.2663 37.3039 20.1624 41.9738 19.3836C41.1846 30.2328 39.5583 38.8193 29.6857 42.753C19.8071 38.9118 18.1769 30.2946 17.3822 19.39ZM51.218 31.2657C50.4018 31.2657 49.7376 30.6033 49.7376 29.7891C49.7376 28.9747 50.4018 28.3123 51.218 28.3123C52.0343 28.3123 52.6985 28.9747 52.6985 29.7891C52.6985 30.6033 52.0343 31.2657 51.218 31.2657Z" fill="white" stroke="white"/>
</svg>
