<svg width="28" height="28" viewBox="0 0 28 28" fill="none" xmlns="http://www.w3.org/2000/svg">
<g clip-path="url(#clip0_2007_20103)">
<path fill-rule="evenodd" clip-rule="evenodd" d="M16.1809 2.8006L21.9199 12.7413L27.6589 22.6807C27.8824 23.0628 28.0002 23.4974 28.0002 23.94C28.0002 24.3825 27.8824 24.8172 27.6589 25.1992C27.4398 25.5838 27.1223 25.9032 26.739 26.1246C26.3556 26.3459 25.9203 26.4613 25.4776 26.4587H2.52161C2.07907 26.4611 1.64386 26.3457 1.26065 26.1244C0.877432 25.9031 0.560019 25.5837 0.340987 25.1992C0.117452 24.8172 -0.000366211 24.3826 -0.000366211 23.94C-0.000366211 23.4974 0.117452 23.0627 0.340987 22.6807L6.07999 12.7407L11.819 2.8006C12.0381 2.41596 12.3556 2.09657 12.7389 1.87521C13.1223 1.65386 13.5576 1.53853 14.0003 1.54106C14.4428 1.53858 14.8781 1.65394 15.2613 1.87529C15.6445 2.09664 15.9619 2.41601 16.1809 2.8006ZM14.0003 20.0919C14.1513 20.0919 14.3009 20.1216 14.4405 20.1795C14.5801 20.2373 14.7069 20.322 14.8137 20.4288C14.9205 20.5357 15.0053 20.6625 15.0631 20.802C15.1209 20.9416 15.1507 21.0912 15.1507 21.2423C15.1507 21.3933 15.1209 21.5429 15.0631 21.6825C15.0053 21.8221 14.9205 21.9489 14.8137 22.0557C14.7069 22.1625 14.5801 22.2473 14.4405 22.3051C14.3009 22.3629 14.1513 22.3927 14.0003 22.3927C13.6952 22.3927 13.4026 22.2715 13.1868 22.0557C12.9711 21.84 12.8499 21.5474 12.8499 21.2423C12.8499 20.9372 12.9711 20.6446 13.1868 20.4288C13.4026 20.2131 13.6952 20.0919 14.0003 20.0919ZM14.0003 7.3847C14.7734 7.3847 15.4749 8.02157 15.4323 8.8167L14.9207 18.4299H13.2336L12.5683 8.8167C12.5146 8.03126 13.2129 7.3847 14.0009 7.3847H14.0003Z" fill="white"/>
</g>
<defs>
<clipPath id="clip0_2007_20103">
<rect width="28" height="28" fill="white"/>
</clipPath>
</defs>
</svg>
