<svg width="60" height="60" viewBox="0 0 60 60" fill="none" xmlns="http://www.w3.org/2000/svg">
<path d="M11.5996 13.1329C12.023 13.1329 12.3663 12.7896 12.3663 12.3662C12.3663 11.9428 12.023 11.5996 11.5996 11.5996C11.1762 11.5996 10.833 11.9428 10.833 12.3662C10.833 12.7896 11.1762 13.1329 11.5996 13.1329Z" fill="white" stroke="white" stroke-width="0.5"/>
<path d="M14.666 13.1329C15.0894 13.1329 15.4327 12.7896 15.4327 12.3662C15.4327 11.9428 15.0894 11.5996 14.666 11.5996C14.2426 11.5996 13.8994 11.9428 13.8994 12.3662C13.8994 12.7896 14.2426 13.1329 14.666 13.1329Z" fill="white" stroke="white" stroke-width="0.5"/>
<path d="M17.7327 13.1329C18.1561 13.1329 18.4993 12.7896 18.4993 12.3662C18.4993 11.9428 18.1561 11.5996 17.7327 11.5996C17.3093 11.5996 16.9661 11.9428 16.9661 12.3662C16.9661 12.7896 17.3093 13.1329 17.7327 13.1329Z" fill="white" stroke="white" stroke-width="0.5"/>
<path d="M34.5983 13.9005C34.8017 13.9005 34.9966 13.8197 35.1404 13.6759C35.2842 13.5322 35.365 13.3372 35.365 13.1339V11.6006C35.365 11.3973 35.2842 11.2023 35.1404 11.0585C34.9966 10.9148 34.8017 10.834 34.5983 10.834C34.395 10.834 34.2 10.9148 34.0562 11.0585C33.9125 11.2023 33.8317 11.3973 33.8317 11.6006V13.1339C33.8317 13.3372 33.9125 13.5322 34.0562 13.6759C34.2 13.8197 34.395 13.9005 34.5983 13.9005ZM31.5318 13.9005C31.7352 13.9005 31.9302 13.8197 32.0739 13.6759C32.2177 13.5322 32.2985 13.3372 32.2985 13.1339V11.6006C32.2985 11.3973 32.2177 11.2023 32.0739 11.0585C31.9302 10.9148 31.7352 10.834 31.5318 10.834C31.3285 10.834 31.1335 10.9148 30.9898 11.0585C30.846 11.2023 30.7652 11.3973 30.7652 11.6006V13.1339C30.7652 13.3372 30.846 13.5322 30.9898 13.6759C31.1335 13.8197 31.3285 13.9005 31.5318 13.9005ZM28.4654 13.9005C28.6687 13.9005 28.8637 13.8197 29.0074 13.6759C29.1512 13.5322 29.232 13.3372 29.232 13.1339V11.6006C29.232 11.3973 29.1512 11.2023 29.0074 11.0585C28.8637 10.9148 28.6687 10.834 28.4654 10.834C28.262 10.834 28.067 10.9148 27.9233 11.0585C27.7795 11.2023 27.6987 11.3973 27.6987 11.6006V13.1339C27.6987 13.3372 27.7795 13.5322 27.9233 13.6759C28.067 13.8197 28.262 13.9005 28.4654 13.9005Z" fill="white" stroke="white" stroke-width="0.5"/>
<path d="M11.5996 26.1661C12.023 26.1661 12.3663 25.8228 12.3663 25.3994C12.3663 24.976 12.023 24.6328 11.5996 24.6328C11.1762 24.6328 10.833 24.976 10.833 25.3994C10.833 25.8228 11.1762 26.1661 11.5996 26.1661Z" fill="white" stroke="white" stroke-width="0.5"/>
<path d="M14.666 26.1661C15.0894 26.1661 15.4327 25.8228 15.4327 25.3994C15.4327 24.976 15.0894 24.6328 14.666 24.6328C14.2426 24.6328 13.8994 24.976 13.8994 25.3994C13.8994 25.8228 14.2426 26.1661 14.666 26.1661Z" fill="white" stroke="white" stroke-width="0.5"/>
<path d="M17.7327 26.1661C18.1561 26.1661 18.4993 25.8228 18.4993 25.3994C18.4993 24.976 18.1561 24.6328 17.7327 24.6328C17.3093 24.6328 16.9661 24.976 16.9661 25.3994C16.9661 25.8228 17.3093 26.1661 17.7327 26.1661Z" fill="white" stroke="white" stroke-width="0.5"/>
<path d="M34.5983 26.9317C34.8017 26.9317 34.9966 26.851 35.1404 26.7072C35.2842 26.5634 35.365 26.3684 35.365 26.1651V24.6319C35.365 24.4285 35.2842 24.2335 35.1404 24.0898C34.9966 23.946 34.8017 23.8652 34.5983 23.8652C34.395 23.8652 34.2 23.946 34.0562 24.0898C33.9125 24.2335 33.8317 24.4285 33.8317 24.6319V26.1651C33.8317 26.3684 33.9125 26.5634 34.0562 26.7072C34.2 26.851 34.395 26.9317 34.5983 26.9317ZM31.5318 26.9317C31.7352 26.9317 31.9302 26.851 32.0739 26.7072C32.2177 26.5634 32.2985 26.3684 32.2985 26.1651V24.6319C32.2985 24.4285 32.2177 24.2335 32.0739 24.0898C31.9302 23.946 31.7352 23.8652 31.5318 23.8652C31.3285 23.8652 31.1335 23.946 30.9898 24.0898C30.846 24.2335 30.7652 24.4285 30.7652 24.6319V26.1651C30.7652 26.3684 30.846 26.5634 30.9898 26.7072C31.1335 26.851 31.3285 26.9317 31.5318 26.9317ZM28.4654 26.9317C28.6687 26.9317 28.8637 26.851 29.0074 26.7072C29.1512 26.5634 29.232 26.3684 29.232 26.1651V24.6319C29.232 24.4285 29.1512 24.2335 29.0074 24.0898C28.8637 23.946 28.6687 23.8652 28.4654 23.8652C28.262 23.8652 28.067 23.946 27.9233 24.0898C27.7795 24.2335 27.6987 24.4285 27.6987 24.6319V26.1651C27.6987 26.3684 27.7795 26.5634 27.9233 26.7072C28.067 26.851 28.262 26.9317 28.4654 26.9317Z" fill="white" stroke="white" stroke-width="0.5"/>
<path d="M11.5996 39.1973C12.023 39.1973 12.3663 38.8541 12.3663 38.4307C12.3663 38.0073 12.023 37.6641 11.5996 37.6641C11.1762 37.6641 10.833 38.0073 10.833 38.4307C10.833 38.8541 11.1762 39.1973 11.5996 39.1973Z" fill="white" stroke="white" stroke-width="0.5"/>
<path d="M14.666 39.1973C15.0894 39.1973 15.4327 38.8541 15.4327 38.4307C15.4327 38.0073 15.0894 37.6641 14.666 37.6641C14.2426 37.6641 13.8994 38.0073 13.8994 38.4307C13.8994 38.8541 14.2426 39.1973 14.666 39.1973Z" fill="white" stroke="white" stroke-width="0.5"/>
<path d="M17.7327 39.1973C18.1561 39.1973 18.4993 38.8541 18.4993 38.4307C18.4993 38.0073 18.1561 37.6641 17.7327 37.6641C17.3093 37.6641 16.9661 38.0073 16.9661 38.4307C16.9661 38.8541 17.3093 39.1973 17.7327 39.1973Z" fill="white" stroke="white" stroke-width="0.5"/>
<path d="M51.507 28.227C51.238 28.0592 50.9374 27.9484 50.6239 27.9013C50.3103 27.8542 49.9904 27.8719 49.684 27.9533C47.6793 28.49 43.9282 29.0948 41.3278 27.1384C41.0264 26.9142 40.6742 26.768 40.3027 26.7129C39.9311 26.6577 39.5516 26.6954 39.1981 26.8226V22.3324C39.1962 21.8585 39.0478 21.3967 38.7734 21.0103C38.4989 20.6238 38.1118 20.3316 37.6649 20.1736V17.5917C38.1118 17.4337 38.4989 17.1415 38.7734 16.755C39.0478 16.3686 39.1962 15.9068 39.1981 15.4328V9.29987C39.1981 8.6899 38.9558 8.10492 38.5245 7.67362C38.0932 7.24231 37.5082 7 36.8983 7H9.29987C8.6899 7 8.10492 7.24231 7.67362 7.67362C7.24231 8.10492 7 8.6899 7 9.29987V15.4328C7.00196 15.9068 7.15032 16.3686 7.42478 16.755C7.69923 17.1415 8.08637 17.4337 8.53324 17.5917V20.1736C8.08637 20.3316 7.69923 20.6238 7.42478 21.0103C7.15032 21.3967 7.00196 21.8585 7 22.3324V28.4654C7.00196 28.9394 7.15032 29.4012 7.42478 29.7876C7.69923 30.174 8.08637 30.4662 8.53324 30.6242V33.2062C8.08637 33.3642 7.69923 33.6564 7.42478 34.0428C7.15032 34.4293 7.00196 34.8911 7 35.365L7 41.498C7 42.108 7.24231 42.6929 7.67362 43.1243C8.10492 43.5556 8.6899 43.7979 9.29987 43.7979H29.1101C31.3613 48.072 35.1416 51.3398 39.6964 52.949C39.8695 53.0137 40.06 53.0137 40.2331 52.949C43.8725 51.6781 47.0408 49.3333 49.3197 46.2241C51.5987 43.1149 52.881 39.3876 52.9973 35.5344C53.0226 33.5907 52.8686 31.6489 52.5374 29.7334C52.478 29.4251 52.3559 29.1323 52.1786 28.8732C52.0014 28.6141 51.7728 28.3941 51.507 28.227ZM10.0665 17.7327H36.1316V20.0326H10.0665V17.7327ZM8.53324 9.29987C8.53324 9.09655 8.61401 8.90155 8.75778 8.75778C8.90155 8.61401 9.09655 8.53324 9.29987 8.53324H36.8983C37.1016 8.53324 37.2966 8.61401 37.4403 8.75778C37.5841 8.90155 37.6649 9.09655 37.6649 9.29987V15.4328C37.6649 15.6362 37.5841 15.8312 37.4403 15.9749C37.2966 16.1187 37.1016 16.1995 36.8983 16.1995H9.29987C9.09655 16.1995 8.90155 16.1187 8.75778 15.9749C8.61401 15.8312 8.53324 15.6362 8.53324 15.4328V9.29987ZM8.53324 22.3324C8.53324 22.1291 8.61401 21.9341 8.75778 21.7904C8.90155 21.6466 9.09655 21.5658 9.29987 21.5658H36.8983C37.1016 21.5658 37.2966 21.6466 37.4403 21.7904C37.5841 21.9341 37.6649 22.1291 37.6649 22.3324V27.7111C35.1626 28.9538 32.021 28.4279 30.2463 27.9533C29.9396 27.8715 29.6194 27.8536 29.3055 27.9008C28.9916 27.948 28.6908 28.0593 28.4217 28.2278C28.0412 28.4699 27.7411 28.8194 27.5593 29.232H9.29987C9.09655 29.232 8.90155 29.1513 8.75778 29.0075C8.61401 28.8637 8.53324 28.6687 8.53324 28.4654V22.3324ZM27.0088 33.0652H10.0665V30.7653H27.2289C27.1252 31.5287 27.0518 32.2959 27.0088 33.0652ZM9.29987 42.2646C9.09655 42.2646 8.90155 42.1839 8.75778 42.0401C8.61401 41.8963 8.53324 41.7013 8.53324 41.498V35.365C8.53324 35.1617 8.61401 34.9667 8.75778 34.8229C8.90155 34.6792 9.09655 34.5984 9.29987 34.5984H26.9429C26.936 34.8997 26.9322 35.2117 26.9322 35.5344C26.9786 37.8501 27.4708 40.1352 28.3819 42.2646H9.29987ZM39.9648 51.4104C36.6815 50.2154 33.8315 48.0645 31.7819 45.2348C29.7323 42.4052 28.5772 39.0266 28.4654 35.5344C28.4413 33.685 28.5876 31.8373 28.9024 30.0148C28.9211 29.9139 28.9607 29.8181 29.0185 29.7333C29.0763 29.6486 29.1511 29.5768 29.2382 29.5226C29.3602 29.4454 29.5016 29.4045 29.646 29.4045C29.7152 29.4047 29.784 29.414 29.8507 29.4321C32.1245 30.0401 36.4046 30.7086 39.5239 28.3589C39.6512 28.2637 39.8058 28.2122 39.9648 28.2122C40.1237 28.2122 40.2783 28.2637 40.4056 28.3589C43.5257 30.7063 47.8065 30.037 50.0788 29.4321C50.1817 29.4037 50.2894 29.397 50.395 29.4126C50.5006 29.4282 50.6018 29.4656 50.6921 29.5226C50.7794 29.5767 50.8544 29.6484 50.9123 29.7332C50.9703 29.8179 51.0099 29.9138 51.0286 30.0148C51.3431 31.8374 51.4894 33.6851 51.4656 35.5344C51.3535 39.0267 50.1981 42.4054 48.1482 45.235C46.0984 48.0646 43.2481 50.2155 39.9648 51.4104Z" fill="white" stroke="white" stroke-width="0.5"/>
<path d="M45.5084 33.34L38.3788 41.8948L35.9056 39.4217C35.7611 39.282 35.5674 39.2047 35.3664 39.2065C35.1654 39.2082 34.9731 39.2889 34.831 39.431C34.6888 39.5731 34.6082 39.7654 34.6065 39.9664C34.6047 40.1674 34.682 40.3611 34.8216 40.5057L37.8881 43.5721C37.9595 43.6435 38.0442 43.7001 38.1375 43.7387C38.2308 43.7772 38.3307 43.7969 38.4317 43.7968H38.4662C38.5726 43.7919 38.6769 43.765 38.7723 43.7176C38.8677 43.6702 38.9522 43.6034 39.0204 43.5216L46.6867 34.3221C46.8168 34.1657 46.8795 33.9641 46.8609 33.7615C46.8424 33.5589 46.7441 33.372 46.5878 33.2419C46.4314 33.1118 46.2298 33.0491 46.0272 33.0676C45.8246 33.0862 45.6377 33.1845 45.5076 33.3408L45.5084 33.34Z" fill="white" stroke="white" stroke-width="0.5"/>
</svg>
