<svg width="49" height="80" viewBox="0 0 49 80" fill="none" xmlns="http://www.w3.org/2000/svg">
<path d="M8.50078 28.2266C-0.691406 28.2266 -9.35547 26.8859 -15.8961 24.4531C-22.9227 21.8375 -26.793 18.1656 -26.793 14.1141C-26.793 10.0625 -22.9227 6.38906 -15.8961 3.77344C-9.35547 1.34063 -0.691406 0 8.50078 0C17.693 0 26.3555 1.34063 32.8945 3.77344C39.9258 6.38906 43.7914 10.0609 43.7914 14.1141C43.7914 18.1672 39.9258 21.8375 32.8945 24.4531C26.3555 26.8859 17.6914 28.2266 8.50078 28.2266ZM8.50078 3.125C-10.457 3.125 -23.668 8.91563 -23.668 14.1141C-23.668 19.3125 -10.457 25.1016 8.50078 25.1016C27.4586 25.1016 40.668 19.3109 40.668 14.1141C40.668 8.91719 27.457 3.125 8.50078 3.125ZM8.50078 45.4844C-0.691406 45.4844 -9.35547 44.1438 -15.8961 41.7109C-22.9227 39.0953 -26.793 35.4234 -26.793 31.3703C-26.793 30.9559 -26.6283 30.5585 -26.3353 30.2655C-26.0423 29.9724 -25.6449 29.8078 -25.2305 29.8078C-24.8161 29.8078 -24.4186 29.9724 -24.1256 30.2655C-23.8326 30.5585 -23.668 30.9559 -23.668 31.3703C-23.668 36.5625 -10.457 42.3594 8.50078 42.3594C27.4586 42.3594 40.668 36.5625 40.668 31.3703C40.668 30.9559 40.8326 30.5585 41.1256 30.2655C41.4186 29.9724 41.8161 29.8078 42.2305 29.8078C42.6449 29.8078 43.0423 29.9724 43.3353 30.2655C43.6283 30.5585 43.793 30.9559 43.793 31.3703C43.793 35.4234 39.9242 39.0953 32.8961 41.7109C26.3555 44.1438 17.6914 45.4844 8.50078 45.4844ZM8.50078 62.7422C-0.691406 62.7422 -9.35547 61.4016 -15.8961 58.9688C-22.9227 56.3531 -26.793 52.6813 -26.793 48.6281C-26.793 48.2137 -26.6283 47.8163 -26.3353 47.5233C-26.0423 47.2302 -25.6449 47.0656 -25.2305 47.0656C-24.8161 47.0656 -24.4186 47.2302 -24.1256 47.5233C-23.8326 47.8163 -23.668 48.2137 -23.668 48.6281C-23.668 53.8266 -10.457 59.6172 8.50078 59.6172C27.4586 59.6172 40.668 53.8266 40.668 48.6281C40.668 48.2137 40.8326 47.8163 41.1256 47.5233C41.4186 47.2302 41.8161 47.0656 42.2305 47.0656C42.6449 47.0656 43.0423 47.2302 43.3353 47.5233C43.6283 47.8163 43.793 48.2137 43.793 48.6281C43.793 52.6813 39.9242 56.3531 32.8961 58.9688C26.3555 61.4062 17.6914 62.7422 8.50078 62.7422Z" fill="white" fill-opacity="0.2"/>
<path d="M8.50078 79.9992C-0.691406 79.9992 -9.35547 78.6586 -15.8961 76.2242C-22.9227 73.6102 -26.793 69.9383 -26.793 65.8852V14.1133C-26.793 13.6989 -26.6283 13.3015 -26.3353 13.0084C-26.0423 12.7154 -25.6449 12.5508 -25.2305 12.5508C-24.8161 12.5508 -24.4186 12.7154 -24.1256 13.0084C-23.8326 13.3015 -23.668 13.6989 -23.668 14.1133V65.8852C-23.668 71.0836 -10.457 76.8742 8.50078 76.8742C27.4586 76.8742 40.668 71.0836 40.668 65.8852V14.1133C40.668 13.6989 40.8326 13.3015 41.1256 13.0084C41.4186 12.7154 41.8161 12.5508 42.2305 12.5508C42.6449 12.5508 43.0423 12.7154 43.3353 13.0084C43.6283 13.3015 43.793 13.6989 43.793 14.1133V65.8852C43.793 69.9383 39.9242 73.6102 32.8961 76.2242C26.3555 78.6586 17.6914 79.9992 8.50078 79.9992Z" fill="white" fill-opacity="0.2"/>
<path d="M34.3866 32.9344C34.2842 32.9341 34.1822 32.9236 34.0819 32.9031C33.9819 32.8829 33.884 32.8531 33.7897 32.8141C33.6951 32.7752 33.6045 32.7271 33.5194 32.6703C33.348 32.5572 33.2013 32.4105 33.0882 32.2391C33.032 32.1536 32.9839 32.0631 32.9444 31.9687C32.9053 31.8745 32.8755 31.7766 32.8553 31.6766C32.8137 31.475 32.8137 31.2671 32.8553 31.0656C32.8946 30.8642 32.9735 30.6726 33.0875 30.502C33.2015 30.3314 33.3483 30.1852 33.5194 30.0719C33.6045 30.0151 33.6951 29.9669 33.7897 29.9281C33.884 29.8891 33.9819 29.8592 34.0819 29.8391C34.2835 29.7984 34.4912 29.7984 34.6928 29.8391C34.9949 29.9002 35.2725 30.0485 35.4913 30.2656C35.5635 30.3392 35.6289 30.4192 35.6866 30.5047C35.8001 30.6746 35.8792 30.8652 35.9194 31.0656C35.959 31.2673 35.959 31.4748 35.9194 31.6766C35.8992 31.7766 35.8694 31.8745 35.8303 31.9687C35.7909 32.0631 35.7427 32.1536 35.6866 32.2391C35.6293 32.3243 35.5639 32.4039 35.4913 32.4766C35.419 32.5491 35.3394 32.614 35.2538 32.6703C35.169 32.7267 35.079 32.7749 34.985 32.8141C34.8907 32.8529 34.7928 32.8827 34.6928 32.9031C34.592 32.9236 34.4895 32.9341 34.3866 32.9344ZM28.1116 34.5031C28.0093 34.5029 27.9072 34.4924 27.8069 34.4719C27.7069 34.4517 27.609 34.4219 27.5147 34.3828C27.4201 34.344 27.3295 34.2958 27.2444 34.2391C27.1588 34.1828 27.0792 34.1179 27.0069 34.0453C26.8611 33.9004 26.7459 33.7277 26.6678 33.5375C26.6288 33.4432 26.599 33.3454 26.5788 33.2453C26.5583 33.1424 26.5483 33.0377 26.5491 32.9328C26.5485 32.8279 26.5584 32.7232 26.5788 32.6203C26.5994 32.5204 26.6292 32.4226 26.6678 32.3281C26.7466 32.1388 26.8618 31.9667 27.0069 31.8219C27.0792 31.7488 27.1588 31.6834 27.2444 31.6266C27.3295 31.5698 27.4201 31.5216 27.5147 31.4828C27.609 31.4437 27.7069 31.4139 27.8069 31.3937C28.008 31.3531 28.2152 31.3531 28.4163 31.3937C28.5163 31.4139 28.6142 31.4437 28.7085 31.4828C28.8031 31.5216 28.8937 31.5698 28.9788 31.6266C29.1498 31.7408 29.2964 31.8879 29.41 32.0594C29.4665 32.1441 29.5146 32.2341 29.5538 32.3281C29.5931 32.4223 29.623 32.5202 29.6428 32.6203C29.6637 32.7232 29.6742 32.8279 29.6741 32.9328C29.6744 33.0378 29.6639 33.1425 29.6428 33.2453C29.6234 33.3455 29.5936 33.4435 29.5538 33.5375C29.5146 33.632 29.4665 33.7225 29.41 33.8078C29.2969 33.9792 29.1502 34.1259 28.9788 34.2391C28.8937 34.2958 28.8031 34.344 28.7085 34.3828C28.6142 34.4219 28.5163 34.4517 28.4163 34.4719C28.316 34.4924 28.2139 34.5029 28.1116 34.5031ZM21.8366 36.0719C21.7316 36.072 21.627 36.0615 21.5241 36.0406C21.4241 36.0202 21.3263 35.9904 21.2319 35.9516C20.9454 35.835 20.7009 35.6345 20.5303 35.3766C20.4736 35.2914 20.4254 35.2009 20.3866 35.1062C20.3475 35.012 20.3177 34.9141 20.2975 34.8141C20.2775 34.7137 20.2676 34.6117 20.2678 34.5094C20.2672 34.4045 20.2772 34.2998 20.2975 34.1969C20.3208 34.0972 20.3532 33.9999 20.3944 33.9062C20.4731 33.7173 20.5878 33.5454 20.7319 33.4C20.8055 33.3277 20.8855 33.2624 20.971 33.2047C21.0557 33.1482 21.1457 33.1001 21.2397 33.0609C21.3341 33.0221 21.4319 32.9923 21.5319 32.9719C21.7335 32.9313 21.9412 32.9313 22.1428 32.9719C22.2429 32.992 22.3407 33.0219 22.435 33.0609C22.5294 33.1004 22.6199 33.1485 22.7054 33.2047C22.7903 33.2624 22.8698 33.3278 22.9428 33.4C23.0154 33.4723 23.0803 33.5519 23.1366 33.6375C23.193 33.7223 23.2412 33.8123 23.2803 33.9062C23.319 34.0007 23.3488 34.0985 23.3694 34.1984C23.3903 34.3013 23.4008 34.406 23.4007 34.5109C23.4004 34.6133 23.3899 34.7153 23.3694 34.8156C23.3492 34.9157 23.3194 35.0135 23.2803 35.1078C23.2415 35.2025 23.1934 35.293 23.1366 35.3781C23.0803 35.4637 23.0154 35.5433 22.9428 35.6156C22.8702 35.6878 22.7907 35.7527 22.7054 35.8094C22.6199 35.8655 22.5294 35.9136 22.435 35.9531C22.3407 35.9922 22.2429 36.022 22.1428 36.0422C22.042 36.0622 21.9394 36.0721 21.8366 36.0719ZM34.3866 50.1906C34.2843 50.1909 34.1822 50.1809 34.0819 50.1609C33.9819 50.1408 33.884 50.1109 33.7897 50.0719C33.6951 50.033 33.6045 49.9849 33.5194 49.9281C33.4338 49.8713 33.3542 49.8059 33.2819 49.7328C32.9897 49.4393 32.8252 49.0423 32.8241 48.6281C32.8239 48.5232 32.8344 48.4185 32.8553 48.3156C32.8755 48.2156 32.9053 48.1177 32.9444 48.0234C32.9839 47.9291 33.032 47.8386 33.0882 47.7531C33.1448 47.6678 33.2097 47.5882 33.2819 47.5156C33.3542 47.4431 33.4338 47.3781 33.5194 47.3219C33.6045 47.2651 33.6951 47.2169 33.7897 47.1781C33.884 47.1391 33.9819 47.1092 34.0819 47.0891C34.2835 47.0484 34.4912 47.0484 34.6928 47.0891C34.8933 47.1292 35.0838 47.2083 35.2538 47.3219C35.3394 47.3781 35.419 47.4431 35.4913 47.5156C35.5635 47.5886 35.6289 47.6681 35.6866 47.7531C35.7427 47.8386 35.7909 47.9291 35.8303 48.0234C35.8694 48.1177 35.8992 48.2156 35.9194 48.3156C35.9399 48.4185 35.9498 48.5232 35.9491 48.6281C35.948 49.0423 35.7835 49.4393 35.4913 49.7328C35.419 49.8059 35.3394 49.8713 35.2538 49.9281C35.0838 50.0417 34.8933 50.1208 34.6928 50.1609C34.592 50.1809 34.4894 50.1908 34.3866 50.1906ZM28.1116 51.7594C28.0093 51.7596 27.9072 51.7497 27.8069 51.7297C27.7069 51.7095 27.609 51.6797 27.5147 51.6406C27.4201 51.6018 27.3295 51.5536 27.2444 51.4969C27.1588 51.4406 27.0792 51.3757 27.0069 51.3031C26.9347 51.2301 26.8693 51.1506 26.8116 51.0656C26.7555 50.9801 26.7073 50.8896 26.6678 50.7953C26.6288 50.701 26.599 50.6032 26.5788 50.5031C26.5392 50.3014 26.5392 50.0939 26.5788 49.8922C26.599 49.7921 26.6288 49.6943 26.6678 49.6C26.7073 49.5057 26.7555 49.4152 26.8116 49.3297C26.8693 49.2447 26.9347 49.1652 27.0069 49.0922C27.0792 49.0196 27.1588 48.9547 27.2444 48.8984C27.3295 48.8417 27.4201 48.7935 27.5147 48.7547C27.609 48.7156 27.7069 48.6858 27.8069 48.6656C28.008 48.625 28.2152 48.625 28.4163 48.6656C28.5163 48.6858 28.6142 48.7156 28.7085 48.7547C28.8031 48.7935 28.8937 48.8417 28.9788 48.8984C29.0644 48.9547 29.144 49.0196 29.2163 49.0922C29.2885 49.1648 29.3534 49.2444 29.41 49.3297C29.4662 49.4152 29.5143 49.5057 29.5538 49.6C29.5936 49.694 29.6234 49.7919 29.6428 49.8922C29.6845 50.0937 29.6845 50.3016 29.6428 50.5031C29.6234 50.6033 29.5936 50.7013 29.5538 50.7953C29.5143 50.8896 29.4662 50.9801 29.41 51.0656C29.3534 51.1509 29.2885 51.2305 29.2163 51.3031C29.144 51.3757 29.0644 51.4406 28.9788 51.4969C28.8937 51.5536 28.8031 51.6018 28.7085 51.6406C28.6142 51.6797 28.5163 51.7095 28.4163 51.7297C28.316 51.7497 28.2139 51.7596 28.1116 51.7594ZM21.8366 53.3281C21.7317 53.3288 21.627 53.3189 21.5241 53.2984C21.4241 53.278 21.3263 53.2482 21.2319 53.2094C21.0428 53.1301 20.8704 53.0156 20.7241 52.8719C20.5793 52.7264 20.4647 52.5538 20.3866 52.3641C20.3475 52.2698 20.3177 52.1719 20.2975 52.0719C20.2776 51.9715 20.2677 51.8695 20.2678 51.7672C20.2686 51.3528 20.4325 50.9554 20.7241 50.6609C20.7977 50.5892 20.8777 50.5243 20.9632 50.4672C21.0479 50.4107 21.1379 50.3626 21.2319 50.3234C21.3263 50.2846 21.4241 50.2548 21.5241 50.2344C21.8273 50.1728 22.1419 50.2032 22.4278 50.3215C22.7137 50.4397 22.9577 50.6406 23.1288 50.8984C23.1849 50.9839 23.233 51.0744 23.2725 51.1687C23.3116 51.263 23.3414 51.3609 23.3616 51.4609C23.4032 51.6624 23.4032 51.8704 23.3616 52.0719C23.3414 52.1719 23.3116 52.2698 23.2725 52.3641C23.233 52.4584 23.1849 52.5489 23.1288 52.6344C23.0157 52.8058 22.869 52.9525 22.6975 53.0656C22.612 53.1218 22.5216 53.1699 22.4272 53.2094C22.3329 53.2484 22.2351 53.2783 22.135 53.2984C22.0368 53.318 21.9368 53.3279 21.8366 53.3281ZM34.3866 67.4484C34.2843 67.4487 34.1822 67.4388 34.0819 67.4187C33.9819 67.3986 33.884 67.3687 33.7897 67.3297C33.6951 67.2913 33.6046 67.2437 33.5194 67.1875C33.4341 67.1302 33.3546 67.0648 33.2819 66.9922C33.2094 66.9199 33.1444 66.8403 33.0882 66.7547C33.0317 66.6699 32.9836 66.5799 32.9444 66.4859C32.9056 66.3916 32.8757 66.2937 32.8553 66.1937C32.8345 66.0909 32.824 65.9862 32.8241 65.8812C32.8244 65.7789 32.8348 65.6768 32.8553 65.5766C32.8755 65.4765 32.9053 65.3787 32.9444 65.2844C32.9832 65.1897 33.0314 65.0992 33.0882 65.0141C33.2013 64.8426 33.348 64.6959 33.5194 64.5828C33.6045 64.526 33.6951 64.4779 33.7897 64.4391C33.884 64.4 33.9819 64.3702 34.0819 64.35C34.2835 64.3094 34.4912 64.3094 34.6928 64.35C34.7928 64.3704 34.8907 64.4002 34.985 64.4391C35.079 64.4782 35.169 64.5264 35.2538 64.5828C35.3394 64.6391 35.419 64.704 35.4913 64.7766C35.5639 64.8492 35.6293 64.9288 35.6866 65.0141C35.7434 65.0992 35.7915 65.1897 35.8303 65.2844C35.8694 65.3787 35.8992 65.4765 35.9194 65.5766C35.9394 65.6769 35.9494 65.7789 35.9491 65.8812C35.9497 65.9861 35.9398 66.0908 35.9194 66.1937C35.899 66.2937 35.8692 66.3916 35.8303 66.4859C35.7325 66.7237 35.5775 66.9337 35.3791 67.0972C35.1807 67.2608 34.945 67.3728 34.6928 67.4234C34.5918 67.4418 34.4893 67.4502 34.3866 67.4484ZM28.1116 69.0172C28.0093 69.0174 27.9072 69.0075 27.8069 68.9875C27.7069 68.9673 27.609 68.9375 27.5147 68.8984C27.4201 68.8596 27.3295 68.8114 27.2444 68.7547C27.0734 68.6399 26.9264 68.4929 26.8116 68.3219C26.7563 68.2367 26.7087 68.1468 26.6694 68.0531C26.6296 67.9591 26.5998 67.8612 26.5803 67.7609C26.5595 67.6581 26.549 67.5534 26.5491 67.4484C26.5494 67.3461 26.5598 67.244 26.5803 67.1437C26.5998 67.0435 26.6296 66.9456 26.6694 66.8516C26.7083 66.7572 26.7559 66.6667 26.8116 66.5812C26.8689 66.496 26.9343 66.4164 27.0069 66.3437C27.0792 66.2712 27.1588 66.2063 27.2444 66.15C27.3295 66.0932 27.4201 66.0451 27.5147 66.0062C27.609 65.9672 27.7069 65.9373 27.8069 65.9172C28.008 65.8766 28.2152 65.8766 28.4163 65.9172C28.5163 65.9373 28.6142 65.9672 28.7085 66.0062C28.8031 66.0451 28.8937 66.0932 28.9788 66.15C29.0644 66.2063 29.144 66.2712 29.2163 66.3437C29.2885 66.4164 29.3534 66.4959 29.41 66.5812C29.4668 66.6664 29.515 66.7569 29.5538 66.8516C29.5936 66.9456 29.6234 67.0435 29.6428 67.1437C29.6634 67.244 29.6738 67.3461 29.6741 67.4484C29.6742 67.5534 29.6637 67.6581 29.6428 67.7609C29.6234 67.8612 29.5936 67.9591 29.5538 68.0531C29.5146 68.1471 29.4665 68.2371 29.41 68.3219C29.3538 68.4075 29.2888 68.487 29.2163 68.5594C29.1436 68.632 29.0641 68.6974 28.9788 68.7547C28.8937 68.8114 28.8031 68.8596 28.7085 68.8984C28.6142 68.9375 28.5163 68.9673 28.4163 68.9875C28.316 69.0075 28.2139 69.0174 28.1116 69.0172ZM21.8366 70.5875C21.7316 70.5876 21.627 70.5771 21.5241 70.5562C21.4241 70.5358 21.3263 70.506 21.2319 70.4672C20.9465 70.3488 20.7025 70.1485 20.5309 69.8915C20.3593 69.6345 20.2678 69.3324 20.2678 69.0234C20.2677 68.9211 20.2776 68.8191 20.2975 68.7187C20.3177 68.6187 20.3475 68.5208 20.3866 68.4266C20.4647 68.2368 20.5793 68.0642 20.7241 67.9187C20.8704 67.775 21.0428 67.6605 21.2319 67.5812C21.3263 67.5424 21.4241 67.5126 21.5241 67.4922C21.7257 67.4516 21.9334 67.4516 22.135 67.4922C22.2351 67.5124 22.3329 67.5422 22.4272 67.5812C22.5216 67.6207 22.612 67.6689 22.6975 67.725C22.869 67.8381 23.0157 67.9848 23.1288 68.1562C23.1849 68.2417 23.233 68.3322 23.2725 68.4266C23.3116 68.5208 23.3414 68.6187 23.3616 68.7187C23.382 68.819 23.3925 68.9211 23.3928 69.0234C23.3929 69.2806 23.3294 69.5338 23.2082 69.7606C23.0869 69.9874 22.9115 70.1807 22.6975 70.3234C22.612 70.3796 22.5216 70.4277 22.4272 70.4672C22.3329 70.5062 22.2351 70.5361 22.135 70.5562C22.0368 70.5764 21.9369 70.5868 21.8366 70.5875Z" fill="white" fill-opacity="0.2"/>
</svg>
