<svg width="480" height="474" viewBox="0 0 480 474" fill="none" xmlns="http://www.w3.org/2000/svg">
<path fill-rule="evenodd" clip-rule="evenodd" d="M397.519 13.1608H371.676V22.4798H371.651C371.65 23.8448 371.211 25.1735 370.398 26.2697C369.584 27.3659 368.44 28.1716 367.134 28.5678C365.276 29.1378 363.447 29.7979 361.654 30.5458C360.02 31.2199 358.416 31.9652 356.847 32.7798C355.619 33.5741 354.157 33.9235 352.703 33.7697C351.249 33.6159 349.892 32.9683 348.858 31.9348L342.265 25.3418L323.991 43.6158L330.584 50.2088L330.568 50.2248C331.532 51.1898 332.161 52.4391 332.361 53.7885C332.562 55.1379 332.324 56.516 331.682 57.7198C330.767 59.4411 329.937 61.2059 329.194 63.0078C328.517 64.6322 327.911 66.2855 327.379 67.9628C327.075 69.3952 326.288 70.6798 325.151 71.6016C324.013 72.5234 322.593 73.0266 321.129 73.0268H311.81V98.8698H321.128V98.8948C322.493 98.8952 323.821 99.3345 324.918 100.148C326.014 100.961 326.82 102.106 327.216 103.412C327.786 105.269 328.446 107.098 329.194 108.891C329.868 110.525 330.613 112.129 331.428 113.698C332.222 114.925 332.572 116.388 332.418 117.842C332.264 119.296 331.616 120.653 330.583 121.687L323.99 128.28L342.265 146.555L348.858 139.962L348.874 139.978C349.839 139.014 351.088 138.385 352.437 138.184C353.787 137.984 355.165 138.222 356.369 138.864C358.09 139.779 359.856 140.61 361.659 141.352C363.347 142.052 365 142.658 366.611 143.166C368.043 143.47 369.328 144.256 370.25 145.394C371.171 146.532 371.675 147.951 371.675 149.416V158.735H397.518V149.416H397.543C397.543 148.051 397.983 146.722 398.796 145.626C399.609 144.53 400.753 143.724 402.06 143.328C403.917 142.758 405.746 142.098 407.539 141.35C409.174 140.676 410.778 139.93 412.348 139.115C413.575 138.321 415.038 137.971 416.491 138.125C417.945 138.279 419.302 138.927 420.336 139.961L426.929 146.554L445.204 128.28L438.611 121.687L438.627 121.671C437.663 120.706 437.034 119.456 436.833 118.107C436.633 116.758 436.871 115.38 437.513 114.176C438.428 112.454 439.259 110.689 440.002 108.886C440.678 107.262 441.284 105.61 441.816 103.934C442.12 102.501 442.906 101.217 444.044 100.295C445.182 99.3731 446.601 98.87 448.066 98.8698H457.385V73.0268H448.066V73.0018C446.701 73.0013 445.372 72.562 444.276 71.7486C443.18 70.9353 442.374 69.791 441.978 68.4848C441.408 66.6269 440.747 64.7981 439.999 63.0048C439.325 61.3708 438.579 59.7673 437.765 58.1988C436.97 56.9714 436.621 55.5087 436.775 54.0549C436.929 52.601 437.576 51.2438 438.61 50.2098L445.203 43.6168L426.928 25.3418L420.335 31.9348L420.319 31.9188C419.354 32.883 418.104 33.5118 416.755 33.7123C415.406 33.9129 414.028 33.6747 412.824 33.0328C411.103 32.1177 409.338 31.2874 407.536 30.5448C405.911 29.8678 404.258 29.2622 402.581 28.7298C401.148 28.4259 399.864 27.6393 398.942 26.5016C398.02 25.3639 397.517 23.9441 397.517 22.4798V13.1608H397.519ZM370.41 0.384766H398.787C401.959 0.384766 404.838 1.67777 406.92 3.76077C409.002 5.84377 410.296 8.72276 410.296 11.8938V17.9268C411.726 18.4622 413.137 19.0472 414.527 19.6808L418.794 15.4138C421.038 13.1698 423.987 12.0488 426.931 12.0488C429.875 12.0488 432.825 13.1708 435.068 15.4138L455.134 35.4798C457.377 37.7228 458.499 40.6728 458.499 43.6178C458.499 46.5628 457.377 49.5118 455.134 51.7548L450.867 56.0218C451.499 57.4113 452.084 58.8221 452.62 60.2518H458.653C461.825 60.2518 464.704 61.5448 466.786 63.6278C467.856 64.6944 468.705 65.9619 469.285 67.3576C469.864 68.7533 470.162 70.2496 470.162 71.7608V100.138C470.162 103.31 468.869 106.189 466.786 108.271C464.703 110.353 461.825 111.647 458.653 111.647H452.62C452.084 113.077 451.499 114.488 450.866 115.878L455.132 120.144C455.298 120.31 455.452 120.482 455.596 120.661C457.466 122.759 458.499 125.471 458.498 128.282C458.498 131.211 457.376 134.15 455.133 136.394L455.12 136.406L455.133 136.419L435.067 156.485C432.823 158.729 429.874 159.85 426.93 159.85C423.986 159.85 421.036 158.728 418.793 156.485L414.526 152.218C413.824 152.537 413.126 152.841 412.43 153.13C411.734 153.418 411.022 153.699 410.295 153.972V160.005C410.295 163.177 409.002 166.056 406.919 168.138C404.836 170.22 401.958 171.514 398.786 171.514H370.409C368.898 171.514 367.401 171.216 366.006 170.637C364.61 170.058 363.342 169.208 362.276 168.138C361.205 167.071 360.356 165.804 359.777 164.408C359.197 163.012 358.899 161.516 358.9 160.005V153.972C357.47 153.436 356.059 152.852 354.67 152.219L350.403 156.486C348.16 158.729 345.21 159.851 342.266 159.851C339.322 159.851 336.372 158.729 334.128 156.486L314.063 136.421C312.994 135.353 312.146 134.084 311.569 132.688C310.991 131.291 310.695 129.795 310.698 128.284C310.698 125.356 311.82 122.415 314.063 120.171L314.076 120.159L314.063 120.146L318.329 115.88C317.696 114.49 317.112 113.079 316.576 111.649H310.543C307.372 111.649 304.492 110.356 302.41 108.273C300.328 106.19 299.034 103.312 299.034 100.14V71.7628C299.034 68.5918 300.327 65.7118 302.41 63.6298C303.476 62.5593 304.744 61.7101 306.14 61.1307C307.535 60.5514 309.032 60.2534 310.543 60.2538H316.576C317.111 58.8235 317.696 57.4123 318.33 56.0228L314.063 51.7568C313.899 51.5929 313.744 51.4203 313.599 51.2398C311.728 49.142 310.695 46.4293 310.697 43.6188C310.696 42.1115 310.993 40.619 311.57 39.2268C312.148 37.8346 312.995 36.57 314.062 35.5058L314.075 35.4938L314.062 35.4808L334.127 15.4158C336.37 13.1728 339.32 12.0508 342.265 12.0508C345.21 12.0508 348.159 13.1728 350.402 15.4158L354.668 19.6828C356.057 19.0495 357.469 18.4648 358.899 17.9298V11.8968C358.899 8.72577 360.192 5.84577 362.275 3.76377C363.341 2.69333 364.609 1.84406 366.005 1.26472C367.4 0.685377 368.897 0.387358 370.408 0.387766L370.41 0.384766ZM402.238 68.3088C406.752 72.8228 409.544 79.0588 409.544 85.9488C409.544 92.8388 406.752 99.0748 402.238 103.589C397.724 108.103 391.487 110.895 384.598 110.895C377.709 110.895 371.472 108.103 366.958 103.589C362.444 99.0748 359.652 92.8378 359.652 85.9488C359.652 79.0598 362.444 72.8228 366.958 68.3088C371.472 63.7948 377.709 61.0028 384.598 61.0028C391.487 61.0028 397.724 63.7948 402.238 68.3088ZM384.598 48.2268C395.014 48.2268 404.444 52.4488 411.271 59.2758C418.098 66.1018 422.32 75.5328 422.32 85.9478C422.32 96.3628 418.098 105.794 411.271 112.621C404.445 119.448 395.014 123.67 384.598 123.67C374.182 123.67 364.752 119.448 357.926 112.621C351.099 105.795 346.877 96.3638 346.877 85.9478C346.877 75.5318 351.099 66.1018 357.926 59.2748C364.753 52.4488 374.183 48.2258 384.599 48.2258L384.598 48.2268ZM100.156 356.886L81.6038 342.48C81.5081 342.405 81.4144 342.327 81.3228 342.248C81.0038 341.998 80.6888 341.743 80.3778 341.483L53.4518 431.342C52.5288 434.422 52.9508 437.602 54.3738 440.243C55.7928 442.877 58.2078 444.972 61.2738 445.892H61.2778C64.3588 446.816 67.5378 446.394 70.1798 444.971C72.8148 443.551 74.9108 441.135 75.8298 438.067L100.156 356.886ZM83.8288 227.336L70.4768 240.116C70.2338 240.316 70.0058 240.534 69.7958 240.768L51.5588 258.224C50.7424 259.007 50.1503 259.994 49.8438 261.083L35.7118 301.81C33.8638 307.136 29.8588 309.544 25.7508 309.748C24.0688 309.832 22.3348 309.568 20.6808 309C19.0638 308.445 17.5628 307.599 16.3068 306.506C13.3288 303.915 11.7688 299.72 13.5658 294.539L30.3538 246.156L78.2798 200.576C86.0348 193.203 94.8778 189.559 102.972 189.559C106.255 189.559 109.392 190.155 112.249 191.342C115.163 192.555 117.789 194.368 119.958 196.662C125.151 202.125 128.472 210.796 128.472 222.685V322.056C128.472 323.976 129.319 325.698 130.66 326.869L164.693 361.396C165.635 362.361 166.432 363.459 167.059 364.654C167.615 365.715 167.998 366.858 168.193 368.041C168.226 368.247 168.268 368.448 168.319 368.646V413.031C168.319 416.235 167.004 419.152 164.885 421.271C162.766 423.39 159.849 424.705 156.645 424.705C153.441 424.705 150.524 423.39 148.405 421.271C146.286 419.152 144.971 416.235 144.971 413.031V378.641C144.972 377.629 144.732 376.631 144.271 375.73C143.81 374.829 143.141 374.051 142.32 373.46L89.4398 332.396C89.3412 332.319 89.2401 332.245 89.1368 332.175C86.4748 330.082 84.4348 327.599 83.0618 324.818C81.6548 321.968 80.9268 318.725 80.9268 315.189V247.749L92.6618 236.517C93.2647 235.937 93.7476 235.244 94.0827 234.477C94.4178 233.711 94.5986 232.885 94.6149 232.049C94.6311 231.213 94.4825 230.381 94.1774 229.602C93.8723 228.823 93.4167 228.112 92.8368 227.509C92.2568 226.906 91.5637 226.423 90.7971 226.088C90.0306 225.753 89.2055 225.572 88.369 225.556C87.5325 225.539 86.7011 225.688 85.922 225.993C85.143 226.298 84.4317 226.754 83.8288 227.334V227.336ZM141.249 263.57L175.327 277.406C175.507 277.469 175.684 277.54 175.859 277.619C178.674 278.691 181.794 278.633 184.568 277.457C187.342 276.29 189.555 274.093 190.744 271.329C190.801 271.171 190.864 271.015 190.934 270.861C192.006 268.046 191.948 264.925 190.772 262.152C190.178 260.739 189.31 259.458 188.22 258.382C187.129 257.306 185.837 256.456 184.417 255.881L141.249 238.355V263.57ZM148.057 122.542C144 118.485 138.394 115.975 132.202 115.975C126.01 115.975 120.404 118.485 116.347 122.542C112.29 126.599 109.78 132.205 109.78 138.397C109.78 144.589 112.29 150.195 116.347 154.252C120.404 158.309 126.01 160.818 132.202 160.818C138.394 160.818 144 158.308 148.057 154.252C152.114 150.195 154.624 144.589 154.624 138.397C154.624 132.205 152.114 126.599 148.057 122.542ZM132.202 103.2C141.921 103.2 150.72 107.14 157.09 113.51C163.459 119.879 167.4 128.679 167.4 138.398C167.4 148.117 163.46 156.916 157.09 163.286C150.721 169.655 141.921 173.595 132.202 173.595C122.483 173.595 113.684 169.655 107.314 163.286C100.945 156.917 97.0038 148.117 97.0038 138.398C97.0038 128.679 100.944 119.88 107.314 113.51C113.684 107.14 122.483 103.2 132.202 103.2ZM373.442 326.951H324.923V460.839H373.442V326.951ZM318.535 314.175H379.83C381.524 314.175 383.149 314.848 384.347 316.046C385.545 317.244 386.218 318.869 386.218 320.563V467.227C386.218 468.921 385.545 470.546 384.347 471.744C383.149 472.942 381.524 473.615 379.83 473.615H318.535C316.841 473.615 315.216 472.942 314.018 471.744C312.82 470.546 312.147 468.921 312.147 467.227V320.563C312.147 318.869 312.82 317.244 314.018 316.046C315.216 314.848 316.841 314.175 318.535 314.175ZM279.651 398.08H231.132V460.839H279.651V398.08ZM224.744 385.304H286.039C287.733 385.304 289.358 385.977 290.556 387.175C291.754 388.373 292.427 389.998 292.427 391.692V467.227C292.427 468.921 291.754 470.546 290.556 471.744C289.358 472.942 287.733 473.615 286.039 473.615H224.744C223.05 473.615 221.425 472.942 220.227 471.744C219.029 470.546 218.356 468.921 218.356 467.227V391.692C218.356 389.998 219.029 388.373 220.227 387.175C221.425 385.977 223.05 385.304 224.744 385.304ZM467.233 223.186H418.714V460.839H467.233V223.186ZM412.326 210.41H473.621C475.315 210.41 476.94 211.083 478.138 212.281C479.336 213.479 480.009 215.104 480.009 216.798V467.227C480.009 468.921 479.336 470.546 478.138 471.744C476.94 472.942 475.315 473.615 473.621 473.615H412.326C410.632 473.615 409.007 472.942 407.809 471.744C406.611 470.546 405.938 468.921 405.938 467.227V216.798C405.938 215.104 406.611 213.479 407.809 212.281C409.007 211.083 410.632 210.41 412.326 210.41ZM186.912 445.778H138.393V460.839H186.912V445.778ZM132.005 433.002H142.568C141.428 432.195 140.36 431.294 139.373 430.307C134.945 425.879 132.196 419.764 132.196 413.034V381.766L110.961 365.276L88.0578 441.711C86.1258 448.158 81.7358 453.228 76.2198 456.2C70.8238 459.107 64.3468 460.01 58.0368 458.235C57.756 458.171 57.48 458.089 57.2108 457.987C50.9658 455.992 46.0538 451.675 43.1468 446.281C40.2388 440.885 39.3358 434.408 41.1108 428.098C41.1698 427.837 41.2458 427.582 41.3348 427.335L70.5608 329.803C70.6558 329.485 70.7728 329.181 70.9108 328.89C69.0908 324.661 68.1528 320.058 68.1528 315.191V259.979L61.4748 266.371L47.7408 305.952C43.9028 317.013 35.2768 322.029 26.3518 322.474C23.0225 322.634 19.6931 322.16 16.5408 321.078C13.3888 319.996 10.4338 318.321 7.92476 316.139C1.30676 310.381 -2.24624 301.313 1.54076 290.399L18.8478 240.519C19.1788 239.554 19.7376 238.683 20.4768 237.981L20.4698 237.974L69.4988 191.345C79.7478 181.601 91.7558 176.784 102.974 176.784C107.895 176.784 112.686 177.715 117.141 179.566C121.602 181.419 125.688 184.194 129.192 187.881C136.547 195.617 141.249 207.275 141.249 222.687V224.581L189.207 244.052C195.429 246.578 200.057 251.43 202.499 257.21C204.938 262.983 205.189 269.675 202.666 275.891L202.656 275.915C200.127 282.126 195.281 286.745 189.508 289.183C183.735 291.622 177.044 291.874 170.827 289.351L141.248 277.342V319.465L173.874 352.566C175.674 354.419 177.195 356.525 178.387 358.818C179.254 360.493 179.921 362.265 180.374 364.097C180.834 364.979 181.094 365.982 181.094 367.045V413.033C181.094 419.763 178.345 425.878 173.917 430.306C172.93 431.293 171.86 432.195 170.721 433.001H193.298C194.992 433.001 196.617 433.674 197.815 434.872C199.013 436.07 199.686 437.695 199.686 439.389V467.226C199.686 468.92 199.013 470.545 197.815 471.743C196.617 472.941 194.992 473.614 193.298 473.614H132.003C130.309 473.614 128.684 472.941 127.486 471.743C126.288 470.545 125.615 468.92 125.615 467.226V439.389C125.615 437.695 126.288 436.07 127.486 434.872C128.684 433.674 130.309 433.001 132.003 433.001L132.005 433.002ZM336.635 212.676C337.517 212.813 338.36 213.134 339.11 213.618C339.86 214.102 340.5 214.738 340.988 215.486C341.461 216.207 341.782 217.017 341.933 217.866C342.083 218.715 342.059 219.586 341.863 220.426L335.714 252.114C335.556 252.936 335.239 253.72 334.779 254.419C334.318 255.119 333.725 255.721 333.032 256.191C332.339 256.662 331.561 256.991 330.741 257.16C329.921 257.33 329.075 257.336 328.253 257.179C327.43 257.021 326.647 256.704 325.947 256.244C325.248 255.783 324.645 255.19 324.175 254.497C323.705 253.804 323.375 253.026 323.206 252.206C323.037 251.386 323.03 250.54 323.188 249.718L326.507 232.612L246.44 285.166C245.024 286.054 243.316 286.351 241.683 285.993C240.051 285.635 238.624 284.652 237.709 283.253C236.794 281.855 236.464 280.153 236.79 278.514C237.116 276.874 238.072 275.429 239.453 274.487L319.035 222.252L302.514 219.046C301.691 218.889 300.908 218.571 300.208 218.111C299.508 217.651 298.906 217.057 298.436 216.364C297.966 215.672 297.636 214.893 297.467 214.073C297.298 213.253 297.291 212.407 297.449 211.585C297.606 210.762 297.924 209.979 298.384 209.279C298.844 208.579 299.437 207.977 300.13 207.507C300.823 207.037 301.602 206.707 302.422 206.538C303.242 206.369 304.087 206.362 304.91 206.52L336.635 212.676Z" fill="white"/>
</svg>
