<svg width="61" height="60" viewBox="0 0 61 60" fill="none" xmlns="http://www.w3.org/2000/svg">
<g clip-path="url(#clip0_2446_5272)">
<path d="M44.4588 13.9589H39.5625V2.08284C39.5625 0.93228 38.6302 1.85208e-08 37.4797 1.85208e-08C37.2061 -3.64598e-05 36.9353 0.0538129 36.6825 0.158473C36.4298 0.263132 36.2002 0.416552 36.0068 0.609969C35.8134 0.803386 35.66 1.03301 35.5553 1.28573C35.4506 1.53845 35.3968 1.80931 35.3968 2.08284V13.9589H25.6036V2.08284C25.6036 0.93228 24.6716 1.85208e-08 23.5207 1.85208e-08C22.9683 1.85208e-08 22.4386 0.219442 22.0479 0.61005C21.6573 1.00066 21.4379 1.53044 21.4379 2.08284V13.9589H16.5418C16.2683 13.9589 15.9974 14.0127 15.7447 14.1174C15.492 14.2221 15.2624 14.3755 15.069 14.5689C14.8755 14.7623 14.7221 14.9919 14.6175 15.2447C14.5128 15.4974 14.4589 15.7682 14.459 16.0418V30.0001C14.459 38.139 20.5537 44.8766 28.4182 45.9017V57.9174C28.4182 59.068 29.3502 60.0003 30.501 60.0003C31.0534 60.0003 31.5832 59.7808 31.9738 59.3902C32.3644 58.9996 32.5839 58.4698 32.5839 57.9174V45.9017C40.4476 44.8769 46.542 38.139 46.542 30.0001V16.0418C46.542 15.7682 46.4881 15.4974 46.3834 15.2446C46.2787 14.9919 46.1253 14.7623 45.9318 14.5689C45.7384 14.3755 45.5087 14.222 45.256 14.1174C45.0033 14.0127 44.7324 13.9589 44.4588 13.9589ZM42.376 29.9999C42.376 36.548 37.0486 41.8754 30.5008 41.8754C23.952 41.8754 18.6244 36.548 18.6244 29.9999V18.1246H42.3757L42.376 29.9999Z" fill="white"/>
</g>
<defs>
<clipPath id="clip0_2446_5272">
<rect width="60" height="60" fill="white" transform="translate(0.5)"/>
</clipPath>
</defs>
</svg>
