<svg xmlns="http://www.w3.org/2000/svg" version="1.1" xmlns:xlink="http://www.w3.org/1999/xlink" width="512" height="512" x="0" y="0" viewBox="0 0 64 64" style="enable-background:new 0 0 512 512" xml:space="preserve" class=""><g><path d="M4 45h2c0-1.103.897-2 2-2v-2c-2.206 0-4 1.794-4 4zM6 51H4c0 2.206 1.794 4 4 4v-2c-1.103 0-2-.897-2-2zM22 52.855V55h2v-2.145a2.849 2.849 0 0 0 2-2.709 2.84 2.84 0 0 0-1.578-2.553l-1.95-.975A.855.855 0 0 1 22.854 45h.292c.471 0 .854.384.854.854V46h2v-.146a2.847 2.847 0 0 0-2-2.709V41h-2v2.145a2.849 2.849 0 0 0-2 2.709 2.84 2.84 0 0 0 1.578 2.553l1.95.975A.855.855 0 0 1 23.146 51h-.292a.855.855 0 0 1-.854-.854V50h-2v.146c0 1.274.845 2.343 2 2.709z" fill="#ffffff" opacity="1" data-original="#000000" class=""></path><path d="M59.78 49.116c.139-.346.22-.721.22-1.116v-2c0-1.654-1.346-3-3-3h-3V13.414l1.5-1.5 4.167 4.167L62.216.783l-15.297 2.55L51.086 7.5 41 17.586l-6-6L9.586 37H3c-1.654 0-3 1.346-3 3v16c0 1.654 1.346 3 3 3h35v1c0 1.654 1.346 3 3 3h16c1.654 0 3-1.346 3-3v-2c0-.395-.081-.77-.22-1.116A2.995 2.995 0 0 0 62 54v-2a2.995 2.995 0 0 0-2.22-2.884zM58 46v2c0 .552-.449 1-1 1H41c-.551 0-1-.448-1-1v-2c0-.552.449-1 1-1h1v2h2v-2h2v2h2v-2h2v2h2v-2h2v2h2v-2h1c.551 0 1 .448 1 1zm-39.586-9L24 31.414V37zM28 27.414V37h-2v-7.586zm2-2 2-2V37h-2zm4-4 1-1 1 1V37h-2zm4 2 2 2V37h-2zm4 2 2-2v13.77A2.966 2.966 0 0 0 43 37h-1zM46 40V21.414l2-2V43h-2v-2zm6 3h-2V17.414l2-2zM35 14.414l6 6L53.914 7.5l-2.833-2.833 8.703-1.45-1.451 8.702L55.5 9.086 41 23.586l-6-6L15.586 37h-3.172zM3 57c-.551 0-1-.448-1-1V40c0-.552.449-1 1-1h13.695C13.861 40.992 12 44.28 12 48s1.861 7.008 4.695 9zm20-18c4.962 0 9 4.037 9 9s-4.038 9-9 9-9-4.037-9-9 4.038-9 9-9zm11 9c0-3.72-1.861-7.008-4.695-9H43c.551 0 1 .448 1 1v3h-3c-1.654 0-3 1.346-3 3v2c0 1.383.945 2.539 2.22 2.884-.139.346-.22.721-.22 1.116v2c0 .395.081.77.22 1.116A2.996 2.996 0 0 0 38.184 57h-8.88C32.139 55.008 34 51.72 34 48zm24 12c0 .552-.449 1-1 1H41c-.551 0-1-.448-1-1v-2c0-.552.449-1 1-1h1v2h2v-2h2v2h2v-2h2v2h2v-2h2v2h2v-2h1c.551 0 1 .448 1 1zm2-6c0 .552-.449 1-1 1H43c-.551 0-1-.448-1-1v-2c0-.552.449-1 1-1h1v2h2v-2h2v2h2v-2h2v2h2v-2h2v2h2v-2h1c.551 0 1 .448 1 1zM22 1H4v6h18zm-2 4H6V3h14zM4 9h18v2H4zM4 13h18v2H4z" fill="#ffffff" opacity="1" data-original="#000000" class=""></path><path d="M4 21h18v2H4zM4 17h2v2H4zM8 17h2v2H8zM12 17h10v2H12z" fill="#ffffff" opacity="1" data-original="#000000" class=""></path></g></svg>