<svg width="512" height="512" viewBox="0 0 512 512" fill="none" xmlns="http://www.w3.org/2000/svg">
<g clip-path="url(#clip0_2852_5078)">
<path d="M142.559 416.446V390.82L97.109 365.324V440.815C97.109 444.635 94.01 447.734 90.19 447.734C86.37 447.734 83.271 444.635 83.271 440.815V353.509C83.2706 352.302 83.5864 351.116 84.187 350.069C84.7875 349.022 85.6519 348.15 86.694 347.541C87.7348 346.928 88.9184 346.599 90.1264 346.587C91.3344 346.575 92.5243 346.88 93.577 347.473L152.861 380.734C153.934 381.335 154.827 382.211 155.448 383.272C156.07 384.333 156.397 385.54 156.397 386.77V416.446C156.397 420.266 153.298 423.365 149.478 423.365C145.658 423.365 142.559 420.266 142.559 416.446ZM15.297 345.968V263.495C15.297 239.979 38.522 229.452 61.54 229.452H67.293C58.105 220.973 52.103 207.34 52.103 191.945C52.103 168.323 66.292 153.65 89.13 153.65C111.972 153.65 126.162 168.323 126.162 191.945C126.162 207.34 120.16 220.973 110.971 229.452H165.271C167.478 229.452 169.23 229.164 171.325 228.457L197.177 219.725L214.636 213.63L252.415 200.285C255.771 199.1 258.293 197.357 260.586 194.632L272.708 180.22C286.388 163.945 297.19 151.089 317.348 151.089L335.478 150.893C324.865 142.485 317.776 127.653 317.776 110.742C317.776 86.677 332.231 71.726 355.497 71.726C378.767 71.726 393.222 86.676 393.222 110.742C393.222 127.351 386.392 141.971 376.094 150.453H418.174L418.281 109.553C418.281 98.695 425.518 89.874 435.61 87.06V6.919C435.61 5.08405 436.339 3.32433 437.637 2.02682C438.934 0.729314 440.694 0.000265153 442.529 5.38368e-09L505.083 5.38368e-09C506.272 -4.69052e-05 507.441 0.306473 508.477 0.889961C509.513 1.47345 510.381 2.31419 510.997 3.331C511.614 4.34721 511.959 5.50555 511.998 6.69399C512.037 7.88244 511.768 9.06076 511.218 10.115L503.943 24.086L511.218 38.057C511.768 39.1112 512.037 40.2896 511.998 41.478C511.959 42.6664 511.614 43.8248 510.997 44.841C510.381 45.8579 509.513 46.6988 508.477 47.2823C507.441 47.8658 506.272 48.1722 505.083 48.172H449.448V87.224C458.975 90.233 465.948 99.047 465.948 109.555V173.742C465.948 186.875 455.272 197.56 442.155 197.56L413.15 198.718C407.56 198.725 402.528 200.828 398.713 204.65C394.898 208.472 392.794 213.515 392.794 218.848V264.956L450.141 298.109C451.192 298.717 452.064 299.591 452.67 300.642C453.277 301.694 453.596 302.886 453.596 304.1V361.956C453.596 365.776 450.497 368.875 446.677 368.875C442.857 368.875 439.758 365.776 439.758 361.956V308.09L382.411 274.937C381.36 274.329 380.488 273.455 379.882 272.404C379.275 271.352 378.956 270.16 378.956 268.946V218.847C378.956 209.822 382.497 201.309 388.92 194.872C395.352 188.431 403.861 184.886 412.875 184.886L441.88 183.728C447.646 183.721 452.11 179.244 452.11 173.742V109.555C452.11 104.215 447.763 99.87 442.421 99.87C436.453 99.87 432.119 103.942 432.119 109.555L432.029 151.818C432.029 158.969 426.209 164.85 419.052 164.926L317.426 164.929C304.219 164.929 297.039 172.783 283.304 189.125L271.173 203.542C267.254 208.2 262.759 211.31 257.024 213.337L231.681 222.29C233.628 224.32 235.276 226.694 236.421 229.441C238 233.227 238.444 237.26 237.963 241.223L274.16 230.045C277.61 228.98 280.228 227.309 282.642 224.622L301.836 203.271C302.771 202.229 304 201.495 305.362 201.168C306.723 200.84 308.152 200.935 309.458 201.438C310.765 201.939 311.889 202.824 312.682 203.978C313.475 205.131 313.899 206.497 313.899 207.897V388.764C313.899 392.584 310.8 395.683 306.98 395.683C303.16 395.683 300.061 392.584 300.061 388.764V225.939L292.93 233.871C288.804 238.461 284.137 241.445 278.241 243.263L223.218 260.254L223.2 260.257L183.659 274.364C179.979 275.675 176.587 276.26 172.664 276.26H154.038C148.898 276.26 144.033 278.296 140.34 281.999C136.646 285.697 134.61 290.576 134.61 295.729V330.878L190.592 363.243C191.643 363.851 192.515 364.725 193.121 365.776C193.728 366.828 194.047 368.02 194.047 369.234V416.446C194.047 420.266 190.948 423.365 187.128 423.365C183.308 423.365 180.209 420.266 180.209 416.446V373.225L124.227 340.86C123.176 340.252 122.304 339.378 121.698 338.327C121.091 337.275 120.772 336.083 120.772 334.869V295.729C120.772 286.882 124.245 278.535 130.547 272.22C136.858 265.9 145.2 262.423 154.038 262.423H172.664C174.993 262.423 176.831 262.108 179.011 261.328L218.853 247.125C220.871 246.276 222.7 244.44 223.668 242.082C224.148 240.921 224.394 239.676 224.39 238.42C224.386 237.163 224.133 235.92 223.645 234.762C221.613 229.886 216.005 227.573 211.15 229.591C211.006 229.652 175.754 241.566 175.754 241.566C172.222 242.757 168.988 243.289 165.272 243.289H61.541C58.226 243.289 29.136 243.857 29.136 263.494V345.967C29.136 354.814 35.236 362.268 43.65 364.998V273.85C43.65 270.03 46.749 266.931 50.569 266.931C54.389 266.931 57.488 270.03 57.488 273.85V373.048C57.488 373.064 57.493 373.078 57.493 373.093C57.493 373.108 57.488 373.122 57.488 373.138V440.814C57.488 444.634 54.389 447.733 50.569 447.733C46.749 447.733 43.65 444.634 43.65 440.814V379.346C27.503 376.231 15.297 362.452 15.297 345.968ZM449.446 34.333H493.676L490.005 27.281C489.49 26.2944 489.221 25.1979 489.221 24.085C489.221 22.9721 489.49 21.8756 490.005 20.889L493.676 13.837H449.446V34.333ZM331.613 110.743C331.613 129.281 342.325 144.365 355.496 144.365C368.667 144.365 379.383 129.282 379.383 110.743C379.383 88.835 364.419 85.565 355.496 85.565C346.577 85.565 331.613 88.836 331.613 110.743ZM65.941 191.946C65.941 209.984 76.342 224.658 89.13 224.658C101.918 224.658 112.324 209.985 112.324 191.946C112.324 170.667 97.792 167.489 89.13 167.489C80.468 167.489 65.941 170.667 65.941 191.946ZM408.162 368.874C409.997 368.874 411.757 368.145 413.054 366.847C414.352 365.55 415.081 363.79 415.081 361.955V322.036C415.081 320.806 414.754 319.599 414.132 318.538C413.511 317.477 412.618 316.601 411.545 316L350.892 281.977C349.84 281.384 348.651 281.078 347.444 281.09C346.237 281.102 345.054 281.431 344.014 282.045C342.972 282.654 342.108 283.526 341.507 284.573C340.907 285.62 340.591 286.806 340.591 288.013V388.761C340.591 392.581 343.69 395.68 347.51 395.68C351.33 395.68 354.429 392.581 354.429 388.761V299.829L401.244 326.09V361.955C401.244 363.79 401.973 365.549 403.27 366.847C404.568 368.144 406.327 368.873 408.162 368.874ZM505.081 394.973H380.541C378.706 394.973 376.946 395.702 375.649 397C374.351 398.297 373.622 400.057 373.622 401.892V422.721H256C254.165 422.721 252.405 423.45 251.108 424.748C249.81 426.045 249.081 427.805 249.081 429.64V445.87H131.459C129.624 445.87 127.864 446.599 126.567 447.897C125.269 449.194 124.54 450.954 124.54 452.789V472.014H6.919C5.08405 472.014 3.32433 472.743 2.02682 474.041C0.729314 475.338 0.000265147 477.098 0 478.933L0 505.082C0 508.901 3.099 512 6.919 512C10.739 512 13.838 508.901 13.838 505.081V485.851H124.541V505.081C124.541 508.901 127.64 512 131.46 512C135.28 512 138.379 508.901 138.379 505.081V459.707H249.082V505.081C249.082 508.901 252.181 512 256.001 512C259.821 512 262.92 508.901 262.92 505.081V436.558H373.623V505.081C373.623 508.901 376.722 512 380.542 512C384.362 512 387.461 508.901 387.461 505.081V408.811H498.164V505.081C498.164 508.901 501.263 512 505.083 512C508.903 512 512.002 508.901 512.002 505.081V401.892C512.001 400.057 511.271 398.298 509.973 397C508.676 395.703 506.916 394.974 505.081 394.973Z" fill="white"/>
</g>
<defs>
<clipPath id="clip0_2852_5078">
<rect width="512" height="512" fill="white"/>
</clipPath>
</defs>
</svg>
