<svg width="466" height="512" viewBox="0 0 466 512" fill="none" xmlns="http://www.w3.org/2000/svg">
<path d="M47.5569 418.524L39.2059 437.36C34.7209 447.477 44.3339 458.127 54.8559 454.698L121.489 432.982L150.138 496.941C154.662 507.04 169.009 507.013 173.494 496.896L202.646 431.142M71.8829 363.654L61.7429 386.526M263.354 431.143L292.506 496.897C296.991 507.014 311.339 507.041 315.862 496.942L344.511 432.983L411.144 454.699C421.666 458.128 431.279 447.478 426.794 437.361L394.117 363.656M400.513 153.165C411.596 128.057 408.118 98.086 390.075 76.042M362.189 54.888C343.163 46.606 321.383 46.653 302.387 55.038C291.609 27.228 264.616 7.5 233 7.5C201.384 7.5 174.392 27.228 163.614 55.038C136.328 42.994 103.292 48.131 80.9359 70.487C58.5799 92.843 53.4439 125.879 65.4869 153.165" stroke="white" stroke-width="15" stroke-miterlimit="10" stroke-linecap="round" stroke-linejoin="round"/>
<path d="M65.4868 291.938C53.4428 319.224 58.5798 352.26 80.9358 374.616C103.292 396.972 136.328 402.108 163.614 390.065C174.392 417.875 201.384 437.603 233 437.603C264.616 437.603 291.609 417.875 302.386 390.065C329.672 402.109 362.708 396.972 385.064 374.616C407.42 352.26 412.556 319.224 400.513 291.938M355.356 153.165C331.174 110.614 285.441 81.9082 233 81.9082C180.559 81.9082 134.826 110.613 110.644 153.165" stroke="white" stroke-width="15" stroke-miterlimit="10" stroke-linecap="round" stroke-linejoin="round"/>
<path d="M110.644 291.938C134.826 334.49 180.559 363.195 233 363.195C285.441 363.195 331.174 334.49 355.356 291.938M422.461 291.938H43.539C23.911 291.938 8 276.027 8 256.399V188.705C8 169.077 23.911 153.166 43.539 153.166H422.461C442.089 153.166 458 169.077 458 188.705V256.399C458 276.027 442.089 291.938 422.461 291.938Z" stroke="white" stroke-width="15" stroke-miterlimit="10" stroke-linecap="round" stroke-linejoin="round"/>
<path d="M78.0981 189.536H50.0161V256.181H78.0981M76.0271 222.859H50.0161M285.699 189.536H257.617V256.181H285.699M283.629 222.859H257.617M111.751 188.922L159.066 256.181M155.736 188.922L108.354 256.181M378.839 188.922H415.984M397.337 191.07V256.181M324.01 224.08L352.263 256.181M315.899 188.922V256.181M315.921 188.922H333.794C343.798 188.922 352.263 196.748 352.263 206.402C352.263 216.056 343.798 223.882 333.794 223.882C328.833 223.882 316.045 223.959 316.045 223.959M189.184 256.181V188.922H207.912C218.395 188.922 227.264 197.42 227.264 207.903C227.264 218.386 218.394 226.884 207.912 226.884C202.713 226.884 189.314 226.968 189.314 226.968" stroke="white" stroke-width="15" stroke-miterlimit="10" stroke-linecap="round" stroke-linejoin="round"/>
</svg>
