<svg width="20" height="20" viewBox="0 0 20 20" fill="none" xmlns="http://www.w3.org/2000/svg">
<path d="M10.0001 18.3327C14.6025 18.3327 18.3334 14.6017 18.3334 9.99935C18.3334 5.39698 14.6025 1.66602 10.0001 1.66602C5.39771 1.66602 1.66675 5.39698 1.66675 9.99935C1.66675 14.6017 5.39771 18.3327 10.0001 18.3327Z" stroke="#000" stroke-width="1.5" stroke-linecap="round" stroke-linejoin="round"/>
<path d="M6.66667 2.5H7.5C5.875 7.36667 5.875 12.6333 7.5 17.5H6.66667" stroke="#000" stroke-width="1.5" stroke-linecap="round" stroke-linejoin="round"/>
<path d="M12.5 2.5C14.125 7.36667 14.125 12.6333 12.5 17.5" stroke="#000" stroke-width="1.5" stroke-linecap="round" stroke-linejoin="round"/>
<path d="M2.5 13.3333V12.5C7.36667 14.125 12.6333 14.125 17.5 12.5V13.3333" stroke="#000" stroke-width="1.5" stroke-linecap="round" stroke-linejoin="round"/>
<path d="M2.5 7.5C7.36667 5.875 12.6333 5.875 17.5 7.5" stroke="#000" stroke-width="1.5" stroke-linecap="round" stroke-linejoin="round"/>
</svg>
