<svg width="84" height="85" viewBox="0 0 84 85" fill="none" xmlns="http://www.w3.org/2000/svg">
<path d="M58 84.5H10C7.34881 84.4968 4.80711 83.4422 2.93244 81.5675C1.05776 79.6929 0.00317571 77.1512 0 74.5V10.5C0.00317571 7.84881 1.05776 5.30711 2.93244 3.43244C4.80711 1.55776 7.34881 0.503176 10 0.5H40.92C42.2518 0.500892 43.5701 0.766578 44.7982 1.2816C46.0264 1.79663 47.1399 2.55071 48.074 3.5L65.15 20.978C66.9816 22.8478 68.0051 25.3625 68 27.98V42.88C68 43.4104 67.7893 43.9191 67.4142 44.2942C67.0391 44.6693 66.5304 44.88 66 44.88C65.4695 44.88 64.9608 44.6693 64.5858 44.2942C64.2107 43.9191 64 43.4104 64 42.88V27.98C64.0008 26.4099 63.3862 24.9021 62.288 23.78L45.21 6.3C44.6503 5.73001 43.9827 5.27727 43.2462 4.96821C42.5096 4.65915 41.7188 4.49998 40.92 4.5H10C8.4087 4.5 6.88257 5.13214 5.75736 6.25736C4.63214 7.38258 4 8.9087 4 10.5V74.5C4 76.0913 4.63214 77.6174 5.75736 78.7426C6.88257 79.8678 8.4087 80.5 10 80.5H58C58.7545 80.5029 59.5021 80.3568 60.2 80.07C60.6906 79.8681 61.2414 79.8695 61.731 80.0737C62.2207 80.2779 62.6091 80.6683 62.811 81.159C63.0128 81.6496 63.0115 82.2004 62.8072 82.69C62.603 83.1797 62.2126 83.5681 61.722 83.77C60.5412 84.255 59.2765 84.503 58 84.5Z" fill="white"/>
<path d="M65.18 26.5011H52C49.3488 26.4979 46.8071 25.4433 44.9324 23.5686C43.0578 21.694 42.0032 19.1523 42 16.5011V3.12109C42 2.59066 42.2107 2.08195 42.5858 1.70688C42.9609 1.33181 43.4696 1.12109 44 1.12109C44.5304 1.12109 45.0392 1.33181 45.4142 1.70688C45.7893 2.08195 46 2.59066 46 3.12109V16.5011C46 18.0924 46.6321 19.6185 47.7574 20.7437C48.8826 21.8689 50.4087 22.5011 52 22.5011H65.18C65.7104 22.5011 66.2191 22.7118 66.5942 23.0869C66.9693 23.4619 67.18 23.9707 67.18 24.5011C67.18 25.0315 66.9693 25.5402 66.5942 25.9153C66.2191 26.2904 65.7104 26.5011 65.18 26.5011ZM62 84.2091C61.2113 84.21 60.4401 83.9768 59.784 83.5391L53.36 79.2551C49.2474 76.5206 45.8752 72.811 43.5442 68.457C41.2131 64.1029 39.9955 59.2398 40 54.3011V50.8771C40.0039 49.9772 40.3098 49.1047 40.8686 48.3994C41.4275 47.694 42.2069 47.1967 43.082 46.9871C49.0218 45.3452 54.6724 42.7959 59.834 39.4291C60.4798 39.0131 61.2318 38.7919 62 38.7919C62.7682 38.7919 63.5202 39.0131 64.166 39.4291C69.3273 42.7963 74.978 45.3457 80.918 46.9871C81.7931 47.1967 82.5725 47.694 83.1314 48.3994C83.6902 49.1047 83.9961 49.9772 84 50.8771V54.3011C84.0058 59.2412 82.7889 64.1059 80.4577 68.4614C78.1266 72.8169 74.7538 76.5278 70.64 79.2631L64.218 83.5451C63.5607 83.981 62.7887 84.2121 62 84.2091ZM62 42.7891C56.4703 46.3964 50.4142 49.1235 44.048 50.8731L44 54.3011C43.9951 58.5824 45.0498 62.7984 47.07 66.5732C49.0902 70.348 52.013 73.5642 55.578 75.9351L62 80.2091L68.422 75.9271C71.9858 73.557 74.908 70.342 76.9281 66.5687C78.9482 62.7955 80.0035 58.5811 80 54.3011V50.8771C73.6181 49.1285 67.5459 46.4007 62 42.7911V42.7891Z" fill="white"/>
<path d="M60 66.5C59.4696 66.4999 58.961 66.2891 58.586 65.914L54.586 61.914C54.2217 61.5368 54.0201 61.0316 54.0246 60.5072C54.0292 59.9828 54.2395 59.4812 54.6103 59.1103C54.9812 58.7395 55.4828 58.5292 56.0072 58.5246C56.5316 58.5201 57.0368 58.7217 57.414 59.086L60 61.672L66.586 55.086C66.9632 54.7217 67.4684 54.5201 67.9928 54.5246C68.5172 54.5292 69.0188 54.7395 69.3896 55.1103C69.7604 55.4812 69.9708 55.9828 69.9753 56.5072C69.9799 57.0316 69.7783 57.5368 69.414 57.914L61.414 65.914C61.039 66.2891 60.5304 66.4999 60 66.5ZM30 20.5H14C13.4696 20.5 12.9609 20.2893 12.5858 19.9142C12.2107 19.5391 12 19.0304 12 18.5C12 17.9696 12.2107 17.4609 12.5858 17.0858C12.9609 16.7107 13.4696 16.5 14 16.5H30C30.5304 16.5 31.0391 16.7107 31.4142 17.0858C31.7893 17.4609 32 17.9696 32 18.5C32 19.0304 31.7893 19.5391 31.4142 19.9142C31.0391 20.2893 30.5304 20.5 30 20.5ZM42 32.5H14C13.4696 32.5 12.9609 32.2893 12.5858 31.9142C12.2107 31.5391 12 31.0304 12 30.5C12 29.9696 12.2107 29.4609 12.5858 29.0858C12.9609 28.7107 13.4696 28.5 14 28.5H42C42.5304 28.5 43.0391 28.7107 43.4142 29.0858C43.7893 29.4609 44 29.9696 44 30.5C44 31.0304 43.7893 31.5391 43.4142 31.9142C43.0391 32.2893 42.5304 32.5 42 32.5ZM46 44.5H14C13.4696 44.5 12.9609 44.2893 12.5858 43.9142C12.2107 43.5391 12 43.0304 12 42.5C12 41.9696 12.2107 41.4608 12.5858 41.0858C12.9609 40.7107 13.4696 40.5 14 40.5H46C46.5304 40.5 47.0391 40.7107 47.4142 41.0858C47.7893 41.4608 48 41.9696 48 42.5C48 43.0304 47.7893 43.5391 47.4142 43.9142C47.0391 44.2893 46.5304 44.5 46 44.5ZM34 56.5H14C13.4696 56.5 12.9609 56.2893 12.5858 55.9142C12.2107 55.5391 12 55.0304 12 54.5C12 53.9696 12.2107 53.4608 12.5858 53.0858C12.9609 52.7107 13.4696 52.5 14 52.5H34C34.5304 52.5 35.0391 52.7107 35.4142 53.0858C35.7893 53.4608 36 53.9696 36 54.5C36 55.0304 35.7893 55.5391 35.4142 55.9142C35.0391 56.2893 34.5304 56.5 34 56.5ZM34 68.5H14C13.4696 68.5 12.9609 68.2893 12.5858 67.9142C12.2107 67.5391 12 67.0304 12 66.5C12 65.9695 12.2107 65.4608 12.5858 65.0858C12.9609 64.7107 13.4696 64.5 14 64.5H34C34.5304 64.5 35.0391 64.7107 35.4142 65.0858C35.7893 65.4608 36 65.9695 36 66.5C36 67.0304 35.7893 67.5391 35.4142 67.9142C35.0391 68.2893 34.5304 68.5 34 68.5Z" fill="white"/>
</svg>
