<svg width="64" height="80" viewBox="0 0 64 80" fill="none" xmlns="http://www.w3.org/2000/svg">
<g clip-path="url(#clip0_2032_4425)">
<path d="M0.60875 24.9991H-7.75V22.4991H0.60875C1.75808 22.5021 2.89659 22.2771 3.95844 21.8372C5.02028 21.3974 5.98439 20.7514 6.795 19.9366L15.7412 10.9904C16.0041 10.7275 16.1518 10.3709 16.1518 9.99912C16.1518 9.62733 16.0041 9.27076 15.7412 9.00787C15.4784 8.74497 15.1218 8.59728 14.75 8.59728C14.3782 8.59728 14.0216 8.74497 13.7588 9.00787L6.88375 15.8829L5.11625 14.1154L11.9912 7.24037C12.7229 6.5087 13.7153 6.09766 14.75 6.09766C15.7847 6.09766 16.7771 6.5087 17.5088 7.24037C18.2404 7.97203 18.6515 8.96439 18.6515 9.99912C18.6515 11.0339 18.2404 12.0262 17.5088 12.7579L8.5625 21.7041C7.52058 22.7521 6.28108 23.583 4.91579 24.1486C3.5505 24.7142 2.08655 25.0033 0.60875 24.9991Z" fill="white" fill-opacity="0.2"/>
<path d="M-2.75 12.5H-7.75V10H-3.15625L10.265 0.23875C10.4786 0.0835285 10.7359 -5.05019e-05 11 2.28938e-08H27.25C28.2446 2.28938e-08 29.1984 0.395088 29.9016 1.09835C30.6049 1.80161 31 2.75544 31 3.75C31 4.74456 30.6049 5.69839 29.9016 6.40165C29.1984 7.10491 28.2446 7.5 27.25 7.5H19.0175L16.8838 9.63375L15.1162 7.86625L17.6162 5.36625C17.8506 5.13181 18.1685 5.00007 18.5 5H27.25C27.5815 5 27.8995 4.8683 28.1339 4.63388C28.3683 4.39946 28.5 4.08152 28.5 3.75C28.5 3.41848 28.3683 3.10054 28.1339 2.86612C27.8995 2.6317 27.5815 2.5 27.25 2.5H11.4062L-2.015 12.2612C-2.22863 12.4165 -2.48593 12.5001 -2.75 12.5Z" fill="white" fill-opacity="0.2"/>
<path d="M-7.75 27.5H-15.25C-15.5815 27.5 -15.8995 27.3683 -16.1339 27.1339C-16.3683 26.8995 -16.5 26.5815 -16.5 26.25V10C-16.5 9.66848 -16.3683 9.35054 -16.1339 9.11612C-15.8995 8.8817 -15.5815 8.75 -15.25 8.75H-7.75C-7.41848 8.75 -7.10054 8.8817 -6.86612 9.11612C-6.6317 9.35054 -6.5 9.66848 -6.5 10V26.25C-6.5 26.5815 -6.6317 26.8995 -6.86612 27.1339C-7.10054 27.3683 -7.41848 27.5 -7.75 27.5ZM-14 25H-9V11.25H-14V25ZM32.25 73.9C31.4784 73.9004 30.7239 73.6719 30.0822 73.2434C29.4405 72.8149 28.9403 72.2056 28.6449 71.4927C28.3496 70.7799 28.2723 69.9954 28.423 69.2386C28.5736 68.4818 28.9454 67.7867 29.4912 67.2412L38.4375 58.295C39.4794 57.247 40.7189 56.4161 42.0842 55.8505C43.4495 55.2849 44.9134 54.9958 46.3913 55H54.75V57.5H46.3913C45.2419 57.4971 44.1034 57.722 43.0416 58.1619C41.9797 58.6017 41.0156 59.2477 40.205 60.0625L31.2588 69.0088C30.9959 69.2716 30.8482 69.6282 30.8482 70C30.8482 70.3718 30.9959 70.7284 31.2588 70.9912C31.5216 71.2541 31.8782 71.4018 32.25 71.4018C32.6218 71.4018 32.9784 71.2541 33.2412 70.9912L40.1162 64.1162L41.8838 65.8838L35.0088 72.7588C34.6467 73.1212 34.2166 73.4086 33.7432 73.6045C33.2698 73.8003 32.7623 73.9007 32.25 73.9Z" fill="white" fill-opacity="0.2"/>
<path d="M36 80H19.75C18.7554 80 17.8016 79.6049 17.0983 78.9016C16.3951 78.1984 16 77.2446 16 76.25C16 75.2554 16.3951 74.3016 17.0983 73.5984C17.8016 72.8951 18.7554 72.5 19.75 72.5H27.9825L30.1162 70.3662L31.8838 72.1338L29.3838 74.6338C29.1494 74.8682 28.8315 74.9999 28.5 75H19.75C19.4185 75 19.1005 75.1317 18.8661 75.3661C18.6317 75.6005 18.5 75.9185 18.5 76.25C18.5 76.5815 18.6317 76.8995 18.8661 77.1339C19.1005 77.3683 19.4185 77.5 19.75 77.5H35.5938L49.015 67.7388C49.2286 67.5835 49.4859 67.4999 49.75 67.5H54.75V70H50.1562L36.735 79.7612C36.5214 79.9165 36.2641 80.0001 36 80Z" fill="white" fill-opacity="0.2"/>
<path d="M62.25 71.25H54.75C54.4185 71.25 54.1005 71.1183 53.8661 70.8839C53.6317 70.6495 53.5 70.3315 53.5 70V53.75C53.5 53.4185 53.6317 53.1005 53.8661 52.8661C54.1005 52.6317 54.4185 52.5 54.75 52.5H62.25C62.5815 52.5 62.8995 52.6317 63.1339 52.8661C63.3683 53.1005 63.5 53.4185 63.5 53.75V70C63.5 70.3315 63.3683 70.6495 63.1339 70.8839C62.8995 71.1183 62.5815 71.25 62.25 71.25ZM56 68.75H61V55H56V68.75ZM27.25 61.25H19.75C19.4185 61.25 19.1005 61.1183 18.8661 60.8839C18.6317 60.6495 18.5 60.3315 18.5 60V56.7575C17.3517 56.4149 16.242 55.9541 15.1887 55.3825L12.8937 57.6762C12.6593 57.9106 12.3415 58.0422 12.01 58.0422C11.6785 58.0422 11.3607 57.9106 11.1262 57.6762L5.82125 52.375C5.58691 52.1406 5.45527 51.8227 5.45527 51.4912C5.45527 51.1598 5.58691 50.8419 5.82125 50.6075L8.11625 48.3125C7.545 47.2588 7.08462 46.1487 6.7425 45H3.5C3.16848 45 2.85054 44.8683 2.61612 44.6339C2.3817 44.3995 2.25 44.0815 2.25 43.75V36.25C2.25 35.9185 2.3817 35.6005 2.61612 35.3661C2.85054 35.1317 3.16848 35 3.5 35H6.7425C7.0851 33.8517 7.5459 32.742 8.1175 31.6887L5.8225 29.3937C5.58816 29.1593 5.45652 28.8415 5.45652 28.51C5.45652 28.1785 5.58816 27.8607 5.8225 27.6262L11.125 22.3213C11.3594 22.0869 11.6773 21.9553 12.0087 21.9553C12.3402 21.9553 12.6581 22.0869 12.8925 22.3213L15.1875 24.6163C16.2412 24.045 17.3513 23.5846 18.5 23.2425V20C18.5 19.6685 18.6317 19.3505 18.8661 19.1161C19.1005 18.8817 19.4185 18.75 19.75 18.75H27.25C27.5815 18.75 27.8995 18.8817 28.1339 19.1161C28.3683 19.3505 28.5 19.6685 28.5 20V23.2425C29.6483 23.5851 30.758 24.0459 31.8112 24.6175L34.1063 22.3225C34.3407 22.0882 34.6585 21.9565 34.99 21.9565C35.3215 21.9565 35.6393 22.0882 35.8737 22.3225L41.1788 27.625C41.4131 27.8594 41.5447 28.1773 41.5447 28.5087C41.5447 28.8402 41.4131 29.1581 41.1788 29.3925L38.8838 31.6875C39.455 32.7412 39.9154 33.8513 40.2575 35H43.5C43.8315 35 44.1495 35.1317 44.3839 35.3661C44.6183 35.6005 44.75 35.9185 44.75 36.25V43.75C44.75 44.0815 44.6183 44.3995 44.3839 44.6339C44.1495 44.8683 43.8315 45 43.5 45H40.2575C39.9149 46.1483 39.4541 47.258 38.8825 48.3112L41.1775 50.6063C41.4118 50.8407 41.5435 51.1585 41.5435 51.49C41.5435 51.8215 41.4118 52.1393 41.1775 52.3737L35.875 57.6775C35.6406 57.9118 35.3227 58.0435 34.9912 58.0435C34.6598 58.0435 34.3419 57.9118 34.1075 57.6775L31.8125 55.3838C30.7588 55.955 29.6487 56.4154 28.5 56.7575V60C28.5 60.3315 28.3683 60.6495 28.1339 60.8839C27.8995 61.1183 27.5815 61.25 27.25 61.25ZM21 58.75H26V55.7988C26.0001 55.5173 26.0951 55.244 26.2698 55.0233C26.4445 54.8026 26.6886 54.6472 26.9625 54.5825C28.5165 54.2131 30.0011 53.597 31.36 52.7575C31.5996 52.6095 31.8822 52.5467 32.1619 52.5794C32.4417 52.6121 32.7022 52.7382 32.9012 52.9375L34.99 55.0262L38.5262 51.49L36.4375 49.4012C36.2382 49.2022 36.1121 48.9417 36.0794 48.6619C36.0467 48.3822 36.1095 48.0996 36.2575 47.86C37.097 46.5011 37.7131 45.0165 38.0825 43.4625C38.1472 43.1886 38.3026 42.9445 38.5233 42.7698C38.744 42.5951 39.0173 42.5001 39.2988 42.5H42.25V37.5H39.2988C39.0173 37.4999 38.744 37.4049 38.5233 37.2302C38.3026 37.0555 38.1472 36.8114 38.0825 36.5375C37.7131 34.9835 37.097 33.4989 36.2575 32.14C36.1095 31.9004 36.0467 31.6178 36.0794 31.3381C36.1121 31.0583 36.2382 30.7978 36.4375 30.5988L38.5262 28.51L34.99 24.9738L32.9012 27.0625C32.7022 27.2617 32.4417 27.3879 32.1619 27.4206C31.8822 27.4533 31.5996 27.3905 31.36 27.2425C30.0011 26.403 28.5165 25.7869 26.9625 25.4175C26.6886 25.3528 26.4445 25.1974 26.2698 24.9767C26.0951 24.756 26.0001 24.4827 26 24.2013V21.25H21V24.2013C20.9999 24.4827 20.9049 24.756 20.7302 24.9767C20.5555 25.1974 20.3114 25.3528 20.0375 25.4175C18.4835 25.7869 16.9989 26.403 15.64 27.2425C15.4004 27.3905 15.1178 27.4533 14.8381 27.4206C14.5583 27.3879 14.2978 27.2617 14.0988 27.0625L12.01 24.9738L8.47375 28.51L10.5625 30.5988C10.7617 30.7978 10.8879 31.0583 10.9206 31.3381C10.9533 31.6178 10.8905 31.9004 10.7425 32.14C9.90305 33.4989 9.28689 34.9835 8.9175 36.5375C8.85276 36.8114 8.69744 37.0555 8.47671 37.2302C8.25597 37.4049 7.98274 37.4999 7.70125 37.5H4.75V42.5H7.70125C7.98274 42.5001 8.25597 42.5951 8.47671 42.7698C8.69744 42.9445 8.85276 43.1886 8.9175 43.4625C9.28689 45.0165 9.90305 46.5011 10.7425 47.86C10.8905 48.0996 10.9533 48.3822 10.9206 48.6619C10.8879 48.9417 10.7617 49.2022 10.5625 49.4012L8.47375 51.49L12.01 55.0262L14.0988 52.9375C14.2978 52.7382 14.5583 52.6121 14.8381 52.5794C15.1178 52.5467 15.4004 52.6095 15.64 52.7575C16.9989 53.597 18.4835 54.2131 20.0375 54.5825C20.3114 54.6472 20.5555 54.8026 20.7302 55.0233C20.9049 55.244 20.9999 55.5173 21 55.7988V58.75Z" fill="white" fill-opacity="0.2"/>
<path d="M23.5 51.25C21.275 51.25 19.0999 50.5902 17.2498 49.354C15.3998 48.1179 13.9578 46.3609 13.1064 44.3052C12.2549 42.2495 12.0321 39.9875 12.4662 37.8052C12.9003 35.623 13.9717 33.6184 15.5451 32.0451C17.1184 30.4717 19.123 29.4003 21.3052 28.9662C23.4875 28.5321 25.7495 28.7549 27.8052 29.6064C29.8609 30.4578 31.6179 31.8998 32.854 33.7498C34.0902 35.5999 34.75 37.775 34.75 40C34.7467 42.9827 33.5604 45.8422 31.4513 47.9513C29.3422 50.0604 26.4827 51.2467 23.5 51.25ZM23.5 31.25C21.7694 31.25 20.0777 31.7632 18.6388 32.7246C17.1998 33.6861 16.0783 35.0527 15.4161 36.6515C14.7538 38.2504 14.5805 40.0097 14.9181 41.707C15.2558 43.4044 16.0891 44.9635 17.3128 46.1872C18.5365 47.4109 20.0956 48.2443 21.793 48.5819C23.4903 48.9195 25.2496 48.7462 26.8485 48.084C28.4473 47.4217 29.8139 46.3002 30.7754 44.8612C31.7368 43.4223 32.25 41.7306 32.25 40C32.247 37.6803 31.3242 35.4564 29.6839 33.8161C28.0436 32.1758 25.8197 31.253 23.5 31.25Z" fill="white" fill-opacity="0.2"/>
<path d="M23.5 47.5C22.0166 47.5 20.5666 47.0601 19.3332 46.236C18.0999 45.4119 17.1386 44.2406 16.5709 42.8701C16.0032 41.4997 15.8547 39.9917 16.1441 38.5368C16.4335 37.082 17.1478 35.7456 18.1967 34.6967C19.2456 33.6478 20.582 32.9335 22.0368 32.6441C23.4917 32.3547 24.9997 32.5032 26.3701 33.0709C27.7406 33.6386 28.9119 34.5999 29.736 35.8332C30.5601 37.0666 31 38.5166 31 40C30.998 41.9885 30.2072 43.895 28.8011 45.3011C27.395 46.7072 25.4885 47.498 23.5 47.5ZM23.5 35C22.5111 35 21.5444 35.2932 20.7221 35.8427C19.8999 36.3921 19.259 37.173 18.8806 38.0866C18.5022 39.0002 18.4031 40.0055 18.5961 40.9755C18.789 41.9454 19.2652 42.8363 19.9645 43.5355C20.6637 44.2348 21.5546 44.711 22.5245 44.9039C23.4945 45.0969 24.4998 44.9978 25.4134 44.6194C26.327 44.241 27.1079 43.6001 27.6573 42.7779C28.2068 41.9556 28.5 40.9889 28.5 40C28.5 38.6739 27.9732 37.4021 27.0355 36.4645C26.0979 35.5268 24.8261 35 23.5 35ZM52.25 40H49.75C49.742 33.5964 47.397 27.416 43.1553 22.6187C38.9136 17.8214 33.0669 14.7372 26.7125 13.945L28.1338 15.3663L26.3662 17.1337L22.6162 13.3837C22.4415 13.2089 22.3225 12.9862 22.2743 12.7438C22.2261 12.5013 22.2508 12.2501 22.3454 12.0217C22.44 11.7933 22.6002 11.5981 22.8057 11.4607C23.0112 11.3234 23.2528 11.2501 23.5 11.25C31.1224 11.2583 38.4303 14.2899 43.8202 19.6798C49.2101 25.0697 52.2417 32.3776 52.25 40ZM23.5 68.75C15.8776 68.7417 8.56969 65.7101 3.17982 60.3202C-2.21006 54.9303 -5.24173 47.6224 -5.25 40H-2.75C-2.74195 46.4036 -0.397008 52.584 3.84468 57.3813C8.08636 62.1786 13.9331 65.2628 20.2875 66.055L18.8662 64.6338L20.6338 62.8662L24.3838 66.6162C24.5585 66.7911 24.6775 67.0138 24.7257 67.2562C24.7739 67.4987 24.7492 67.7499 24.6546 67.9783C24.56 68.2067 24.3998 68.4019 24.1943 68.5393C23.9888 68.6766 23.7472 68.7499 23.5 68.75Z" fill="white" fill-opacity="0.2"/>
<path d="M18.8662 70.3659L22.6162 66.6159L24.385 68.3834L20.635 72.1334L18.8662 70.3659ZM22.6175 11.6172L26.3675 7.86719L28.135 9.63469L24.385 13.3847L22.6175 11.6172Z" fill="white" fill-opacity="0.2"/>
</g>
<defs>
<clipPath id="clip0_2032_4425">
<rect width="80" height="80" fill="white" transform="translate(-16.5)"/>
</clipPath>
</defs>
</svg>
