<svg width="61" height="60" viewBox="0 0 61 60" fill="none" xmlns="http://www.w3.org/2000/svg">
<g clip-path="url(#clip0_2446_5280)">
<path d="M60.3952 0.84271C60.2921 0.593346 60.1173 0.380169 59.8931 0.230158C59.6688 0.0801482 59.405 4.94385e-05 59.1352 0C6.21347 0 0.5 21.9322 0.5 31.3629C0.5 43.5972 9.81621 51.8171 23.6813 51.8171C41.1927 51.8171 44.8609 35.1537 46.8327 26.203C49.4835 14.1514 55.3171 7.11522 60.1006 2.32896C60.2915 2.13834 60.4215 1.89527 60.4739 1.63063C60.5264 1.36599 60.499 1.09173 60.3952 0.84271ZM44.1681 25.6167C41.6672 36.9729 37.8192 49.0899 23.6813 49.0899C11.447 49.0899 3.22717 41.9664 3.22717 31.3629C3.22717 22.9385 8.44157 3.58893 55.917 2.7544C51.4089 7.7153 46.5627 14.7215 44.1681 25.6167Z" fill="white"/>
<path d="M38.5447 14.4043C38.2147 13.7279 37.3992 13.447 36.7228 13.7716C14.5588 24.5114 0.5 50.5262 0.5 58.6343C0.5 59.387 1.11094 59.9979 1.86365 59.9979C2.61636 59.9979 3.2273 59.387 3.2273 58.6343C3.2273 52.2607 15.5298 27.0721 37.912 16.2261C38.5883 15.8961 38.8719 15.0806 38.5447 14.4043Z" fill="white"/>
</g>
<defs>
<clipPath id="clip0_2446_5280">
<rect width="60" height="60" fill="white" transform="translate(0.5)"/>
</clipPath>
</defs>
</svg>
