<svg width="64" height="80" viewBox="0 0 64 80" fill="none" xmlns="http://www.w3.org/2000/svg">
<g clip-path="url(#clip0_2032_4408)">
<path d="M47.5 32C56.323 32 63.5 24.8228 63.5 16C63.5 7.17717 56.3228 0 47.5 0C41.0932 0 35.569 3.79367 33.0163 9.2455L28.7318 7.664C28.7825 7.336 28.8333 7.00783 28.8333 6.66667C28.8333 2.99083 25.8425 0 22.1667 0C18.4908 0 15.5 2.99083 15.5 6.66667C15.5 10.3425 18.4908 13.3333 22.1667 13.3333C24.5547 13.3333 26.6373 12.06 27.8145 10.168L32.0918 11.7467C31.7162 13.1042 31.5 14.5253 31.5 16C31.5 17.7467 31.7903 19.4238 32.3105 20.9987L17.6465 27.2137C14.9615 22.1372 9.63217 18.6667 3.5 18.6667C1.513 18.6667 -0.382832 19.0483 -2.14 19.7122L-5.82817 11.9617C-4.2215 10.7428 -3.16667 8.83333 -3.16667 6.66667C-3.16667 2.99083 -6.1575 0 -9.83333 0C-13.5092 0 -16.5 2.99083 -16.5 6.66667C-16.5 10.3425 -13.5092 13.3333 -9.83333 13.3333C-9.27867 13.3333 -8.74667 13.2455 -8.2305 13.1158L-4.54683 20.8587C-9.295 23.6373 -12.5 28.7787 -12.5 34.6667C-12.5 40.1973 -9.67833 45.0788 -5.401 47.9532L-7.84 52.3372C-8.47467 52.1373 -9.135 52 -9.83333 52C-13.5092 52 -16.5 54.9908 -16.5 58.6667C-16.5 62.3425 -13.5092 65.3333 -9.83333 65.3333C-6.1575 65.3333 -3.16667 62.3425 -3.16667 58.6667C-3.16667 56.6478 -4.08783 54.8575 -5.50917 53.6348L-3.06517 49.2415C-1.05983 50.1492 1.15883 50.6667 3.5 50.6667C7.15883 50.6667 10.5242 49.4187 13.2227 47.3437L18.4707 53.1172C15.8092 55.9758 14.1667 59.795 14.1667 64C14.1667 64.8158 14.248 65.6107 14.3652 66.3933L8.19083 67.8587C7.12833 65.5867 4.83583 64 2.16667 64C-1.50917 64 -4.5 66.9908 -4.5 70.6667C-4.5 74.3425 -1.50917 77.3333 2.16667 77.3333C5.8425 77.3333 8.83333 74.3425 8.83333 70.6667C8.83333 70.5932 8.81317 70.5242 8.81183 70.4505L14.9747 68.9897C17.0762 75.3742 23.0867 80 30.1667 80C38.9897 80 46.1667 72.8228 46.1667 64C46.1667 61.2643 45.4747 58.6882 44.2583 56.435L52.0905 51.3425C53.3015 52.5692 54.9785 53.3333 56.8333 53.3333C60.5092 53.3333 63.5 50.3425 63.5 46.6667C63.5 42.9908 60.5092 40 56.8333 40C53.1575 40 50.1667 42.9908 50.1667 46.6667C50.1667 47.528 50.3438 48.3463 50.6425 49.1028L42.7923 54.2063C41.2131 52.1749 39.1696 50.5518 36.8333 49.4733L43.3412 31.4323C44.6693 31.7903 46.0598 32 47.5 32ZM22.1667 10.6667C19.9617 10.6667 18.1667 8.87167 18.1667 6.66667C18.1667 4.46167 19.9617 2.66667 22.1667 2.66667C24.3717 2.66667 26.1667 4.46167 26.1667 6.66667C26.1667 8.87167 24.3717 10.6667 22.1667 10.6667ZM-13.8333 6.66667C-13.8333 4.46167 -12.0383 2.66667 -9.83333 2.66667C-7.62833 2.66667 -5.83333 4.46167 -5.83333 6.66667C-5.83333 8.87167 -7.62833 10.6667 -9.83333 10.6667C-12.0383 10.6667 -13.8333 8.87167 -13.8333 6.66667ZM-9.83333 62.6667C-12.0383 62.6667 -13.8333 60.8717 -13.8333 58.6667C-13.8333 56.4617 -12.0383 54.6667 -9.83333 54.6667C-7.62833 54.6667 -5.83333 56.4617 -5.83333 58.6667C-5.83333 60.8717 -7.62833 62.6667 -9.83333 62.6667ZM2.16667 74.6667C-0.038332 74.6667 -1.83333 72.8717 -1.83333 70.6667C-1.83333 68.4617 -0.038332 66.6667 2.16667 66.6667C4.37167 66.6667 6.16667 68.4617 6.16667 70.6667C6.16667 72.8717 4.37167 74.6667 2.16667 74.6667ZM56.8333 42.6667C59.0383 42.6667 60.8333 44.4617 60.8333 46.6667C60.8333 48.8717 59.0383 50.6667 56.8333 50.6667C54.6283 50.6667 52.8333 48.8717 52.8333 46.6667C52.8333 44.4617 54.6283 42.6667 56.8333 42.6667ZM39.6478 26.752C40.2428 23.668 42.9617 21.3333 46.1667 21.3333H48.8333C52.0383 21.3333 54.7572 23.668 55.3522 26.752C53.1467 28.3665 50.4375 29.3333 47.5 29.3333C44.5625 29.3333 41.8535 28.3667 39.6478 26.752ZM47.5 18.6667C45.295 18.6667 43.5 16.8717 43.5 14.6667C43.5 12.4617 45.295 10.6667 47.5 10.6667C49.705 10.6667 51.5 12.4617 51.5 14.6667C51.5 16.8717 49.705 18.6667 47.5 18.6667ZM47.5 2.66667C54.8522 2.66667 60.8333 8.64783 60.8333 16C60.8333 19.3333 59.5943 22.3788 57.5638 24.7188C56.6295 22.2585 54.6817 20.295 52.2545 19.3255C53.435 18.1223 54.1667 16.48 54.1667 14.6667C54.1667 10.9908 51.1758 8 47.5 8C43.8242 8 40.8333 10.9908 40.8333 14.6667C40.8333 16.4798 41.565 18.1223 42.7455 19.3255C40.3183 20.295 38.3705 22.2585 37.4362 24.7188C35.4057 22.3788 34.1667 19.3333 34.1667 16C34.1667 8.64783 40.1478 2.66667 47.5 2.66667ZM-9.83333 34.6667C-9.83333 27.3145 -3.85217 21.3333 3.5 21.3333C10.8522 21.3333 16.8333 27.3145 16.8333 34.6667C16.8333 38.0105 15.5867 41.0638 13.5455 43.4068C12.6147 40.9375 10.6628 38.9642 8.22917 37.9922C9.40817 36.789 10.14 35.1465 10.14 33.3333C10.14 29.6575 7.14917 26.6667 3.47333 26.6667C-0.202499 26.6667 -3.19333 29.6575 -3.19333 33.3333C-3.19333 35.1465 -2.46167 36.789 -1.28133 37.9922C-3.70117 38.9572 -5.64633 40.9133 -6.584 43.3638C-8.60283 41.0267 -9.83333 37.991 -9.83333 34.6667ZM-0.526667 33.3333C-0.526667 31.1283 1.26833 29.3333 3.47333 29.3333C5.67833 29.3333 7.47333 31.1283 7.47333 33.3333C7.47333 35.5383 5.67833 37.3333 3.47333 37.3333C1.26833 37.3333 -0.526667 35.5383 -0.526667 33.3333ZM-4.37433 45.401C-3.7735 42.3255 -1.05867 40 2.14 40H4.80667C8.0175 40 10.7417 42.3425 11.3282 45.4362C9.127 47.0412 6.4265 48 3.5 48C0.552 48 -2.16533 47.0267 -4.37433 45.401ZM22.2923 74.7343C22.8932 71.6588 25.608 69.3333 28.8067 69.3333H31.4733C34.6842 69.3333 37.4083 71.6758 37.9948 74.7695C35.7937 76.3745 33.0932 77.3333 30.1667 77.3333C27.2187 77.3333 24.5013 76.36 22.2923 74.7343ZM30.14 66.6667C27.935 66.6667 26.14 64.8717 26.14 62.6667C26.14 60.4617 27.935 58.6667 30.14 58.6667C32.345 58.6667 34.14 60.4617 34.14 62.6667C34.14 64.8717 32.345 66.6667 30.14 66.6667ZM43.5 64C43.5 67.3438 42.2533 70.3972 40.2122 72.7402C39.2812 70.2708 37.3295 68.2975 34.8958 67.3255C36.0748 66.1223 36.8067 64.4798 36.8067 62.6667C36.8067 58.9908 33.8158 56 30.14 56C26.4642 56 23.4733 58.9908 23.4733 62.6667C23.4733 64.4798 24.205 66.1223 25.3853 67.3255C22.9655 68.2905 21.0203 70.2467 20.0827 72.6972C18.0638 70.36 16.8333 67.3243 16.8333 64C16.8333 56.6478 22.8145 50.6667 30.1667 50.6667C37.5188 50.6667 43.5 56.6478 43.5 64ZM34.3255 48.5677C32.9973 48.2097 31.6068 48 30.1667 48C26.5078 48 23.1425 49.248 20.444 51.323L15.196 45.5495C17.8575 42.6908 19.5 38.8717 19.5 34.6667C19.5 32.92 19.2097 31.2428 18.6895 29.668L33.3535 23.453C34.9962 26.5587 37.6322 29.0508 40.8347 30.5267L34.3255 48.5677Z" fill="white" fill-opacity="0.2"/>
</g>
<defs>
<clipPath id="clip0_2032_4408">
<rect width="80" height="80" fill="white" transform="translate(-16.5)"/>
</clipPath>
</defs>
</svg>
