<svg width="111" height="111" viewBox="0 0 111 111" fill="none" xmlns="http://www.w3.org/2000/svg">
<path d="M86.65 98.35C86.5981 98.218 86.5185 98.0987 86.4167 98C86.4 97.9833 86.4 97.9667 86.3833 97.95L83.05 94.6167C82.5667 94.1333 81.7667 94.1333 81.2833 94.6167C80.8 95.1 80.8 95.9 81.2833 96.3833L82.4833 97.5833H53.3333C52.7167 92.8833 48.7 89.25 43.8333 89.25C38.55 89.25 34.25 93.55 34.25 98.8333C34.25 104.117 38.55 108.417 43.8333 108.417C45.1667 108.417 46.45 108.15 47.6667 107.617C48.3 107.333 48.5833 106.6 48.3167 105.967C48.05 105.333 47.3 105.05 46.6667 105.317C45.5878 105.783 44.4101 105.974 43.2392 105.873C42.0683 105.772 40.9407 105.382 39.9578 104.737C38.9748 104.093 38.1672 103.215 37.6073 102.182C37.0475 101.148 36.7529 99.992 36.75 98.8167C36.75 94.9167 39.9333 91.7333 43.8333 91.7333C47.7333 91.7333 50.9167 94.9167 50.9167 98.8167C50.9167 100.35 50.4333 101.8 49.5333 103.033C49.1167 103.583 49.2333 104.367 49.8 104.783C50.35 105.2 51.1333 105.083 51.55 104.517C52.5333 103.2 53.1167 101.683 53.3333 100.067H82.5L81.3 101.267C80.8167 101.75 80.8167 102.55 81.3 103.033C81.55 103.283 81.8667 103.4 82.1833 103.4C82.5 103.4 82.8167 103.283 83.0667 103.033L86.4 99.7C86.5167 99.5833 86.6167 99.45 86.6667 99.2833C86.7333 99.1333 86.75 98.9833 86.7667 98.8333V98.8167C86.7515 98.6561 86.7122 98.4988 86.65 98.35Z" fill="white"/>
<path d="M28.05 94.6181C27.5667 94.1348 26.7667 94.1348 26.2834 94.6181C25.8 95.1015 25.8 95.9015 26.2834 96.3848L27.4834 97.5848H25.5C14.25 97.5848 5.08337 88.4181 5.08337 77.1681C5.08337 66.3348 13.5667 57.4681 24.25 56.8181V59.7515C24.25 60.3681 24.7 60.9015 25.3167 60.9848L30.8167 61.8015C31.4167 64.1515 32.35 66.4015 33.5834 68.5015L30.2667 72.9848C29.9 73.4848 29.95 74.1681 30.3834 74.6181L36.3834 80.6181C36.8167 81.0515 37.5167 81.1015 38.0167 80.7348L42.5 77.4181C44.6 78.6681 46.8334 79.5848 49.2 80.1848L50.0167 85.7015C50.1 86.3181 50.6334 86.7681 51.25 86.7681H59.7334C60.35 86.7681 60.8834 86.3181 60.9667 85.7015L61.7834 80.1848C64.1334 79.5848 66.3834 78.6515 68.4834 77.4181L72.9667 80.7348C73.5167 81.1515 74.3 81.0348 74.7167 80.4681C75.1334 79.9181 75.0167 79.1348 74.45 78.7181L69.3 74.9015C69.0964 74.7515 68.8522 74.6666 68.5994 74.6576C68.3467 74.6487 68.0971 74.7163 67.8834 74.8515C65.5834 76.3181 63.0834 77.3681 60.4334 77.9348C59.9334 78.0515 59.5334 78.4515 59.4667 78.9681L58.6834 84.2515H52.35L51.5667 78.9681C51.5297 78.718 51.4174 78.4852 51.2447 78.3005C51.072 78.1159 50.8471 77.9883 50.6 77.9348C47.95 77.3515 45.4334 76.3181 43.15 74.8515C42.9377 74.7124 42.6875 74.6425 42.4338 74.6515C42.1801 74.6604 41.9354 74.7478 41.7334 74.9015L37.45 78.0848L32.9834 73.6015L36.15 69.3181C36.4667 68.9015 36.4834 68.3348 36.2 67.9015C34.7334 65.6015 33.6834 63.0848 33.1167 60.4348C33.0634 60.1876 32.9359 59.9626 32.7512 59.7899C32.5665 59.6171 32.3335 59.5049 32.0834 59.4681L26.8 58.6848V52.3515L32.0834 51.5681C32.6 51.4848 33.0167 51.1015 33.1167 50.6015C33.3334 49.5848 33.6334 48.5848 33.9834 47.6181C34.0959 47.3065 34.0802 46.9629 33.9396 46.6629C33.7989 46.3629 33.5449 46.131 33.2334 46.0181C33.0792 45.9603 32.9151 45.9339 32.7506 45.9404C32.5861 45.947 32.4245 45.9863 32.2754 46.0562C32.1264 46.1261 31.9928 46.2251 31.8825 46.3473C31.7722 46.4696 31.6875 46.6127 31.6334 46.7681C31.3334 47.5681 31.0834 48.4015 30.8667 49.2348L25.35 50.0515C24.7334 50.1348 24.2834 50.6681 24.2834 51.2848V54.3348C12.2334 54.9848 2.6167 64.9681 2.6167 77.1848C2.6167 89.8181 12.9 100.101 25.5334 100.101H27.5167L26.3167 101.301C25.8334 101.785 25.8334 102.585 26.3167 103.068C26.5667 103.318 26.8834 103.435 27.2 103.435C27.5167 103.435 27.8334 103.318 28.0834 103.068L31.4167 99.7348C31.9 99.2515 31.9 98.4515 31.4167 97.9681L28.05 94.6181Z" fill="white"/>
<path d="M55.4998 68.2008C62.4998 68.2008 68.1998 62.5008 68.1998 55.5008C68.1998 48.5008 62.4998 42.8008 55.4998 42.8008C48.4998 42.8008 42.7998 48.5008 42.7998 55.5008C42.7998 62.5008 48.4998 68.2008 55.4998 68.2008ZM55.4998 45.3008C61.1331 45.3008 65.6998 49.8841 65.6998 55.5008C65.6998 61.1341 61.1165 65.7008 55.4998 65.7008C49.8831 65.7008 45.2998 61.1174 45.2998 55.5008C45.2998 49.8841 49.8665 45.3008 55.4998 45.3008Z" fill="white"/>
<path d="M108.417 33.834C108.417 21.2007 98.1333 10.9173 85.5 10.9173H76.6666C76.05 6.21732 72.0333 2.58398 67.1666 2.58398C61.8833 2.58398 57.5833 6.88398 57.5833 12.1673C57.5833 17.4507 61.8833 21.7507 67.1666 21.7507C68.5 21.7507 69.7833 21.484 71 20.9507C71.3027 20.8154 71.5404 20.5669 71.6619 20.2584C71.7834 19.9499 71.7791 19.606 71.65 19.3007C71.5147 18.9979 71.2662 18.7603 70.9577 18.6387C70.6492 18.5172 70.3054 18.5215 70 18.6507C68.9211 19.1169 67.7434 19.3081 66.5725 19.2069C65.4016 19.1058 64.2741 18.7156 63.2911 18.0714C62.3082 17.4271 61.5005 16.5488 60.9406 15.5155C60.3808 14.4821 60.0862 13.3259 60.0833 12.1507C60.0833 8.25065 63.2666 5.08398 67.1666 5.08398C71.0666 5.08398 74.25 8.26732 74.25 12.1673C74.25 13.7007 73.7666 15.1507 72.8666 16.384C72.45 16.934 72.5667 17.7173 73.1333 18.134C73.6833 18.5507 74.4666 18.434 74.8833 17.8673C75.8666 16.5507 76.45 15.034 76.6666 13.4173H85.5C96.75 13.4173 105.917 22.584 105.917 33.834C105.917 44.6673 97.4333 53.534 86.75 54.184V51.2507C86.75 50.634 86.3 50.1007 85.6833 50.0173L80.1666 49.2007C79.5666 46.8507 78.6333 44.6007 77.4 42.5007L80.7166 38.0173C80.8937 37.7753 80.9791 37.4783 80.9577 37.1793C80.9364 36.8802 80.8096 36.5984 80.6 36.384L74.6 30.384C74.3859 30.1738 74.104 30.0466 73.8048 30.0252C73.5055 30.0038 73.2084 30.0897 72.9666 30.2673L68.4833 33.584C66.3833 32.334 64.15 31.4173 61.7833 30.8173L60.9666 25.3007C60.9247 25.0038 60.7767 24.7322 60.55 24.5361C60.3232 24.34 60.0331 24.2327 59.7333 24.234H51.25C50.6333 24.234 50.1 24.684 50.0166 25.3007L49.2 30.8173C46.85 31.4173 44.6 32.3507 42.5 33.584L38.0166 30.2673C37.7746 30.0903 37.4777 30.0049 37.1786 30.0262C36.8795 30.0476 36.5977 30.1744 36.3833 30.384L30.3833 36.384C29.95 36.8173 29.9 37.5173 30.2666 38.0173L34.0833 43.1673C34.5 43.7173 35.2833 43.834 35.8333 43.434C36.3833 43.0173 36.5 42.234 36.1 41.684L32.9333 37.4007L37.4 32.9173L41.6833 36.1007C42.1 36.4007 42.6666 36.434 43.1 36.1507C45.4 34.684 47.9 33.634 50.55 33.0673C51.05 32.9507 51.45 32.5507 51.5166 32.034L52.3 26.7507H58.6333L59.4166 32.034C59.5 32.5507 59.8833 32.9673 60.3833 33.0673C63.0333 33.6507 65.55 34.684 67.8333 36.1507C68.2666 36.434 68.8333 36.4173 69.25 36.1007L73.5333 32.9173L78.0166 37.4007L74.8333 41.684C74.5166 42.1007 74.5 42.6673 74.7833 43.1007C76.2518 45.3838 77.2963 47.9132 77.8666 50.5673C77.9833 51.0673 78.3833 51.4673 78.9 51.534L84.1833 52.3173V58.6507L78.9 59.434C78.3833 59.5173 77.9666 59.9007 77.8666 60.4007C77.2833 63.0507 76.25 65.5673 74.7833 67.8673C74.5 68.3007 74.5166 68.8673 74.8333 69.284L78.0166 73.5673L75.8333 75.834C75.35 76.3173 75.35 77.1173 75.8333 77.6007C76.0833 77.8507 76.4 77.9673 76.7166 77.9673C77.0333 77.9673 77.35 77.8507 77.6 77.6007L80.6 74.6007C81.0333 74.1673 81.0833 73.4673 80.7166 72.9673L77.4 68.484C78.65 66.384 79.5833 64.134 80.1666 61.784L85.6666 60.9673C86.2833 60.884 86.7333 60.3507 86.7333 59.734V56.684C98.8 56.034 108.417 46.0507 108.417 33.834ZM98.8333 89.2507C93.55 89.2507 89.25 93.5507 89.25 98.834C89.25 104.117 93.55 108.417 98.8333 108.417C100.167 108.417 101.45 108.151 102.667 107.617C102.969 107.482 103.207 107.234 103.329 106.925C103.45 106.617 103.446 106.273 103.317 105.967C103.181 105.665 102.933 105.427 102.624 105.305C102.316 105.184 101.972 105.188 101.667 105.317C100.588 105.784 99.4101 105.975 98.2392 105.874C97.0682 105.773 95.9407 105.382 94.9578 104.738C93.9748 104.094 93.1672 103.216 92.6073 102.182C92.0474 101.149 91.7529 99.9926 91.75 98.8173C91.75 94.9173 94.9333 91.734 98.8333 91.734C102.733 91.734 105.917 94.9173 105.917 98.8173C105.917 100.351 105.433 101.801 104.533 103.034C104.117 103.584 104.233 104.367 104.8 104.784C105.35 105.201 106.133 105.084 106.55 104.517C107.783 102.851 108.433 100.884 108.433 98.8173C108.42 96.2784 107.403 93.8477 105.605 92.0555C103.807 90.2633 101.372 89.255 98.8333 89.2507Z" fill="white"/>
<path d="M12.1666 21.7507C13.4999 21.7507 14.7833 21.484 15.9999 20.9507C16.3027 20.8154 16.5403 20.5669 16.6618 20.2584C16.7834 19.9499 16.7791 19.606 16.6499 19.3007C16.5837 19.1503 16.4883 19.0146 16.3693 18.9013C16.2504 18.7879 16.1102 18.6993 15.9568 18.6404C15.8034 18.5815 15.6399 18.5536 15.4757 18.5582C15.3114 18.5628 15.1498 18.5999 14.9999 18.6673C13.9211 19.1336 12.7434 19.3247 11.5724 19.2236C10.4015 19.1225 9.27399 18.7323 8.29104 18.088C7.30809 17.4437 6.50045 16.5655 5.94059 15.5322C5.38072 14.4988 5.08613 13.3426 5.08325 12.1673C5.08325 8.26732 8.26659 5.08398 12.1666 5.08398C16.0666 5.08398 19.2499 8.26732 19.2499 12.1673C19.2499 13.7007 18.7666 15.1507 17.8666 16.384C17.4499 16.934 17.5666 17.7173 18.1333 18.134C18.6833 18.5507 19.4666 18.434 19.8833 17.8673C20.8833 16.5173 21.4833 14.9507 21.6666 13.3007C21.8166 13.3673 21.9999 13.4173 22.1666 13.4173H50.8166L49.6166 14.6173C49.1333 15.1007 49.1333 15.9007 49.6166 16.384C49.8666 16.634 50.1833 16.7507 50.4999 16.7507C50.8166 16.7507 51.1333 16.634 51.3833 16.384L54.7166 13.0507C54.8333 12.934 54.9166 12.8007 54.9833 12.6507C55.1166 12.3507 55.1166 12.0007 54.9833 11.7007C54.9201 11.5518 54.8297 11.4161 54.7166 11.3007L51.3833 7.96732C50.8999 7.48398 50.0999 7.48398 49.6166 7.96732C49.1333 8.45065 49.1333 9.25065 49.6166 9.73398L50.8166 10.934H22.1666C21.9999 10.934 21.8333 10.9673 21.6666 11.034C21.3916 8.70693 20.2728 6.56153 18.5219 5.00419C16.771 3.44686 14.5098 2.58575 12.1666 2.58398C6.88325 2.58398 2.58325 6.88398 2.58325 12.1673C2.58325 17.4507 6.88325 21.7507 12.1666 21.7507Z" fill="white"/>
</svg>
