<svg width="53" height="80" viewBox="0 0 53 80" fill="none" xmlns="http://www.w3.org/2000/svg">
<path d="M6.16259 16.6736C6.20719 16.8782 6.19965 17.0908 6.14069 17.2917C6.08173 17.4927 5.97323 17.6756 5.82514 17.8237C5.67706 17.9718 5.49415 18.0803 5.2932 18.1392C5.09225 18.1982 4.87971 18.2057 4.67509 18.1611C4.43708 18.1204 4.19238 18.1495 3.97055 18.2449C3.74872 18.3403 3.55927 18.4979 3.42509 18.6986C2.61943 19.9053 2.05097 21.2543 1.75009 22.6736C1.70547 22.908 1.72883 23.1502 1.81743 23.3717C1.90603 23.5932 2.05616 23.7847 2.25009 23.9236C2.42553 24.0369 2.56977 24.1924 2.66965 24.3758C2.76953 24.5593 2.82186 24.7648 2.82186 24.9736C2.82186 25.1825 2.76953 25.388 2.66965 25.5714C2.56977 25.7548 2.42553 25.9103 2.25009 26.0236C2.05616 26.1625 1.90603 26.3541 1.81743 26.5756C1.72883 26.7971 1.70547 27.0393 1.75009 27.2736C2.05097 28.693 2.61943 30.042 3.42509 31.2486C3.55927 31.4494 3.74872 31.607 3.97055 31.7024C4.19238 31.7977 4.43708 31.8268 4.67509 31.7861C4.87971 31.7415 5.09225 31.7491 5.2932 31.808C5.49415 31.867 5.67706 31.9755 5.82514 32.1236C5.97323 32.2717 6.08173 32.4546 6.14069 32.6555C6.19965 32.8565 6.20719 33.069 6.16259 33.2736C6.12188 33.5116 6.15097 33.7563 6.24636 33.9782C6.34174 34.2 6.49934 34.3895 6.70009 34.5236C7.90292 35.3469 9.25218 35.9325 10.6751 36.2486C10.9094 36.2933 11.1517 36.2699 11.3732 36.1813C11.5947 36.0927 11.7862 35.9426 11.9251 35.7486C12.0489 35.5878 12.2079 35.4576 12.3899 35.368C12.572 35.2784 12.7722 35.2318 12.9751 35.2318C13.178 35.2318 13.3782 35.2784 13.5602 35.368C13.7423 35.4576 13.9013 35.5878 14.0251 35.7486C14.1401 35.9102 14.2919 36.042 14.468 36.1333C14.644 36.2246 14.8393 36.2727 15.0376 36.2736H15.3001C16.7125 35.9621 18.0529 35.3852 19.2501 34.5736C19.4508 34.4394 19.6084 34.25 19.7038 34.0282C19.7992 33.8063 19.8283 33.5616 19.7876 33.3236C19.743 33.119 19.7505 32.9065 19.8095 32.7055C19.8685 32.5046 19.977 32.3217 20.125 32.1736C20.2731 32.0255 20.456 31.917 20.657 31.858C20.8579 31.7991 21.0705 31.7915 21.2751 31.8361C21.5131 31.8768 21.7578 31.8477 21.9796 31.7524C22.2015 31.657 22.3909 31.4994 22.5251 31.2986C23.3484 30.0958 23.9339 28.7465 24.2501 27.3236C24.2947 27.0893 24.2714 26.8471 24.1828 26.6256C24.0942 26.4041 23.944 26.2126 23.7501 26.0736C23.5747 25.9603 23.4304 25.8048 23.3305 25.6214C23.2307 25.438 23.1783 25.2325 23.1783 25.0236C23.1783 24.8148 23.2307 24.6093 23.3305 24.4258C23.4304 24.2424 23.5747 24.0869 23.7501 23.9736C23.944 23.8347 24.0942 23.6432 24.1828 23.4217C24.2714 23.2002 24.2947 22.958 24.2501 22.7236C23.9492 21.3043 23.3808 19.9553 22.5751 18.7486C22.4409 18.5479 22.2515 18.3903 22.0296 18.2949C21.8078 18.1995 21.5631 18.1704 21.3251 18.2111C21.1205 18.2557 20.9079 18.2482 20.707 18.1892C20.506 18.1303 20.3231 18.0218 20.175 17.8737C20.027 17.7256 19.9185 17.5427 19.8595 17.3417C19.8005 17.1408 19.793 16.9282 19.8376 16.7236C19.8783 16.4856 19.8492 16.2409 19.7538 16.0191C19.6584 15.7973 19.5008 15.6078 19.3001 15.4736C18.0973 14.6503 16.748 14.0648 15.3251 13.7486C15.0907 13.704 14.8485 13.7274 14.627 13.816C14.4055 13.9046 14.214 14.0547 14.0751 14.2486C13.9513 14.4094 13.7923 14.5396 13.6102 14.6293C13.4282 14.7189 13.228 14.7655 13.0251 14.7655C12.8222 14.7655 12.622 14.7189 12.4399 14.6293C12.2579 14.5396 12.0989 14.4094 11.9751 14.2486C11.8362 14.0547 11.6447 13.9046 11.4232 13.816C11.2017 13.7274 10.9594 13.704 10.7251 13.7486C9.30576 14.0495 7.95672 14.618 6.75009 15.4236C6.54018 15.5512 6.37251 15.7378 6.26802 15.9601C6.16353 16.1824 6.12686 16.4306 6.16259 16.6736ZM8.66259 17.1611C9.24454 16.8356 9.86081 16.5757 10.5001 16.3861C11.2004 16.9742 12.0856 17.2966 13.0001 17.2966C13.9146 17.2966 14.7998 16.9742 15.5001 16.3861C16.148 16.5739 16.7727 16.8339 17.3626 17.1611C17.4214 18.0701 17.8091 18.9265 18.4531 19.5706C19.0972 20.2147 19.9536 20.6023 20.8626 20.6611C21.1795 21.2442 21.431 21.8604 21.6126 22.4986C20.9976 23.1862 20.6577 24.0762 20.6577 24.9986C20.6577 25.921 20.9976 26.8111 21.6126 27.4986C21.4248 28.1465 21.1648 28.7713 20.8376 29.3611C19.9286 29.4199 19.0722 29.8076 18.4281 30.4516C17.784 31.0957 17.3964 31.9522 17.3376 32.8611C16.7477 33.1883 16.123 33.4483 15.4751 33.6361C14.7876 33.0212 13.8975 32.6812 12.9751 32.6812C12.0527 32.6812 11.1626 33.0212 10.4751 33.6361C9.82721 33.4483 9.20247 33.1883 8.61259 32.8611C8.55377 31.9522 8.16614 31.0957 7.52207 30.4516C6.878 29.8076 6.02154 29.4199 5.11259 29.3611C4.80262 28.7691 4.55946 28.1444 4.38759 27.4986C5.00254 26.8111 5.34251 25.921 5.34251 24.9986C5.34251 24.0762 5.00254 23.1862 4.38759 22.4986C4.57541 21.8507 4.83537 21.226 5.16259 20.6361C6.07154 20.5773 6.92801 20.1897 7.57207 19.5456C8.21614 18.9015 8.60377 18.0451 8.66259 17.1361V17.1611Z" fill="white" fill-opacity="0.2"/>
<path d="M13 30C13.9889 30 14.9556 29.7068 15.7779 29.1574C16.6001 28.6079 17.241 27.827 17.6194 26.9134C17.9978 25.9998 18.0969 24.9945 17.9039 24.0246C17.711 23.0546 17.2348 22.1637 16.5355 21.4645C15.8363 20.7652 14.9454 20.289 13.9755 20.0961C13.0055 19.9031 12.0002 20.0022 11.0866 20.3806C10.173 20.759 9.39206 21.3999 8.84265 22.2222C8.29325 23.0444 8 24.0111 8 25C8 26.3261 8.52679 27.5979 9.46447 28.5355C10.4021 29.4732 11.6739 30 13 30ZM13 22.5C13.4945 22.5 13.9778 22.6466 14.3889 22.9213C14.8 23.196 15.1205 23.5865 15.3097 24.0433C15.4989 24.5001 15.5484 25.0028 15.452 25.4877C15.3555 25.9727 15.1174 26.4181 14.7678 26.7678C14.4181 27.1174 13.9727 27.3555 13.4877 27.452C13.0028 27.5484 12.5001 27.4989 12.0433 27.3097C11.5865 27.1205 11.196 26.8001 10.9213 26.3889C10.6466 25.9778 10.5 25.4945 10.5 25C10.5 24.337 10.7634 23.7011 11.2322 23.2322C11.7011 22.7634 12.337 22.5 13 22.5Z" fill="white" fill-opacity="0.2"/>
<path d="M-5.75011 43.7493H11.7499V48.7493H5.49989C4.3942 48.7529 3.32087 49.1229 2.44784 49.8014C1.57481 50.48 0.951311 51.4287 0.674892 52.4993H-8.25011C-8.58163 52.4993 -8.89957 52.631 -9.13399 52.8654C-9.36841 53.0999 -9.50011 53.4178 -9.50011 53.7493V61.2493H-7.00011V54.9993H0.674892C0.951311 56.0699 1.57481 57.0187 2.44784 57.6972C3.32087 58.3757 4.3942 58.7457 5.49989 58.7493H20.4999C21.6056 58.7457 22.6789 58.3757 23.5519 57.6972C24.425 57.0187 25.0485 56.0699 25.3249 54.9993H32.9999V61.2493H35.4999V53.7493C35.4999 53.4178 35.3682 53.0999 35.1338 52.8654C34.8994 52.631 34.5814 52.4993 34.2499 52.4993H25.3249C25.0485 51.4287 24.425 50.48 23.5519 49.8014C22.6789 49.1229 21.6056 48.7529 20.4999 48.7493H14.2499V43.7493H31.7499C35.1013 43.739 38.3336 42.5049 40.8392 40.2792C43.3448 38.0534 44.9512 34.9891 45.3565 31.6622C45.7618 28.3354 44.9381 24.975 43.0402 22.2128C41.1423 19.4505 38.3008 17.4765 35.0499 16.6618C34.3199 14.0269 32.746 11.704 30.5696 10.0491C28.3931 8.39416 25.7341 7.49849 22.9999 7.49932C21.9365 7.50022 20.8777 7.63887 19.8499 7.91182C17.8642 5.19642 15.0847 3.1642 11.8949 2.09559C8.70519 1.02698 5.26241 0.974644 2.04166 1.94581C-1.1791 2.91698 -4.01908 4.86377 -6.0864 7.51756C-8.15372 10.1714 -9.34649 13.4013 -9.50011 16.7618C-12.7005 17.6609 -15.4667 19.689 -17.2869 22.4706C-19.1071 25.2523 -19.8579 28.5992 -19.4004 31.8918C-18.9428 35.1844 -17.308 38.1998 -14.7984 40.3798C-12.2888 42.5598 -9.07435 43.7568 -5.75011 43.7493ZM20.4999 51.2493C21.1629 51.2493 21.7988 51.5127 22.2677 51.9815C22.7365 52.4504 22.9999 53.0863 22.9999 53.7493C22.9999 54.4124 22.7365 55.0482 22.2677 55.5171C21.7988 55.9859 21.1629 56.2493 20.4999 56.2493H5.49989C4.83685 56.2493 4.20097 55.9859 3.73213 55.5171C3.26328 55.0482 2.99989 54.4124 2.99989 53.7493C2.99989 53.0863 3.26328 52.4504 3.73213 51.9815C4.20097 51.5127 4.83685 51.2493 5.49989 51.2493H20.4999ZM-7.98761 18.9743C-7.70101 18.9159 -7.44399 18.7588 -7.26127 18.5304C-7.07855 18.302 -6.98171 18.0168 -6.98761 17.7243L-7.00011 17.4993C-7.00865 14.5278 -6.05434 11.6335 -4.28008 9.24984C-2.50583 6.86617 -0.00712013 5.12141 2.84185 4.27685C5.69081 3.4323 8.73672 3.5334 11.5234 4.56501C14.3101 5.59663 16.6876 7.50324 18.2999 9.99932C18.4517 10.2319 18.6766 10.4073 18.9392 10.4979C19.2018 10.5884 19.487 10.5889 19.7499 10.4993C21.0914 10.0385 22.5155 9.86833 23.9278 10.0001C25.3401 10.1319 26.7082 10.5626 27.9413 11.2637C29.1743 11.9647 30.2441 12.9201 31.0797 14.0663C31.9152 15.2125 32.4973 16.5234 32.7874 17.9118C32.8359 18.1577 32.9571 18.3833 33.1355 18.5594C33.3138 18.7355 33.5409 18.8539 33.7874 18.8993C36.5948 19.359 39.1238 20.8652 40.8652 23.1147C42.6067 25.3641 43.4313 28.1898 43.173 31.0228C42.9147 33.8558 41.5928 36.4858 39.4733 38.3833C37.3538 40.2808 34.5941 41.3048 31.7499 41.2493H-5.75011C-8.53892 41.249 -11.2282 40.2129 -13.2963 38.3419C-15.3644 36.471 -16.6638 33.8986 -16.9426 31.1237C-17.2213 28.3489 -16.4594 25.5694 -14.8048 23.3245C-13.1501 21.0796 -10.7206 19.5293 -7.98761 18.9743Z" fill="white" fill-opacity="0.2"/>
<path d="M6.75 8.75V6.25C3.76632 6.25 0.904835 7.43526 -1.20495 9.54505C-3.31474 11.6548 -4.5 14.5163 -4.5 17.5H-2C-2 15.1794 -1.07813 12.9538 0.562817 11.3128C2.20376 9.67187 4.42936 8.75 6.75 8.75ZM-24.5 78.75H9.25C9.58152 78.75 9.89946 78.6183 10.1339 78.3839C10.3683 78.1495 10.5 77.8315 10.5 77.5V65C10.5 64.6685 10.3683 64.3505 10.1339 64.1161C9.89946 63.8817 9.58152 63.75 9.25 63.75H-24.5C-24.8315 63.75 -25.1495 63.8817 -25.3839 64.1161C-25.6183 64.3505 -25.75 64.6685 -25.75 65V77.5C-25.75 77.8315 -25.6183 78.1495 -25.3839 78.3839C-25.1495 78.6183 -24.8315 78.75 -24.5 78.75ZM-23.25 66.25H8V76.25H-23.25V66.25Z" fill="white" fill-opacity="0.2"/>
<path d="M-20.75 70H-18.25V72.5H-20.75V70ZM-15.75 70H-13.25V72.5H-15.75V70ZM-10.75 70H4.25V72.5H-10.75V70ZM50.5 63.75H16.75C16.4185 63.75 16.1005 63.8817 15.8661 64.1161C15.6317 64.3505 15.5 64.6685 15.5 65V77.5C15.5 77.8315 15.6317 78.1495 15.8661 78.3839C16.1005 78.6183 16.4185 78.75 16.75 78.75H50.5C50.8315 78.75 51.1495 78.6183 51.3839 78.3839C51.6183 78.1495 51.75 77.8315 51.75 77.5V65C51.75 64.6685 51.6183 64.3505 51.3839 64.1161C51.1495 63.8817 50.8315 63.75 50.5 63.75ZM49.25 76.25H18V66.25H49.25V76.25Z" fill="white" fill-opacity="0.2"/>
<path d="M44.25 70H46.75V72.5H44.25V70ZM39.25 70H41.75V72.5H39.25V70ZM21.75 70H36.75V72.5H21.75V70ZM6.75 52.5H9.25V55H6.75V52.5ZM11.75 52.5H14.25V55H11.75V52.5ZM16.75 52.5H19.25V55H16.75V52.5Z" fill="white" fill-opacity="0.2"/>
</svg>
