<svg xmlns="http://www.w3.org/2000/svg" version="1.1" xmlns:xlink="http://www.w3.org/1999/xlink" width="512" height="512" x="0" y="0" viewBox="0 0 60 60" style="enable-background:new 0 0 512 512" xml:space="preserve" class=""><g><g fill="#000" fill-rule="nonzero"><path d="M45.4 6.65 30.4.084a1 1 0 0 0-.8 0l-15 6.566a1 1 0 0 0-.6.916v15.7c.005 3.528 1.7 6.84 4.56 8.908l10.367 7.477a1.83 1.83 0 0 0 2.146 0l10.367-7.476A11.014 11.014 0 0 0 46 23.267V7.566a1 1 0 0 0-.6-.916ZM44 23.267a9.009 9.009 0 0 1-3.73 7.286L30 37.96l-10.27-7.407A9.009 9.009 0 0 1 16 23.267V8.22l14-6.128L44 8.22v15.047Z" fill="#ffffff" opacity="1" data-original="#000000" class=""></path><path d="m29.6 4.45-11 4.816a1 1 0 0 0-.6.916v13.085a7 7 0 0 0 2.9 5.664l8.515 6.142a1 1 0 0 0 1.17 0l8.515-6.142a7 7 0 0 0 2.9-5.664V10.182a1 1 0 0 0-.6-.916l-11-4.816a1 1 0 0 0-.8 0ZM40 10.835v12.432a5 5 0 0 1-2.07 4.042L30 33.029l-7.93-5.72A5 5 0 0 1 20 23.267V10.835l10-4.377 10 4.377ZM8.285 33.2l-2.163-5.054a3.188 3.188 0 1 0-5.833 2.575l3.919 8.621a10.621 10.621 0 0 0 2.171 3.134l6.163 6.164c-.347.368-.54.854-.542 1.36v8a2 2 0 0 0 2 2h11a2 2 0 0 0 2-2v-8a2 2 0 0 0-2-2v-1.861a10.478 10.478 0 0 0-2.192-6.55 7.2 7.2 0 0 0-3.333-2.431 19.782 19.782 0 0 1-5.725-3.674 4.6 4.6 0 0 0-5.465-.284ZM25 58H14v-8h11v8Zm-3.753-17.162A8.485 8.485 0 0 1 23 46.139V48h-8.269l-6.938-6.938a8.649 8.649 0 0 1-1.765-2.547l-3.919-8.621a1.189 1.189 0 1 1 2.174-.96l2.237 5.217a11.8 11.8 0 0 0 2.522 3.725l4.568 4.569a1 1 0 1 0 1.414-1.414l-4.568-4.569a9.863 9.863 0 0 1-1.233-1.5 2.6 2.6 0 0 1 3.239.054 21.321 21.321 0 0 0 6.38 4.04 5.253 5.253 0 0 1 2.405 1.782Z" fill="#ffffff" opacity="1" data-original="#000000" class=""></path><path d="M22 53h-1a1 1 0 0 0 0 2h1a1 1 0 0 0 0-2ZM55.792 39.342l3.919-8.621a3.188 3.188 0 1 0-5.832-2.575l-2.158 5.035a4.612 4.612 0 0 0-5.471.3 19.782 19.782 0 0 1-5.725 3.674 7.2 7.2 0 0 0-3.333 2.431A10.478 10.478 0 0 0 35 46.139V48a2 2 0 0 0-2 2v8a2 2 0 0 0 2 2h11a2 2 0 0 0 2-2v-8a1.988 1.988 0 0 0-.542-1.36l6.163-6.164a10.621 10.621 0 0 0 2.171-3.134ZM46 58H35v-8h11v8Zm-.731-10H37v-1.861a8.485 8.485 0 0 1 1.753-5.3 5.256 5.256 0 0 1 2.4-1.783 21.312 21.312 0 0 0 6.381-4.04 2.6 2.6 0 0 1 3.245-.063 9.806 9.806 0 0 1-1.239 1.51l-4.568 4.569a1 1 0 0 0 1.414 1.414l4.568-4.569a11.8 11.8 0 0 0 2.522-3.725l2.237-5.218a1.187 1.187 0 0 1 2.091-.175c.22.34.25.768.083 1.136l-3.919 8.621a8.649 8.649 0 0 1-1.765 2.547L45.269 48Z" fill="#ffffff" opacity="1" data-original="#000000" class=""></path><path d="M39 53h-1a1 1 0 0 0 0 2h1a1 1 0 0 0 0-2ZM24.6 21.2a1 1 0 0 0-1.2 1.6l4 3a1 1 0 0 0 1.432-.245l8-12a1 1 0 1 0-1.664-1.11l-7.414 11.121L24.6 21.2Z" fill="#ffffff" opacity="1" data-original="#000000" class=""></path></g></g></svg>