<svg xmlns="http://www.w3.org/2000/svg" version="1.1" xmlns:xlink="http://www.w3.org/1999/xlink" width="512" height="512" x="0" y="0" viewBox="0 0 512 512" style="enable-background:new 0 0 512 512" xml:space="preserve" class=""><g><path d="M473.438 450.141V180.047c0-13.807-11.193-25-25-25H63.562c-13.807 0-25 11.193-25 25v270.094M76.851 450.141H15a7.5 7.5 0 0 0-7.5 7.5v14.094c0 13.807 11.193 25 25 25h447c13.807 0 25-11.193 25-25v-14.094a7.5 7.5 0 0 0-7.5-7.5H318.125l-8.209 8.209a25 25 0 0 1-17.678 7.322h-72.477a25.004 25.004 0 0 1-17.678-7.322l-8.209-8.209H111.85" style="stroke-width:15;stroke-linecap:round;stroke-linejoin:round;stroke-miterlimit:10;" fill="none" stroke="#ffffff" stroke-width="15" stroke-linecap="round" stroke-linejoin="round" stroke-miterlimit="10" data-original="#000000" opacity="1" class=""></path><path d="M69.625 186.109h372.75v232.969H69.625z" style="stroke-width:15;stroke-linecap:round;stroke-linejoin:round;stroke-miterlimit:10;" fill="none" stroke="#ffffff" stroke-width="15" stroke-linecap="round" stroke-linejoin="round" stroke-miterlimit="10" data-original="#000000" opacity="1" class=""></path><path d="M193.875 388.016c8.578 0 15.531-6.954 15.531-15.531V232.703c0-8.578-6.954-15.531-15.531-15.531s-15.531 6.954-15.531 15.531v139.781c0 8.578 6.953 15.532 15.531 15.532zM310.359 267.594v-19.359h23.297c8.578 0 15.531-6.954 15.531-15.531s-6.954-15.531-15.531-15.531H256c-8.578 0-15.531 6.954-15.531 15.531s6.954 15.531 15.531 15.531h23.297v124.25c0 8.578 6.954 15.531 15.531 15.531s15.531-6.954 15.531-15.531v-69.891M343.858 67.189l33.463-33.463a10.001 10.001 0 0 1 7.071-2.929h26.92" style="stroke-width:15;stroke-linecap:round;stroke-linejoin:round;stroke-miterlimit:10;" fill="none" stroke="#ffffff" stroke-width="15" stroke-linecap="round" stroke-linejoin="round" stroke-miterlimit="10" data-original="#000000" opacity="1" class=""></path><circle cx="426.844" cy="30.797" r="15.531" style="stroke-width:15;stroke-linecap:round;stroke-linejoin:round;stroke-miterlimit:10;" fill="none" stroke="#ffffff" stroke-width="15" stroke-linecap="round" stroke-linejoin="round" stroke-miterlimit="10" data-original="#000000" opacity="1" class=""></circle><circle cx="442.375" cy="108.453" r="15.531" style="stroke-width:15;stroke-linecap:round;stroke-linejoin:round;stroke-miterlimit:10;" fill="none" stroke="#ffffff" stroke-width="15" stroke-linecap="round" stroke-linejoin="round" stroke-miterlimit="10" data-original="#000000" opacity="1" class=""></circle><path d="m168.142 67.189-33.463-33.463a10.001 10.001 0 0 0-7.071-2.929h-26.92" style="stroke-width:15;stroke-linecap:round;stroke-linejoin:round;stroke-miterlimit:10;" fill="none" stroke="#ffffff" stroke-width="15" stroke-linecap="round" stroke-linejoin="round" stroke-miterlimit="10" data-original="#000000" opacity="1" class=""></path><circle cx="85.156" cy="30.797" r="15.531" style="stroke-width:15;stroke-linecap:round;stroke-linejoin:round;stroke-miterlimit:10;" fill="none" stroke="#ffffff" stroke-width="15" stroke-linecap="round" stroke-linejoin="round" stroke-miterlimit="10" data-original="#000000" opacity="1" class=""></circle><path d="M426.844 108.453h-76.571" style="stroke-width:15;stroke-linecap:round;stroke-linejoin:round;stroke-miterlimit:10;" fill="none" stroke="#ffffff" stroke-width="15" stroke-linecap="round" stroke-linejoin="round" stroke-miterlimit="10" data-original="#000000" opacity="1" class=""></path><circle cx="69.625" cy="108.453" r="15.531" style="stroke-width:15;stroke-linecap:round;stroke-linejoin:round;stroke-miterlimit:10;" fill="none" stroke="#ffffff" stroke-width="15" stroke-linecap="round" stroke-linejoin="round" stroke-miterlimit="10" data-original="#000000" opacity="1" class=""></circle><path d="M85.156 108.453h76.571M380.25 155.047v-14.48a7.499 7.499 0 0 0-4.146-6.708l-16.809-8.405a7.435 7.435 0 0 1-3.726-4.249 104.404 104.404 0 0 0-5.232-12.621 7.442 7.442 0 0 1-.373-5.645l5.945-17.836a7.5 7.5 0 0 0-1.812-7.675L333.619 56.95a7.5 7.5 0 0 0-7.675-1.812l-17.836 5.945a7.437 7.437 0 0 1-5.645-.373 104.538 104.538 0 0 0-12.621-5.232 7.438 7.438 0 0 1-4.249-3.726l-8.405-16.809a7.499 7.499 0 0 0-6.708-4.146h-28.96a7.499 7.499 0 0 0-6.708 4.146l-8.405 16.809a7.435 7.435 0 0 1-4.249 3.726 104.404 104.404 0 0 0-12.621 5.232 7.442 7.442 0 0 1-5.645.373l-17.836-5.945a7.5 7.5 0 0 0-7.675 1.812l-20.478 20.478a7.5 7.5 0 0 0-1.812 7.675l5.945 17.836a7.437 7.437 0 0 1-.373 5.645 104.538 104.538 0 0 0-5.232 12.621 7.438 7.438 0 0 1-3.726 4.249l-16.809 8.405a7.5 7.5 0 0 0-4.146 6.708v14.48" style="stroke-width:15;stroke-linecap:round;stroke-linejoin:round;stroke-miterlimit:10;" fill="none" stroke="#ffffff" stroke-width="15" stroke-linecap="round" stroke-linejoin="round" stroke-miterlimit="10" data-original="#000000" opacity="1" class=""></path><path d="M251.944 108.627a47.308 47.308 0 0 1 4.056-.174c25.733 0 46.594 20.861 46.594 46.594M209.406 155.047a46.41 46.41 0 0 1 10.781-29.809" style="stroke-width:15;stroke-linecap:round;stroke-linejoin:round;stroke-miterlimit:10;" fill="none" stroke="#ffffff" stroke-width="15" stroke-linecap="round" stroke-linejoin="round" stroke-miterlimit="10" data-original="#000000" opacity="1" class=""></path></g></svg>