<svg width="41" height="40" viewBox="0 0 41 40" fill="none" xmlns="http://www.w3.org/2000/svg">
<path d="M34.7955 0H5.70455C2.69208 0 0.25 2.44208 0.25 5.45455V34.5455C0.25 37.5579 2.69208 40 5.70455 40H34.7955C37.8079 40 40.25 37.5579 40.25 34.5455V5.45455C40.25 2.44208 37.8079 0 34.7955 0Z" fill="#0077B5"/>
<path d="M14.659 10.9091C14.659 11.5833 14.4591 12.2425 14.0845 12.8031C13.7099 13.3637 13.1774 13.8007 12.5545 14.0587C11.9316 14.3167 11.2461 14.3842 10.5848 14.2527C9.92353 14.1211 9.31609 13.7965 8.83932 13.3197C8.36255 12.8429 8.03787 12.2355 7.90633 11.5742C7.77479 10.9129 7.8423 10.2274 8.10032 9.60449C8.35835 8.98156 8.7953 8.44913 9.35592 8.07454C9.91655 7.69994 10.5757 7.5 11.2499 7.5C12.1541 7.5 13.0212 7.85917 13.6605 8.4985C14.2998 9.13783 14.659 10.0049 14.659 10.9091ZM13.8863 16.5909V31.6523C13.8869 31.7634 13.8655 31.8735 13.8234 31.9763C13.7813 32.0792 13.7193 32.1727 13.6409 32.2514C13.5626 32.3302 13.4694 32.3927 13.3668 32.4354C13.2642 32.478 13.1542 32.5 13.0431 32.5H9.44991C9.3388 32.5003 9.22873 32.4786 9.12602 32.4363C9.02331 32.3939 8.92998 32.3316 8.85142 32.253C8.77285 32.1745 8.71059 32.0812 8.6682 31.9784C8.62582 31.8757 8.60416 31.7657 8.60446 31.6545V16.5909C8.60446 16.3667 8.69353 16.1516 8.85209 15.9931C9.01064 15.8345 9.22568 15.7455 9.44991 15.7455H13.0431C13.2669 15.7461 13.4814 15.8354 13.6395 15.9939C13.7975 16.1524 13.8863 16.3671 13.8863 16.5909ZM32.6681 24.4318V31.7227C32.6684 31.8249 32.6485 31.9261 32.6095 32.0205C32.5706 32.115 32.5133 32.2008 32.4411 32.273C32.3689 32.3453 32.2831 32.4025 32.1886 32.4414C32.0942 32.4804 31.993 32.5003 31.8908 32.5H28.0272C27.925 32.5003 27.8238 32.4804 27.7294 32.4414C27.6349 32.4025 27.5491 32.3453 27.4769 32.273C27.4047 32.2008 27.3474 32.115 27.3085 32.0205C27.2695 31.9261 27.2496 31.8249 27.2499 31.7227V24.6568C27.2499 23.6023 27.559 20.0386 24.4931 20.0386C22.1181 20.0386 21.634 22.4773 21.5385 23.5727V31.7227C21.5386 31.9269 21.4582 32.1229 21.3149 32.2684C21.1716 32.4138 20.9768 32.497 20.7726 32.5H17.0408C16.9389 32.5 16.8379 32.4799 16.7437 32.4408C16.6495 32.4017 16.564 32.3444 16.492 32.2722C16.42 32.2 16.363 32.1143 16.3242 32.02C16.2853 31.9257 16.2655 31.8247 16.2658 31.7227V16.525C16.2655 16.423 16.2853 16.322 16.3242 16.2277C16.363 16.1334 16.42 16.0477 16.492 15.9755C16.564 15.9033 16.6495 15.846 16.7437 15.8069C16.8379 15.7678 16.9389 15.7477 17.0408 15.7477H20.7726C20.9788 15.7477 21.1765 15.8296 21.3223 15.9754C21.468 16.1212 21.5499 16.3189 21.5499 16.525V17.8386C22.4317 16.5159 23.7386 15.4955 26.5272 15.4955C32.7045 15.4955 32.6681 21.2636 32.6681 24.4318Z" fill="white"/>
</svg>
