<svg width="51" height="80" viewBox="0 0 51 80" fill="none" xmlns="http://www.w3.org/2000/svg">
<path d="M44.75 19.9999H43.1266C44.577 18.3821 45.5279 16.3788 45.8643 14.2322C46.2008 12.0856 45.9084 9.88742 45.0225 7.90339C44.1366 5.91936 42.695 4.23433 40.8721 3.05189C39.0492 1.86946 36.9228 1.24023 34.75 1.24023C32.5772 1.24023 30.4508 1.86946 28.6279 3.05189C26.805 4.23433 25.3635 5.91936 24.4775 7.90339C23.5916 9.88742 23.2992 12.0856 23.6357 14.2322C23.9721 16.3788 24.923 18.3821 26.3734 19.9999H11V7.49994C11 7.16842 10.8683 6.85048 10.6339 6.61606C10.3995 6.38164 10.0815 6.24994 9.75 6.24994H4.75C4.41848 6.24994 4.10054 6.38164 3.86612 6.61606C3.63169 6.85048 3.5 7.16842 3.5 7.49994V19.9999H2.25V2.49994C2.25 2.16842 2.11831 1.85048 1.88388 1.61606C1.64946 1.38164 1.33152 1.24994 1 1.24994H-4C-4.33152 1.24994 -4.64946 1.38164 -4.88388 1.61606C-5.11831 1.85048 -5.25 2.16842 -5.25 2.49994V19.9999H-6.5V11.2499C-6.5 10.9184 -6.63169 10.6005 -6.86612 10.3661C-7.10054 10.1316 -7.41848 9.99994 -7.75 9.99994H-12.75C-13.0815 9.99994 -13.3995 10.1316 -13.6339 10.3661C-13.8683 10.6005 -14 10.9184 -14 11.2499V19.9999H-22.75C-24.0756 20.0014 -25.3465 20.5287 -26.2839 21.4661C-27.2212 22.4034 -27.7485 23.6743 -27.75 24.9999V62.5C-27.7485 63.8256 -27.2212 65.0965 -26.2839 66.0338C-25.3465 66.9712 -24.0756 67.4985 -22.75 67.4999H3.01562L1.34844 72.4999H-2.75C-3.08152 72.4999 -3.39946 72.6316 -3.63388 72.8661C-3.86831 73.1005 -4 73.4184 -4 73.7499V76.2499H-16.5C-16.8315 76.2499 -17.1495 76.3816 -17.3839 76.6161C-17.6183 76.8505 -17.75 77.1684 -17.75 77.4999C-17.75 77.8315 -17.6183 78.1494 -17.3839 78.3838C-17.1495 78.6183 -16.8315 78.7499 -16.5 78.7499H38.5C38.8315 78.7499 39.1495 78.6183 39.3839 78.3838C39.6183 78.1494 39.75 77.8315 39.75 77.4999C39.75 77.1684 39.6183 76.8505 39.3839 76.6161C39.1495 76.3816 38.8315 76.2499 38.5 76.2499H26V73.7499C26 73.4184 25.8683 73.1005 25.6339 72.8661C25.3995 72.6316 25.0815 72.4999 24.75 72.4999H20.6516L18.9844 67.4999H44.75C46.0756 67.4985 47.3465 66.9712 48.2839 66.0338C49.2212 65.0965 49.7485 63.8256 49.75 62.5V24.9999C49.7485 23.6743 49.2212 22.4034 48.2839 21.4661C47.3465 20.5287 46.0756 20.0014 44.75 19.9999ZM36 3.84057C37.8682 4.11318 39.5984 4.98156 40.9334 6.31654C42.2684 7.65152 43.1368 9.38178 43.4094 11.2499H36V3.84057ZM35.2672 13.7499H43.4094C43.1935 15.252 42.5904 16.672 41.6594 17.8703C40.7285 19.0686 39.5017 20.0041 38.0997 20.5847C36.6977 21.1652 35.1687 21.371 33.6631 21.1816C32.1575 20.9922 30.7271 20.4143 29.5125 19.5046L35.2672 13.7499ZM26 12.4999C26.003 10.3968 26.7623 8.36487 28.1392 6.7751C29.5161 5.18534 31.4188 4.14378 33.5 3.84057V11.9828L27.7453 17.7374C26.6107 16.2272 25.9981 14.3889 26 12.4999ZM6 8.74994H8.5V32.4999H6V8.74994ZM2.25 22.4999H3.5V32.4999H2.25V22.4999ZM-2.75 3.74994H-0.25V32.4999H-2.75V3.74994ZM-6.5 22.4999H-5.25V32.4999H-6.5V22.4999ZM-11.5 12.4999H-9V32.4999H-11.5V12.4999ZM23.5 74.9999V76.2499H-1.5V74.9999H23.5ZM3.98438 72.4999L5.65156 67.4999H16.3484L18.0156 72.4999H3.98438ZM47.25 62.5C47.2491 63.1627 46.9855 63.7981 46.5168 64.2668C46.0482 64.7354 45.4128 64.9991 44.75 65H-22.75C-23.4128 64.9991 -24.0482 64.7354 -24.5168 64.2668C-24.9855 63.7981 -25.2491 63.1627 -25.25 62.5V59.9999H47.25V62.5ZM47.25 57.4999H-25.25V24.9999C-25.2491 24.3372 -24.9855 23.7018 -24.5168 23.2331C-24.0482 22.7645 -23.4128 22.5008 -22.75 22.4999H-14V32.4999H-15.25V24.9999C-15.25 24.6684 -15.3817 24.3505 -15.6161 24.1161C-15.8505 23.8816 -16.1685 23.7499 -16.5 23.7499H-21.5C-21.8315 23.7499 -22.1495 23.8816 -22.3839 24.1161C-22.6183 24.3505 -22.75 24.6684 -22.75 24.9999V33.7499C-22.75 34.0815 -22.6183 34.3994 -22.3839 34.6338C-22.1495 34.8682 -21.8315 34.9999 -21.5 34.9999H18.5C18.8315 34.9999 19.1495 34.8682 19.3839 34.6338C19.6183 34.3994 19.75 34.0815 19.75 33.7499V24.9999C19.75 24.6684 19.6183 24.3505 19.3839 24.1161C19.1495 23.8816 18.8315 23.7499 18.5 23.7499H13.5C13.1685 23.7499 12.8505 23.8816 12.6161 24.1161C12.3817 24.3505 12.25 24.6684 12.25 24.9999V32.4999H11V22.4999H29.6062C31.1964 23.3213 32.9602 23.7499 34.75 23.7499C36.5398 23.7499 38.3036 23.3213 39.8938 22.4999H44.75C45.4128 22.5008 46.0482 22.7645 46.5168 23.2331C46.9855 23.7018 47.2491 24.3372 47.25 24.9999V57.4999ZM-17.75 26.2499V32.4999H-20.25V26.2499H-17.75ZM14.75 32.4999V26.2499H17.25V32.4999H14.75Z" fill="white" fill-opacity="0.2"/>
<path d="M-14 61.25H-21.5C-21.8315 61.25 -22.1495 61.3817 -22.3839 61.6161C-22.6183 61.8505 -22.75 62.1685 -22.75 62.5C-22.75 62.8315 -22.6183 63.1495 -22.3839 63.3839C-22.1495 63.6183 -21.8315 63.75 -21.5 63.75H-14C-13.6685 63.75 -13.3506 63.6183 -13.1161 63.3839C-12.8817 63.1495 -12.75 62.8315 -12.75 62.5C-12.75 62.1685 -12.8817 61.8505 -13.1161 61.6161C-13.3506 61.3817 -13.6685 61.25 -14 61.25ZM-9.00003 61.25H-10.25C-10.5815 61.25 -10.8995 61.3817 -11.1339 61.6161C-11.3683 61.8505 -11.5 62.1685 -11.5 62.5C-11.5 62.8315 -11.3683 63.1495 -11.1339 63.3839C-10.8995 63.6183 -10.5815 63.75 -10.25 63.75H-9.00003C-8.66851 63.75 -8.35056 63.6183 -8.11614 63.3839C-7.88172 63.1495 -7.75003 62.8315 -7.75003 62.5C-7.75003 62.1685 -7.88172 61.8505 -8.11614 61.6161C-8.35056 61.3817 -8.66851 61.25 -9.00003 61.25ZM24.75 32.5C24.9142 32.5002 25.0768 32.468 25.2285 32.4052C25.3802 32.3423 25.5179 32.2502 25.6339 32.1339L30.2676 27.5H41C41.3315 27.5 41.6494 27.3683 41.8839 27.1339C42.1183 26.8995 42.25 26.5815 42.25 26.25C42.25 25.9185 42.1183 25.6005 41.8839 25.3661C41.6494 25.1317 41.3315 25 41 25H29.75C29.5858 25 29.4233 25.0323 29.2716 25.0951C29.1199 25.158 28.9821 25.25 28.8661 25.3661L23.8661 30.3661C23.6912 30.5409 23.5722 30.7636 23.5239 31.0061C23.4757 31.2486 23.5005 31.4999 23.5951 31.7284C23.6897 31.9568 23.8499 32.152 24.0555 32.2894C24.2611 32.4267 24.5027 32.5 24.75 32.5ZM41 46.25C40.3431 46.2505 39.6978 46.4235 39.1288 46.7517C38.5598 47.08 38.087 47.5519 37.7578 48.1203L24.6718 40.4859C24.4946 39.6341 24.0266 38.8704 23.3481 38.3257C22.6696 37.781 21.8228 37.4892 20.9528 37.5003C20.0827 37.5114 19.2436 37.8247 18.5792 38.3865C17.9148 38.9483 17.4664 39.7236 17.3109 40.5797L4.14216 50.4563C3.78391 49.9046 3.28673 49.4569 2.70061 49.1583C2.11449 48.8597 1.46008 48.7207 0.803183 48.7552C0.146286 48.7897 -0.489944 48.9966 -1.04154 49.355C-1.59313 49.7134 -2.04065 50.2107 -2.33909 50.7969L-15.3547 45.3734C-15.5601 44.5172 -16.0601 43.7604 -16.7672 43.2357C-17.4744 42.7109 -18.3435 42.4517 -19.2226 42.5033C-20.1016 42.5548 -20.9345 42.914 -21.5754 43.5178C-22.2163 44.1216 -22.6244 44.9317 -22.7282 45.8061C-22.832 46.6805 -22.625 47.5636 -22.1432 48.3007C-21.6615 49.0378 -20.9359 49.582 -20.0933 49.8379C-19.2508 50.0939 -18.3451 50.0453 -17.5347 49.7008C-16.7244 49.3562 -16.0611 48.7375 -15.661 47.9531L-2.64534 53.3766C-2.44439 54.2129 -1.96201 54.9546 -1.2791 55.4775C-0.596178 56.0004 0.245747 56.2725 1.1055 56.2483C1.96526 56.2242 2.79056 55.9051 3.44301 55.3447C4.09547 54.7843 4.5354 54.0166 4.68903 53.1703L17.8578 43.2937C18.2066 43.8312 18.6875 44.2701 19.2544 44.5687C19.8214 44.8672 20.4554 45.0153 21.0959 44.9988C21.7364 44.9824 22.362 44.8019 22.9128 44.4746C23.4637 44.1474 23.9214 43.6843 24.2422 43.1297L37.3281 50.7641C37.4725 51.4581 37.8108 52.097 38.3035 52.6067C38.7963 53.1163 39.4235 53.4758 40.1122 53.6435C40.801 53.8113 41.5233 53.7803 42.1952 53.5542C42.8671 53.3282 43.4612 52.9163 43.9085 52.3664C44.3559 51.8164 44.6382 51.1509 44.7227 50.447C44.8072 49.7432 44.6905 49.0298 44.386 48.3895C44.0816 47.7493 43.6019 47.2085 43.0026 46.8298C42.4033 46.4512 41.7089 46.2501 41 46.25ZM-17.75 46.2563C-17.7509 46.5883 -17.8835 46.9065 -18.1187 47.1409C-18.354 47.3752 -18.6726 47.5067 -19.0047 47.5063C-19.3368 47.5058 -19.6551 47.3736 -19.8898 47.1387C-20.1245 46.9037 -20.2563 46.5852 -20.2563 46.2531C-20.2563 45.921 -20.1245 45.6025 -19.8898 45.3676C-19.6551 45.1326 -19.3368 45.0004 -19.0047 45C-18.6726 44.9996 -18.354 45.131 -18.1187 45.3654C-17.8835 45.5998 -17.7509 45.9179 -17.75 46.25V46.2563ZM0.999971 53.75C0.668591 53.7495 0.350912 53.6177 0.11659 53.3834C-0.117733 53.1491 -0.249575 52.8314 -0.250029 52.5V52.4937C-0.248795 52.2468 -0.174435 52.0057 -0.036335 51.801C0.101767 51.5963 0.297417 51.437 0.52593 51.3434C0.754444 51.2497 1.00558 51.2259 1.24764 51.2748C1.48971 51.3237 1.71185 51.4433 1.88604 51.6183C2.06023 51.7934 2.17866 52.0161 2.22639 52.2584C2.27412 52.5007 2.249 52.7517 2.15421 52.9798C2.05942 53.2078 1.8992 53.4027 1.69378 53.5398C1.48836 53.6768 1.24693 53.75 0.999971 53.75ZM21 42.5C20.7527 42.5 20.5111 42.4267 20.3055 42.2893C20.0999 42.152 19.9397 41.9568 19.8451 41.7284C19.7505 41.4999 19.7258 41.2486 19.774 41.0061C19.8222 40.7637 19.9413 40.5409 20.1161 40.3661C20.2909 40.1913 20.5136 40.0722 20.7561 40.024C20.9986 39.9758 21.2499 40.0005 21.4783 40.0952C21.7067 40.1898 21.902 40.35 22.0393 40.5555C22.1767 40.7611 22.25 41.0028 22.25 41.25C22.2495 41.5814 22.1177 41.8991 21.8833 42.1334C21.649 42.3677 21.3313 42.4995 21 42.5ZM41 51.25C40.7527 51.25 40.5111 51.1767 40.3055 51.0393C40.0999 50.902 39.9397 50.7068 39.8451 50.4784C39.7505 50.2499 39.7258 49.9986 39.774 49.7561C39.8222 49.5137 39.9413 49.2909 40.1161 49.1161C40.2909 48.9413 40.5136 48.8223 40.7561 48.774C40.9986 48.7258 41.2499 48.7505 41.4783 48.8452C41.7067 48.9398 41.902 49.1 42.0393 49.3055C42.1767 49.5111 42.25 49.7528 42.25 50C42.2495 50.3314 42.1177 50.6491 41.8833 50.8834C41.649 51.1177 41.3313 51.2495 41 51.25Z" fill="white" fill-opacity="0.2"/>
<path d="M31 53.75H22.25C21.9185 53.75 21.6005 53.8817 21.3661 54.1161C21.1317 54.3505 21 54.6685 21 55C21 55.3315 21.1317 55.6495 21.3661 55.8839C21.6005 56.1183 21.9185 56.25 22.25 56.25H31C31.3315 56.25 31.6495 56.1183 31.8839 55.8839C32.1183 55.6495 32.25 55.3315 32.25 55C32.25 54.6685 32.1183 54.3505 31.8839 54.1161C31.6495 53.8817 31.3315 53.75 31 53.75ZM31 50H27.25C26.9185 50 26.6005 50.1317 26.3661 50.3661C26.1317 50.6005 26 50.9185 26 51.25C26 51.5815 26.1317 51.8995 26.3661 52.1339C26.6005 52.3683 26.9185 52.5 27.25 52.5H31C31.3315 52.5 31.6495 52.3683 31.8839 52.1339C32.1183 51.8995 32.25 51.5815 32.25 51.25C32.25 50.9185 32.1183 50.6005 31.8839 50.3661C31.6495 50.1317 31.3315 50 31 50ZM-21.5 38.75H-7.75C-7.41848 38.75 -7.10054 38.6183 -6.86612 38.3839C-6.63169 38.1495 -6.5 37.8315 -6.5 37.5C-6.5 37.1685 -6.63169 36.8505 -6.86612 36.6161C-7.10054 36.3817 -7.41848 36.25 -7.75 36.25H-21.5C-21.8315 36.25 -22.1495 36.3817 -22.3839 36.6161C-22.6183 36.8505 -22.75 37.1685 -22.75 37.5C-22.75 37.8315 -22.6183 38.1495 -22.3839 38.3839C-22.1495 38.6183 -21.8315 38.75 -21.5 38.75ZM-4 38.75H-2.75C-2.41848 38.75 -2.10054 38.6183 -1.86612 38.3839C-1.63169 38.1495 -1.5 37.8315 -1.5 37.5C-1.5 37.1685 -1.63169 36.8505 -1.86612 36.6161C-2.10054 36.3817 -2.41848 36.25 -2.75 36.25H-4C-4.33152 36.25 -4.64946 36.3817 -4.88388 36.6161C-5.11831 36.8505 -5.25 37.1685 -5.25 37.5C-5.25 37.8315 -5.11831 38.1495 -4.88388 38.3839C-4.64946 38.6183 -4.33152 38.75 -4 38.75Z" fill="white" fill-opacity="0.2"/>
</svg>
