<svg width="60" height="60" viewBox="0 0 60 60" fill="none" xmlns="http://www.w3.org/2000/svg">
<path d="M40.3956 26.8029C40.354 26.188 40.0966 25.6074 39.6687 25.1638C39.2408 24.7202 38.67 24.4419 38.0569 24.3781C35.6667 24.118 33.3661 23.3217 31.3265 22.0486C30.924 21.8134 30.4661 21.6895 30 21.6895C29.5338 21.6895 29.076 21.8134 28.6734 22.0486C26.6337 23.3215 24.3331 24.1177 21.943 24.3781C21.3301 24.4419 20.7595 24.7199 20.3316 25.1633C19.9037 25.6067 19.6462 26.1869 19.6043 26.8016C19.4243 29.8094 19.5534 39.9755 28.8287 44.6333C29.193 44.816 29.595 44.9112 30.0026 44.9112C30.4102 44.9112 30.8121 44.816 31.1765 44.6333C40.4465 39.9807 40.5756 29.8094 40.3956 26.8029ZM29.9908 42.2986C22.3643 38.4677 22.0082 30.2986 22.2391 26.9699C24.9963 26.6717 27.6517 25.7598 30.0104 24.3012C32.3678 25.7686 35.0295 26.6775 37.7921 26.9581C37.9917 30.2973 37.6356 38.4794 29.9908 42.2986Z" fill="white"/>
<path d="M30.0001 28.6953C29.4263 28.6934 28.868 28.8812 28.4121 29.2296C27.9562 29.578 27.6283 30.0674 27.4794 30.6215C27.3306 31.1756 27.3691 31.7634 27.5891 32.2934C27.8091 32.8233 28.1982 33.2656 28.6957 33.5514V35.2171C28.6957 35.563 28.8331 35.8948 29.0777 36.1394C29.3223 36.384 29.6541 36.5214 30.0001 36.5214C30.346 36.5214 30.6778 36.384 30.9224 36.1394C31.167 35.8948 31.3044 35.563 31.3044 35.2171V33.5514C31.8019 33.2656 32.191 32.8233 32.411 32.2934C32.6309 31.7634 32.6695 31.1756 32.5207 30.6215C32.3718 30.0674 32.0439 29.578 31.588 29.2296C31.1321 28.8812 30.5738 28.6934 30.0001 28.6953Z" fill="white"/>
<path d="M44.3478 15.6517C45.0682 15.6517 45.6522 15.0677 45.6522 14.3473C45.6522 13.6269 45.0682 13.043 44.3478 13.043C43.6274 13.043 43.0435 13.6269 43.0435 14.3473C43.0435 15.0677 43.6274 15.6517 44.3478 15.6517Z" fill="white"/>
<path d="M39.1303 15.6517C39.8506 15.6517 40.4346 15.0677 40.4346 14.3473C40.4346 13.6269 39.8506 13.043 39.1303 13.043C38.4099 13.043 37.8259 13.6269 37.8259 14.3473C37.8259 15.0677 38.4099 15.6517 39.1303 15.6517Z" fill="white"/>
<path d="M33.913 15.6517C34.6334 15.6517 35.2173 15.0677 35.2173 14.3473C35.2173 13.6269 34.6334 13.043 33.913 13.043C33.1926 13.043 32.6086 13.6269 32.6086 14.3473C32.6086 15.0677 33.1926 15.6517 33.913 15.6517Z" fill="white"/>
<path d="M48.2608 9.13086H11.7391C11.0472 9.13086 10.3837 9.4057 9.89444 9.89493C9.40521 10.3842 9.13037 11.0477 9.13037 11.7396V48.2613C9.13037 48.9532 9.40521 49.6167 9.89444 50.1059C10.3837 50.5951 11.0472 50.87 11.7391 50.87H48.2608C48.9527 50.87 49.6162 50.5951 50.1054 50.1059C50.5947 49.6167 50.8695 48.9532 50.8695 48.2613V11.7396C50.8695 11.0477 50.5947 10.3842 50.1054 9.89493C49.6162 9.4057 48.9527 9.13086 48.2608 9.13086ZM48.2608 16.9569H19.5652V11.7396H48.2608V16.9569ZM16.9565 11.7396V16.9569H11.7391V11.7396H16.9565ZM11.7391 48.2613V19.5656H48.2608V48.2613H11.7391Z" fill="white"/>
</svg>
