<svg width="60" height="60" viewBox="0 0 60 60" fill="none" xmlns="http://www.w3.org/2000/svg">
<path d="M38.7501 19.5L26.4998 23.0002V32.625C26.4998 40.9174 31.5623 48.0101 38.7501 51C45.9379 48.0101 50.9999 40.9174 50.9999 32.625V23.0002L38.7501 19.5ZM47.4998 32.625C47.4998 38.7743 44.1109 44.3194 38.7501 47.1386C33.3888 44.3194 29.9999 38.7743 29.9999 32.625V25.6404L38.7501 23.1398L47.4998 25.6404V32.625Z" fill="white"/>
<path d="M41.3752 31.7503C41.3752 30.2992 40.2013 29.1253 38.7502 29.1253C37.2991 29.1253 36.1252 30.2992 36.1252 31.7503C36.1252 32.7216 36.6565 33.5579 37.4377 34.0136V39.6253H40.0627V34.0136C40.8433 33.5579 41.3752 32.7216 41.3752 31.7503ZM20.3752 47.0625H30V49.6875H20.3752V47.0625ZM11.625 36.5625H23.8748V39.1875H11.625V36.5625ZM12.9375 31.3125V20.3747H10.3125V33.9375H23.8748V31.3125H12.9375ZM21.2498 11.625H23.8748V23.4375H21.2498V11.625ZM36.1252 10.3125H26.4998V19.5H29.1248V12.9375H36.1252V10.3125ZM12.5532 49.3032L10.6968 47.4468L16.3311 41.8125H26.4998V44.4375H17.4179L12.5532 49.3032Z" fill="white"/>
<path d="M23.8748 28.688H15.5625V17.4183L10.6968 12.5537L12.5532 10.6973L18.1875 16.3316V26.063H23.8748V28.688Z" fill="white"/>
<path d="M20.3752 51C21.825 51 23.0002 49.8247 23.0002 48.375C23.0002 46.9253 21.825 45.75 20.3752 45.75C18.9255 45.75 17.7502 46.9253 17.7502 48.375C17.7502 49.8247 18.9255 51 20.3752 51Z" fill="white"/>
<path d="M11.625 51C13.0747 51 14.25 49.8247 14.25 48.375C14.25 46.9253 13.0747 45.75 11.625 45.75C10.1753 45.75 9 46.9253 9 48.375C9 49.8247 10.1753 51 11.625 51Z" fill="white"/>
<path d="M11.625 40.5C13.0747 40.5 14.25 39.3247 14.25 37.875C14.25 36.4253 13.0747 35.25 11.625 35.25C10.1753 35.25 9 36.4253 9 37.875C9 39.3247 10.1753 40.5 11.625 40.5Z" fill="white"/>
<path d="M11.625 23C13.0747 23 14.25 21.8247 14.25 20.375C14.25 18.9253 13.0747 17.75 11.625 17.75C10.1753 17.75 9 18.9253 9 20.375C9 21.8247 10.1753 23 11.625 23Z" fill="white"/>
<path d="M22.5623 14.25C24.012 14.25 25.1873 13.0747 25.1873 11.625C25.1873 10.1753 24.012 9 22.5623 9C21.1125 9 19.9373 10.1753 19.9373 11.625C19.9373 13.0747 21.1125 14.25 22.5623 14.25Z" fill="white"/>
<path d="M36.1252 14.25C37.575 14.25 38.7502 13.0747 38.7502 11.625C38.7502 10.1753 37.575 9 36.1252 9C34.6755 9 33.5002 10.1753 33.5002 11.625C33.5002 13.0747 34.6755 14.25 36.1252 14.25Z" fill="white"/>
<path d="M11.625 14.25C13.0747 14.25 14.25 13.0747 14.25 11.625C14.25 10.1753 13.0747 9 11.625 9C10.1753 9 9 10.1753 9 11.625C9 13.0747 10.1753 14.25 11.625 14.25Z" fill="white"/>
</svg>
