<svg xmlns="http://www.w3.org/2000/svg" fill="none" viewBox="6.25 7.21 37.5 37.5">
<path d="M21.6875 11.1504V40.7754C21.6875 42.1263 21.4001 42.9411 20.8759 43.4349C20.3441 43.9358 19.4573 44.2129 18 44.2129H10.4375C8.98024 44.2129 8.09339 43.9358 7.56156 43.4349C7.03738 42.9411 6.75 42.1263 6.75 40.7754V11.1504C6.75 9.79945 7.03738 8.98464 7.56156 8.49093C8.09339 7.99003 8.98024 7.71289 10.4375 7.71289H18C19.4573 7.71289 20.3441 7.99003 20.8759 8.49093C21.4001 8.98464 21.6875 9.79945 21.6875 11.1504Z" fill="white" stroke="white"/>
<path d="M43.25 11.1504V40.7754C43.25 42.1263 42.9626 42.9411 42.4384 43.4349C41.9066 43.9358 41.0198 44.2129 39.5625 44.2129H32C30.5427 44.2129 29.6559 43.9358 29.1241 43.4349C28.5999 42.9411 28.3125 42.1263 28.3125 40.7754V11.1504C28.3125 9.80155 28.6041 8.98607 29.1312 8.49159C29.6662 7.98964 30.5541 7.71289 32 7.71289H39.5625C41.0198 7.71289 41.9066 7.99003 42.4384 8.49093C42.9626 8.98464 43.25 9.79945 43.25 11.1504Z" fill="white" stroke="white"/>
</svg>