<svg width="64" height="80" viewBox="0 0 64 80" fill="none" xmlns="http://www.w3.org/2000/svg">
<path d="M44.6175 25.2623L24.6175 15.2623C24.2702 15.0885 23.8871 14.998 23.4988 14.998C23.1104 14.998 22.7273 15.0885 22.38 15.2623L2.38 25.2623C1.535 25.6873 1 26.5523 1 27.4998C1 40.2923 6.94 52.4023 17.3 60.7223L21.935 64.4473C22.3925 64.8173 22.945 64.9998 23.5 64.9998C24.055 64.9998 24.6075 64.8173 25.065 64.4473L29.7 60.7223C40.06 52.3998 46 40.2898 46 27.4998C46 26.5523 45.465 25.6873 44.6175 25.2623ZM26.5725 56.8248L23.5 59.2923L20.43 56.8273C11.675 49.7948 6.4825 39.7323 6.03 29.0298L23.5 20.2948L40.9675 29.0273C40.515 39.7298 35.3225 49.7898 26.5725 56.8248Z" fill="white" fill-opacity="0.2"/>
<path d="M18.2675 36.7325C17.7987 36.2637 17.1629 36.0004 16.5 36.0004C15.8371 36.0004 15.2013 36.2637 14.7325 36.7325C14.2637 37.2013 14.0004 37.8371 14.0004 38.5C14.0004 39.1629 14.2637 39.7987 14.7325 40.2675L19.7325 45.2675C19.9641 45.5005 20.2395 45.6853 20.5429 45.8115C20.8462 45.9376 21.1715 46.0026 21.5 46.0026C21.8285 46.0026 22.1538 45.9376 22.4571 45.8115C22.7605 45.6853 23.0359 45.5005 23.2675 45.2675L33.2675 35.2675C33.4996 35.0354 33.6837 34.7598 33.8093 34.4566C33.935 34.1533 33.9996 33.8283 33.9996 33.5C33.9996 33.1717 33.935 32.8467 33.8093 32.5434C33.6837 32.2402 33.4996 31.9646 33.2675 31.7325C33.0354 31.5004 32.7598 31.3163 32.4566 31.1906C32.1533 31.065 31.8283 31.0004 31.5 31.0004C31.1717 31.0004 30.8467 31.065 30.5434 31.1906C30.2402 31.3163 29.9646 31.5004 29.7325 31.7325L21.5 39.965L18.2675 36.7325ZM56 5H38.5C37.837 5 37.2011 5.26339 36.7322 5.73223C36.2634 6.20107 36 6.83696 36 7.5C36 8.16304 36.2634 8.79893 36.7322 9.26777C37.2011 9.73661 37.837 10 38.5 10H53.5V25C53.5 25.663 53.7634 26.2989 54.2322 26.7678C54.7011 27.2366 55.337 27.5 56 27.5C56.663 27.5 57.2989 27.2366 57.7678 26.7678C58.2366 26.2989 58.5 25.663 58.5 25V7.5C58.5 6.83696 58.2366 6.20107 57.7678 5.73223C57.2989 5.26339 56.663 5 56 5ZM-9 27.5C-8.33696 27.5 -7.70107 27.2366 -7.23223 26.7678C-6.76339 26.2989 -6.5 25.663 -6.5 25V10H8.5C9.16304 10 9.79893 9.73661 10.2678 9.26777C10.7366 8.79893 11 8.16304 11 7.5C11 6.83696 10.7366 6.20107 10.2678 5.73223C9.79893 5.26339 9.16304 5 8.5 5H-9C-9.66304 5 -10.2989 5.26339 -10.7678 5.73223C-11.2366 6.20107 -11.5 6.83696 -11.5 7.5V25C-11.5 25.663 -11.2366 26.2989 -10.7678 26.7678C-10.2989 27.2366 -9.66304 27.5 -9 27.5ZM8.5 70H-6.5V55C-6.5 54.337 -6.76339 53.7011 -7.23223 53.2322C-7.70107 52.7634 -8.33696 52.5 -9 52.5C-9.66304 52.5 -10.2989 52.7634 -10.7678 53.2322C-11.2366 53.7011 -11.5 54.337 -11.5 55V72.5C-11.5 73.163 -11.2366 73.7989 -10.7678 74.2678C-10.2989 74.7366 -9.66304 75 -9 75H8.5C9.16304 75 9.79893 74.7366 10.2678 74.2678C10.7366 73.7989 11 73.163 11 72.5C11 71.837 10.7366 71.2011 10.2678 70.7322C9.79893 70.2634 9.16304 70 8.5 70ZM56 52.5C55.337 52.5 54.7011 52.7634 54.2322 53.2322C53.7634 53.7011 53.5 54.337 53.5 55V70H38.5C37.837 70 37.2011 70.2634 36.7322 70.7322C36.2634 71.2011 36 71.837 36 72.5C36 73.163 36.2634 73.7989 36.7322 74.2678C37.2011 74.7366 37.837 75 38.5 75H56C56.663 75 57.2989 74.7366 57.7678 74.2678C58.2366 73.7989 58.5 73.163 58.5 72.5V55C58.5 54.337 58.2366 53.7011 57.7678 53.2322C57.2989 52.7634 56.663 52.5 56 52.5Z" fill="white" fill-opacity="0.2"/>
</svg>
