<svg width="111" height="111" viewBox="0 0 111 111" fill="none" xmlns="http://www.w3.org/2000/svg">
<path d="M101.667 108.334H9.33342C5.33342 108.334 2.16675 105.167 2.16675 101.167V94.5007C2.16675 93.5007 2.83341 92.834 3.83341 92.834H107.167C108.167 92.834 108.833 93.5007 108.833 94.5007V101.167C108.833 105.167 105.667 108.334 101.667 108.334ZM5.50008 96.1673V101.167C5.50008 103.334 7.16675 105.001 9.33342 105.001H101.667C103.833 105.001 105.5 103.334 105.5 101.167V96.1673H5.50008Z" fill="white"/>
<path d="M64.1667 102.168H46.8333C44.5 102.168 42.5 100.168 42.5 97.8346V94.3346C42.5 93.3346 43.1667 92.668 44.1667 92.668H66.6667C67.6667 92.668 68.3333 93.3346 68.3333 94.3346V97.8346C68.5 100.335 66.5 102.168 64.1667 102.168ZM45.8333 96.168V98.0013C45.8333 98.5013 46.3333 99.0013 46.8333 99.0013H64.1667C64.6667 99.0013 65.1667 98.5013 65.1667 98.0013V96.168H45.8333Z" fill="white"/>
<path d="M101.5 96.1673H9.50016C8.50016 96.1673 7.8335 95.5006 7.8335 94.5006V32.1673C7.8335 27.5007 11.5002 23.834 16.1668 23.834H56.0002C57.0002 23.834 57.6668 24.5007 57.6668 25.5007C57.6668 26.5007 57.0002 27.1673 56.0002 27.1673H16.1668C13.3335 27.1673 11.1668 29.334 11.1668 32.1673V92.834H99.6668V32.1673C99.6668 29.334 97.5002 27.1673 94.6668 27.1673C93.6668 27.1673 93.0002 26.5007 93.0002 25.5007C93.0002 24.5007 93.6668 23.834 94.6668 23.834C99.3335 23.834 103 27.5007 103 32.1673V94.5006C103.167 95.334 102.333 96.1673 101.5 96.1673Z" fill="white"/>
<path d="M64.1667 102.167H46.8333C44.5 102.167 42.5 100.167 42.5 97.834V94.334C42.5 93.334 43.1667 92.6673 44.1667 92.6673H66.6667C67.6667 92.6673 68.3333 93.334 68.3333 94.334V97.834C68.5 100.334 66.5 102.167 64.1667 102.167ZM45.8333 96.1673V98.0007C45.8333 98.5007 46.3333 99.0007 46.8333 99.0007H64.1667C64.6667 99.0007 65.1667 98.5007 65.1667 98.0007V96.1673H45.8333ZM75.6667 50.834C75.3333 50.834 75 50.6673 74.8333 50.5007C61.5 41.834 53.5 27.334 53.5 11.5007C53.5 10.6673 54.1667 9.66732 55 9.66732C57.6667 9.50065 60.3333 9.00065 63 8.16732C67.1667 7.00065 71.1667 5.16732 74.6667 2.83398C75.1667 2.50065 76 2.50065 76.5 2.83398C80 5.16732 84 7.00065 88.1667 8.16732C90.8333 8.83398 93.5 9.33398 96.1667 9.66732C97 9.66732 97.6667 10.5007 97.6667 11.334V11.5007C97.6667 27.334 89.6667 42.0007 76.3333 50.5007C76.3333 50.6673 76 50.834 75.6667 50.834ZM56.8333 12.834C57.3333 26.834 64.1667 39.334 75.6667 47.1673C87.1667 39.334 94 26.6673 94.5 12.834C92.1667 12.5007 89.6667 12.1673 87.3333 11.5007C83.1667 10.334 79.3333 8.66732 75.6667 6.33398C72 8.50065 68.1667 10.334 64 11.5007C61.6667 12.0007 59.3333 12.5007 56.8333 12.834Z" fill="white"/>
<path d="M80.3337 36.1667H71.167C68.667 36.1667 66.667 34.1667 66.667 31.6667V23.5C66.667 21 68.667 19 71.167 19H80.3337C82.8337 19 84.8337 21 84.8337 23.5V31.6667C84.667 34.1667 82.667 36.1667 80.3337 36.1667ZM71.167 22.3333C70.5003 22.3333 70.0003 22.8333 70.0003 23.5V31.6667C70.0003 32.3333 70.5003 32.8333 71.167 32.8333H80.3337C81.0003 32.8333 81.5003 32.3333 81.5003 31.6667V23.5C81.5003 22.8333 81.0003 22.3333 80.3337 22.3333H71.167Z" fill="white"/>
<path d="M80.3337 22.334C79.3337 22.334 78.667 21.6673 78.667 20.6673V16.0007C78.667 14.5007 77.3337 13.1673 75.8337 13.1673C74.3337 13.1673 73.0003 14.5007 73.0003 16.0007V20.5007C73.0003 21.5007 72.3337 22.1673 71.3337 22.1673C70.3337 22.1673 69.667 21.5007 69.667 20.5007V16.0007C69.667 12.6673 72.5003 9.83398 75.8337 9.83398C79.167 9.83398 82.0003 12.6673 82.0003 16.0007V20.6673C82.0003 21.5007 81.3337 22.334 80.3337 22.334ZM75.8337 31.6673C75.0003 31.6673 74.167 31.0006 74.167 30.1673V29.5006C74.167 28.5006 74.8337 27.834 75.667 27.6673C76.5003 27.6673 77.3337 28.334 77.5003 29.1673V29.834C77.5003 30.6673 76.8337 31.5007 75.8337 31.6673Z" fill="white"/>
<path d="M75.6668 30.8333C73.6668 30.8333 72.0002 29.1667 72.0002 27.1667C72.0002 25.1667 73.6668 23.5 75.6668 23.5C77.6668 23.5 79.3335 25.1667 79.3335 27.1667C79.3335 29.1667 77.6668 30.8333 75.6668 30.8333ZM75.6668 26.8333C75.5002 26.8333 75.3335 27 75.3335 27.1667C75.3335 27.5 76.0002 27.5 76.0002 27.1667C76.0002 27 75.8335 26.8333 75.6668 26.8333ZM29.8335 59C21.8335 59 15.3335 52.5 15.3335 44.5C15.3335 36.5 21.8335 30 29.8335 30C37.8335 30 44.3335 36.5 44.3335 44.5C44.3335 52.5 37.8335 59 29.8335 59ZM29.8335 33.5C26.8719 33.5 24.0316 34.6765 21.9375 36.7706C19.8433 38.8648 18.6668 41.7051 18.6668 44.6667C18.6668 47.6283 19.8433 50.4685 21.9375 52.5627C24.0316 54.6568 26.8719 55.8333 29.8335 55.8333C32.7951 55.8333 35.6354 54.6568 37.7295 52.5627C39.8237 50.4685 41.0002 47.6283 41.0002 44.6667C41.0002 41.7051 39.8237 38.8648 37.7295 36.7706C35.6354 34.6765 32.7951 33.5 29.8335 33.5Z" fill="white"/>
<path d="M29.8333 45.3346C26.8333 45.3346 24.5 43.0013 24.5 40.0013C24.5 37.0013 26.8333 34.668 29.8333 34.668C32.8333 34.668 35.1667 37.0013 35.1667 40.0013C35.1667 43.0013 32.8333 45.3346 29.8333 45.3346ZM29.8333 38.0013C28.6667 38.0013 27.8333 38.8346 27.8333 40.0013C27.8333 41.168 28.6667 42.0013 29.8333 42.0013C31 42.0013 31.8333 41.168 31.8333 40.0013C31.8333 39.0013 31 38.0013 29.8333 38.0013ZM23.3333 56.5013C22.3333 56.5013 21.6667 55.8346 21.6667 54.8346V53.168C21.6667 49.5013 24.6667 46.5013 28.3333 46.5013H31.6667C35.3333 46.5013 38.3333 49.5013 38.3333 53.168V54.168C38.3333 55.168 37.6667 55.8346 36.6667 55.8346C35.6667 55.8346 35 55.168 35 54.168V53.168C35 51.3346 33.5 49.8346 31.6667 49.8346H28.3333C26.5 49.8346 25 51.3346 25 53.168V54.8346C25 55.8346 24.1667 56.5013 23.3333 56.5013ZM28.5 73.0013H20.6667C19.6667 73.0013 19 72.3346 19 71.3346V63.5013C19 62.5013 19.6667 61.8346 20.6667 61.8346H28.5C29.5 61.8346 30.1667 62.5013 30.1667 63.5013V71.3346C30.1667 72.3346 29.3333 73.0013 28.5 73.0013ZM22.3333 69.668H26.8333V65.168H22.3333V69.668ZM28.5 87.5013H20.6667C19.6667 87.5013 19 86.8346 19 85.8346V78.0013C19 77.0013 19.6667 76.3346 20.6667 76.3346H28.5C29.5 76.3346 30.1667 77.0013 30.1667 78.0013V85.8346C30.1667 86.668 29.3333 87.5013 28.5 87.5013ZM22.3333 84.168H26.8333V79.668H22.3333V84.168ZM90 65.668H36.5C35.5 65.668 34.8333 65.0013 34.8333 64.0013C34.8333 63.0013 35.5 62.3346 36.5 62.3346H90C91 62.3346 91.6667 63.0013 91.6667 64.0013C91.6667 65.0013 91 65.668 90 65.668ZM63.3333 72.5013H36.5C35.5 72.5013 34.8333 71.8346 34.8333 70.8346C34.8333 69.8346 35.5 69.168 36.5 69.168H63.3333C64.3333 69.168 65 69.8346 65 70.8346C65 71.8346 64.1667 72.5013 63.3333 72.5013ZM90 80.0013H36.5C35.5 80.0013 34.8333 79.3346 34.8333 78.3346C34.8333 77.3346 35.5 76.668 36.5 76.668H90C91 76.668 91.6667 77.3346 91.6667 78.3346C91.6667 79.3346 91 80.0013 90 80.0013ZM63.3333 87.0013H36.5C35.5 87.0013 34.8333 86.3346 34.8333 85.3346C34.8333 84.3346 35.5 83.668 36.5 83.668H63.3333C64.3333 83.668 65 84.3346 65 85.3346C65 86.3346 64.1667 87.0013 63.3333 87.0013ZM55.1667 38.668H49.3333C48.3333 38.668 47.6667 38.0013 47.6667 37.0013C47.6667 36.0013 48.3333 35.3346 49.3333 35.3346H55.1667C56.1667 35.3346 56.8333 36.0013 56.8333 37.0013C56.8333 38.0013 56.1667 38.668 55.1667 38.668ZM60 46.168H49.3333C48.3333 46.168 47.6667 45.5013 47.6667 44.5013C47.6667 43.5013 48.3333 42.8346 49.3333 42.8346H60C61 42.8346 61.6667 43.5013 61.6667 44.5013C61.6667 45.5013 61 46.168 60 46.168ZM67.6667 53.668H49.3333C48.3333 53.668 47.6667 53.0013 47.6667 52.0013C47.6667 51.0013 48.3333 50.3346 49.3333 50.3346H67.5C68.5 50.3346 69.1667 51.0013 69.1667 52.0013C69.1667 53.0013 68.5 53.668 67.6667 53.668Z" fill="white"/>
</svg>
