<svg width="110" height="111" viewBox="0 0 110 111" fill="none" xmlns="http://www.w3.org/2000/svg">
<g clip-path="url(#clip0_2485_5447)">
<path fill-rule="evenodd" clip-rule="evenodd" d="M106.954 46.3047H96.7136C96.8983 47.6759 96.7876 49.0707 96.3889 50.3956C95.9902 51.7204 95.3127 52.9447 94.402 53.9863C93.4913 55.0279 92.3684 55.8626 91.1086 56.4345C89.8488 57.0065 88.4812 57.3024 87.0977 57.3024C85.7141 57.3024 84.3465 57.0065 83.0867 56.4345C81.8269 55.8626 80.704 55.0279 79.7933 53.9863C78.8826 52.9447 78.2051 51.7204 77.8065 50.3956C77.4078 49.0707 77.297 47.6759 77.4817 46.3047H67.2031V58.4904H67.1993C67.199 58.7313 67.1408 58.9686 67.0295 59.1822C66.9183 59.3959 66.7572 59.5796 66.56 59.7179C66.3627 59.8562 66.1351 59.9449 65.8963 59.9767C65.6576 60.0085 65.4146 59.9823 65.1881 59.9004C64.8234 59.7691 64.448 59.6698 64.066 59.6039C63.6813 59.5372 63.2915 59.5038 62.9011 59.5043C61.1255 59.5043 59.4226 60.2096 58.167 61.4652C56.9115 62.7207 56.2061 64.4236 56.2061 66.1992C56.2061 67.9748 56.9115 69.6777 58.167 70.9333C59.4226 72.1888 61.1255 72.8942 62.9011 72.8942C63.6453 72.8951 64.3846 72.7731 65.0891 72.533C65.3181 72.4314 65.5688 72.3885 65.8186 72.4084C66.0683 72.4283 66.3092 72.5103 66.5192 72.6469C66.7292 72.7835 66.9018 72.9704 67.0212 73.1906C67.1407 73.4109 67.2032 73.6575 67.2031 73.908V86.0938H106.992C106.992 73.332 106.981 66.155 106.971 58.9768C106.965 54.7501 106.959 50.5261 106.954 46.3047ZM15.194 67.7031H3.00781V107.492H42.7969V97.2136C41.4257 97.3983 40.0309 97.2876 38.706 96.8889C37.3811 96.4902 36.1568 95.8127 35.1153 94.902C34.0737 93.9913 33.239 92.8684 32.667 91.6086C32.0951 90.3488 31.7992 88.9812 31.7992 87.5977C31.7992 86.2141 32.0951 84.8465 32.667 83.5867C33.239 82.3269 34.0737 81.204 35.1153 80.2933C36.1568 79.3826 37.3811 78.7051 38.706 78.3065C40.0309 77.9078 41.4257 77.797 42.7969 77.9817V67.7031H30.6112C30.3606 67.7032 30.114 67.6407 29.8938 67.5212C29.6735 67.4018 29.4866 67.2292 29.35 67.0192C29.2134 66.8092 29.1314 66.5683 29.1116 66.3186C29.0917 66.0688 29.1345 65.8181 29.2362 65.5891C29.5818 64.5773 29.6801 63.4974 29.5227 62.4398C29.3653 61.3822 28.9569 60.3777 28.3315 59.5105C27.7062 58.6432 26.8822 57.9383 25.9285 57.4549C24.9747 56.9715 23.9191 56.7236 22.8499 56.732C21.7807 56.7404 20.7291 57.0048 19.7831 57.5031C18.8371 58.0014 18.0242 58.7191 17.4125 59.5961C16.8009 60.473 16.4082 61.4838 16.2674 62.5437C16.1266 63.6036 16.2418 64.6819 16.6033 65.6881C16.6853 65.9146 16.7116 66.1575 16.6799 66.3963C16.6482 66.6351 16.5594 66.8628 16.4211 67.06C16.2828 67.2573 16.0991 67.4183 15.8854 67.5295C15.6717 67.6408 15.4344 67.6989 15.1935 67.699V67.7031H15.194ZM1.50391 64.6953H13.2864C13.1017 63.3241 13.2125 61.9293 13.6111 60.6044C14.0098 59.2796 14.6873 58.0553 15.598 57.0137C16.5087 55.9721 17.6316 55.1374 18.8914 54.5655C20.1512 53.9935 21.5188 53.6976 22.9023 53.6976C24.2859 53.6976 25.6535 53.9935 26.9133 54.5655C28.1731 55.1374 29.296 55.9721 30.2067 57.0137C31.1174 58.0553 31.7949 59.2796 32.1935 60.6044C32.5922 61.9293 32.703 63.3241 32.5183 64.6953H44.3008C44.6996 64.6953 45.0822 64.8538 45.3642 65.1358C45.6462 65.4178 45.8047 65.8004 45.8047 66.1992V79.8888H45.8008C45.8007 80.1298 45.7425 80.3671 45.6313 80.5808C45.5201 80.7945 45.359 80.9783 45.1617 81.1166C44.9645 81.2549 44.7368 81.3436 44.498 81.3754C44.2592 81.4071 44.0162 81.3809 43.7897 81.2989C43.425 81.1675 43.0495 81.0683 42.6675 81.0024C42.2829 80.9355 41.8932 80.9022 41.5029 80.9027C39.7273 80.9027 38.0244 81.6081 36.7688 82.8636C35.5133 84.1192 34.8079 85.822 34.8079 87.5977C34.8079 89.3733 35.5133 91.0762 36.7688 92.3317C38.0244 93.5873 39.7273 94.2926 41.5029 94.2926C42.2471 94.2935 42.9864 94.1715 43.6908 93.9315C43.9198 93.8299 44.1706 93.7871 44.4203 93.807C44.67 93.8269 44.9108 93.9089 45.1208 94.0455C45.3308 94.1821 45.5034 94.369 45.6228 94.5892C45.7422 94.8094 45.8047 95.0559 45.8047 95.3065V108.996C45.8047 109.395 45.6462 109.777 45.3642 110.06C45.0822 110.342 44.6996 110.5 44.3008 110.5H1.50391C1.10505 110.5 0.722521 110.342 0.440484 110.06C0.158447 109.777 0 109.395 0 108.996L0 66.1992C0 65.8004 0.158447 65.4178 0.440484 65.1358C0.722521 64.8538 1.10505 64.6953 1.50391 64.6953ZM94.8065 43.2969C94.5559 43.2968 94.3093 43.3593 94.0891 43.4788C93.8688 43.5982 93.6819 43.7708 93.5453 43.9808C93.4087 44.1908 93.3268 44.4317 93.3069 44.6814C93.287 44.9312 93.3298 45.1819 93.4315 45.4109C93.763 46.377 93.8691 47.406 93.7417 48.4193C93.6143 49.4327 93.2568 50.4034 92.6966 51.2574C92.1363 52.1113 91.3882 52.8257 90.5093 53.346C89.6305 53.8663 88.6442 54.1787 87.6261 54.2592C86.608 54.3398 85.5849 54.1863 84.6352 53.8106C83.6855 53.435 82.8343 52.847 82.1468 52.0918C81.4593 51.3366 80.9536 50.4341 80.6685 49.4534C80.3834 48.4726 80.3264 47.4397 80.502 46.4336C80.5678 46.0516 80.667 45.6761 80.7984 45.3115C80.8804 45.0849 80.9067 44.842 80.8749 44.6032C80.8432 44.3643 80.7544 44.1367 80.6161 43.9394C80.4778 43.7421 80.2941 43.5811 80.0804 43.4698C79.8667 43.3586 79.6293 43.3005 79.3884 43.3003V43.2969H67.201C67.2025 43.2702 67.2031 43.2434 67.2031 43.2165V33.0183C68.5743 33.203 69.9691 33.0922 71.294 32.6935C72.6189 32.2949 73.8432 31.6174 74.8847 30.7067C75.9263 29.796 76.761 28.6731 77.333 27.4133C77.9049 26.1535 78.2008 24.7859 78.2008 23.4023C78.2008 22.0188 77.9049 20.6512 77.333 19.3914C76.761 18.1316 75.9263 17.0087 74.8847 16.098C73.8432 15.1873 72.6189 14.5098 71.294 14.1111C69.9691 13.7125 68.5743 13.6017 67.2031 13.7864V3.5018H106.992C106.939 16.8363 106.937 30.0685 106.951 43.2969H94.8065ZM64.1953 46.3047H52.0096C51.759 46.3048 51.5125 46.2422 51.2922 46.1228C51.072 46.0034 50.8851 45.8308 50.7485 45.6208C50.6119 45.4107 50.5299 45.1699 50.51 44.9201C50.4901 44.6704 50.5329 44.4196 50.6346 44.1906C50.9803 43.1788 51.0785 42.0989 50.9212 41.0414C50.7638 39.9838 50.3553 38.9793 49.73 38.112C49.1046 37.2447 48.2806 36.5399 47.3269 36.0565C46.3732 35.5731 45.3175 35.3252 44.2484 35.3336C43.1792 35.342 42.1275 35.6064 41.1815 36.1047C40.2355 36.603 39.4227 37.3206 38.811 38.1976C38.1993 39.0746 37.8067 40.0854 37.6659 41.1453C37.5251 42.2052 37.6403 43.2834 38.0018 44.2897C38.0837 44.5162 38.1099 44.7591 38.0782 44.9979C38.0464 45.2367 37.9577 45.4643 37.8194 45.6615C37.6811 45.8588 37.4974 46.0199 37.2838 46.1311C37.0701 46.2424 36.8329 46.3006 36.592 46.3008V46.3047H22.9023C22.5035 46.3047 22.121 46.1462 21.8389 45.8642C21.5569 45.5822 21.3984 45.1996 21.3984 44.8008V2.00391C21.3984 1.60505 21.5569 1.22252 21.8389 0.940484C22.121 0.658447 22.5035 0.5 22.9023 0.5C22.947 0.5 22.9913 0.502148 23.0351 0.505801H108.496C108.893 0.505801 109.274 0.663636 109.555 0.944586C109.836 1.22554 109.994 1.60658 109.994 2.00391V2.00971C109.913 21.1207 109.94 40.013 109.967 58.9768C109.984 70.5414 110 82.1436 110 87.5977C110 87.9965 109.842 88.379 109.56 88.6611C109.278 88.9431 108.895 89.1016 108.496 89.1016H65.6992C65.3004 89.1016 64.9178 88.9431 64.6358 88.6611C64.3538 88.379 64.1953 87.9965 64.1953 87.5977V75.8152C62.8241 75.9998 61.4293 75.8891 60.1044 75.4904C58.7796 75.0917 57.5553 74.4143 56.5137 73.5036C55.4721 72.5929 54.6374 71.47 54.0655 70.2102C53.4935 68.9503 53.1976 67.5828 53.1976 66.1992C53.1976 64.8157 53.4935 63.4481 54.0655 62.1883C54.6374 60.9285 55.4721 59.8055 56.5137 58.8948C57.5553 57.9841 58.7796 57.3067 60.1044 56.908C61.4293 56.5093 62.8241 56.3986 64.1953 56.5832V46.3047ZM53.9168 43.2969H64.1975C64.196 43.2701 64.1953 43.2433 64.1953 43.2165V31.1112H64.1992C64.1993 30.8702 64.2575 30.6329 64.3687 30.4192C64.4799 30.2055 64.641 30.0217 64.8383 29.8834C65.0355 29.7451 65.2632 29.6564 65.502 29.6246C65.7408 29.5929 65.9838 29.6191 66.2103 29.7011C66.575 29.8325 66.9505 29.9317 67.3325 29.9976C67.7171 30.0644 68.1068 30.0977 68.4971 30.0973C70.2727 30.0973 71.9756 29.3919 73.2312 28.1364C74.4867 26.8808 75.1921 25.178 75.1921 23.4023C75.1921 21.6267 74.4867 19.9238 73.2312 18.6683C71.9756 17.4127 70.2727 16.7074 68.4971 16.7074C67.753 16.7066 67.0138 16.8285 66.3094 17.0683C66.0804 17.17 65.8296 17.2128 65.5799 17.1929C65.3301 17.173 65.0893 17.0911 64.8792 16.9545C64.6692 16.8179 64.4967 16.6309 64.3772 16.4107C64.2578 16.1905 64.1952 15.9439 64.1953 15.6933V3.5018H24.4062V43.2969H34.6846C34.4998 41.9256 34.6105 40.5307 35.0091 39.2057C35.4077 37.8807 36.0851 36.6563 36.9959 35.6146C37.9066 34.5729 39.0296 33.7381 40.2895 33.1661C41.5494 32.5941 42.917 32.2982 44.3007 32.2982C45.6843 32.2982 47.052 32.5941 48.3119 33.1661C49.5718 33.7381 50.6948 34.5729 51.6055 35.6146C52.5162 36.6563 53.1936 37.8807 53.5923 39.2057C53.9909 40.5307 54.1015 41.9256 53.9168 43.2969Z" fill="white"/>
</g>
<defs>
<clipPath id="clip0_2485_5447">
<rect width="110" height="110" fill="white" transform="translate(0 0.5)"/>
</clipPath>
</defs>
</svg>
