<svg width="34" height="34" viewBox="0 0 34 34" fill="none" xmlns="http://www.w3.org/2000/svg">
<path fill-rule="evenodd" clip-rule="evenodd" d="M17.3868 4.58283C14.9146 4.49987 12.4786 5.19432 10.4217 6.56843C8.10908 8.11457 6.41539 10.4264 5.63832 13.0976C5.4279 13.0719 5.17592 13.0832 4.87672 13.1678C3.75964 13.4852 2.91984 14.4001 2.54206 15.2063C2.0517 16.2569 1.84506 17.6468 2.06304 19.0808C2.2795 20.5107 2.88357 21.6894 3.63912 22.4211C4.39695 23.1532 5.25261 23.3912 6.10261 23.2126C7.36817 22.9424 7.99566 22.7403 7.81848 21.5617L6.96092 15.8459C7.04802 14.2902 7.4956 12.7762 8.26833 11.4232C9.04105 10.0702 10.1178 8.91546 11.4134 8.05007C13.1595 6.88192 15.228 6.29068 17.3277 6.35953C19.4274 6.42838 21.4526 7.15386 23.1185 8.43389C24.2686 9.3157 25.2144 10.4359 25.8909 11.7175C26.5674 12.9992 26.9587 14.412 27.0379 15.8591L26.438 19.8571C25.7871 21.6414 24.6437 23.2047 23.1403 24.3654C21.637 25.5262 19.8354 26.237 17.9444 26.4154H15.3884C15.232 26.415 15.077 26.4455 14.9325 26.5052C14.7879 26.5649 14.6565 26.6525 14.5459 26.7631C14.4353 26.8736 14.3475 27.005 14.2878 27.1495C14.228 27.294 14.1974 27.4489 14.1976 27.6054V28.2332C14.1973 28.3897 14.2279 28.5446 14.2877 28.6892C14.3474 28.8338 14.4351 28.9651 14.5458 29.0757C14.6564 29.1863 14.7878 29.274 14.9324 29.3337C15.077 29.3934 15.232 29.4239 15.3884 29.4236H18.6112C18.7675 29.4238 18.9222 29.3932 19.0666 29.3335C19.211 29.2738 19.3422 29.1861 19.4526 29.0755C19.563 28.9649 19.6504 28.8336 19.7099 28.6891C19.7694 28.5447 19.7998 28.3899 19.7993 28.2336V27.9049C22.6949 27.1959 25.2175 25.423 26.8653 22.9387L27.8977 23.2126C28.7379 23.4305 29.6038 23.1529 30.3612 22.4211C31.1168 21.689 31.7205 20.5107 31.9373 19.0808C32.1564 17.6464 31.9434 16.2592 31.4591 15.2063C30.9729 14.1534 30.2487 13.4848 29.4126 13.2449C29.0624 13.144 28.6824 13.107 28.3564 13.0976C27.6546 10.6817 26.2001 8.55288 24.2046 7.021C22.243 5.51513 19.8585 4.66239 17.3868 4.58283Z" fill="white"/>
<path fill-rule="evenodd" clip-rule="evenodd" d="M21.1593 14.8658C21.5687 14.8663 21.9612 15.0291 22.2506 15.3187C22.5401 15.6082 22.7029 16.0007 22.7033 16.4101C22.7026 16.8195 22.5396 17.2119 22.2502 17.5014C21.9607 17.7908 21.5683 17.9538 21.1589 17.9545C20.7491 17.9546 20.356 17.792 20.066 17.5024C19.776 17.2128 19.6128 16.8199 19.6123 16.4101C19.6124 16.2071 19.6525 16.0061 19.7303 15.8187C19.808 15.6312 19.922 15.4608 20.0656 15.3174C20.2092 15.1739 20.3797 15.0602 20.5673 14.9826C20.7549 14.9051 20.9559 14.8652 21.1589 14.8654L21.1593 14.8658ZM17 14.8658C17.3054 14.8659 17.6039 14.9566 17.8577 15.1264C18.1116 15.2961 18.3094 15.5374 18.4262 15.8195C18.543 16.1017 18.5735 16.4122 18.5138 16.7117C18.4542 17.0112 18.3071 17.2863 18.0911 17.5023C17.8751 17.7182 17.6 17.8652 17.3004 17.9248C17.0009 17.9844 16.6904 17.9538 16.4083 17.8369C16.1261 17.7201 15.885 17.5222 15.7152 17.2683C15.5455 17.0144 15.4549 16.7159 15.4548 16.4105C15.4546 16.2075 15.4945 16.0065 15.5721 15.819C15.6496 15.6314 15.7634 15.461 15.907 15.3175C16.0505 15.174 16.2209 15.0602 16.4084 14.9826C16.596 14.905 16.797 14.8656 17 14.8658ZM12.8418 14.8658C13.0474 14.8612 13.252 14.8978 13.4433 14.9734C13.6347 15.0489 13.809 15.162 13.9561 15.3058C14.1031 15.4497 14.22 15.6215 14.2998 15.8111C14.3796 16.0007 14.4207 16.2044 14.4207 16.4101C14.4207 16.6158 14.3796 16.8195 14.2998 17.0091C14.22 17.1988 14.1031 17.3706 13.9561 17.5144C13.809 17.6583 13.6347 17.7713 13.4433 17.8469C13.252 17.9224 13.0474 17.959 12.8418 17.9545C12.4363 17.9481 12.0496 17.7826 11.7651 17.4936C11.4806 17.2047 11.3212 16.8154 11.3212 16.4099C11.3212 16.0044 11.4806 15.6152 11.7651 15.3262C12.0496 15.0372 12.4363 14.8721 12.8418 14.8658ZM17 8.23047C12.4704 8.23047 8.82031 11.7604 8.82031 16.4097C8.82031 18.6428 9.66465 20.6163 11.0401 22.0643L10.552 24.2524C10.3911 24.9724 10.8905 25.4568 11.538 25.0964L13.6744 23.9045C14.724 24.359 15.8561 24.5922 17 24.5898C21.531 24.5898 25.1788 21.0621 25.1788 16.4109C25.1788 11.7612 21.531 8.23122 17 8.23122V8.23047Z" fill="white"/>
</svg>
