<svg width="258" height="258" viewBox="0 0 258 258" fill="none" xmlns="http://www.w3.org/2000/svg">
<path d="M254.869 145.539L131.019 90.7488C130.382 90.4671 129.693 90.3215 128.997 90.3215C128.3 90.3215 127.611 90.4671 126.974 90.7488L3.12941 145.539C2.24361 145.931 1.4907 146.571 0.962197 147.383C0.433692 148.195 0.152344 149.143 0.152344 150.111C0.152344 151.08 0.433692 152.028 0.962197 152.839C1.4907 153.651 2.24361 154.292 3.12941 154.684L54.9894 177.599V218.084C54.9894 225.134 62.6994 229.364 80.7744 232.214C93.5394 234.229 110.669 235.339 128.999 235.339C162.764 235.339 203.009 232.344 203.009 218.084V177.599L219.894 170.139V175.674C217.316 176.676 215.1 178.432 213.536 180.712C211.971 182.993 211.131 185.693 211.124 188.459C211.124 192.114 212.579 195.419 214.909 197.884C212.159 201.634 210.429 206.929 210.374 212.939L206.309 251.919C206.235 252.616 206.308 253.32 206.524 253.987C206.74 254.653 207.094 255.267 207.563 255.788C208.032 256.308 208.605 256.725 209.245 257.009C209.886 257.294 210.579 257.44 211.279 257.439H238.469C239.17 257.44 239.863 257.294 240.504 257.009C241.144 256.725 241.717 256.308 242.186 255.788C242.655 255.267 243.009 254.653 243.225 253.987C243.441 253.32 243.514 252.616 243.439 251.919L239.369 212.939C239.319 206.929 237.589 201.634 234.839 197.889C237.267 195.351 238.624 191.976 238.629 188.464C238.623 185.705 237.786 183.011 236.228 180.734C234.671 178.456 232.464 176.7 229.894 175.694V165.729L254.869 154.694C255.758 154.303 256.514 153.662 257.045 152.85C257.575 152.037 257.858 151.087 257.858 150.116C257.858 149.146 257.575 148.196 257.045 147.383C256.514 146.57 255.758 145.929 254.869 145.539ZM228.629 188.454C228.629 189.446 228.236 190.397 227.536 191.1C226.836 191.803 225.886 192.2 224.894 192.204L224.874 192.199L224.854 192.204C223.86 192.201 222.907 191.804 222.206 191.098C221.504 190.393 221.112 189.438 221.114 188.444C221.117 187.449 221.515 186.496 222.22 185.795C222.925 185.094 223.88 184.701 224.874 184.704L224.894 184.709C225.886 184.713 226.835 185.109 227.535 185.811C228.234 186.512 228.628 187.463 228.629 188.454ZM216.829 247.429L220.344 213.719C220.839 206.864 222.879 202.179 224.854 202.204H224.884C226.659 202.154 228.944 206.794 229.394 213.719L232.914 247.429H216.829ZM193.009 205.964C175.949 197.584 141.804 196.734 128.999 196.734C116.194 196.734 82.0494 197.579 64.9894 205.964V159.839C64.9894 156.504 84.0294 148.124 128.999 148.124C146.734 148.124 163.209 149.569 175.389 152.189C189.869 155.309 193.004 159.069 193.004 159.834L193.009 205.964ZM65.1994 217.509C67.2894 214.059 87.1494 206.739 128.999 206.739C146.744 206.739 163.229 208.154 175.409 210.719C188.279 213.429 191.784 216.424 192.694 217.584C188.329 220.889 166.404 225.339 128.994 225.339C91.3144 225.339 69.3394 220.819 65.1994 217.509ZM203.009 166.664V159.844C203.009 139.694 146.364 138.129 128.999 138.129C111.634 138.129 54.9894 139.694 54.9894 159.844V166.664L17.5144 150.109L128.999 100.784L219.894 140.994V159.199L203.009 166.664ZM229.894 154.789V145.424L240.484 150.109L229.894 154.789ZM91.1344 40.6088L105.639 51.1488L100.104 68.1988C99.4718 70.0754 99.4609 72.106 100.073 73.9893C100.686 75.8726 101.889 77.5083 103.504 78.6538C105.174 79.8688 107.089 80.4738 108.999 80.4738C110.914 80.4738 112.829 79.8688 114.499 78.6538L128.999 68.1188L143.504 78.6538C146.844 81.0838 151.154 81.0888 154.494 78.6538C156.11 77.5083 157.313 75.8726 157.925 73.9893C158.538 72.106 158.527 70.0754 157.894 68.1988L152.359 51.1488L166.864 40.6038C168.48 39.4587 169.683 37.8227 170.295 35.9391C170.907 34.0555 170.894 32.0248 170.259 30.1488C169.669 28.2597 168.485 26.6112 166.883 25.4477C165.282 24.2841 163.349 23.6673 161.369 23.6888H143.434L137.899 6.63383C136.614 2.70883 133.124 0.173828 128.999 0.173828C124.874 0.173828 121.384 2.70883 120.104 6.63383L114.569 23.6888H96.6344C92.5094 23.6888 89.0194 26.2238 87.7444 30.1488C87.1079 32.0249 87.094 34.0564 87.7048 35.941C88.3156 37.8256 89.5185 39.4627 91.1344 40.6088ZM115.034 33.6888C119.094 33.6888 122.664 31.0938 123.929 27.2288L128.999 11.6188L134.074 27.2388C134.683 29.1165 135.872 30.7528 137.469 31.9126C139.067 33.0724 140.99 33.696 142.964 33.6938H159.374L146.104 43.3388C144.502 44.4967 143.308 46.1336 142.696 48.0136C142.084 49.8937 142.085 51.9195 142.699 53.7988L147.769 69.3988L134.499 59.7538C132.902 58.5891 130.977 57.9611 129 57.9602C127.024 57.9593 125.098 58.5856 123.499 59.7488L110.229 69.3888L115.299 53.7838C115.914 51.9065 115.916 49.8825 115.305 48.004C114.693 46.1256 113.501 44.4901 111.899 43.3338L98.6244 33.6888H115.034ZM28.0744 74.9038L23.4644 89.0938C23.0331 90.4067 22.9195 91.8032 23.1332 93.1685C23.3468 94.5338 23.8815 95.8288 24.6933 96.9472C25.5051 98.0655 26.5707 98.9752 27.8026 99.6013C29.0346 100.227 30.3975 100.552 31.7794 100.549C33.5794 100.549 35.3844 99.9888 36.9194 98.8738L48.9994 90.1038L61.0744 98.8738C62.5674 99.9641 64.3682 100.552 66.2169 100.552C68.0656 100.552 69.8664 99.9641 71.3594 98.8738C74.4294 96.6388 75.7094 92.7088 74.5344 89.0938L69.9244 74.8988L81.9944 66.1288C83.492 65.0456 84.607 63.5148 85.1785 61.7571C85.75 59.9994 85.7486 58.1057 85.1744 56.3488C84.6076 54.5903 83.4969 53.0572 82.0024 51.9707C80.508 50.8843 78.7071 50.3006 76.8594 50.3038H61.9344L57.3244 36.1088C56.1494 32.4938 52.8044 30.0688 49.0044 30.0688C45.2044 30.0688 41.8594 32.4938 40.6844 36.1088L36.0744 50.3038H21.1494C17.3494 50.3038 14.0044 52.7338 12.8344 56.3488C12.2603 58.1057 12.2588 59.9994 12.8304 61.7571C13.4019 63.5148 14.5168 65.0456 16.0144 66.1288L28.0744 74.9038ZM36.9844 60.3088C40.7944 60.3088 44.1344 57.8788 45.2994 54.2688L48.9994 42.8688L52.6994 54.2538C53.2626 56.015 54.3723 57.5509 55.8674 58.6388C57.3626 59.7266 59.1654 60.3099 61.0144 60.3038H72.9944L63.3044 67.3438C61.8074 68.4275 60.6929 69.9584 60.1215 71.7159C59.55 73.4734 59.551 75.3669 60.1244 77.1238L63.8244 88.5088L54.1344 81.4688C52.6407 80.3827 50.8413 79.7976 48.9944 79.7976C47.1475 79.7976 45.3481 80.3827 43.8544 81.4688L34.1644 88.5088L37.8644 77.1288C38.4382 75.3712 38.4394 73.4768 37.8679 71.7185C37.2965 69.9601 36.1818 68.4284 34.6844 67.3438L24.9944 60.3038L36.9844 60.3088ZM188.074 74.9038L183.464 89.0938C183.033 90.4067 182.92 91.8032 183.133 93.1685C183.347 94.5338 183.882 95.8288 184.693 96.9472C185.505 98.0655 186.571 98.9752 187.803 99.6013C189.035 100.227 190.398 100.552 191.779 100.549C193.579 100.549 195.384 99.9888 196.919 98.8738L208.999 90.1038L221.074 98.8738C222.567 99.9641 224.368 100.552 226.217 100.552C228.066 100.552 229.866 99.9641 231.359 98.8738C234.429 96.6388 235.709 92.7088 234.534 89.0938L229.924 74.8988L241.994 66.1288C243.492 65.0456 244.607 63.5148 245.178 61.7571C245.75 59.9994 245.749 58.1057 245.174 56.3488C244.608 54.5903 243.497 53.0572 242.002 51.9707C240.508 50.8843 238.707 50.3006 236.859 50.3038H221.934L217.324 36.1088C216.149 32.4938 212.804 30.0688 209.004 30.0688C205.204 30.0688 201.859 32.4938 200.684 36.1088L196.074 50.3038H181.149C177.349 50.3038 174.004 52.7338 172.834 56.3488C172.26 58.1057 172.259 59.9994 172.83 61.7571C173.402 63.5148 174.517 65.0456 176.014 66.1288L188.074 74.9038ZM196.984 60.3088C200.794 60.3088 204.134 57.8788 205.299 54.2688L208.999 42.8688L212.699 54.2538C213.263 56.015 214.372 57.5509 215.867 58.6388C217.363 59.7266 219.165 60.3099 221.014 60.3038H232.994L223.304 67.3438C221.807 68.4275 220.693 69.9584 220.121 71.7159C219.55 73.4734 219.551 75.3669 220.124 77.1238L223.824 88.5088L214.134 81.4688C212.641 80.3827 210.841 79.7976 208.994 79.7976C207.148 79.7976 205.348 80.3827 203.854 81.4688L194.164 88.5088L197.864 77.1288C198.438 75.3712 198.439 73.4768 197.868 71.7185C197.296 69.9601 196.182 68.4284 194.684 67.3438L184.994 60.3038L196.984 60.3088Z" fill="white"/>
</svg>
