<svg width="60" height="60" viewBox="0 0 60 60" fill="none" xmlns="http://www.w3.org/2000/svg">
<path fill-rule="evenodd" clip-rule="evenodd" d="M52.8008 26.7601C51.5745 30.8283 50.3452 37.0232 47.9115 39.801C46.1685 41.7904 44.1296 42.2913 41.9413 43.8443C39.3566 45.6794 38.7677 46.7366 38.2047 49.1915C38.1315 49.5111 37.6366 49.5363 37.4867 49.5363H30.6033L30.7095 43.6227C30.7097 43.6067 30.7084 43.5925 30.7076 43.5765C30.9483 42.5014 31.5613 41.1117 33.112 40.4517L40.884 37.1461C41.1069 37.0497 41.2749 36.9909 41.5432 37.0782C41.7487 37.1454 41.9152 37.2867 42.012 37.4772H42.0123C42.212 37.8703 42.0529 38.359 41.66 38.5598L38.0535 40.3961C37.3692 40.7445 37.6238 41.7796 38.3862 41.7796C38.4977 41.7796 38.6113 41.7543 38.7174 41.6995L42.324 39.8632C43.2125 39.4109 43.6955 38.4324 43.5307 37.4625L45.772 36.0431C46.8439 35.364 47.6026 34.5159 48.1599 33.3766L51.6144 26.3085C51.7671 25.9956 52.0374 25.934 52.3506 25.9995C52.6993 26.0724 52.9031 26.4195 52.8008 26.7601ZM27.3228 49.5364H22.8069C22.6569 49.5364 22.1624 49.5111 22.0889 49.1916C21.5258 46.7367 20.9369 45.6795 18.3523 43.8444C16.1634 42.291 14.1256 41.791 12.3823 39.8012C9.95064 37.0256 8.71788 30.8304 7.49273 26.7602C7.361 26.3224 7.70712 25.9701 8.14885 25.9701C8.37437 25.9701 8.57435 26.0941 8.67893 26.3087L12.1334 33.3769C12.6907 34.5162 13.4495 35.3643 14.5215 36.0434L16.7628 37.4627C16.5978 38.4325 17.0809 39.4111 17.9697 39.8634L21.576 41.6997C21.6616 41.7434 21.755 41.7698 21.8508 41.7774C21.9467 41.785 22.043 41.7736 22.1345 41.7438C22.2259 41.7141 22.3105 41.6666 22.3836 41.6041C22.4566 41.5416 22.5166 41.4653 22.5601 41.3796C22.6036 41.294 22.6299 41.2007 22.6374 41.1049C22.6449 41.0092 22.6334 40.9129 22.6037 40.8216C22.574 40.7303 22.5265 40.6457 22.4641 40.5727C22.4017 40.4998 22.3255 40.4398 22.2398 40.3963L18.6336 38.56C18.2406 38.3592 18.0816 37.8704 18.2813 37.4775H18.2815C18.4799 37.0869 18.9466 36.9275 19.3642 37.1253C19.3726 37.129 19.381 37.134 19.3897 37.1377L26.8241 40.5654C28.0768 41.1427 28.9127 42.2185 29.2449 43.6821L29.1396 49.5365H27.3228V49.5364ZM54.0021 25.5356C53.1846 24.1535 51.0426 24.1451 50.2998 25.6652L46.8455 32.7333C46.4063 33.6327 45.8337 34.2711 44.989 34.8065L42.8316 36.1728C42.5913 35.9525 42.3062 35.7867 41.9959 35.6868C41.4272 35.5017 40.8228 35.5455 40.2903 35.8077L32.5392 39.1058C31.4206 39.5807 30.5334 40.4049 29.937 41.4918C29.3485 40.4999 28.4976 39.7252 27.4367 39.2354L20.0144 35.8139C19.1475 35.3969 18.1551 35.5357 17.462 36.1728L15.3046 34.8065C14.4598 34.2711 13.8874 33.6327 13.4483 32.7333L9.9939 25.6652C9.25102 24.1451 7.10937 24.1534 6.29142 25.5356C5.98982 26.0457 5.92067 26.6144 6.09168 27.1825C7.38133 31.4627 8.59274 37.6966 11.2816 40.7657C13.2616 43.0256 15.2874 43.4635 17.5051 45.0372C19.8514 46.7026 20.1987 47.4965 20.6626 49.519C20.872 50.4326 21.6935 51 22.8069 51H37.4866C38.5998 51 39.4217 50.4326 39.631 49.519C40.0949 47.4965 40.442 46.7026 42.7884 45.0372C45.0061 43.4634 47.0318 43.0257 49.0118 40.7657C51.7007 37.6967 52.9122 31.4628 54.2019 27.1825C54.373 26.6145 54.3038 26.0458 54.0021 25.5356ZM23.8467 22.7415C26.8798 18.9598 33.4133 18.9612 36.447 22.7415C36.8357 23.2259 36.472 23.9307 35.877 23.9307C35.7674 23.9309 35.6591 23.9064 35.5602 23.8591C35.4614 23.8118 35.3744 23.7429 35.3057 23.6575C32.8475 20.6002 27.4365 20.6071 24.9881 23.6575C24.928 23.7324 24.8536 23.7948 24.7694 23.841C24.6851 23.8871 24.5926 23.9163 24.4971 23.9267C24.4016 23.9371 24.3049 23.9286 24.2127 23.9017C24.1205 23.8748 24.0344 23.83 23.9595 23.7698C23.8846 23.7097 23.8222 23.6355 23.7759 23.5513C23.7297 23.467 23.7005 23.3745 23.69 23.279C23.6795 23.1835 23.688 23.0869 23.7149 22.9947C23.7417 22.9024 23.7865 22.8164 23.8467 22.7415ZM30.1469 28.4305C29.752 28.4305 29.7523 27.8304 30.1469 27.8304C30.5413 27.8302 30.5418 28.4305 30.1469 28.4305ZM30.1469 26.3672C29.1746 26.3672 28.3837 27.158 28.3837 28.1307C28.3837 29.1029 29.1745 29.8935 30.1469 29.8935C31.1192 29.8935 31.9102 29.1027 31.9102 28.1307C31.9102 27.1579 31.1192 26.3672 30.1469 26.3672ZM34.0623 25.1477C32.0258 22.7051 28.2734 22.7016 26.2313 25.1477C25.9725 25.4574 26.0144 25.9193 26.3248 26.1778C26.6351 26.4362 27.0965 26.3949 27.3553 26.0852C28.8065 24.3456 31.4755 24.3378 32.9384 26.0852C33.0073 26.1674 33.0933 26.2334 33.1905 26.2787C33.2876 26.324 33.3935 26.3475 33.5007 26.3474C34.1159 26.3474 34.4606 25.6242 34.0623 25.1477ZM16.3137 20.0576C15.882 20.0576 15.5304 19.7066 15.5304 19.2742C15.5304 18.8417 15.882 18.4909 16.3137 18.4909C16.5214 18.491 16.7206 18.5736 16.8674 18.7205C17.0143 18.8673 17.0969 19.0665 17.097 19.2742C17.0969 19.4819 17.0144 19.6811 16.8675 19.828C16.7206 19.9749 16.5215 20.0575 16.3137 20.0576ZM24.372 17.0105C23.3204 17.0105 22.4321 18.124 22.4321 19.4433V30.4049C22.4321 31.723 23.3204 32.837 24.372 32.837H35.922C36.9733 32.837 37.8617 31.723 37.8617 30.4049V19.4433C37.8617 18.1238 36.9733 17.0105 35.922 17.0105H24.372ZM26.2255 14.3841C26.2255 12.2221 27.9847 10.4636 30.1469 10.4636C32.309 10.4636 34.0681 12.2221 34.0681 14.3841V15.5475H26.2255V14.3841ZM43.9799 18.4909C44.1876 18.491 44.3868 18.5736 44.5337 18.7205C44.6805 18.8673 44.7631 19.0665 44.7633 19.2742C44.7631 19.4819 44.6806 19.6811 44.5337 19.828C44.3868 19.9748 44.1877 20.0574 43.9799 20.0576C43.7722 20.0574 43.5731 19.9748 43.4263 19.8279C43.2794 19.681 43.1968 19.4819 43.1966 19.2742C43.1969 19.0665 43.2794 18.8674 43.4263 18.7205C43.5732 18.5737 43.7723 18.4911 43.9799 18.4909ZM43.9799 29.7905C43.5482 29.7905 43.1966 30.1415 43.1966 30.5727C43.1968 30.7804 43.2794 30.9795 43.4263 31.1264C43.5731 31.2733 43.7723 31.3558 43.9799 31.356C44.1876 31.3559 44.3868 31.2733 44.5337 31.1264C44.6805 30.9796 44.7631 30.7804 44.7633 30.5727C44.7633 30.1415 44.412 29.7905 43.9799 29.7905ZM16.3137 31.356C16.5214 31.3559 16.7206 31.2733 16.8674 31.1264C17.0143 30.9796 17.0969 30.7804 17.097 30.5727C17.097 30.1415 16.7458 29.7905 16.3137 29.7905C15.882 29.7905 15.5304 30.1415 15.5304 30.5727C15.5303 31.005 15.882 31.356 16.3137 31.356ZM16.3137 25.7072C16.106 25.707 15.9069 25.6244 15.7601 25.4775C15.6132 25.3307 15.5306 25.1316 15.5304 24.9239C15.5304 24.4922 15.882 24.1405 16.3137 24.1405C16.7458 24.1405 17.097 24.492 17.097 24.9239C17.0969 25.1316 17.0143 25.3307 16.8674 25.4776C16.7206 25.6245 16.5214 25.7071 16.3137 25.7072ZM43.9799 24.1404C44.412 24.1404 44.7633 24.4919 44.7633 24.9238C44.7631 25.1315 44.6806 25.3307 44.5337 25.4775C44.3868 25.6244 44.1877 25.707 43.9799 25.7071C43.7723 25.7069 43.5732 25.6243 43.4263 25.4774C43.2794 25.3306 43.1969 25.1315 43.1966 24.9238C43.1966 24.492 43.5482 24.1404 43.9799 24.1404ZM20.9685 29.8411H18.4373C18.133 28.9609 17.2964 28.3268 16.3136 28.3268C15.0746 28.3268 14.0668 29.3347 14.0668 30.5727C14.0668 31.8119 15.0747 32.8198 16.3136 32.8198C17.2964 32.8198 18.133 32.1857 18.4373 31.3042H21.0613C21.4175 33.0209 22.766 34.3007 24.3719 34.3007H35.9219C37.5276 34.3007 38.8764 33.0209 39.2323 31.3042H41.8562C42.1606 32.1857 42.9971 32.8198 43.9799 32.8198C45.219 32.8198 46.2268 31.8118 46.2268 30.5727C46.2268 29.3347 45.2188 28.3268 43.9799 28.3268C42.9971 28.3268 42.1606 28.9609 41.8562 29.8411H39.3251V25.6553H41.8562C42.1606 26.5355 42.9971 27.1708 43.9799 27.1708C45.219 27.1708 46.2268 26.1629 46.2268 24.9238C46.2268 23.6852 45.2188 22.6773 43.9799 22.6773C42.9971 22.6773 42.1606 23.3114 41.8562 24.1923H39.3251V20.0059H41.8562C42.1606 20.8868 42.9971 21.5209 43.9799 21.5209C45.219 21.5209 46.2268 20.5136 46.2268 19.2744C46.2268 18.0352 45.2188 17.0274 43.9799 17.0274C42.9971 17.0274 42.1606 17.6615 41.8562 18.5423H39.2323C38.8764 16.8275 37.5276 15.5476 35.9219 15.5476H35.5316V14.3842C35.5316 11.4161 33.1159 9 30.1469 9C27.1778 9 24.7623 11.4161 24.7623 14.3842V15.5476H24.372C22.7661 15.5476 21.4173 16.8275 21.0614 18.5423H18.4374C18.1331 17.6615 17.2965 17.0274 16.3137 17.0274C15.0747 17.0274 14.0669 18.0353 14.0669 19.2744C14.0669 20.5136 15.0748 21.5209 16.3137 21.5209C17.2965 21.5209 18.1331 20.8868 18.4374 20.0059H20.9686V24.1923H18.4374C18.1331 23.3114 17.2965 22.6773 16.3137 22.6773C15.0747 22.6773 14.0669 23.6852 14.0669 24.9238C14.0669 26.163 15.0748 27.1708 16.3137 27.1708C17.2965 27.1708 18.1331 26.5355 18.4374 25.6553H20.9686L20.9685 29.8411Z" fill="white" stroke="white" stroke-width="0.5"/>
</svg>
