<?xml version="1.0" standalone="no"?>
<!DOCTYPE svg PUBLIC "-//W3C//DTD SVG 1.1//EN" "http://www.w3.org/Graphics/SVG/1.1/DTD/svg11.dtd" >
<svg xmlns="http://www.w3.org/2000/svg" xmlns:xlink="http://www.w3.org/1999/xlink" version="1.1">
<metadata>
Created by FontForge 20201107 at Tue Jan 18 19:48:45 2022
 By 
Copyright 2021, Kris Sowersby, Klim Type Foundry.
</metadata>
<defs>
<font id="Sohne-Buch" horiz-adv-x="1245" >
  <font-face 
    font-family="So:hne"
    font-weight="400"
    font-stretch="normal"
    units-per-em="2048"
    panose-1="2 11 5 3 3 2 2 6 2 3"
    ascent="1638"
    descent="-410"
    x-height="1071"
    cap-height="1470"
    bbox="-414 -403 2087 1956"
    underline-thickness="153"
    underline-position="-461"
    unicode-range="U+0020-F6C3"
  />
<missing-glyph horiz-adv-x="1228" 
d="M0 0v1470h1229v-1470h-1229zM270 496l105 -105l239 240l242 -240l102 105l-237 241l237 240l-102 104l-242 -239l-239 239l-105 -104l240 -240z" />
    <glyph glyph-name="f_idieresis" unicode="f&#xef;" horiz-adv-x="1120" 
d="M741 1468v-161q-95 22 -180 22q-188 0 -188 -192v-66h237v-158h-237v-913h-185v913h-161v158h161v78q0 161 97 252.5t280 91.5q82 0 176 -25zM948 1249v213h205v-213h-205zM967 1071v-1071h-185v1071h185z" />
    <glyph glyph-name=".notdef" horiz-adv-x="1228" 
d="M0 0v1470h1229v-1470h-1229zM270 496l105 -105l239 240l242 -240l102 105l-237 241l237 240l-102 104l-242 -239l-239 239l-105 -104l240 -240z" />
    <glyph glyph-name=".null" horiz-adv-x="0" 
 />
    <glyph glyph-name="nonmarkingreturn" horiz-adv-x="682" 
 />
    <glyph glyph-name="space" unicode=" " horiz-adv-x="432" 
 />
    <glyph glyph-name="exclam" unicode="!" horiz-adv-x="454" 
d="M160 436l-47 1034h231l-47 -1034h-137zM111 0v242h233v-242h-233z" />
    <glyph glyph-name="quotedbl" unicode="&#x22;" horiz-adv-x="675" 
d="M115 913l-45 557h217l-43 -557h-129zM432 913l-45 557h217l-43 -557h-129z" />
    <glyph glyph-name="numbersign" unicode="#" horiz-adv-x="1351" 
d="M168 0l100 424h-196v149h231l78 324h-236v150h271l100 423h170l-102 -423h331l103 423h166l-101 -423h199v-150h-233l-78 -324h237v-149h-272l-100 -424h-170l102 424h-332l-102 -424h-166zM471 573h332l78 324h-332z" />
    <glyph glyph-name="dollar" unicode="$" horiz-adv-x="1181" 
d="M12 301l148 123q123 -241 375 -268v526q-56 12 -96 22t-91 27t-86 36t-71.5 48t-58.5 64t-36 83t-14 105q0 173 129 287t324 129v194h149v-196q157 -19 272.5 -92.5t173.5 -188.5l-141 -119q-101 200 -305 236v-488q56 -12 96.5 -22t91.5 -28t87 -37.5t72.5 -50t59 -67.5
t36.5 -87.5t14 -110.5q0 -179 -128.5 -296.5t-328.5 -139.5v-199h-149v197q-175 15 -314.5 98t-208.5 215zM262 1079q0 -49 20.5 -86t60.5 -61.5t84.5 -40t107.5 -29.5v459q-121 -12 -197 -77.5t-76 -164.5zM961 414q0 52 -20.5 92t-61.5 66.5t-86 44t-109 32.5v-493
q125 16 201 81.5t76 176.5z" />
    <glyph glyph-name="percent" unicode="%" horiz-adv-x="1574" 
d="M78 1122q0 167 77.5 269t213.5 102q137 0 213.5 -101.5t76.5 -269.5t-76.5 -269t-213.5 -101q-136 0 -213.5 101.5t-77.5 268.5zM1368 1470l-981 -1470h-180l981 1470h180zM231 1122q0 -112 36.5 -177.5t101.5 -65.5t101 65.5t36 177.5q0 111 -36 176.5t-101 65.5
t-101.5 -66t-36.5 -176zM1499 348q0 -167 -78 -269t-215 -102q-136 0 -213.5 102t-77.5 269t77.5 269t213.5 102q137 0 215 -102t78 -269zM1069 348q0 -110 36.5 -176t100.5 -66q65 0 102.5 66t37.5 176q0 111 -37.5 177.5t-102.5 66.5q-64 0 -100.5 -66.5t-36.5 -177.5z
" />
    <glyph glyph-name="ampersand" unicode="&#x26;" horiz-adv-x="1433" 
d="M1139 770l182 -31q-24 -258 -170 -458l283 -281h-250l-152 150q-201 -173 -469 -173q-208 0 -347.5 111.5t-139.5 292.5q0 140 77.5 236.5t229.5 175.5q-76 83 -117 161.5t-41 169.5q0 154 113.5 260.5t292.5 106.5q175 0 279 -96.5t104 -243.5q0 -66 -21.5 -120
t-68.5 -100t-108 -83.5t-152 -81.5l364 -363q93 155 111 367zM416 1133q0 -69 34.5 -128.5t104.5 -132.5q158 68 219.5 125t61.5 152q0 80 -55 139.5t-146 59.5q-95 0 -157 -58.5t-62 -156.5zM274 399q0 -114 88 -186t216 -72q198 0 335 125l-421 418q-107 -58 -162.5 -124
t-55.5 -161z" />
    <glyph glyph-name="quotesingle" unicode="'" horiz-adv-x="358" 
d="M115 913l-45 557h217l-43 -557h-129z" />
    <glyph glyph-name="parenleft" unicode="(" horiz-adv-x="641" 
d="M295 655q0 -242 90.5 -465.5t241.5 -390.5h-193q-72 77 -132 165.5t-110.5 195.5t-79 234.5t-28.5 260.5t28.5 260.5t79 234.5t110.5 195.5t132 165.5h193q-152 -169 -242 -391t-90 -465z" />
    <glyph glyph-name="parenright" unicode=")" horiz-adv-x="641" 
d="M346 655q0 243 -90 465t-242 391h193q72 -77 132 -165.5t110.5 -195.5t79 -234.5t28.5 -260.5t-28.5 -260.5t-79 -234.5t-110.5 -195.5t-132 -165.5h-193q151 167 241.5 390.5t90.5 465.5z" />
    <glyph glyph-name="asterisk" unicode="*" horiz-adv-x="884" 
d="M623 739l-181 248l-182 -248l-113 82l181 248l-293 96l43 133l293 -94v307h141v-307l295 94l41 -133l-293 -96l182 -248z" />
    <glyph glyph-name="plus" unicode="+" 
d="M1143 618h-438v-438h-164v438h-439v164h439v441h164v-441h438v-164z" />
    <glyph glyph-name="comma" unicode="," horiz-adv-x="456" 
d="M111 0v242h233v-254q0 -119 -71 -188t-195 -72v106q139 6 139 150v16h-106z" />
    <glyph glyph-name="hyphen" unicode="-" horiz-adv-x="768" 
d="M104 514v166h560v-166h-560z" />
    <glyph glyph-name="period" unicode="." horiz-adv-x="456" 
d="M111 0v242h233v-242h-233z" />
    <glyph glyph-name="slash" unicode="/" horiz-adv-x="823" 
d="M20 -201l594 1712h189l-594 -1712h-189z" />
    <glyph glyph-name="zero" unicode="0" horiz-adv-x="1275" 
d="M78 735q0 341 151 549.5t410 208.5q171 0 298.5 -96t194 -267t66.5 -395t-66.5 -395t-194 -267t-298.5 -96q-259 0 -410 208.5t-151 549.5zM274 735q0 -174 40.5 -304.5t124 -205.5t200.5 -75q174 0 269.5 160t95.5 425t-95.5 425.5t-269.5 160.5q-175 0 -270 -160
t-95 -426z" />
    <glyph glyph-name="one" unicode="1" horiz-adv-x="770" 
d="M451 1479h147v-1479h-197v1081h-354v146l158 10q130 9 182.5 61.5t63.5 180.5z" />
    <glyph glyph-name="two" unicode="2" horiz-adv-x="1144" 
d="M70 162l434 360q71 58 115.5 98t95.5 93.5t79 98t47 99.5t19 111q0 136 -81.5 219.5t-215.5 83.5q-130 0 -213.5 -87.5t-83.5 -215.5q0 -76 33 -160h-184q-33 90 -33 170q0 129 64.5 235t176 166t244.5 60q221 0 353.5 -127.5t132.5 -331.5q0 -90 -28.5 -172t-85.5 -156
t-118.5 -133t-150.5 -131l-332 -270h743v-172h-1011v162z" />
    <glyph glyph-name="three" unicode="3" horiz-adv-x="1167" 
d="M596 -23q-217 0 -367 116.5t-184 330.5l191 41q21 -151 119.5 -237.5t238.5 -86.5q141 0 228 76t87 205q0 126 -90.5 193t-236.5 67h-158v166h160q129 0 206.5 62t77.5 171q0 114 -73 180t-199 66q-131 0 -219 -81t-113 -220l-176 35q30 190 167.5 311t344.5 121
q211 0 332 -111t121 -290q0 -116 -65 -204t-163 -120q121 -34 198 -123.5t77 -232.5q0 -185 -140 -310t-364 -125z" />
    <glyph glyph-name="four" unicode="4" horiz-adv-x="1232" 
d="M924 0h-183v383h-710v154l645 933h250v-923h284v-164h-286v-383zM231 547h508v735z" />
    <glyph glyph-name="five" unicode="5" horiz-adv-x="1167" 
d="M334 684l-180 31l63 755h801v-172h-649l-39 -444q115 115 293 115q212 0 343.5 -139.5t131.5 -352.5q0 -138 -66.5 -252.5t-184.5 -181t-263 -66.5q-209 0 -350 114t-179 321l189 39q23 -142 114 -226t226 -84q140 0 234.5 95.5t94.5 236.5q0 142 -88 239t-225 97
q-88 0 -157.5 -34.5t-108.5 -90.5z" />
    <glyph glyph-name="six" unicode="6" horiz-adv-x="1206" 
d="M1130 1153l-161 -68q-33 112 -110.5 178t-199.5 66q-173 0 -287 -156.5t-114 -410.5v-21q54 102 158.5 167t238.5 65q204 0 342 -141.5t138 -348.5q0 -215 -146.5 -360.5t-363.5 -145.5q-137 0 -243.5 58.5t-172 161t-98.5 235.5t-33 289q0 172 44 317t122 244.5
t186.5 155t235.5 55.5q183 0 298.5 -90t165.5 -250zM954 473q0 143 -94 240.5t-233 97.5q-138 0 -235 -98t-97 -240t95 -238t235 -96t234.5 96t94.5 238z" />
    <glyph glyph-name="seven" unicode="7" horiz-adv-x="1091" 
d="M862 1300h-669v-251h-173v421h1051v-170q-178 -197 -281 -399.5t-143.5 -413.5t-40.5 -487h-198q0 419 113 732.5t341 567.5z" />
    <glyph glyph-name="eight" unicode="8" horiz-adv-x="1224" 
d="M612 1493q203 0 336 -109t133 -284q0 -110 -60.5 -193.5t-170.5 -126.5q137 -41 222 -140t85 -234q0 -191 -153 -308.5t-392 -117.5q-237 0 -389.5 117.5t-152.5 308.5q0 135 84.5 234t220.5 140q-109 43 -169.5 126.5t-60.5 193.5q0 175 132.5 284t334.5 109zM612 858
q131 0 211 66t80 174q0 107 -80 173t-211 66q-129 0 -209.5 -66t-80.5 -173q0 -108 80 -174t210 -66zM612 696q-155 0 -252.5 -77.5t-97.5 -200.5q0 -126 97.5 -204.5t252.5 -78.5q156 0 255.5 79t99.5 204q0 123 -99.5 200.5t-255.5 77.5z" />
    <glyph glyph-name="nine" unicode="9" horiz-adv-x="1206" 
d="M76 317l162 68q33 -112 110 -178t199 -66q173 0 287 157t114 411v20q-54 -102 -158.5 -166.5t-238.5 -64.5q-204 0 -341.5 141t-137.5 348q0 215 146.5 360.5t363.5 145.5q110 0 201 -38t154.5 -105.5t106.5 -161.5t63.5 -204t20.5 -234q0 -172 -44 -317t-122 -245
t-186.5 -155.5t-234.5 -55.5q-183 0 -299.5 90.5t-165.5 249.5zM252 997q0 -143 94.5 -240.5t233.5 -97.5q138 0 234.5 98t96.5 240t-94.5 238t-234.5 96t-235 -96t-95 -238z" />
    <glyph glyph-name="colon" unicode=":" horiz-adv-x="456" 
d="M111 745v242h233v-242h-233zM111 0v242h233v-242h-233z" />
    <glyph glyph-name="semicolon" unicode=";" horiz-adv-x="456" 
d="M111 745v242h233v-242h-233zM111 0v242h233v-254q0 -119 -71 -188t-195 -72v106q139 6 139 150v16h-106z" />
    <glyph glyph-name="less" unicode="&#x3c;" 
d="M127 600v207l991 446v-186l-829 -365l829 -364v-184z" />
    <glyph glyph-name="equal" unicode="=" 
d="M117 834v161h1011v-161h-1011zM117 403v162h1011v-162h-1011z" />
    <glyph glyph-name="greater" unicode="&#x3e;" 
d="M1118 600l-991 -446v184l829 364l-829 365v186l991 -446v-207z" />
    <glyph glyph-name="question" unicode="?" horiz-adv-x="1052" 
d="M532 1325q-138 0 -223.5 -84t-107.5 -227l-187 30q27 195 168.5 322t358.5 127q212 0 343.5 -120.5t131.5 -311.5q0 -89 -32.5 -165.5t-88 -130t-127 -88t-150.5 -44.5v-197h-178v328q173 0 277 75.5t104 211.5q0 124 -80.5 199t-208.5 75zM414 0v242h233v-242h-233z" />
    <glyph glyph-name="at" unicode="@" horiz-adv-x="1816" 
d="M1333 221q98 0 171 108.5t73 295.5q0 257 -170.5 409t-441.5 152q-148 0 -280.5 -56t-228.5 -153t-152 -233t-56 -289q0 -197 89 -344t243 -222t352 -75q278 0 479 137l76 -123q-223 -162 -553 -162q-179 0 -334 54.5t-270 154t-180.5 249.5t-65.5 333q0 179 68.5 340.5
t185.5 278t282 185t351 68.5q213 0 386 -84.5t275.5 -244t102.5 -365.5q0 -106 -24 -197t-64.5 -155t-94.5 -109.5t-114 -67.5t-123 -22q-186 0 -232 137q-41 -67 -114 -105t-158 -38q-138 0 -226.5 94t-88.5 256q0 136 54 253t149 187t208 70q92 0 155 -42t85 -103l27 129
h165l-100 -551q-13 -80 11.5 -115t82.5 -35zM1075 465q23 122 23 156q0 71 -43 120.5t-117 49.5q-113 0 -185.5 -104.5t-72.5 -254.5q0 -96 45.5 -150.5t126.5 -54.5q83 0 142 64.5t81 173.5z" />
    <glyph glyph-name="A" unicode="A" horiz-adv-x="1417" 
d="M600 1470h217l567 -1470h-198l-150 387h-659l-148 -387h-196zM705 1249l-263 -690h529z" />
    <glyph glyph-name="B" unicode="B" horiz-adv-x="1308" 
d="M162 0v1470h543q232 0 354.5 -99t122.5 -284q0 -130 -65 -208.5t-163 -112.5q127 -34 202 -128.5t75 -231.5q0 -191 -129.5 -298.5t-353.5 -107.5h-586zM352 840h336q305 0 305 231q0 234 -305 234h-336v-465zM352 672v-506h387q145 0 224 69t79 185q0 115 -79 183.5
t-224 68.5h-387z" />
    <glyph glyph-name="C" unicode="C" horiz-adv-x="1349" 
d="M272 735q0 -260 130 -421.5t335 -161.5q142 0 241.5 78.5t139.5 218.5l187 -62q-65 -193 -212.5 -301.5t-355.5 -108.5q-141 0 -263.5 55.5t-210 154.5t-137.5 240.5t-50 307.5t50 307.5t137.5 240.5t210 154.5t263.5 55.5q208 0 355.5 -108.5t212.5 -301.5l-187 -61
q-40 140 -139.5 218.5t-241.5 78.5q-205 0 -335 -162t-130 -422z" />
    <glyph glyph-name="D" unicode="D" horiz-adv-x="1435" 
d="M162 0v1470h467q334 0 531.5 -199t197.5 -536t-197.5 -536t-531.5 -199h-467zM354 170h275q249 0 392.5 153.5t143.5 411.5q0 260 -144 412.5t-394 152.5h-273v-1130z" />
    <glyph glyph-name="E" unicode="E" horiz-adv-x="1218" 
d="M162 1470h960v-172h-766v-452h650v-172h-650v-502h766v-172h-960v1470z" />
    <glyph glyph-name="F" unicode="F" horiz-adv-x="1189" 
d="M356 0h-194v1470h950v-172h-756v-473h639v-172h-639v-653z" />
    <glyph glyph-name="G" unicode="G" horiz-adv-x="1474" 
d="M1157 0v219q-46 -106 -160.5 -174t-267.5 -68q-139 0 -260 55.5t-207.5 153.5t-136 239t-49.5 306q0 166 50 308t138 241.5t211 156t266 56.5q210 0 357.5 -107.5t214.5 -300.5l-189 -61q-40 141 -138.5 218t-242.5 77q-209 0 -340 -162.5t-131 -423.5q0 -260 131.5 -423
t341.5 -163q178 0 288.5 123.5t113.5 321.5h-422v172h612v-764h-180z" />
    <glyph glyph-name="H" unicode="H" horiz-adv-x="1505" 
d="M1147 1470h196v-1470h-196v674h-789v-674h-196v1470h196v-624h789v624z" />
    <glyph glyph-name="I" unicode="I" horiz-adv-x="520" 
d="M358 1470v-1470h-196v1470h196z" />
    <glyph glyph-name="J" unicode="J" horiz-adv-x="847" 
d="M55 4v176q103 -20 187 -20q142 0 208 59t66 205v1046h197v-1060q0 -426 -449 -426q-109 0 -209 20z" />
    <glyph glyph-name="K" unicode="K" horiz-adv-x="1316" 
d="M358 1470v-743l684 743h236l-596 -641l625 -829h-232l-524 688l-193 -207v-481h-196v1470h196z" />
    <glyph glyph-name="L" unicode="L" horiz-adv-x="1126" 
d="M162 0v1470h196v-1298h734v-172h-930z" />
    <glyph glyph-name="M" unicode="M" horiz-adv-x="1748" 
d="M952 0h-157l-449 1210v-1210h-184v1470h268l447 -1208l448 1208h260v-1470h-182v1210z" />
    <glyph glyph-name="N" unicode="N" horiz-adv-x="1484" 
d="M1323 1470v-1470h-170l-803 1184v-1184h-188v1470h207l764 -1136v1136h190z" />
    <glyph glyph-name="O" unicode="O" horiz-adv-x="1486" 
d="M76 735q0 166 50.5 307.5t138.5 240.5t211.5 154.5t266.5 55.5q191 0 342.5 -95t237.5 -268.5t86 -394.5t-86 -394.5t-237.5 -268.5t-342.5 -95q-143 0 -266.5 55.5t-211.5 154.5t-138.5 240.5t-50.5 307.5zM1214 735q0 260 -131.5 422t-339.5 162t-339.5 -162
t-131.5 -422t131.5 -421.5t339.5 -161.5t339.5 161.5t131.5 421.5z" />
    <glyph glyph-name="P" unicode="P" horiz-adv-x="1273" 
d="M358 616v-616h-196v1470h561q238 0 374 -109.5t136 -316.5q0 -204 -136.5 -316t-373.5 -112h-365zM358 786h355q157 0 241 67t84 191t-84 190t-241 66h-355v-514z" />
    <glyph glyph-name="Q" unicode="Q" horiz-adv-x="1486" 
d="M76 735q0 166 50.5 307.5t138.5 240.5t211.5 154.5t266.5 55.5q191 0 342.5 -95t237.5 -268.5t86 -394.5q0 -212 -79.5 -380t-219.5 -265q43 -63 120.5 -111.5t166.5 -70.5l-115 -141q-99 28 -191.5 96t-136.5 147q-109 -33 -211 -33q-143 0 -266.5 55.5t-211.5 154.5
t-138.5 240.5t-50.5 307.5zM1214 735q0 260 -131.5 422t-339.5 162t-339.5 -162t-131.5 -422t131.5 -421.5t339.5 -161.5t339.5 161.5t131.5 421.5z" />
    <glyph glyph-name="R" unicode="R" horiz-adv-x="1327" 
d="M358 616v-616h-196v1470h561q238 0 374 -109.5t136 -316.5q0 -174 -99.5 -280.5t-277.5 -136.5l408 -627h-226l-395 616h-285zM358 786h355q157 0 241 67t84 191t-84 190t-241 66h-355v-514z" />
    <glyph glyph-name="S" unicode="S" horiz-adv-x="1202" 
d="M8 303l154 123q69 -132 187 -205.5t261 -73.5q147 0 242.5 70.5t95.5 192.5q0 49 -21.5 87.5t-42.5 60.5t-84.5 45.5t-92 31t-120.5 29.5q-7 2 -11 3l-10 2.5t-11 2.5q-46 11 -77 19t-74 21t-72 25.5t-64 31t-58 38.5t-47 47t-38 58t-22.5 70.5t-8.5 84.5q0 126 67.5 224
t181.5 150t253 52q185 0 322 -79.5t206 -209.5l-149 -119q-128 238 -383 238q-134 0 -220.5 -67.5t-86.5 -172.5q0 -29 5.5 -53t20 -43.5t28 -34t42 -28.5t48 -22.5t60.5 -20t65 -17.5t75 -18q188 -44 260 -72q177 -70 228 -205q24 -63 24 -143q0 -133 -73.5 -237
t-194.5 -158t-267 -54q-192 0 -358 89t-240 237z" />
    <glyph glyph-name="T" unicode="T" horiz-adv-x="1261" 
d="M1227 1298h-498v-1298h-197v1298h-497v172h1192v-172z" />
    <glyph glyph-name="U" unicode="U" horiz-adv-x="1427" 
d="M713 -20q-126 0 -230.5 37.5t-182.5 110.5t-121.5 189t-43.5 265v888h197v-882q0 -217 103.5 -324.5t277.5 -107.5q176 0 279.5 107.5t103.5 324.5v882h196v-888q0 -149 -43 -265t-121.5 -189t-183 -110.5t-231.5 -37.5z" />
    <glyph glyph-name="V" unicode="V" horiz-adv-x="1388" 
d="M799 0h-207l-559 1470h211l454 -1224l455 1224h201z" />
    <glyph glyph-name="W" unicode="W" horiz-adv-x="1886" 
d="M858 1470h174l311 -1177l314 1177h194l-403 -1470h-193l-313 1145l-311 -1145h-193l-405 1470h203l313 -1177z" />
    <glyph glyph-name="X" unicode="X" horiz-adv-x="1339" 
d="M1288 1470l-504 -722l521 -748h-222l-415 602l-418 -602h-217l522 745l-506 725h221l402 -577l399 577h217z" />
    <glyph glyph-name="Y" unicode="Y" horiz-adv-x="1282" 
d="M643 797l420 673h209l-533 -852v-618h-196v618l-533 852h213z" />
    <glyph glyph-name="Z" unicode="Z" horiz-adv-x="1269" 
d="M1198 172v-172h-1120v152l864 1146h-854v172h1102v-151l-864 -1147h872z" />
    <glyph glyph-name="bracketleft" unicode="[" horiz-adv-x="645" 
d="M311 1358v-1407h299v-152h-485v1712h485v-153h-299z" />
    <glyph glyph-name="backslash" unicode="\" horiz-adv-x="823" 
d="M803 -201h-189l-594 1712h189z" />
    <glyph glyph-name="bracketright" unicode="]" horiz-adv-x="645" 
d="M334 1358h-299v153h485v-1712h-485v152h299v1407z" />
    <glyph glyph-name="asciicircum" unicode="^" horiz-adv-x="933" 
d="M377 1470h180l334 -616h-193l-231 436l-236 -436h-190z" />
    <glyph glyph-name="underscore" unicode="_" horiz-adv-x="880" 
d="M104 -274v157h672v-157h-672z" />
    <glyph glyph-name="grave" unicode="`" horiz-adv-x="1228" 
d="M803 1186h-146l-206 284h231z" />
    <glyph glyph-name="a" unicode="a" horiz-adv-x="1077" 
d="M422 -18q-151 0 -251.5 83t-100.5 224q0 78 28.5 137t85 100t126.5 67.5t165 45.5l260 53v45q0 94 -52.5 143.5t-158.5 49.5q-198 0 -248 -182l-174 45q39 134 153 216.5t275 82.5q183 0 285.5 -89t102.5 -258v-522q0 -101 114 -76v-147q-246 -30 -280 121
q-51 -64 -137 -101.5t-193 -37.5zM735 365v184l-209 -45q-138 -28 -206 -72.5t-68 -134.5q0 -77 52 -121.5t140 -44.5q121 0 206 66.5t85 167.5z" />
    <glyph glyph-name="b" unicode="b" horiz-adv-x="1216" 
d="M670 -23q-110 0 -196.5 48.5t-135.5 130.5v-156h-184v1470h184v-555q49 81 136 129t196 48q144 0 251.5 -76t161.5 -201.5t54 -279.5q0 -114 -31.5 -215t-90 -177.5t-148 -121t-197.5 -44.5zM334 571v-75q0 -89 25.5 -159t69 -112t96.5 -64t112 -22q147 0 230 110t83 286
q0 177 -82.5 286t-230.5 109q-59 0 -112 -21.5t-96.5 -63.5t-69 -113t-25.5 -161z" />
    <glyph glyph-name="c" unicode="c" horiz-adv-x="1064" 
d="M264 535q0 -181 89 -288.5t233 -107.5q106 0 174 62t92 166l164 -76q-40 -139 -154 -226.5t-276 -87.5q-224 0 -365 155.5t-141 402.5q0 248 140.5 402.5t365.5 154.5q162 0 274 -85t152 -223l-160 -79q-24 103 -92 165t-174 62q-144 0 -233 -107.5t-89 -289.5z" />
    <glyph glyph-name="d" unicode="d" horiz-adv-x="1214" 
d="M547 -23q-108 0 -197.5 44.5t-148 121t-90 177.5t-31.5 215q0 154 54 279.5t161.5 201.5t251.5 76q109 0 196 -48t136 -129v555h184v-1470h-184v156q-49 -82 -135.5 -130.5t-196.5 -48.5zM883 571q0 90 -25.5 161t-69 113t-96.5 63.5t-112 21.5q-148 0 -231 -109
t-83 -286q0 -176 83.5 -286t230.5 -110q59 0 112 22t96.5 64t69 112t25.5 159v75z" />
    <glyph glyph-name="e" unicode="e" horiz-adv-x="1105" 
d="M582 -23q-223 0 -362.5 155t-139.5 403q0 158 62 285t175 199.5t256 72.5q217 0 337 -147t120 -378v-61h-774q7 -168 96.5 -268.5t229.5 -100.5q107 0 180 54.5t98 150.5l162 -57q-50 -144 -166 -226t-274 -82zM571 934q-118 0 -199 -75.5t-106 -211.5h578
q-3 123 -72 205t-201 82z" />
    <glyph glyph-name="f" unicode="f" horiz-adv-x="628" 
d="M621 1489v-164q-31 4 -80 4q-85 0 -126.5 -42.5t-41.5 -141.5v-74h237v-158h-237v-913h-185v913h-161v158h161v86q0 159 86 247.5t248 88.5q17 0 99 -4z" />
    <glyph glyph-name="g" unicode="g" horiz-adv-x="1214" 
d="M1061 96q0 -230 -137 -358.5t-361 -128.5q-178 0 -300.5 79t-166.5 226l172 66q26 -103 104 -160.5t191 -57.5q147 0 230.5 79t83.5 241v121q-44 -80 -131 -129t-197 -49q-142 0 -249.5 73t-161.5 193t-54 268q0 147 54 267t161.5 193t249.5 73q108 0 196 -49.5
t132 -129.5v158h184v-975zM879 575q0 171 -86.5 263t-210.5 92q-145 0 -229.5 -100.5t-84.5 -270.5t84.5 -271.5t229.5 -101.5q124 0 210.5 91.5t86.5 259.5v38z" />
    <glyph glyph-name="h" unicode="h" horiz-adv-x="1155" 
d="M154 0v1470h184v-544q51 73 131.5 119.5t187.5 46.5q167 0 262 -105.5t95 -279.5v-707h-185v657q0 120 -54.5 191.5t-168.5 71.5q-106 0 -187 -77t-81 -204v-639h-184z" />
    <glyph glyph-name="i" unicode="i" horiz-adv-x="491" 
d="M145 1257v213h201v-213h-201zM338 1071v-1071h-184v1071h184z" />
    <glyph glyph-name="j" unicode="j" horiz-adv-x="491" 
d="M145 1257v213h201v-213h-201zM154 -55v1126h184v-1159q0 -140 -80.5 -213.5t-220.5 -73.5q-53 0 -103 6v160q34 -6 72 -6q79 0 113.5 38.5t34.5 121.5z" />
    <glyph glyph-name="k" unicode="k" horiz-adv-x="1093" 
d="M338 1470v-899l475 500h229l-417 -422l452 -649h-215l-368 516l-156 -158v-358h-184v1470h184z" />
    <glyph glyph-name="l" unicode="l" horiz-adv-x="491" 
d="M338 1470v-1470h-184v1470h184z" />
    <glyph glyph-name="m" unicode="m" horiz-adv-x="1783" 
d="M338 641v-641h-184v1071h184v-145q47 73 125.5 119.5t183.5 46.5q104 0 180 -48.5t117 -134.5q51 77 138.5 130t203.5 53q164 0 259 -106t95 -279v-707h-184v657q0 120 -52 191.5t-161 71.5q-99 0 -176.5 -77.5t-77.5 -201.5v-641h-184v657q0 120 -52 191.5t-161 71.5
q-99 0 -176.5 -77.5t-77.5 -201.5z" />
    <glyph glyph-name="n" unicode="n" horiz-adv-x="1155" 
d="M154 0v1071h184v-145q51 73 131.5 119.5t187.5 46.5q167 0 262 -105.5t95 -279.5v-707h-185v657q0 120 -54.5 191.5t-168.5 71.5q-106 0 -187 -77t-81 -204v-639h-184z" />
    <glyph glyph-name="o" unicode="o" horiz-adv-x="1155" 
d="M1075 535q0 -248 -138.5 -403t-358.5 -155t-359 155t-139 403t139 402.5t359 154.5t358.5 -154.5t138.5 -402.5zM266 535q0 -182 85.5 -291t226.5 -109t226 108.5t85 291.5q0 184 -84.5 292.5t-226.5 108.5t-227 -108.5t-85 -292.5z" />
    <glyph glyph-name="p" unicode="p" horiz-adv-x="1216" 
d="M670 -23q-110 0 -196.5 48.5t-135.5 130.5v-525h-184v1440h184v-156q49 81 136 129t196 48q144 0 251.5 -76t161.5 -201.5t54 -279.5q0 -114 -31.5 -215t-90 -177.5t-148 -121t-197.5 -44.5zM334 571v-75q0 -89 25.5 -159t69 -112t96.5 -64t112 -22q147 0 230 110t83 286
q0 177 -82.5 286t-230.5 109q-59 0 -112 -21.5t-96.5 -63.5t-69 -113t-25.5 -161z" />
    <glyph glyph-name="q" unicode="q" horiz-adv-x="1216" 
d="M547 -23q-108 0 -197.5 44.5t-148 121t-90 177.5t-31.5 215q0 154 54 279.5t161.5 201.5t251.5 76q109 0 196 -48t136 -129v156h184v-1440h-184v525q-49 -82 -135.5 -130.5t-196.5 -48.5zM883 571q0 90 -25.5 161t-69 113t-96.5 63.5t-112 21.5q-148 0 -231 -109
t-83 -286q0 -176 83.5 -286t230.5 -110q59 0 112 22t96.5 64t69 112t25.5 159v75z" />
    <glyph glyph-name="r" unicode="r" horiz-adv-x="757" 
d="M709 1075v-186q-41 8 -91 8q-119 0 -199.5 -86.5t-80.5 -224.5v-586h-184v1071h184v-182q37 85 114.5 137.5t182.5 52.5q38 0 74 -4z" />
    <glyph glyph-name="s" unicode="s" horiz-adv-x="995" 
d="M35 227l143 105q42 -93 132 -147t196 -54q101 0 168 43.5t67 126.5q0 54 -36 86.5t-75.5 44.5t-144.5 34q-14 3 -22 5q-154 34 -216 64q-138 68 -145 217v16q0 142 111.5 233t282.5 91q141 0 252.5 -62t160.5 -160l-131 -104q-42 82 -117 128t-174 46q-92 0 -148 -43
t-56 -115q0 -29 10.5 -50t30 -35.5t47.5 -25t65 -20t79 -18.5q3 0 4 -0.5t3 -1t4 -0.5q156 -37 212 -59q146 -59 176 -180q8 -35 8 -75q0 -100 -56.5 -178.5t-151 -120t-208.5 -41.5q-153 0 -282.5 65t-188.5 185z" />
    <glyph glyph-name="t" unicode="t" horiz-adv-x="696" 
d="M182 256v657h-166v158h166v313h183v-313h243v-158h-243v-628q0 -79 35.5 -106t113.5 -27q65 0 117 12v-158q-75 -16 -162 -16q-144 0 -215.5 59.5t-71.5 206.5z" />
    <glyph glyph-name="u" unicode="u" horiz-adv-x="1155" 
d="M1004 1071v-1071h-185v147q-51 -75 -131 -122.5t-186 -47.5q-169 0 -264 105.5t-95 279.5v709h185v-670q0 -119 54.5 -186.5t168.5 -67.5q107 0 187.5 76t80.5 203v645h185z" />
    <glyph glyph-name="v" unicode="v" horiz-adv-x="1038" 
d="M610 0h-182l-401 1071h194l301 -846l297 846h193z" />
    <glyph glyph-name="w" unicode="w" horiz-adv-x="1474" 
d="M664 1071h155l221 -799l224 799h184l-326 -1071h-161l-224 795l-223 -795h-162l-325 1071h190l225 -797z" />
    <glyph glyph-name="x" unicode="x" horiz-adv-x="1040" 
d="M813 0l-297 422l-295 -422h-201l392 559l-359 512h211l258 -375l262 375h203l-358 -512l393 -559h-209z" />
    <glyph glyph-name="y" unicode="y" horiz-adv-x="1038" 
d="M551 -117q-50 -132 -125 -198t-207 -66q-56 0 -100 8v160q44 -10 88 -10q62 0 98 28.5t68 106.5l51 127l-397 1032h194l301 -819l297 819h193z" />
    <glyph glyph-name="z" unicode="z" horiz-adv-x="1013" 
d="M928 158v-158h-844v139l618 774h-610v158h830v-141l-607 -772h613z" />
    <glyph glyph-name="braceleft" unicode="{" horiz-adv-x="747" 
d="M41 580v151h96q125 0 125 162v274q0 165 98.5 254.5t268.5 89.5h82v-153h-52q-116 0 -170.5 -55t-54.5 -177v-233q0 -178 -139 -238q139 -60 139 -237v-234q0 -122 54 -176.5t171 -54.5h52v-154h-82q-170 0 -268.5 89.5t-98.5 254.5v275q0 162 -125 162h-96z" />
    <glyph glyph-name="bar" unicode="|" horiz-adv-x="512" 
d="M166 -201v1712h180v-1712h-180z" />
    <glyph glyph-name="braceright" unicode="}" horiz-adv-x="747" 
d="M707 580h-97q-125 0 -125 -162v-275q0 -165 -98 -254.5t-268 -89.5h-82v154h51q117 0 171 54.5t54 176.5v234q0 99 37.5 154t102.5 83q-140 61 -140 238v233q0 122 -54.5 177t-170.5 55h-51v153h82q170 0 268 -89.5t98 -254.5v-274q0 -162 125 -162h97v-151z" />
    <glyph glyph-name="asciitilde" unicode="~" horiz-adv-x="985" 
d="M346 803q35 0 68 -14.5t58.5 -34.5t50 -40.5t51 -35t51.5 -14.5q46 0 72.5 32.5t39.5 108.5h146q-12 -152 -76 -242t-168 -90q-41 0 -82 22t-69 48.5t-62 48.5t-64 22q-47 0 -72.5 -32.5t-39.5 -108.5h-146q12 151 76 240.5t166 89.5z" />
    <glyph glyph-name="uni00A0" unicode="&#xa0;" horiz-adv-x="432" 
 />
    <glyph glyph-name="exclamdown" unicode="&#xa1;" horiz-adv-x="454" 
d="M111 1470h233v-241h-233v241zM160 1034h137l47 -1034h-231z" />
    <glyph glyph-name="cent" unicode="&#xa2;" horiz-adv-x="1107" 
d="M504 -217v201q-198 31 -318 183t-120 378q0 224 120 376t318 183v219h143v-215q150 -13 254 -97.5t148 -217.5l-154 -80q-23 97 -85 161.5t-163 77.5v-817q100 13 162.5 78t85.5 162l154 -80q-44 -133 -148 -217.5t-254 -97.5v-197h-143zM242 545q0 -160 69.5 -266.5
t192.5 -137.5v805q-123 -31 -192.5 -137t-69.5 -264z" />
    <glyph glyph-name="sterling" unicode="&#xa3;" horiz-adv-x="1255" 
d="M143 604v148h162q-42 77 -64 140t-22 132q0 202 134 335.5t347 133.5q205 0 331 -129.5t126 -329.5q0 -84 -29 -172h-180q33 76 33 162q0 134 -74.5 219.5t-206.5 85.5q-134 0 -215.5 -87.5t-81.5 -225.5q0 -47 15 -97.5t29 -79.5t45 -87h323v-148h-256q31 -91 31 -180
q0 -56 -17 -129q46 -37 71 -55.5t65.5 -43.5t79 -35.5t79.5 -10.5q96 0 141 58.5t48 180.5h164q0 -187 -88.5 -299.5t-239.5 -112.5q-77 0 -150.5 28t-120 61.5t-104.5 85.5q-44 -80 -111.5 -127.5t-154.5 -47.5q-106 0 -174.5 64t-67.5 168q0 100 72 165.5t184 65.5
q81 0 166 -45v19q0 90 -49 190h-240zM160 211q0 -42 27 -68t69 -26q103 0 150 133q-76 59 -138 59q-48 0 -78 -26t-30 -72z" />
    <glyph glyph-name="yen" unicode="&#xa5;" horiz-adv-x="1265" 
d="M172 387v141h369v168h-369v142h285l-439 632h215l402 -598l403 598h211l-438 -632h285v-142h-371v-168h371v-141h-371v-387h-184v387h-369z" />
    <glyph glyph-name="section" unicode="&#xa7;" horiz-adv-x="1036" 
d="M31 227l145 105q40 -92 132.5 -146.5t199.5 -54.5q103 0 170 42.5t67 123.5q0 34 -12 59t-31.5 41t-55.5 29t-72.5 21t-93.5 20q-4 1 -6.5 1.5t-7 1t-7.5 1.5q-154 34 -216 64q-140 67 -147 216v17q0 130 107 213q-78 71 -78 188q0 142 112.5 233t284.5 91q142 0 255 -62
t161 -161l-133 -105q-42 83 -117 128.5t-176 45.5q-93 0 -150 -42t-57 -113q0 -15 2.5 -27.5t9.5 -23.5t13 -20t20 -17t23 -14t29.5 -12.5t31.5 -10.5t37.5 -10t39.5 -9t44 -10q6 -1 18 -4q51 -11 78 -17.5t74 -21.5t72.5 -28.5t59 -37.5t51 -51.5t30 -66.5t12.5 -86
q0 -129 -94 -213q72 -72 72 -187q0 -151 -120.5 -245.5t-301.5 -94.5q-153 0 -283.5 65t-191.5 185zM522 631q135 -30 191 -49q57 45 57 114q0 55 -35 88.5t-75.5 46.5t-141.5 35q-17 4 -26 6q-93 20 -142 35q-74 -43 -74 -125q0 -46 33.5 -75.5t71 -41t128.5 -31.5
q9 -2 13 -3z" />
    <glyph glyph-name="dieresis" unicode="&#xa8;" horiz-adv-x="1228" 
d="M336 1249v213h205v-213h-205zM688 1249v213h205v-213h-205z" />
    <glyph glyph-name="copyright" unicode="&#xa9;" horiz-adv-x="1685" 
d="M1599 735q0 -161 -59.5 -302.5t-161 -241t-240.5 -157t-294 -57.5q-156 0 -296 57.5t-241.5 157t-161 241t-59.5 302.5q0 217 101 391t274.5 270.5t382.5 96.5q208 0 380 -96.5t273.5 -271t101.5 -390.5zM1489 735q0 185 -86.5 334.5t-234 233t-324.5 83.5
q-178 0 -326 -83.5t-234.5 -233t-86.5 -334.5q0 -183 86.5 -333t234.5 -234t326 -84q132 0 251.5 49.5t206 135.5t137 207.5t50.5 258.5zM469 737q0 195 107.5 312.5t277.5 117.5q124 0 208.5 -60t121.5 -169l-152 -57q-17 66 -64 103.5t-114 37.5q-100 0 -159.5 -77
t-59.5 -208q0 -132 59.5 -209t159.5 -77q67 0 114 37.5t64 103.5l152 -55q-37 -110 -121.5 -170t-208.5 -60q-170 0 -277.5 116.5t-107.5 313.5z" />
    <glyph glyph-name="ordfeminine" unicode="&#xaa;" horiz-adv-x="817" 
d="M319 688q-110 0 -181.5 60.5t-71.5 162.5q0 57 21.5 100t63.5 72.5t93.5 48t120.5 31.5l176 33v29q0 129 -142 129q-132 0 -163 -123l-148 31q27 99 111.5 161t206.5 62q137 0 212.5 -64.5t75.5 -187.5v-356q0 -70 80 -54v-121q-186 -30 -221 84q-36 -45 -97 -71.5
t-137 -26.5zM541 967v116l-144 -28q-88 -17 -133 -46.5t-45 -88.5q0 -51 34 -80t93 -29q81 0 138 44t57 112zM68 418v141h698v-141h-698z" />
    <glyph glyph-name="guillemotleft" unicode="&#xab;" horiz-adv-x="802" 
d="M55 453v184l314 281v-193l-181 -180l181 -180v-193zM434 453v184l314 281v-193l-181 -180l181 -180v-193z" />
    <glyph glyph-name="registered" unicode="&#xae;" horiz-adv-x="1052" 
d="M967 1053q0 -190 -128 -315.5t-313 -125.5q-120 0 -220.5 56t-160 158t-59.5 227q0 188 128 314t312 126q185 0 313 -125.5t128 -314.5zM901 1053q0 163 -108.5 272t-266.5 109t-266 -109t-108 -272q0 -162 108.5 -271.5t265.5 -109.5q158 0 266.5 109.5t108.5 271.5z
M735 838h-114l-105 159h-72v-159h-102v442h205q80 0 125 -35.5t45 -101.5q0 -50 -30.5 -80t-72.5 -43zM610 1137q0 30 -21 45.5t-57 15.5h-88v-123h88q78 0 78 62z" />
    <glyph glyph-name="macron" unicode="&#xaf;" horiz-adv-x="1228" 
d="M895 1241h-561v148h561v-148z" />
    <glyph glyph-name="degree" unicode="&#xb0;" horiz-adv-x="647" 
d="M324 1493q121 0 204.5 -83.5t83.5 -205.5t-83.5 -207.5t-204.5 -85.5q-120 0 -204.5 85.5t-84.5 207.5q0 121 84.5 205t204.5 84zM324 1044q67 0 112 46.5t45 113.5q0 64 -45.5 111t-111.5 47q-65 0 -111.5 -47t-46.5 -111q0 -66 46 -113t112 -47z" />
    <glyph glyph-name="twosuperior" unicode="&#xb2;" horiz-adv-x="778" 
d="M94 780l277 219q74 59 106.5 107t32.5 106q0 59 -36.5 95t-96.5 36t-96.5 -38.5t-36.5 -96.5q0 -52 20 -88h-151q-19 55 -19 99q0 115 84 189.5t203 74.5q129 0 205 -71.5t76 -188.5q0 -89 -48.5 -162.5t-144.5 -147.5l-160 -122h371v-136h-586v125z" />
    <glyph glyph-name="threesuperior" unicode="&#xb3;" horiz-adv-x="778" 
d="M395 643q-125 0 -211 65.5t-104 186.5l158 25q7 -66 50.5 -105t104.5 -39q63 0 101 34t38 91q0 54 -41 85.5t-104 31.5h-84v112h82q58 0 96.5 29.5t38.5 79.5t-34 80.5t-91 30.5t-96.5 -35.5t-50.5 -95.5l-148 16q16 108 96.5 178t204.5 70t197.5 -65.5t73.5 -168.5
q0 -62 -42 -111t-100 -61q67 -19 110.5 -67.5t43.5 -124.5q0 -103 -79.5 -172.5t-209.5 -69.5z" />
    <glyph glyph-name="acute" unicode="&#xb4;" horiz-adv-x="1228" 
d="M426 1186l121 284h231l-207 -284h-145z" />
    <glyph glyph-name="paragraph" unicode="&#xb6;" horiz-adv-x="1177" 
d="M760 0v1303h-148v-562h-141q-183 0 -293 98t-110 263q0 166 114 267t307 101h621v-167h-166v-1303h-184z" />
    <glyph glyph-name="periodcentered" unicode="&#xb7;" horiz-adv-x="440" 
d="M102 475v242h234v-242h-234z" />
    <glyph glyph-name="cedilla" unicode="&#xb8;" horiz-adv-x="1228" 
d="M823 -217q0 -77 -65.5 -124.5t-159.5 -47.5q-133 0 -203 80l70 96q54 -66 127 -66q43 0 69.5 17t26.5 51q0 27 -23 44.5t-56 25t-83 10.5l45 151h101l-23 -75q77 -10 125.5 -51t48.5 -111z" />
    <glyph glyph-name="onesuperior" unicode="&#xb9;" horiz-adv-x="778" 
d="M340 1231h-205v106l86 4q78 3 112.5 32.5t45.5 101.5h117v-684h174v-136h-531v136h201v440z" />
    <glyph glyph-name="ordmasculine" unicode="&#xba;" horiz-adv-x="876" 
d="M799 1085q0 -178 -100.5 -288.5t-262.5 -110.5q-161 0 -261.5 110.5t-100.5 288.5q0 180 100 290t262 110t262.5 -110.5t100.5 -289.5zM231 1085q0 -124 55.5 -195t149.5 -71q95 0 151 71t56 195t-56.5 196.5t-150.5 72.5t-149.5 -72.5t-55.5 -196.5zM106 418v141h666
v-141h-666z" />
    <glyph glyph-name="guillemotright" unicode="&#xbb;" horiz-adv-x="802" 
d="M748 453l-314 -281v193l180 180l-180 180v193l314 -281v-184zM369 453l-314 -281v193l181 180l-181 180v193l314 -281v-184z" />
    <glyph glyph-name="onequarter" unicode="&#xbc;" horiz-adv-x="1814" 
d="M340 1231h-205v106l86 4q78 3 112.5 32.5t45.5 101.5h117v-684h174v-136h-531v136h201v440zM1413 1470h162l-1047 -1470h-163zM1610 0h-146v201h-385v112l336 502h195v-493h141v-121h-141v-201zM1210 322h252v366z" />
    <glyph glyph-name="onehalf" unicode="&#xbd;" horiz-adv-x="1871" 
d="M340 1231h-205v106l86 4q78 3 112.5 32.5t45.5 101.5h117v-684h174v-136h-531v136h201v440zM1413 1470h162l-1047 -1470h-163zM1194 125l276 219q75 59 107.5 107t32.5 106q0 59 -36.5 95t-96.5 36t-97 -38.5t-37 -96.5q0 -51 21 -88h-152q-18 52 -18 98q0 115 84 189.5
t203 74.5q129 0 204.5 -71.5t75.5 -188.5q0 -89 -48.5 -162t-143.5 -147l-160 -123h371v-135h-586v125z" />
    <glyph glyph-name="threequarters" unicode="&#xbe;" horiz-adv-x="1816" 
d="M395 643q-125 0 -211 65.5t-104 186.5l158 25q7 -66 50.5 -105t104.5 -39q63 0 101 34t38 91q0 54 -41 85.5t-104 31.5h-84v112h82q58 0 96.5 29.5t38.5 79.5t-34 80.5t-91 30.5t-96.5 -35.5t-50.5 -95.5l-148 16q16 108 96.5 178t204.5 70t197.5 -65.5t73.5 -168.5
q0 -62 -42 -111t-100 -61q67 -19 110.5 -67.5t43.5 -124.5q0 -103 -79.5 -172.5t-209.5 -69.5zM1401 1470h162l-1047 -1470h-164zM1597 0h-145v201h-385v112l336 502h194v-493h142v-121h-142v-201zM1198 322h252v366z" />
    <glyph glyph-name="questiondown" unicode="&#xbf;" horiz-adv-x="1052" 
d="M639 1485v-242h-233v242h233zM520 160q138 0 224 84t108 227l186 -31q-27 -195 -168 -321.5t-358 -126.5q-212 0 -343.5 120.5t-131.5 311.5q0 89 32.5 165.5t88 130t126.5 88t150 44.5v197h178v-328q-173 0 -277 -75.5t-104 -211.5q0 -124 80.5 -199t208.5 -75z" />
    <glyph glyph-name="Agrave" unicode="&#xc0;" horiz-adv-x="1417" 
d="M788 1567h-147l-317 297h258zM600 1470h217l567 -1470h-198l-150 387h-659l-148 -387h-196zM705 1249l-263 -690h529z" />
    <glyph glyph-name="Aacute" unicode="&#xc1;" horiz-adv-x="1417" 
d="M621 1567l206 297h258l-317 -297h-147zM600 1470h217l567 -1470h-198l-150 387h-659l-148 -387h-196zM705 1249l-263 -690h529z" />
    <glyph glyph-name="Acircumflex" unicode="&#xc2;" horiz-adv-x="1417" 
d="M817 1864l240 -297h-150l-200 178l-201 -178h-150l240 297h221zM600 1470h217l567 -1470h-198l-150 387h-659l-148 -387h-196zM705 1249l-263 -690h529z" />
    <glyph glyph-name="Atilde" unicode="&#xc3;" horiz-adv-x="1417" 
d="M561 1853q43 0 85.5 -20.5t70.5 -45t62 -45t63 -20.5q84 0 102 133h129q-9 -133 -67.5 -209.5t-153.5 -76.5q-44 0 -86.5 21t-70 45.5t-61.5 45.5t-63 21q-84 0 -102 -133h-129q8 133 66.5 208.5t154.5 75.5zM600 1470h217l567 -1470h-198l-150 387h-659l-148 -387h-196z
M705 1249l-263 -690h529z" />
    <glyph glyph-name="Adieresis" unicode="&#xc4;" horiz-adv-x="1417" 
d="M422 1575v213h205v-213h-205zM786 1575v213h205v-213h-205zM600 1470h217l567 -1470h-198l-150 387h-659l-148 -387h-196zM705 1249l-263 -690h529z" />
    <glyph glyph-name="Aring" unicode="&#xc5;" horiz-adv-x="1417" 
d="M467 1620q0 97 69.5 164t170.5 67q102 0 170.5 -67t68.5 -164q0 -61 -29.5 -113.5t-80.5 -83.5l548 -1423h-198l-150 387h-659l-148 -387h-196l549 1421q-53 31 -84 84t-31 115zM592 1620q0 -51 33.5 -84t81.5 -33t81 32.5t33 84.5q0 50 -33 83.5t-81 33.5t-81.5 -33.5
t-33.5 -83.5zM705 1249l-263 -690h529z" />
    <glyph glyph-name="AE" unicode="&#xc6;" horiz-adv-x="2107" 
d="M940 1470h1071v-172h-768v-452h649v-172h-649v-502h768v-172h-960v399h-570l-248 -399h-213zM590 571h461v742z" />
    <glyph glyph-name="Ccedilla" unicode="&#xc7;" horiz-adv-x="1349" 
d="M272 735q0 -260 130 -421.5t335 -161.5q142 0 241.5 78.5t139.5 218.5l187 -62q-65 -193 -212 -301.5t-352 -108.5l-10 -32q77 -10 125.5 -51t48.5 -111q0 -77 -65.5 -124.5t-159.5 -47.5q-133 0 -203 80l70 96q54 -66 127 -66q43 0 69.5 17t26.5 51q0 27 -23 44.5
t-56 25t-83 10.5l35 115q-252 36 -409.5 241.5t-157.5 509.5q0 166 50 307.5t137.5 240.5t210 154.5t263.5 55.5q208 0 355.5 -108.5t212.5 -301.5l-187 -61q-40 140 -139.5 218.5t-241.5 78.5q-205 0 -335 -162t-130 -422z" />
    <glyph glyph-name="Egrave" unicode="&#xc8;" horiz-adv-x="1218" 
d="M788 1567h-147l-317 297h258zM162 1470h960v-172h-766v-452h650v-172h-650v-502h766v-172h-960v1470z" />
    <glyph glyph-name="Eacute" unicode="&#xc9;" horiz-adv-x="1218" 
d="M502 1567l207 297h258l-318 -297h-147zM162 1470h960v-172h-766v-452h650v-172h-650v-502h766v-172h-960v1470z" />
    <glyph glyph-name="Ecircumflex" unicode="&#xca;" horiz-adv-x="1218" 
d="M764 1864l240 -297h-150l-201 178l-200 -178h-150l240 297h221zM162 1470h960v-172h-766v-452h650v-172h-650v-502h766v-172h-960v1470z" />
    <glyph glyph-name="Edieresis" unicode="&#xcb;" horiz-adv-x="1218" 
d="M360 1575v213h205v-213h-205zM725 1575v213h205v-213h-205zM162 1470h960v-172h-766v-452h650v-172h-650v-502h766v-172h-960v1470z" />
    <glyph glyph-name="Igrave" unicode="&#xcc;" horiz-adv-x="520" 
d="M360 1567h-147l-317 297h258zM358 1470v-1470h-196v1470h196z" />
    <glyph glyph-name="Iacute" unicode="&#xcd;" horiz-adv-x="520" 
d="M170 1567l207 297h258l-318 -297h-147zM358 1470v-1470h-196v1470h196z" />
    <glyph glyph-name="Icircumflex" unicode="&#xce;" horiz-adv-x="520" 
d="M371 1864l239 -297h-149l-201 178l-201 -178h-149l240 297h221zM358 1470v-1470h-196v1470h196z" />
    <glyph glyph-name="Idieresis" unicode="&#xcf;" horiz-adv-x="520" 
d="M-25 1575v213h205v-213h-205zM340 1575v213h205v-213h-205zM358 1470v-1470h-196v1470h196z" />
    <glyph glyph-name="Eth" unicode="&#xd0;" horiz-adv-x="1456" 
d="M182 0v672h-137v172h137v626h467q334 0 531.5 -199t197.5 -536t-197.5 -536t-531.5 -199h-467zM375 170h274q249 0 393 153.5t144 411.5q0 259 -144 412t-395 153h-272v-456h293v-172h-293v-502z" />
    <glyph glyph-name="Ntilde" unicode="&#xd1;" horiz-adv-x="1484" 
d="M604 1853q43 0 85.5 -20.5t70.5 -45t62 -45t63 -20.5q84 0 102 133h129q-9 -133 -67.5 -209.5t-153.5 -76.5q-44 0 -86.5 21t-70 45.5t-61.5 45.5t-63 21q-84 0 -102 -133h-129q8 133 66.5 208.5t154.5 75.5zM1323 1470v-1470h-170l-803 1184v-1184h-188v1470h207
l764 -1136v1136h190z" />
    <glyph glyph-name="Ograve" unicode="&#xd2;" horiz-adv-x="1486" 
d="M858 1567h-147l-318 297h258zM76 735q0 166 50.5 307.5t138.5 240.5t211.5 154.5t266.5 55.5q191 0 342.5 -95t237.5 -268.5t86 -394.5t-86 -394.5t-237.5 -268.5t-342.5 -95q-143 0 -266.5 55.5t-211.5 154.5t-138.5 240.5t-50.5 307.5zM1214 735q0 260 -131.5 422
t-339.5 162t-339.5 -162t-131.5 -422t131.5 -421.5t339.5 -161.5t339.5 161.5t131.5 421.5z" />
    <glyph glyph-name="Oacute" unicode="&#xd3;" horiz-adv-x="1486" 
d="M662 1567l206 297h258l-317 -297h-147zM76 735q0 166 50.5 307.5t138.5 240.5t211.5 154.5t266.5 55.5q191 0 342.5 -95t237.5 -268.5t86 -394.5t-86 -394.5t-237.5 -268.5t-342.5 -95q-143 0 -266.5 55.5t-211.5 154.5t-138.5 240.5t-50.5 307.5zM1214 735
q0 260 -131.5 422t-339.5 162t-339.5 -162t-131.5 -422t131.5 -421.5t339.5 -161.5t339.5 161.5t131.5 421.5z" />
    <glyph glyph-name="Ocircumflex" unicode="&#xd4;" horiz-adv-x="1486" 
d="M854 1864l240 -297h-150l-201 178l-200 -178h-150l240 297h221zM76 735q0 166 50.5 307.5t138.5 240.5t211.5 154.5t266.5 55.5q191 0 342.5 -95t237.5 -268.5t86 -394.5t-86 -394.5t-237.5 -268.5t-342.5 -95q-143 0 -266.5 55.5t-211.5 154.5t-138.5 240.5t-50.5 307.5
zM1214 735q0 260 -131.5 422t-339.5 162t-339.5 -162t-131.5 -422t131.5 -421.5t339.5 -161.5t339.5 161.5t131.5 421.5z" />
    <glyph glyph-name="Otilde" unicode="&#xd5;" horiz-adv-x="1486" 
d="M598 1853q43 0 85.5 -20.5t70.5 -45t62 -45t63 -20.5q84 0 102 133h129q-9 -133 -67.5 -209.5t-153.5 -76.5q-44 0 -86.5 21t-70 45.5t-61.5 45.5t-63 21q-84 0 -102 -133h-129q8 133 66.5 208.5t154.5 75.5zM76 735q0 166 50.5 307.5t138.5 240.5t211.5 154.5
t266.5 55.5q191 0 342.5 -95t237.5 -268.5t86 -394.5t-86 -394.5t-237.5 -268.5t-342.5 -95q-143 0 -266.5 55.5t-211.5 154.5t-138.5 240.5t-50.5 307.5zM1214 735q0 260 -131.5 422t-339.5 162t-339.5 -162t-131.5 -422t131.5 -421.5t339.5 -161.5t339.5 161.5
t131.5 421.5z" />
    <glyph glyph-name="Odieresis" unicode="&#xd6;" horiz-adv-x="1486" 
d="M459 1575v213h205v-213h-205zM823 1575v213h205v-213h-205zM76 735q0 166 50.5 307.5t138.5 240.5t211.5 154.5t266.5 55.5q191 0 342.5 -95t237.5 -268.5t86 -394.5t-86 -394.5t-237.5 -268.5t-342.5 -95q-143 0 -266.5 55.5t-211.5 154.5t-138.5 240.5t-50.5 307.5z
M1214 735q0 260 -131.5 422t-339.5 162t-339.5 -162t-131.5 -422t131.5 -421.5t339.5 -161.5t339.5 161.5t131.5 421.5z" />
    <glyph glyph-name="multiply" unicode="&#xd7;" 
d="M510 700l-352 353l114 114l353 -354l350 352l115 -112l-351 -353l351 -352l-115 -115l-350 353l-353 -355l-114 115z" />
    <glyph glyph-name="Oslash" unicode="&#xd8;" horiz-adv-x="1486" 
d="M96 49l142 172q-162 208 -162 514q0 166 50.5 307.5t138.5 240.5t211.5 154.5t266.5 55.5q242 0 420 -154l121 146l115 -92l-135 -164q145 -203 145 -494q0 -221 -86 -394.5t-237.5 -268.5t-342.5 -95q-227 0 -401 138l-131 -158zM272 735q0 -209 90 -364l685 827
q-124 121 -304 121q-208 0 -339.5 -162t-131.5 -422zM1214 735q0 195 -77 340l-678 -819q119 -104 284 -104q208 0 339.5 161.5t131.5 421.5z" />
    <glyph glyph-name="Ugrave" unicode="&#xd9;" horiz-adv-x="1427" 
d="M852 1567h-147l-318 297h258zM713 -20q-126 0 -230.5 37.5t-182.5 110.5t-121.5 189t-43.5 265v888h197v-882q0 -217 103.5 -324.5t277.5 -107.5q176 0 279.5 107.5t103.5 324.5v882h196v-888q0 -149 -43 -265t-121.5 -189t-183 -110.5t-231.5 -37.5z" />
    <glyph glyph-name="Uacute" unicode="&#xda;" horiz-adv-x="1427" 
d="M592 1567l207 297h258l-318 -297h-147zM713 -20q-126 0 -230.5 37.5t-182.5 110.5t-121.5 189t-43.5 265v888h197v-882q0 -217 103.5 -324.5t277.5 -107.5q176 0 279.5 107.5t103.5 324.5v882h196v-888q0 -149 -43 -265t-121.5 -189t-183 -110.5t-231.5 -37.5z" />
    <glyph glyph-name="Ucircumflex" unicode="&#xdb;" horiz-adv-x="1427" 
d="M823 1864l240 -297h-150l-200 178l-201 -178h-150l240 297h221zM713 -20q-126 0 -230.5 37.5t-182.5 110.5t-121.5 189t-43.5 265v888h197v-882q0 -217 103.5 -324.5t277.5 -107.5q176 0 279.5 107.5t103.5 324.5v882h196v-888q0 -149 -43 -265t-121.5 -189t-183 -110.5
t-231.5 -37.5z" />
    <glyph glyph-name="Udieresis" unicode="&#xdc;" horiz-adv-x="1427" 
d="M428 1575v213h205v-213h-205zM793 1575v213h204v-213h-204zM713 -20q-126 0 -230.5 37.5t-182.5 110.5t-121.5 189t-43.5 265v888h197v-882q0 -217 103.5 -324.5t277.5 -107.5q176 0 279.5 107.5t103.5 324.5v882h196v-888q0 -149 -43 -265t-121.5 -189t-183 -110.5
t-231.5 -37.5z" />
    <glyph glyph-name="Yacute" unicode="&#xdd;" horiz-adv-x="1282" 
d="M528 1567l207 297h258l-317 -297h-148zM643 797l420 673h209l-533 -852v-618h-196v618l-533 852h213z" />
    <glyph glyph-name="Thorn" unicode="&#xde;" horiz-adv-x="1280" 
d="M723 340h-365v-340h-196v1470h196v-276h365q238 0 374 -110t136 -318q0 -204 -136.5 -315t-373.5 -111zM358 1028v-522h355q156 0 240.5 68t84.5 192q0 126 -84 194t-241 68h-355z" />
    <glyph glyph-name="germandbls" unicode="&#xdf;" horiz-adv-x="1177" 
d="M612 1493q182 0 293 -99t111 -255q0 -113 -54.5 -191t-152.5 -114q143 -35 227 -137.5t84 -260.5q0 -109 -38.5 -196t-105 -141.5t-150 -83.5t-177.5 -29q-97 0 -186 18v158q77 -21 164 -21q64 0 119 17.5t98.5 52.5t68.5 93t25 132q0 151 -94 227t-258 76h-109v162h92
q128 0 198.5 62t70.5 165q0 97 -63.5 152t-166.5 55q-131 0 -200.5 -86t-69.5 -243v-1006h-184v1014q0 216 123 347.5t335 131.5z" />
    <glyph glyph-name="agrave" unicode="&#xe0;" horiz-adv-x="1077" 
d="M618 1186h-145l-207 284h232zM422 -18q-151 0 -251.5 83t-100.5 224q0 78 28.5 137t85 100t126.5 67.5t165 45.5l260 53v45q0 94 -52.5 143.5t-158.5 49.5q-198 0 -248 -182l-174 45q39 134 153 216.5t275 82.5q183 0 285.5 -89t102.5 -258v-522q0 -101 114 -76v-147
q-246 -30 -280 121q-51 -64 -137 -101.5t-193 -37.5zM735 365v184l-209 -45q-138 -28 -206 -72.5t-68 -134.5q0 -77 52 -121.5t140 -44.5q121 0 206 66.5t85 167.5z" />
    <glyph glyph-name="aacute" unicode="&#xe1;" horiz-adv-x="1077" 
d="M465 1186l121 284h231l-207 -284h-145zM422 -18q-151 0 -251.5 83t-100.5 224q0 78 28.5 137t85 100t126.5 67.5t165 45.5l260 53v45q0 94 -52.5 143.5t-158.5 49.5q-198 0 -248 -182l-174 45q39 134 153 216.5t275 82.5q183 0 285.5 -89t102.5 -258v-522q0 -101 114 -76
v-147q-246 -30 -280 121q-51 -64 -137 -101.5t-193 -37.5zM735 365v184l-209 -45q-138 -28 -206 -72.5t-68 -134.5q0 -77 52 -121.5t140 -44.5q121 0 206 66.5t85 167.5z" />
    <glyph glyph-name="acircumflex" unicode="&#xe2;" horiz-adv-x="1077" 
d="M635 1470l201 -284h-144l-157 160l-158 -160h-144l201 284h201zM422 -18q-151 0 -251.5 83t-100.5 224q0 78 28.5 137t85 100t126.5 67.5t165 45.5l260 53v45q0 94 -52.5 143.5t-158.5 49.5q-198 0 -248 -182l-174 45q39 134 153 216.5t275 82.5q183 0 285.5 -89
t102.5 -258v-522q0 -101 114 -76v-147q-246 -30 -280 121q-51 -64 -137 -101.5t-193 -37.5zM735 365v184l-209 -45q-138 -28 -206 -72.5t-68 -134.5q0 -77 52 -121.5t140 -44.5q121 0 206 66.5t85 167.5z" />
    <glyph glyph-name="atilde" unicode="&#xe3;" horiz-adv-x="1077" 
d="M403 1473q39 0 76 -20.5t61.5 -45.5t53.5 -45.5t53 -20.5q40 0 60.5 32t29.5 100h121q-9 -129 -61.5 -203t-137.5 -74q-39 0 -76 20t-61 44.5t-53 44.5t-53 20q-39 0 -59.5 -31.5t-28.5 -97.5h-121q8 130 59 203.5t137 73.5zM422 -18q-151 0 -251.5 83t-100.5 224
q0 78 28.5 137t85 100t126.5 67.5t165 45.5l260 53v45q0 94 -52.5 143.5t-158.5 49.5q-198 0 -248 -182l-174 45q39 134 153 216.5t275 82.5q183 0 285.5 -89t102.5 -258v-522q0 -101 114 -76v-147q-246 -30 -280 121q-51 -64 -137 -101.5t-193 -37.5zM735 365v184l-209 -45
q-138 -28 -206 -72.5t-68 -134.5q0 -77 52 -121.5t140 -44.5q121 0 206 66.5t85 167.5z" />
    <glyph glyph-name="adieresis" unicode="&#xe4;" horiz-adv-x="1077" 
d="M252 1249v213h205v-213h-205zM604 1249v213h205v-213h-205zM422 -18q-151 0 -251.5 83t-100.5 224q0 78 28.5 137t85 100t126.5 67.5t165 45.5l260 53v45q0 94 -52.5 143.5t-158.5 49.5q-198 0 -248 -182l-174 45q39 134 153 216.5t275 82.5q183 0 285.5 -89t102.5 -258
v-522q0 -101 114 -76v-147q-246 -30 -280 121q-51 -64 -137 -101.5t-193 -37.5zM735 365v184l-209 -45q-138 -28 -206 -72.5t-68 -134.5q0 -77 52 -121.5t140 -44.5q121 0 206 66.5t85 167.5z" />
    <glyph glyph-name="aring" unicode="&#xe5;" horiz-adv-x="1077" 
d="M322 1366q0 83 59 141t147 58t147.5 -58t59.5 -141q0 -85 -59 -144t-148 -59q-88 0 -147 58.5t-59 144.5zM426 1366q0 -43 30 -74.5t72 -31.5t72.5 31.5t30.5 74.5q0 40 -30.5 71t-72.5 31t-72 -31t-30 -71zM422 -18q-151 0 -251.5 83t-100.5 224q0 78 28.5 137t85 100
t126.5 67.5t165 45.5l260 53v45q0 94 -52.5 143.5t-158.5 49.5q-198 0 -248 -182l-174 45q39 134 153 216.5t275 82.5q183 0 285.5 -89t102.5 -258v-522q0 -101 114 -76v-147q-246 -30 -280 121q-51 -64 -137 -101.5t-193 -37.5zM735 365v184l-209 -45q-138 -28 -206 -72.5
t-68 -134.5q0 -77 52 -121.5t140 -44.5q121 0 206 66.5t85 167.5z" />
    <glyph glyph-name="ae" unicode="&#xe6;" horiz-adv-x="1755" 
d="M561 647h178v82q0 201 -215 201q-204 0 -243 -193l-175 47q34 140 148 224t278 84q248 0 334 -170q66 80 157.5 125t199.5 45q145 0 249.5 -70t154.5 -187t50 -268v-61h-772q7 -168 96.5 -268.5t229.5 -100.5q107 0 180 54.5t98 150.5l160 -57q-48 -143 -163.5 -225.5
t-274.5 -82.5q-130 0 -235 57.5t-171 160.5q-54 -97 -158 -155t-239 -58q-152 0 -255 84t-103 227q0 116 64.5 197t173.5 119t253 38zM1221 934q-118 0 -199.5 -76t-106.5 -211h576q-2 123 -70 205t-200 82zM455 133q122 0 203 78t81 195v100h-174q-151 0 -232 -45.5
t-81 -155.5q0 -81 55 -126.5t148 -45.5z" />
    <glyph glyph-name="ccedilla" unicode="&#xe7;" horiz-adv-x="1064" 
d="M264 535q0 -181 89 -288.5t233 -107.5q106 0 174 62t92 166l164 -76q-40 -139 -154 -226.5t-276 -87.5h-2l-11 -32q77 -10 126 -51t49 -111q0 -77 -66 -124.5t-160 -47.5q-133 0 -203 80l70 96q54 -66 127 -66q43 0 69.5 17t26.5 51q0 27 -22.5 44.5t-55.5 25t-83 10.5
l34 117q-184 34 -294.5 183t-110.5 366q0 248 140.5 402.5t365.5 154.5q162 0 274 -85t152 -223l-160 -79q-24 103 -92 165t-174 62q-144 0 -233 -107.5t-89 -289.5z" />
    <glyph glyph-name="egrave" unicode="&#xe8;" horiz-adv-x="1105" 
d="M668 1186h-146l-207 284h232zM582 -23q-223 0 -362.5 155t-139.5 403q0 158 62 285t175 199.5t256 72.5q217 0 337 -147t120 -378v-61h-774q7 -168 96.5 -268.5t229.5 -100.5q107 0 180 54.5t98 150.5l162 -57q-50 -144 -166 -226t-274 -82zM571 934q-118 0 -199 -75.5
t-106 -211.5h578q-3 123 -72 205t-201 82z" />
    <glyph glyph-name="eacute" unicode="&#xe9;" horiz-adv-x="1105" 
d="M498 1186l120 284h232l-207 -284h-145zM582 -23q-223 0 -362.5 155t-139.5 403q0 158 62 285t175 199.5t256 72.5q217 0 337 -147t120 -378v-61h-774q7 -168 96.5 -268.5t229.5 -100.5q107 0 180 54.5t98 150.5l162 -57q-50 -144 -166 -226t-274 -82zM571 934
q-118 0 -199 -75.5t-106 -211.5h578q-3 123 -72 205t-201 82z" />
    <glyph glyph-name="ecircumflex" unicode="&#xea;" horiz-adv-x="1105" 
d="M678 1470l201 -284h-144l-157 160l-158 -160h-144l201 284h201zM582 -23q-223 0 -362.5 155t-139.5 403q0 158 62 285t175 199.5t256 72.5q217 0 337 -147t120 -378v-61h-774q7 -168 96.5 -268.5t229.5 -100.5q107 0 180 54.5t98 150.5l162 -57q-50 -144 -166 -226
t-274 -82zM571 934q-118 0 -199 -75.5t-106 -211.5h578q-3 123 -72 205t-201 82z" />
    <glyph glyph-name="edieresis" unicode="&#xeb;" horiz-adv-x="1105" 
d="M301 1249v213h205v-213h-205zM653 1249v213h205v-213h-205zM582 -23q-223 0 -362.5 155t-139.5 403q0 158 62 285t175 199.5t256 72.5q217 0 337 -147t120 -378v-61h-774q7 -168 96.5 -268.5t229.5 -100.5q107 0 180 54.5t98 150.5l162 -57q-50 -144 -166 -226t-274 -82z
M571 934q-118 0 -199 -75.5t-106 -211.5h578q-3 123 -72 205t-201 82z" />
    <glyph glyph-name="igrave" unicode="&#xec;" horiz-adv-x="491" 
d="M315 1186h-145l-207 284h232zM338 1071v-1071h-184v1071h184z" />
    <glyph glyph-name="iacute" unicode="&#xed;" horiz-adv-x="491" 
d="M178 1186l121 284h231l-206 -284h-146zM338 1071v-1071h-184v1071h184z" />
    <glyph glyph-name="icircumflex" unicode="&#xee;" horiz-adv-x="491" 
d="M346 1470l201 -284h-144l-157 160l-158 -160h-143l200 284h201zM338 1071v-1071h-184v1071h184z" />
    <glyph glyph-name="idieresis" unicode="&#xef;" horiz-adv-x="491" 
d="M-33 1249v213h205v-213h-205zM319 1249v213h205v-213h-205zM338 1071v-1071h-184v1071h184z" />
    <glyph glyph-name="eth" unicode="&#xf0;" horiz-adv-x="1155" 
d="M805 991q-56 117 -195 232l-340 -101v133l209 62q-96 63 -221 119l193 55q97 -45 211 -119l264 78v-133l-144 -43q293 -274 293 -705q0 -271 -137.5 -431.5t-359.5 -160.5q-220 0 -359 155t-139 403t138.5 399t359.5 151q70 0 130.5 -25.5t96.5 -68.5zM266 535
q0 -182 85.5 -291t226.5 -109t226 108.5t85 291.5q0 184 -84.5 292.5t-226.5 108.5t-227 -108.5t-85 -292.5z" />
    <glyph glyph-name="ntilde" unicode="&#xf1;" horiz-adv-x="1155" 
d="M467 1473q39 0 76 -20.5t61.5 -45.5t53.5 -45.5t53 -20.5q40 0 60.5 32t29.5 100h121q-9 -129 -61.5 -203t-137.5 -74q-39 0 -76 20t-61.5 44.5t-53.5 44.5t-53 20q-39 0 -59.5 -31.5t-28.5 -97.5h-121q8 130 59.5 203.5t137.5 73.5zM154 0v1071h184v-145
q51 73 131.5 119.5t187.5 46.5q167 0 262 -105.5t95 -279.5v-707h-185v657q0 120 -54.5 191.5t-168.5 71.5q-106 0 -187 -77t-81 -204v-639h-184z" />
    <glyph glyph-name="ograve" unicode="&#xf2;" horiz-adv-x="1155" 
d="M670 1186h-146l-207 284h232zM1075 535q0 -248 -138.5 -403t-358.5 -155t-359 155t-139 403t139 402.5t359 154.5t358.5 -154.5t138.5 -402.5zM266 535q0 -182 85.5 -291t226.5 -109t226 108.5t85 291.5q0 184 -84.5 292.5t-226.5 108.5t-227 -108.5t-85 -292.5z" />
    <glyph glyph-name="oacute" unicode="&#xf3;" horiz-adv-x="1155" 
d="M494 1186l120 284h232l-207 -284h-145zM1075 535q0 -248 -138.5 -403t-358.5 -155t-359 155t-139 403t139 402.5t359 154.5t358.5 -154.5t138.5 -402.5zM266 535q0 -182 85.5 -291t226.5 -109t226 108.5t85 291.5q0 184 -84.5 292.5t-226.5 108.5t-227 -108.5t-85 -292.5
z" />
    <glyph glyph-name="ocircumflex" unicode="&#xf4;" horiz-adv-x="1155" 
d="M678 1470l201 -284h-144l-157 160l-158 -160h-144l201 284h201zM1075 535q0 -248 -138.5 -403t-358.5 -155t-359 155t-139 403t139 402.5t359 154.5t358.5 -154.5t138.5 -402.5zM266 535q0 -182 85.5 -291t226.5 -109t226 108.5t85 291.5q0 184 -84.5 292.5t-226.5 108.5
t-227 -108.5t-85 -292.5z" />
    <glyph glyph-name="otilde" unicode="&#xf5;" horiz-adv-x="1155" 
d="M449 1473q39 0 76 -20.5t61 -45.5t53 -45.5t53 -20.5q40 0 60.5 32t29.5 100h121q-9 -129 -61 -203t-137 -74q-39 0 -76 20t-61.5 44.5t-53.5 44.5t-53 20q-39 0 -59.5 -31.5t-28.5 -97.5h-121q8 130 59.5 203.5t137.5 73.5zM1075 535q0 -248 -138.5 -403t-358.5 -155
t-359 155t-139 403t139 402.5t359 154.5t358.5 -154.5t138.5 -402.5zM266 535q0 -182 85.5 -291t226.5 -109t226 108.5t85 291.5q0 184 -84.5 292.5t-226.5 108.5t-227 -108.5t-85 -292.5z" />
    <glyph glyph-name="odieresis" unicode="&#xf6;" horiz-adv-x="1155" 
d="M299 1249v213h205v-213h-205zM651 1249v213h205v-213h-205zM1075 535q0 -248 -138.5 -403t-358.5 -155t-359 155t-139 403t139 402.5t359 154.5t358.5 -154.5t138.5 -402.5zM266 535q0 -182 85.5 -291t226.5 -109t226 108.5t85 291.5q0 184 -84.5 292.5t-226.5 108.5
t-227 -108.5t-85 -292.5z" />
    <glyph glyph-name="divide" unicode="&#xf7;" 
d="M508 1006v221h225v-221h-225zM102 618v164h1041v-164h-1041zM508 176v221h225v-221h-225z" />
    <glyph glyph-name="oslash" unicode="&#xf8;" horiz-adv-x="1155" 
d="M80 535q0 248 139 402.5t359 154.5q161 0 286 -91l86 107l109 -86l-94 -119q110 -148 110 -368q0 -248 -138.5 -403t-358.5 -155q-160 0 -285 89l-86 -109l-109 86l97 119q-115 149 -115 373zM266 535q0 -131 45 -226l451 563q-80 64 -184 64q-142 0 -227 -108.5
t-85 -292.5zM889 535q0 131 -43 221l-449 -559q74 -62 181 -62q141 0 226 108.5t85 291.5z" />
    <glyph glyph-name="ugrave" unicode="&#xf9;" horiz-adv-x="1155" 
d="M659 1186h-145l-207 284h232zM1004 1071v-1071h-185v147q-51 -75 -131 -122.5t-186 -47.5q-169 0 -264 105.5t-95 279.5v709h185v-670q0 -119 54.5 -186.5t168.5 -67.5q107 0 187.5 76t80.5 203v645h185z" />
    <glyph glyph-name="uacute" unicode="&#xfa;" horiz-adv-x="1155" 
d="M489 1186l121 284h232l-207 -284h-146zM1004 1071v-1071h-185v147q-51 -75 -131 -122.5t-186 -47.5q-169 0 -264 105.5t-95 279.5v709h185v-670q0 -119 54.5 -186.5t168.5 -67.5q107 0 187.5 76t80.5 203v645h185z" />
    <glyph glyph-name="ucircumflex" unicode="&#xfb;" horiz-adv-x="1155" 
d="M672 1470l200 -284h-143l-158 160l-157 -160h-144l201 284h201zM1004 1071v-1071h-185v147q-51 -75 -131 -122.5t-186 -47.5q-169 0 -264 105.5t-95 279.5v709h185v-670q0 -119 54.5 -186.5t168.5 -67.5q107 0 187.5 76t80.5 203v645h185z" />
    <glyph glyph-name="udieresis" unicode="&#xfc;" horiz-adv-x="1155" 
d="M293 1249v213h205v-213h-205zM645 1249v213h205v-213h-205zM1004 1071v-1071h-185v147q-51 -75 -131 -122.5t-186 -47.5q-169 0 -264 105.5t-95 279.5v709h185v-670q0 -119 54.5 -186.5t168.5 -67.5q107 0 187.5 76t80.5 203v645h185z" />
    <glyph glyph-name="yacute" unicode="&#xfd;" horiz-adv-x="1038" 
d="M440 1186l121 284h232l-207 -284h-146zM551 -117q-50 -132 -125 -198t-207 -66q-56 0 -100 8v160q44 -10 88 -10q62 0 98 28.5t68 106.5l51 127l-397 1032h194l301 -819l297 819h193z" />
    <glyph glyph-name="thorn" unicode="&#xfe;" horiz-adv-x="1216" 
d="M670 -23q-110 0 -196.5 48.5t-135.5 130.5v-525h-184v1839h184v-555q49 81 136 129t196 48q144 0 251.5 -76t161.5 -201.5t54 -279.5q0 -114 -31.5 -215t-90 -177.5t-148 -121t-197.5 -44.5zM334 571v-75q0 -89 25.5 -159t69 -112t96.5 -64t112 -22q147 0 229 109.5
t82 286.5q0 178 -82 286.5t-229 108.5q-59 0 -112 -21.5t-96.5 -63.5t-69 -113t-25.5 -161z" />
    <glyph glyph-name="ydieresis" unicode="&#xff;" horiz-adv-x="1038" 
d="M242 1249v213h204v-213h-204zM594 1249v213h205v-213h-205zM551 -117q-50 -132 -125 -198t-207 -66q-56 0 -100 8v160q44 -10 88 -10q62 0 98 28.5t68 106.5l51 127l-397 1032h194l301 -819l297 819h193z" />
    <glyph glyph-name="Amacron" unicode="&#x100;" horiz-adv-x="1417" 
d="M1026 1597h-639v154h639v-154zM600 1470h217l567 -1470h-198l-150 387h-659l-148 -387h-196zM705 1249l-263 -690h529z" />
    <glyph glyph-name="amacron" unicode="&#x101;" horiz-adv-x="1077" 
d="M815 1241h-561v148h561v-148zM422 -18q-151 0 -251.5 83t-100.5 224q0 78 28.5 137t85 100t126.5 67.5t165 45.5l260 53v45q0 94 -52.5 143.5t-158.5 49.5q-198 0 -248 -182l-174 45q39 134 153 216.5t275 82.5q183 0 285.5 -89t102.5 -258v-522q0 -101 114 -76v-147
q-246 -30 -280 121q-51 -64 -137 -101.5t-193 -37.5zM735 365v184l-209 -45q-138 -28 -206 -72.5t-68 -134.5q0 -77 52 -121.5t140 -44.5q121 0 206 66.5t85 167.5z" />
    <glyph glyph-name="Abreve" unicode="&#x102;" horiz-adv-x="1417" 
d="M707 1690q77 0 126.5 47t49.5 127h139q0 -136 -86 -218.5t-229 -82.5t-229.5 82.5t-86.5 218.5h139q0 -80 50 -127t127 -47zM600 1470h217l567 -1470h-198l-150 387h-659l-148 -387h-196zM705 1249l-263 -690h529z" />
    <glyph glyph-name="abreve" unicode="&#x103;" horiz-adv-x="1077" 
d="M535 1309q64 0 104.5 42t40.5 119h129q0 -138 -74 -216t-200 -78t-200.5 78t-74.5 216h129q0 -77 41 -119t105 -42zM422 -18q-151 0 -251.5 83t-100.5 224q0 78 28.5 137t85 100t126.5 67.5t165 45.5l260 53v45q0 94 -52.5 143.5t-158.5 49.5q-198 0 -248 -182l-174 45
q39 134 153 216.5t275 82.5q183 0 285.5 -89t102.5 -258v-522q0 -101 114 -76v-147q-246 -30 -280 121q-51 -64 -137 -101.5t-193 -37.5zM735 365v184l-209 -45q-138 -28 -206 -72.5t-68 -134.5q0 -77 52 -121.5t140 -44.5q121 0 206 66.5t85 167.5z" />
    <glyph glyph-name="Aogonek" unicode="&#x104;" horiz-adv-x="1417" 
d="M1032 -217q0 68 36.5 124t109.5 116l-142 364h-659l-148 -387h-196l567 1470h217l567 -1470h-81q-74 -64 -105 -105t-31 -83q0 -34 23 -53t59 -19q38 0 82 12v-119q-50 -14 -114 -14q-77 0 -131 45.5t-54 118.5zM705 1249l-263 -690h529z" />
    <glyph glyph-name="aogonek" unicode="&#x105;" horiz-adv-x="1077" 
d="M422 -18q-151 0 -251.5 83t-100.5 224q0 78 28.5 137t85 100t126.5 67.5t165 45.5l260 53v45q0 94 -52.5 143.5t-158.5 49.5q-198 0 -248 -182l-174 45q39 134 153 216.5t275 82.5q183 0 285.5 -89t102.5 -258v-522q0 -101 114 -76v-147q-6 -1 -18.5 -2t-18.5 -2
q-71 -63 -101 -103t-30 -81q0 -34 23 -53t59 -19q38 0 82 12v-119q-50 -14 -115 -14q-77 0 -130.5 45.5t-53.5 118.5q0 64 31.5 116.5t95.5 108.5q-85 24 -104 113q-51 -64 -137 -101.5t-193 -37.5zM735 365v184l-209 -45q-138 -28 -206 -72.5t-68 -134.5q0 -77 52 -121.5
t140 -44.5q121 0 206 66.5t85 167.5z" />
    <glyph glyph-name="Cacute" unicode="&#x106;" horiz-adv-x="1349" 
d="M635 1567l207 297h258l-318 -297h-147zM272 735q0 -260 130 -421.5t335 -161.5q142 0 241.5 78.5t139.5 218.5l187 -62q-65 -193 -212.5 -301.5t-355.5 -108.5q-141 0 -263.5 55.5t-210 154.5t-137.5 240.5t-50 307.5t50 307.5t137.5 240.5t210 154.5t263.5 55.5
q208 0 355.5 -108.5t212.5 -301.5l-187 -61q-40 140 -139.5 218.5t-241.5 78.5q-205 0 -335 -162t-130 -422z" />
    <glyph glyph-name="cacute" unicode="&#x107;" horiz-adv-x="1064" 
d="M500 1186l121 284h231l-207 -284h-145zM264 535q0 -181 89 -288.5t233 -107.5q106 0 174 62t92 166l164 -76q-40 -139 -154 -226.5t-276 -87.5q-224 0 -365 155.5t-141 402.5q0 248 140.5 402.5t365.5 154.5q162 0 274 -85t152 -223l-160 -79q-24 103 -92 165t-174 62
q-144 0 -233 -107.5t-89 -289.5z" />
    <glyph glyph-name="Ccircumflex" unicode="&#x108;" horiz-adv-x="1349" 
d="M852 1864l240 -297h-150l-201 178l-200 -178h-150l240 297h221zM272 735q0 -260 130 -421.5t335 -161.5q142 0 241.5 78.5t139.5 218.5l187 -62q-65 -193 -212.5 -301.5t-355.5 -108.5q-141 0 -263.5 55.5t-210 154.5t-137.5 240.5t-50 307.5t50 307.5t137.5 240.5
t210 154.5t263.5 55.5q208 0 355.5 -108.5t212.5 -301.5l-187 -61q-40 140 -139.5 218.5t-241.5 78.5q-205 0 -335 -162t-130 -422z" />
    <glyph glyph-name="ccircumflex" unicode="&#x109;" horiz-adv-x="1064" 
d="M684 1470l201 -284h-144l-157 160l-158 -160h-143l200 284h201zM264 535q0 -181 89 -288.5t233 -107.5q106 0 174 62t92 166l164 -76q-40 -139 -154 -226.5t-276 -87.5q-224 0 -365 155.5t-141 402.5q0 248 140.5 402.5t365.5 154.5q162 0 274 -85t152 -223l-160 -79
q-24 103 -92 165t-174 62q-144 0 -233 -107.5t-89 -289.5z" />
    <glyph glyph-name="Cdotaccent" unicode="&#x10a;" horiz-adv-x="1349" 
d="M641 1575v213h205v-213h-205zM272 735q0 -260 130 -421.5t335 -161.5q142 0 241.5 78.5t139.5 218.5l187 -62q-65 -193 -212.5 -301.5t-355.5 -108.5q-141 0 -263.5 55.5t-210 154.5t-137.5 240.5t-50 307.5t50 307.5t137.5 240.5t210 154.5t263.5 55.5
q208 0 355.5 -108.5t212.5 -301.5l-187 -61q-40 140 -139.5 218.5t-241.5 78.5q-205 0 -335 -162t-130 -422z" />
    <glyph glyph-name="cdotaccent" unicode="&#x10b;" horiz-adv-x="1064" 
d="M481 1257v213h201v-213h-201zM264 535q0 -181 89 -288.5t233 -107.5q106 0 174 62t92 166l164 -76q-40 -139 -154 -226.5t-276 -87.5q-224 0 -365 155.5t-141 402.5q0 248 140.5 402.5t365.5 154.5q162 0 274 -85t152 -223l-160 -79q-24 103 -92 165t-174 62
q-144 0 -233 -107.5t-89 -289.5z" />
    <glyph glyph-name="Ccaron" unicode="&#x10c;" horiz-adv-x="1349" 
d="M854 1569h-221l-240 297h150l200 -178l201 178h150zM272 735q0 -260 130 -421.5t335 -161.5q142 0 241.5 78.5t139.5 218.5l187 -62q-65 -193 -212.5 -301.5t-355.5 -108.5q-141 0 -263.5 55.5t-210 154.5t-137.5 240.5t-50 307.5t50 307.5t137.5 240.5t210 154.5
t263.5 55.5q208 0 355.5 -108.5t212.5 -301.5l-187 -61q-40 140 -139.5 218.5t-241.5 78.5q-205 0 -335 -162t-130 -422z" />
    <glyph glyph-name="ccaron" unicode="&#x10d;" horiz-adv-x="1064" 
d="M692 1186h-200l-201 284h143l158 -159l158 159h143zM264 535q0 -181 89 -288.5t233 -107.5q106 0 174 62t92 166l164 -76q-40 -139 -154 -226.5t-276 -87.5q-224 0 -365 155.5t-141 402.5q0 248 140.5 402.5t365.5 154.5q162 0 274 -85t152 -223l-160 -79
q-24 103 -92 165t-174 62q-144 0 -233 -107.5t-89 -289.5z" />
    <glyph glyph-name="Dcaron" unicode="&#x10e;" horiz-adv-x="1435" 
d="M776 1569h-221l-240 297h150l201 -178l200 178h150zM162 0v1470h467q334 0 531.5 -199t197.5 -536t-197.5 -536t-531.5 -199h-467zM354 170h275q249 0 392.5 153.5t143.5 411.5q0 260 -144 412.5t-394 152.5h-273v-1130z" />
    <glyph glyph-name="dcaron" unicode="&#x10f;" horiz-adv-x="1398" 
d="M547 -23q-108 0 -197.5 44.5t-148 121t-90 177.5t-31.5 215q0 154 54 279.5t161.5 201.5t251.5 76q109 0 196 -48t136 -129v555h184v-1470h-184v156q-49 -82 -135.5 -130.5t-196.5 -48.5zM1188 1110l47 360h211l-133 -360h-125zM883 571q0 90 -25.5 161t-69 113
t-96.5 63.5t-112 21.5q-148 0 -231 -109t-83 -286q0 -176 83.5 -286t230.5 -110q59 0 112 22t96.5 64t69 112t25.5 159v75z" />
    <glyph glyph-name="Dcroat" unicode="&#x110;" horiz-adv-x="1456" 
d="M182 0v672h-137v172h137v626h467q334 0 531.5 -199t197.5 -536t-197.5 -536t-531.5 -199h-467zM375 170h274q249 0 393 153.5t144 411.5q0 259 -144 412t-395 153h-272v-456h293v-172h-293v-502z" />
    <glyph glyph-name="dcroat" unicode="&#x111;" horiz-adv-x="1214" 
d="M547 -23q-108 0 -197.5 44.5t-148 121t-90 177.5t-31.5 215q0 154 54 279.5t161.5 201.5t251.5 76q109 0 196 -48t136 -129v265h-299v147h299v143h184v-143h123v-147h-123v-1180h-184v156q-49 -82 -135.5 -130.5t-196.5 -48.5zM883 571q0 90 -25.5 161t-69 113
t-96.5 63.5t-112 21.5q-148 0 -231 -109t-83 -286q0 -176 83.5 -286t230.5 -110q59 0 112 22t96.5 64t69 112t25.5 159v75z" />
    <glyph glyph-name="Emacron" unicode="&#x112;" horiz-adv-x="1218" 
d="M961 1597h-639v154h639v-154zM162 1470h960v-172h-766v-452h650v-172h-650v-502h766v-172h-960v1470z" />
    <glyph glyph-name="emacron" unicode="&#x113;" horiz-adv-x="1105" 
d="M854 1241h-561v148h561v-148zM582 -23q-223 0 -362.5 155t-139.5 403q0 158 62 285t175 199.5t256 72.5q217 0 337 -147t120 -378v-61h-774q7 -168 96.5 -268.5t229.5 -100.5q107 0 180 54.5t98 150.5l162 -57q-50 -144 -166 -226t-274 -82zM571 934q-118 0 -199 -75.5
t-106 -211.5h578q-3 123 -72 205t-201 82z" />
    <glyph glyph-name="Ebreve" unicode="&#x114;" horiz-adv-x="1218" 
d="M655 1690q77 0 126.5 47t49.5 127h140q0 -136 -86.5 -218.5t-229.5 -82.5t-229 82.5t-86 218.5h139q0 -80 49.5 -127t126.5 -47zM162 1470h960v-172h-766v-452h650v-172h-650v-502h766v-172h-960v1470z" />
    <glyph glyph-name="ebreve" unicode="&#x115;" horiz-adv-x="1105" 
d="M573 1309q64 0 105 42t41 119h129q0 -138 -74.5 -216t-200.5 -78t-200 78t-74 216h129q0 -77 40.5 -119t104.5 -42zM582 -23q-223 0 -362.5 155t-139.5 403q0 158 62 285t175 199.5t256 72.5q217 0 337 -147t120 -378v-61h-774q7 -168 96.5 -268.5t229.5 -100.5
q107 0 180 54.5t98 150.5l162 -57q-50 -144 -166 -226t-274 -82zM571 934q-118 0 -199 -75.5t-106 -211.5h578q-3 123 -72 205t-201 82z" />
    <glyph glyph-name="Edotaccent" unicode="&#x116;" horiz-adv-x="1218" 
d="M551 1575v213h205v-213h-205zM162 1470h960v-172h-766v-452h650v-172h-650v-502h766v-172h-960v1470z" />
    <glyph glyph-name="edotaccent" unicode="&#x117;" horiz-adv-x="1105" 
d="M473 1257v213h201v-213h-201zM582 -23q-223 0 -362.5 155t-139.5 403q0 158 62 285t175 199.5t256 72.5q217 0 337 -147t120 -378v-61h-774q7 -168 96.5 -268.5t229.5 -100.5q107 0 180 54.5t98 150.5l162 -57q-50 -144 -166 -226t-274 -82zM571 934q-118 0 -199 -75.5
t-106 -211.5h578q-3 123 -72 205t-201 82z" />
    <glyph glyph-name="Eogonek" unicode="&#x118;" horiz-adv-x="1218" 
d="M737 -217q0 63 29.5 113.5t89.5 103.5h-694v1470h960v-172h-766v-452h650v-172h-650v-502h766v-172h-114q-74 -64 -105 -105t-31 -83q0 -34 23 -53t59 -19q38 0 82 12v-119q-50 -14 -114 -14q-77 0 -131 45.5t-54 118.5z" />
    <glyph glyph-name="eogonek" unicode="&#x119;" horiz-adv-x="1105" 
d="M471 -217q0 103 94 194q-216 6 -350.5 160.5t-134.5 397.5q0 158 62 285t175 199.5t256 72.5q217 0 337 -147t120 -378v-61h-774q7 -168 96.5 -268.5t229.5 -100.5q107 0 180 54.5t98 150.5l162 -57q-35 -103 -107 -176t-170 -105q-75 -66 -107 -108t-32 -84
q0 -34 23 -53t59 -19q38 0 82 12v-119q-50 -14 -115 -14q-77 0 -130.5 45.5t-53.5 118.5zM571 934q-118 0 -199 -75.5t-106 -211.5h578q-3 123 -72 205t-201 82z" />
    <glyph glyph-name="Ecaron" unicode="&#x11a;" horiz-adv-x="1218" 
d="M766 1569h-221l-240 297h150l200 -178l201 178h150zM162 1470h960v-172h-766v-452h650v-172h-650v-502h766v-172h-960v1470z" />
    <glyph glyph-name="ecaron" unicode="&#x11b;" horiz-adv-x="1105" 
d="M680 1186h-201l-200 284h143l158 -159l157 159h144zM582 -23q-223 0 -362.5 155t-139.5 403q0 158 62 285t175 199.5t256 72.5q217 0 337 -147t120 -378v-61h-774q7 -168 96.5 -268.5t229.5 -100.5q107 0 180 54.5t98 150.5l162 -57q-50 -144 -166 -226t-274 -82z
M571 934q-118 0 -199 -75.5t-106 -211.5h578q-3 123 -72 205t-201 82z" />
    <glyph glyph-name="Gcircumflex" unicode="&#x11c;" horiz-adv-x="1474" 
d="M858 1864l240 -297h-150l-200 178l-201 -178h-150l240 297h221zM1157 0v219q-46 -106 -160.5 -174t-267.5 -68q-139 0 -260 55.5t-207.5 153.5t-136 239t-49.5 306q0 166 50 308t138 241.5t211 156t266 56.5q210 0 357.5 -107.5t214.5 -300.5l-189 -61
q-40 141 -138.5 218t-242.5 77q-209 0 -340 -162.5t-131 -423.5q0 -260 131.5 -423t341.5 -163q178 0 288.5 123.5t113.5 321.5h-422v172h612v-764h-180z" />
    <glyph glyph-name="gcircumflex" unicode="&#x11d;" horiz-adv-x="1214" 
d="M715 1470l200 -284h-143l-158 160l-157 -160h-144l201 284h201zM1061 96q0 -230 -137 -358.5t-361 -128.5q-178 0 -300.5 79t-166.5 226l172 66q26 -103 104 -160.5t191 -57.5q147 0 230.5 79t83.5 241v121q-44 -80 -131 -129t-197 -49q-142 0 -249.5 73t-161.5 193
t-54 268q0 147 54 267t161.5 193t249.5 73q108 0 196 -49.5t132 -129.5v158h184v-975zM879 575q0 171 -86.5 263t-210.5 92q-145 0 -229.5 -100.5t-84.5 -270.5t84.5 -271.5t229.5 -101.5q124 0 210.5 91.5t86.5 259.5v38z" />
    <glyph glyph-name="Gbreve" unicode="&#x11e;" horiz-adv-x="1474" 
d="M748 1690q77 0 126.5 47t49.5 127h139q0 -136 -86 -218.5t-229 -82.5t-229.5 82.5t-86.5 218.5h139q0 -80 50 -127t127 -47zM1157 0v219q-46 -106 -160.5 -174t-267.5 -68q-139 0 -260 55.5t-207.5 153.5t-136 239t-49.5 306q0 166 50 308t138 241.5t211 156t266 56.5
q210 0 357.5 -107.5t214.5 -300.5l-189 -61q-40 141 -138.5 218t-242.5 77q-209 0 -340 -162.5t-131 -423.5q0 -260 131.5 -423t341.5 -163q178 0 288.5 123.5t113.5 321.5h-422v172h612v-764h-180z" />
    <glyph glyph-name="gbreve" unicode="&#x11f;" horiz-adv-x="1214" 
d="M612 1309q64 0 105 42t41 119h129q0 -138 -74.5 -216t-200.5 -78t-200 78t-74 216h129q0 -77 40.5 -119t104.5 -42zM1061 96q0 -230 -137 -358.5t-361 -128.5q-178 0 -300.5 79t-166.5 226l172 66q26 -103 104 -160.5t191 -57.5q147 0 230.5 79t83.5 241v121
q-44 -80 -131 -129t-197 -49q-142 0 -249.5 73t-161.5 193t-54 268q0 147 54 267t161.5 193t249.5 73q108 0 196 -49.5t132 -129.5v158h184v-975zM879 575q0 171 -86.5 263t-210.5 92q-145 0 -229.5 -100.5t-84.5 -270.5t84.5 -271.5t229.5 -101.5q124 0 210.5 91.5
t86.5 259.5v38z" />
    <glyph glyph-name="Gdotaccent" unicode="&#x120;" horiz-adv-x="1474" 
d="M645 1575v213h205v-213h-205zM1157 0v219q-46 -106 -160.5 -174t-267.5 -68q-139 0 -260 55.5t-207.5 153.5t-136 239t-49.5 306q0 166 50 308t138 241.5t211 156t266 56.5q210 0 357.5 -107.5t214.5 -300.5l-189 -61q-40 141 -138.5 218t-242.5 77q-209 0 -340 -162.5
t-131 -423.5q0 -260 131.5 -423t341.5 -163q178 0 288.5 123.5t113.5 321.5h-422v172h612v-764h-180z" />
    <glyph glyph-name="gdotaccent" unicode="&#x121;" horiz-adv-x="1214" 
d="M506 1257v213h201v-213h-201zM1061 96q0 -230 -137 -358.5t-361 -128.5q-178 0 -300.5 79t-166.5 226l172 66q26 -103 104 -160.5t191 -57.5q147 0 230.5 79t83.5 241v121q-44 -80 -131 -129t-197 -49q-142 0 -249.5 73t-161.5 193t-54 268q0 147 54 267t161.5 193
t249.5 73q108 0 196 -49.5t132 -129.5v158h184v-975zM879 575q0 171 -86.5 263t-210.5 92q-145 0 -229.5 -100.5t-84.5 -270.5t84.5 -271.5t229.5 -101.5q124 0 210.5 91.5t86.5 259.5v38z" />
    <glyph glyph-name="uni0122" unicode="&#x122;" horiz-adv-x="1474" 
d="M1157 0v219q-46 -106 -160.5 -174t-267.5 -68q-139 0 -260 55.5t-207.5 153.5t-136 239t-49.5 306q0 166 50 308t138 241.5t211 156t266 56.5q210 0 357.5 -107.5t214.5 -300.5l-189 -61q-40 141 -138.5 218t-242.5 77q-209 0 -340 -162.5t-131 -423.5q0 -260 131.5 -423
t341.5 -163q178 0 288.5 123.5t113.5 321.5h-422v172h612v-764h-180zM645 -236v148h199v-125q0 -89 -61.5 -139.5t-159.5 -50.5v84q51 2 75 21t27 62h-80z" />
    <glyph glyph-name="uni0123" unicode="&#x123;" horiz-adv-x="1214" 
d="M709 1333v-147h-199v125q0 89 61.5 139.5t159.5 50.5v-84q-51 -1 -75 -21t-27 -63h80zM1061 96q0 -230 -137 -358.5t-361 -128.5q-178 0 -300.5 79t-166.5 226l172 66q26 -103 104 -160.5t191 -57.5q147 0 230.5 79t83.5 241v121q-44 -80 -131 -129t-197 -49
q-142 0 -249.5 73t-161.5 193t-54 268q0 147 54 267t161.5 193t249.5 73q108 0 196 -49.5t132 -129.5v158h184v-975zM879 575q0 171 -86.5 263t-210.5 92q-145 0 -229.5 -100.5t-84.5 -270.5t84.5 -271.5t229.5 -101.5q124 0 210.5 91.5t86.5 259.5v38z" />
    <glyph glyph-name="Hcircumflex" unicode="&#x124;" horiz-adv-x="1505" 
d="M864 1864l240 -297h-150l-200 178l-201 -178h-150l240 297h221zM1147 1470h196v-1470h-196v674h-789v-674h-196v1470h196v-624h789v624z" />
    <glyph glyph-name="hcircumflex" unicode="&#x125;" horiz-adv-x="1155" 
d="M717 1864l239 -297h-149l-201 178l-200 -178h-150l240 297h221zM154 0v1470h184v-544q51 73 131.5 119.5t187.5 46.5q167 0 262 -105.5t95 -279.5v-707h-185v657q0 120 -54.5 191.5t-168.5 71.5q-106 0 -187 -77t-81 -204v-639h-184z" />
    <glyph glyph-name="Hbar" unicode="&#x126;" horiz-adv-x="1546" 
d="M1501 993h-137v-993h-197v565h-788v-565h-197v993h-137v168h137v309h197v-309h788v309h197v-309h137v-168zM379 735h788v258h-788v-258z" />
    <glyph glyph-name="hbar" unicode="&#x127;" horiz-adv-x="1155" 
d="M154 0v1180h-131v147h131v143h184v-143h291v-147h-291v-254q51 73 131.5 119.5t187.5 46.5q167 0 262 -105.5t95 -279.5v-707h-185v657q0 120 -54.5 191.5t-168.5 71.5q-106 0 -187 -77t-81 -204v-639h-184z" />
    <glyph glyph-name="Itilde" unicode="&#x128;" horiz-adv-x="520" 
d="M115 1853q43 0 85.5 -20.5t70 -45t61.5 -45t63 -20.5q85 0 103 133h129q-9 -133 -67.5 -209.5t-153.5 -76.5q-44 0 -86.5 21t-70 45.5t-61.5 45.5t-63 21q-84 0 -102 -133h-129q8 133 66.5 208.5t154.5 75.5zM358 1470v-1470h-196v1470h196z" />
    <glyph glyph-name="itilde" unicode="&#x129;" horiz-adv-x="491" 
d="M129 1473q32 0 60 -13.5t47.5 -33t37.5 -39t38 -33t40 -13.5q39 0 57.5 31.5t28.5 100.5h121q-9 -130 -60 -203.5t-137 -73.5q-32 0 -60 13.5t-47.5 32t-37.5 37.5t-38 32.5t-40 13.5q-38 0 -57 -31t-27 -98h-121q8 131 58 204t137 73zM338 1071v-1071h-184v1071h184z
" />
    <glyph glyph-name="Imacron" unicode="&#x12a;" horiz-adv-x="520" 
d="M580 1597h-639v154h639v-154zM358 1470v-1470h-196v1470h196z" />
    <glyph glyph-name="imacron" unicode="&#x12b;" horiz-adv-x="491" 
d="M512 1241h-535v148h535v-148zM338 1071v-1071h-184v1071h184z" />
    <glyph glyph-name="Ibreve" unicode="&#x12c;" horiz-adv-x="520" 
d="M260 1690q77 0 126.5 47t49.5 127h139q0 -136 -86 -218.5t-229 -82.5t-229 82.5t-86 218.5h139q0 -80 49.5 -127t126.5 -47zM358 1470v-1470h-196v1470h196z" />
    <glyph glyph-name="ibreve" unicode="&#x12d;" horiz-adv-x="491" 
d="M246 1309q64 0 104 42t41 119h129q0 -138 -74.5 -216t-199.5 -78q-126 0 -200.5 78t-74.5 216h129q0 -77 41 -119t105 -42zM338 1071v-1071h-184v1071h184z" />
    <glyph glyph-name="Iogonek" unicode="&#x12e;" horiz-adv-x="520" 
d="M72 -217q0 63 29.5 113.5t88.5 103.5h-28v1470h196v-1470h-16q-73 -64 -104 -105t-31 -83q0 -34 23 -53t59 -19q38 0 82 12v-119q-50 -14 -115 -14q-77 0 -130.5 45.5t-53.5 118.5z" />
    <glyph glyph-name="iogonek" unicode="&#x12f;" horiz-adv-x="491" 
d="M145 1257v213h201v-213h-201zM51 -217q0 63 29.5 113.5t89.5 103.5h-16v1071h184v-1071h-16q-74 -64 -105 -105t-31 -83q0 -34 23 -53t59 -19q38 0 82 12v-119q-50 -14 -114 -14q-77 0 -131 45.5t-54 118.5z" />
    <glyph glyph-name="Idotaccent" unicode="&#x130;" horiz-adv-x="520" 
d="M158 1575v213h204v-213h-204zM358 1470v-1470h-196v1470h196z" />
    <glyph glyph-name="dotlessi" unicode="&#x131;" horiz-adv-x="491" 
d="M338 1071v-1071h-184v1071h184z" />
    <glyph glyph-name="Jcircumflex" unicode="&#x134;" horiz-adv-x="847" 
d="M717 1864l239 -297h-149l-201 178l-200 -178h-150l240 297h221zM55 4v176q103 -20 187 -20q142 0 208 59t66 205v1046h197v-1060q0 -426 -449 -426q-109 0 -209 20z" />
    <glyph glyph-name="jcircumflex" unicode="&#x135;" horiz-adv-x="491" 
d="M346 1470l201 -284h-144l-157 160l-158 -160h-143l200 284h201zM154 -55v1126h184v-1159q0 -140 -80.5 -213.5t-220.5 -73.5q-53 0 -103 6v160q34 -6 72 -6q79 0 113.5 38.5t34.5 121.5z" />
    <glyph glyph-name="uni0136" unicode="&#x136;" horiz-adv-x="1316" 
d="M358 1470v-743l684 743h236l-596 -641l625 -829h-232l-524 688l-193 -207v-481h-196v1470h196zM571 -236v148h199v-125q0 -89 -61.5 -139.5t-159.5 -50.5v84q51 2 75 21t27 62h-80z" />
    <glyph glyph-name="uni0137" unicode="&#x137;" horiz-adv-x="1093" 
d="M338 1470v-899l475 500h229l-417 -422l452 -649h-215l-368 516l-156 -158v-358h-184v1470h184zM473 -236v148h199v-125q0 -89 -61.5 -139.5t-159.5 -50.5v84q51 2 75 21t27 62h-80z" />
    <glyph glyph-name="kgreenlandic" unicode="&#x138;" horiz-adv-x="1093" 
d="M338 1071v-504l479 504h225l-417 -422l452 -649h-215l-368 516l-156 -158v-358h-184v1071h184z" />
    <glyph glyph-name="Lacute" unicode="&#x139;" horiz-adv-x="1126" 
d="M186 1567l207 297h258l-317 -297h-148zM162 0v1470h196v-1298h734v-172h-930z" />
    <glyph glyph-name="lacute" unicode="&#x13a;" horiz-adv-x="491" 
d="M164 1567l207 297h258l-318 -297h-147zM338 1470v-1470h-184v1470h184z" />
    <glyph glyph-name="uni013B" unicode="&#x13b;" horiz-adv-x="1126" 
d="M162 0v1470h196v-1298h734v-172h-930zM537 -236v148h198v-125q0 -89 -61.5 -139.5t-159.5 -50.5v84q51 2 75 21t27 62h-79z" />
    <glyph glyph-name="uni013C" unicode="&#x13c;" horiz-adv-x="491" 
d="M338 1470v-1470h-184v1470h184zM150 -236v148h198v-125q0 -89 -61.5 -139.5t-159.5 -50.5v84q51 2 75 21t27 62h-79z" />
    <glyph glyph-name="Lcaron" unicode="&#x13d;" horiz-adv-x="1126" 
d="M162 0v1470h196v-1298h734v-172h-930zM711 1110l47 360h211l-133 -360h-125z" />
    <glyph glyph-name="lcaron" unicode="&#x13e;" horiz-adv-x="671" 
d="M338 1470v-1470h-184v1470h184zM463 1110l47 360h211l-133 -360h-125z" />
    <glyph glyph-name="Ldot" unicode="&#x13f;" horiz-adv-x="1126" 
d="M162 0v1470h196v-1298h734v-172h-930zM741 676v213h201v-213h-201z" />
    <glyph glyph-name="ldot" unicode="&#x140;" horiz-adv-x="745" 
d="M338 1470v-1470h-184v1470h184zM508 647v213h201v-213h-201z" />
    <glyph glyph-name="Lslash" unicode="&#x141;" horiz-adv-x="1155" 
d="M182 0v532l-137 -59v168l137 59v770h197v-684l350 154v-168l-350 -154v-446h733v-172h-930z" />
    <glyph glyph-name="lslash" unicode="&#x142;" horiz-adv-x="604" 
d="M561 895l-166 -109v-786h-184v686l-168 -108v178l168 106v608h184v-505l166 108v-178z" />
    <glyph glyph-name="Nacute" unicode="&#x143;" horiz-adv-x="1484" 
d="M606 1567l207 297h258l-317 -297h-148zM1323 1470v-1470h-170l-803 1184v-1184h-188v1470h207l764 -1136v1136h190z" />
    <glyph glyph-name="nacute" unicode="&#x144;" horiz-adv-x="1155" 
d="M500 1186l121 284h231l-207 -284h-145zM154 0v1071h184v-145q51 73 131.5 119.5t187.5 46.5q167 0 262 -105.5t95 -279.5v-707h-185v657q0 120 -54.5 191.5t-168.5 71.5q-106 0 -187 -77t-81 -204v-639h-184z" />
    <glyph glyph-name="uni0145" unicode="&#x145;" horiz-adv-x="1484" 
d="M1323 1470v-1470h-170l-803 1184v-1184h-188v1470h207l764 -1136v1136h190zM647 -236v148h199v-125q0 -89 -61.5 -139.5t-159.5 -50.5v84q51 2 75 21t27 62h-80z" />
    <glyph glyph-name="uni0146" unicode="&#x146;" horiz-adv-x="1155" 
d="M154 0v1071h184v-145q51 73 131.5 119.5t187.5 46.5q167 0 262 -105.5t95 -279.5v-707h-185v657q0 120 -54.5 191.5t-168.5 71.5q-106 0 -187 -77t-81 -204v-639h-184zM489 -236v148h199v-125q0 -89 -61.5 -139.5t-159.5 -50.5v84q51 2 75 21t27 62h-80z" />
    <glyph glyph-name="Ncaron" unicode="&#x147;" horiz-adv-x="1484" 
d="M870 1569h-221l-239 297h149l201 -178l201 178h149zM1323 1470v-1470h-170l-803 1184v-1184h-188v1470h207l764 -1136v1136h190z" />
    <glyph glyph-name="ncaron" unicode="&#x148;" horiz-adv-x="1155" 
d="M702 1186h-200l-201 284h143l158 -159l158 159h143zM154 0v1071h184v-145q51 73 131.5 119.5t187.5 46.5q167 0 262 -105.5t95 -279.5v-707h-185v657q0 120 -54.5 191.5t-168.5 71.5q-106 0 -187 -77t-81 -204v-639h-184z" />
    <glyph glyph-name="Eng" unicode="&#x14a;" horiz-adv-x="1484" 
d="M1133 1470h190v-1558q0 -140 -80.5 -213.5t-220.5 -73.5q-52 0 -104 6v160q38 -6 73 -6q78 0 112 38.5t34 121.5v78l-787 1157v-1180h-188v1470h207l764 -1130v1130z" />
    <glyph glyph-name="eng" unicode="&#x14b;" horiz-adv-x="1155" 
d="M657 1092q167 0 262 -105.5t95 -279.5v-795q0 -140 -80.5 -213.5t-220.5 -73.5q-53 0 -105 6v160q38 -6 74 -6q78 0 112.5 38.5t34.5 121.5v712q0 120 -54.5 191.5t-168.5 71.5q-106 0 -187 -77t-81 -204v-639h-184v1071h184v-145q51 73 131.5 119.5t187.5 46.5z" />
    <glyph glyph-name="Omacron" unicode="&#x14c;" horiz-adv-x="1486" 
d="M1063 1597h-639v154h639v-154zM76 735q0 166 50.5 307.5t138.5 240.5t211.5 154.5t266.5 55.5q191 0 342.5 -95t237.5 -268.5t86 -394.5t-86 -394.5t-237.5 -268.5t-342.5 -95q-143 0 -266.5 55.5t-211.5 154.5t-138.5 240.5t-50.5 307.5zM1214 735q0 260 -131.5 422
t-339.5 162t-339.5 -162t-131.5 -422t131.5 -421.5t339.5 -161.5t339.5 161.5t131.5 421.5z" />
    <glyph glyph-name="omacron" unicode="&#x14d;" horiz-adv-x="1155" 
d="M858 1241h-561v148h561v-148zM1075 535q0 -248 -138.5 -403t-358.5 -155t-359 155t-139 403t139 402.5t359 154.5t358.5 -154.5t138.5 -402.5zM266 535q0 -182 85.5 -291t226.5 -109t226 108.5t85 291.5q0 184 -84.5 292.5t-226.5 108.5t-227 -108.5t-85 -292.5z" />
    <glyph glyph-name="Obreve" unicode="&#x14e;" horiz-adv-x="1486" 
d="M743 1690q77 0 127 47t50 127h139q0 -136 -86.5 -218.5t-229.5 -82.5t-229 82.5t-86 218.5h139q0 -80 49.5 -127t126.5 -47zM76 735q0 166 50.5 307.5t138.5 240.5t211.5 154.5t266.5 55.5q191 0 342.5 -95t237.5 -268.5t86 -394.5t-86 -394.5t-237.5 -268.5t-342.5 -95
q-143 0 -266.5 55.5t-211.5 154.5t-138.5 240.5t-50.5 307.5zM1214 735q0 260 -131.5 422t-339.5 162t-339.5 -162t-131.5 -422t131.5 -421.5t339.5 -161.5t339.5 161.5t131.5 421.5z" />
    <glyph glyph-name="obreve" unicode="&#x14f;" horiz-adv-x="1155" 
d="M578 1309q64 0 104.5 42t40.5 119h129q0 -138 -74 -216t-200 -78t-200.5 78t-74.5 216h129q0 -77 41 -119t105 -42zM1075 535q0 -248 -138.5 -403t-358.5 -155t-359 155t-139 403t139 402.5t359 154.5t358.5 -154.5t138.5 -402.5zM266 535q0 -182 85.5 -291t226.5 -109
t226 108.5t85 291.5q0 184 -84.5 292.5t-226.5 108.5t-227 -108.5t-85 -292.5z" />
    <glyph glyph-name="Ohungarumlaut" unicode="&#x150;" horiz-adv-x="1486" 
d="M848 1567l186 297h223l-264 -297h-145zM469 1567l188 297h224l-265 -297h-147zM76 735q0 166 50.5 307.5t138.5 240.5t211.5 154.5t266.5 55.5q191 0 342.5 -95t237.5 -268.5t86 -394.5t-86 -394.5t-237.5 -268.5t-342.5 -95q-143 0 -266.5 55.5t-211.5 154.5
t-138.5 240.5t-50.5 307.5zM1214 735q0 260 -131.5 422t-339.5 162t-339.5 -162t-131.5 -422t131.5 -421.5t339.5 -161.5t339.5 161.5t131.5 421.5z" />
    <glyph glyph-name="ohungarumlaut" unicode="&#x151;" horiz-adv-x="1155" 
d="M662 1186l124 284h209l-200 -284h-133zM344 1186l125 284h209l-203 -284h-131zM1075 535q0 -248 -138.5 -403t-358.5 -155t-359 155t-139 403t139 402.5t359 154.5t358.5 -154.5t138.5 -402.5zM266 535q0 -182 85.5 -291t226.5 -109t226 108.5t85 291.5
q0 184 -84.5 292.5t-226.5 108.5t-227 -108.5t-85 -292.5z" />
    <glyph glyph-name="OE" unicode="&#x152;" horiz-adv-x="2140" 
d="M76 735q0 337 197.5 536t533.5 199h1235v-172h-766v-452h649v-172h-649v-502h766v-172h-1235q-336 0 -533.5 199t-197.5 536zM1081 1303h-274q-249 0 -393 -154.5t-144 -413.5q0 -260 144.5 -413.5t394.5 -153.5h272v1135z" />
    <glyph glyph-name="oe" unicode="&#x153;" horiz-adv-x="1918" 
d="M1395 -23q-132 0 -238.5 57.5t-171.5 160.5q-67 -103 -172 -160.5t-235 -57.5q-220 0 -359 155t-139 403t139 402.5t359 154.5q130 0 236 -58t171 -162q66 103 170 161.5t231 58.5q217 0 337 -147t120 -378v-61h-768q0 -7 -1 -20t-1 -19q17 -152 103.5 -241t218.5 -89
q107 0 180 54.5t98 150.5l162 -57q-50 -144 -166 -226t-274 -82zM266 535q0 -182 85.5 -291t226.5 -109t226 108.5t85 291.5q0 184 -84.5 292.5t-226.5 108.5t-227 -108.5t-85 -292.5zM1384 934q-118 0 -199 -75.5t-106 -211.5h578q-3 123 -72 205t-201 82z" />
    <glyph glyph-name="Racute" unicode="&#x154;" horiz-adv-x="1327" 
d="M508 1567l207 297h258l-318 -297h-147zM358 616v-616h-196v1470h561q238 0 374 -109.5t136 -316.5q0 -174 -99.5 -280.5t-277.5 -136.5l408 -627h-226l-395 616h-285zM358 786h355q157 0 241 67t84 191t-84 190t-241 66h-355v-514z" />
    <glyph glyph-name="racute" unicode="&#x155;" horiz-adv-x="757" 
d="M350 1186l121 284h231l-206 -284h-146zM709 1075v-186q-41 8 -91 8q-119 0 -199.5 -86.5t-80.5 -224.5v-586h-184v1071h184v-182q37 85 114.5 137.5t182.5 52.5q38 0 74 -4z" />
    <glyph glyph-name="uni0156" unicode="&#x156;" horiz-adv-x="1327" 
d="M358 616v-616h-196v1470h561q238 0 374 -109.5t136 -316.5q0 -174 -99.5 -280.5t-277.5 -136.5l408 -627h-226l-395 616h-285zM358 786h355q157 0 241 67t84 191t-84 190t-241 66h-355v-514zM561 -236v148h199v-125q0 -89 -61.5 -139.5t-159.5 -50.5v84q51 2 75 21t27 62
h-80z" />
    <glyph glyph-name="uni0157" unicode="&#x157;" horiz-adv-x="757" 
d="M709 1075v-186q-41 8 -91 8q-119 0 -199.5 -86.5t-80.5 -224.5v-586h-184v1071h184v-182q37 85 114.5 137.5t182.5 52.5q38 0 74 -4zM145 -236v148h199v-125q0 -89 -61.5 -139.5t-159.5 -50.5v84q51 2 75 21t27 62h-80z" />
    <glyph glyph-name="Rcaron" unicode="&#x158;" horiz-adv-x="1327" 
d="M770 1569h-221l-240 297h150l200 -178l201 178h150zM358 616v-616h-196v1470h561q238 0 374 -109.5t136 -316.5q0 -174 -99.5 -280.5t-277.5 -136.5l408 -627h-226l-395 616h-285zM358 786h355q157 0 241 67t84 191t-84 190t-241 66h-355v-514z" />
    <glyph glyph-name="rcaron" unicode="&#x159;" horiz-adv-x="757" 
d="M549 1186h-201l-201 284h144l158 -159l157 159h144zM709 1075v-186q-41 8 -91 8q-119 0 -199.5 -86.5t-80.5 -224.5v-586h-184v1071h184v-182q37 85 114.5 137.5t182.5 52.5q38 0 74 -4z" />
    <glyph glyph-name="Sacute" unicode="&#x15a;" horiz-adv-x="1202" 
d="M516 1567l207 297h258l-317 -297h-148zM8 303l154 123q69 -132 187 -205.5t261 -73.5q147 0 242.5 70.5t95.5 192.5q0 49 -21.5 87.5t-42.5 60.5t-84.5 45.5t-92 31t-120.5 29.5q-7 2 -11 3l-10 2.5t-11 2.5q-46 11 -77 19t-74 21t-72 25.5t-64 31t-58 38.5t-47 47
t-38 58t-22.5 70.5t-8.5 84.5q0 126 67.5 224t181.5 150t253 52q185 0 322 -79.5t206 -209.5l-149 -119q-128 238 -383 238q-134 0 -220.5 -67.5t-86.5 -172.5q0 -29 5.5 -53t20 -43.5t28 -34t42 -28.5t48 -22.5t60.5 -20t65 -17.5t75 -18q188 -44 260 -72q177 -70 228 -205
q24 -63 24 -143q0 -133 -73.5 -237t-194.5 -158t-267 -54q-192 0 -358 89t-240 237z" />
    <glyph glyph-name="sacute" unicode="&#x15b;" horiz-adv-x="995" 
d="M412 1186l120 284h232l-207 -284h-145zM35 227l143 105q42 -93 132 -147t196 -54q101 0 168 43.5t67 126.5q0 54 -36 86.5t-75.5 44.5t-144.5 34q-14 3 -22 5q-154 34 -216 64q-138 68 -145 217v16q0 142 111.5 233t282.5 91q141 0 252.5 -62t160.5 -160l-131 -104
q-42 82 -117 128t-174 46q-92 0 -148 -43t-56 -115q0 -29 10.5 -50t30 -35.5t47.5 -25t65 -20t79 -18.5q3 0 4 -0.5t3 -1t4 -0.5q156 -37 212 -59q146 -59 176 -180q8 -35 8 -75q0 -100 -56.5 -178.5t-151 -120t-208.5 -41.5q-153 0 -282.5 65t-188.5 185z" />
    <glyph glyph-name="Scircumflex" unicode="&#x15c;" horiz-adv-x="1202" 
d="M723 1864l240 -297h-150l-201 178l-200 -178h-150l240 297h221zM8 303l154 123q69 -132 187 -205.5t261 -73.5q147 0 242.5 70.5t95.5 192.5q0 49 -21.5 87.5t-42.5 60.5t-84.5 45.5t-92 31t-120.5 29.5q-7 2 -11 3l-10 2.5t-11 2.5q-46 11 -77 19t-74 21t-72 25.5
t-64 31t-58 38.5t-47 47t-38 58t-22.5 70.5t-8.5 84.5q0 126 67.5 224t181.5 150t253 52q185 0 322 -79.5t206 -209.5l-149 -119q-128 238 -383 238q-134 0 -220.5 -67.5t-86.5 -172.5q0 -29 5.5 -53t20 -43.5t28 -34t42 -28.5t48 -22.5t60.5 -20t65 -17.5t75 -18
q188 -44 260 -72q177 -70 228 -205q24 -63 24 -143q0 -133 -73.5 -237t-194.5 -158t-267 -54q-192 0 -358 89t-240 237z" />
    <glyph glyph-name="scircumflex" unicode="&#x15d;" horiz-adv-x="995" 
d="M602 1470l201 -284h-144l-157 160l-158 -160h-143l200 284h201zM35 227l143 105q42 -93 132 -147t196 -54q101 0 168 43.5t67 126.5q0 54 -36 86.5t-75.5 44.5t-144.5 34q-14 3 -22 5q-154 34 -216 64q-138 68 -145 217v16q0 142 111.5 233t282.5 91q141 0 252.5 -62
t160.5 -160l-131 -104q-42 82 -117 128t-174 46q-92 0 -148 -43t-56 -115q0 -29 10.5 -50t30 -35.5t47.5 -25t65 -20t79 -18.5q3 0 4 -0.5t3 -1t4 -0.5q156 -37 212 -59q146 -59 176 -180q8 -35 8 -75q0 -100 -56.5 -178.5t-151 -120t-208.5 -41.5q-153 0 -282.5 65
t-188.5 185z" />
    <glyph glyph-name="Scedilla" unicode="&#x15e;" horiz-adv-x="1202" 
d="M8 303l154 123q69 -132 187 -205.5t261 -73.5q147 0 242.5 70.5t95.5 192.5q0 49 -21.5 87.5t-42.5 60.5t-84.5 45.5t-92 31t-120.5 29.5q-7 2 -11 3l-10 2.5t-11 2.5q-46 11 -77 19t-74 21t-72 25.5t-64 31t-58 38.5t-47 47t-38 58t-22.5 70.5t-8.5 84.5q0 126 67.5 224
t181.5 150t253 52q185 0 322 -79.5t206 -209.5l-149 -119q-128 238 -383 238q-134 0 -220.5 -67.5t-86.5 -172.5q0 -29 5.5 -53t20 -43.5t28 -34t42 -28.5t48 -22.5t60.5 -20t65 -17.5t75 -18q188 -44 260 -72q177 -70 228 -205q24 -63 24 -143q0 -133 -73 -237t-192 -158
t-260 -54l-10 -32q77 -10 125.5 -51t48.5 -111q0 -77 -65.5 -124.5t-159.5 -47.5q-133 0 -203 80l70 96q54 -66 127 -66q43 0 69.5 17t26.5 51q0 27 -23 44.5t-56 25t-83 10.5l35 115q-169 19 -307 104t-203 215z" />
    <glyph glyph-name="scedilla" unicode="&#x15f;" horiz-adv-x="995" 
d="M35 227l143 105q42 -93 132 -147t196 -54q101 0 168 43.5t67 126.5q0 54 -36 86.5t-75.5 44.5t-144.5 34q-14 3 -22 5q-154 34 -216 64q-138 68 -145 217v16q0 142 111.5 233t282.5 91q141 0 252.5 -62t160.5 -160l-131 -104q-42 82 -117 128t-174 46q-92 0 -148 -43
t-56 -115q0 -29 10.5 -50t30 -35.5t47.5 -25t65 -20t79 -18.5q3 0 4 -0.5t3 -1t4 -0.5q156 -37 212 -59q146 -59 176 -180q8 -35 8 -75q0 -100 -56.5 -178.5t-151 -120t-208.5 -41.5h-4l-10 -32q77 -10 125.5 -51t48.5 -111q0 -77 -66 -124.5t-160 -47.5q-132 0 -202 80
l69 96q54 -66 127 -66q43 0 69.5 17t26.5 51q0 27 -22.5 44.5t-55.5 25t-83 10.5l34 117q-124 20 -221.5 81t-146.5 160z" />
    <glyph glyph-name="Scaron" unicode="&#x160;" horiz-adv-x="1202" 
d="M721 1569h-221l-240 297h150l200 -178l201 178h150zM8 303l154 123q69 -132 187 -205.5t261 -73.5q147 0 242.5 70.5t95.5 192.5q0 49 -21.5 87.5t-42.5 60.5t-84.5 45.5t-92 31t-120.5 29.5q-7 2 -11 3l-10 2.5t-11 2.5q-46 11 -77 19t-74 21t-72 25.5t-64 31t-58 38.5
t-47 47t-38 58t-22.5 70.5t-8.5 84.5q0 126 67.5 224t181.5 150t253 52q185 0 322 -79.5t206 -209.5l-149 -119q-128 238 -383 238q-134 0 -220.5 -67.5t-86.5 -172.5q0 -29 5.5 -53t20 -43.5t28 -34t42 -28.5t48 -22.5t60.5 -20t65 -17.5t75 -18q188 -44 260 -72
q177 -70 228 -205q24 -63 24 -143q0 -133 -73.5 -237t-194.5 -158t-267 -54q-192 0 -358 89t-240 237z" />
    <glyph glyph-name="scaron" unicode="&#x161;" horiz-adv-x="995" 
d="M608 1186h-200l-201 284h143l158 -159l158 159h143zM35 227l143 105q42 -93 132 -147t196 -54q101 0 168 43.5t67 126.5q0 54 -36 86.5t-75.5 44.5t-144.5 34q-14 3 -22 5q-154 34 -216 64q-138 68 -145 217v16q0 142 111.5 233t282.5 91q141 0 252.5 -62t160.5 -160
l-131 -104q-42 82 -117 128t-174 46q-92 0 -148 -43t-56 -115q0 -29 10.5 -50t30 -35.5t47.5 -25t65 -20t79 -18.5q3 0 4 -0.5t3 -1t4 -0.5q156 -37 212 -59q146 -59 176 -180q8 -35 8 -75q0 -100 -56.5 -178.5t-151 -120t-208.5 -41.5q-153 0 -282.5 65t-188.5 185z" />
    <glyph glyph-name="Tcommaaccent" unicode="&#x162;" horiz-adv-x="1261" 
d="M829 -217q0 -77 -65.5 -124.5t-159.5 -47.5q-133 0 -203 80l70 96q54 -66 127 -66q43 0 69.5 17t26.5 51q0 27 -23 44.5t-56 25t-83 10.5l39 131h-39v1298h-497v172h1192v-172h-498v-1298h-57l-17 -55q77 -10 125.5 -51t48.5 -111z" />
    <glyph glyph-name="tcommaaccent" unicode="&#x163;" horiz-adv-x="698" 
d="M182 256v657h-166v158h166v313h183v-313h243v-158h-243v-628q0 -79 35.5 -106t113.5 -27q65 0 117 12v-158q-75 -16 -162 -16h-14l-15 -45q77 -10 125.5 -51t48.5 -111q0 -77 -65.5 -124.5t-159.5 -47.5q-133 0 -203 80l70 96q54 -66 127 -66q43 0 69.5 17t26.5 51
q0 27 -23 44.5t-56 25t-83 10.5l39 131q-87 19 -130.5 80t-43.5 176z" />
    <glyph glyph-name="Tcaron" unicode="&#x164;" horiz-adv-x="1261" 
d="M741 1569h-221l-239 297h149l201 -178l200 178h150zM1227 1298h-498v-1298h-197v1298h-497v172h1192v-172z" />
    <glyph glyph-name="tcaron" unicode="&#x165;" horiz-adv-x="698" 
d="M453 1178l47 360h211l-133 -360h-125zM182 256v657h-166v158h166v313h183v-313h243v-158h-243v-628q0 -79 35.5 -106t113.5 -27q65 0 117 12v-158q-75 -16 -162 -16q-144 0 -215.5 59.5t-71.5 206.5z" />
    <glyph glyph-name="Tbar" unicode="&#x166;" horiz-adv-x="1261" 
d="M961 672h-232v-672h-197v672h-231v172h231v454h-497v172h1192v-172h-498v-454h232v-172z" />
    <glyph glyph-name="tbar" unicode="&#x167;" horiz-adv-x="741" 
d="M209 254v272h-178v158h178v229h-178v158h178v313h182v-313h252v-158h-252v-229h252v-158h-252v-235q0 -78 39 -105.5t117 -27.5q65 0 125 14v-166q-74 -18 -170 -18q-145 0 -219 59.5t-74 206.5z" />
    <glyph glyph-name="Utilde" unicode="&#x168;" horiz-adv-x="1427" 
d="M567 1853q43 0 85.5 -20.5t70.5 -45t62 -45t63 -20.5q84 0 102 133h129q-9 -133 -67.5 -209.5t-153.5 -76.5q-44 0 -86.5 21t-70 45.5t-61 45.5t-62.5 21q-85 0 -103 -133h-129q8 133 66.5 208.5t154.5 75.5zM713 -20q-126 0 -230.5 37.5t-182.5 110.5t-121.5 189
t-43.5 265v888h197v-882q0 -217 103.5 -324.5t277.5 -107.5q176 0 279.5 107.5t103.5 324.5v882h196v-888q0 -149 -43 -265t-121.5 -189t-183 -110.5t-231.5 -37.5z" />
    <glyph glyph-name="utilde" unicode="&#x169;" horiz-adv-x="1155" 
d="M442 1473q39 0 76 -20.5t61.5 -45.5t53.5 -45.5t53 -20.5q40 0 60.5 32t29.5 100h121q-9 -129 -61.5 -203t-137.5 -74q-39 0 -76 20t-61 44.5t-53 44.5t-53 20q-39 0 -59.5 -31.5t-28.5 -97.5h-121q8 130 59 203.5t137 73.5zM1004 1071v-1071h-185v147
q-51 -75 -131 -122.5t-186 -47.5q-169 0 -264 105.5t-95 279.5v709h185v-670q0 -119 54.5 -186.5t168.5 -67.5q107 0 187.5 76t80.5 203v645h185z" />
    <glyph glyph-name="Umacron" unicode="&#x16a;" horiz-adv-x="1427" 
d="M1032 1597h-639v154h639v-154zM713 -20q-126 0 -230.5 37.5t-182.5 110.5t-121.5 189t-43.5 265v888h197v-882q0 -217 103.5 -324.5t277.5 -107.5q176 0 279.5 107.5t103.5 324.5v882h196v-888q0 -149 -43 -265t-121.5 -189t-183 -110.5t-231.5 -37.5z" />
    <glyph glyph-name="umacron" unicode="&#x16b;" horiz-adv-x="1155" 
d="M852 1241h-561v148h561v-148zM1004 1071v-1071h-185v147q-51 -75 -131 -122.5t-186 -47.5q-169 0 -264 105.5t-95 279.5v709h185v-670q0 -119 54.5 -186.5t168.5 -67.5q107 0 187.5 76t80.5 203v645h185z" />
    <glyph glyph-name="Ubreve" unicode="&#x16c;" horiz-adv-x="1427" 
d="M713 1690q77 0 126.5 47t49.5 127h139q0 -136 -86 -218.5t-229 -82.5t-229.5 82.5t-86.5 218.5h140q0 -80 49.5 -127t126.5 -47zM713 -20q-126 0 -230.5 37.5t-182.5 110.5t-121.5 189t-43.5 265v888h197v-882q0 -217 103.5 -324.5t277.5 -107.5q176 0 279.5 107.5
t103.5 324.5v882h196v-888q0 -149 -43 -265t-121.5 -189t-183 -110.5t-231.5 -37.5z" />
    <glyph glyph-name="ubreve" unicode="&#x16d;" horiz-adv-x="1155" 
d="M571 1309q64 0 105 42t41 119h129q0 -138 -74.5 -216t-200.5 -78t-200 78t-74 216h129q0 -77 40.5 -119t104.5 -42zM1004 1071v-1071h-185v147q-51 -75 -131 -122.5t-186 -47.5q-169 0 -264 105.5t-95 279.5v709h185v-670q0 -119 54.5 -186.5t168.5 -67.5q107 0 187.5 76
t80.5 203v645h185z" />
    <glyph glyph-name="Uring" unicode="&#x16e;" horiz-adv-x="1427" 
d="M473 1724q0 97 69.5 164.5t170.5 67.5q102 0 170.5 -67.5t68.5 -164.5q0 -96 -68.5 -164.5t-170.5 -68.5q-101 0 -170.5 68.5t-69.5 164.5zM598 1724q0 -51 33.5 -83.5t81.5 -32.5t81 32.5t33 83.5q0 50 -33 83.5t-81 33.5t-81.5 -33.5t-33.5 -83.5zM713 -20
q-126 0 -230.5 37.5t-182.5 110.5t-121.5 189t-43.5 265v888h197v-882q0 -217 103.5 -324.5t277.5 -107.5q176 0 279.5 107.5t103.5 324.5v882h196v-888q0 -149 -43 -265t-121.5 -189t-183 -110.5t-231.5 -37.5z" />
    <glyph glyph-name="uring" unicode="&#x16f;" horiz-adv-x="1155" 
d="M365 1366q0 83 59 141t147 58t147.5 -58t59.5 -141q0 -85 -59 -144t-148 -59t-147.5 58.5t-58.5 144.5zM469 1366q0 -43 30 -74.5t72 -31.5t72.5 31.5t30.5 74.5q0 40 -30.5 71t-72.5 31t-72 -31t-30 -71zM1004 1071v-1071h-185v147q-51 -75 -131 -122.5t-186 -47.5
q-169 0 -264 105.5t-95 279.5v709h185v-670q0 -119 54.5 -186.5t168.5 -67.5q107 0 187.5 76t80.5 203v645h185z" />
    <glyph glyph-name="Uhungarumlaut" unicode="&#x170;" horiz-adv-x="1427" 
d="M807 1567l186 297h224l-265 -297h-145zM428 1567l188 297h224l-265 -297h-147zM713 -20q-126 0 -230.5 37.5t-182.5 110.5t-121.5 189t-43.5 265v888h197v-882q0 -217 103.5 -324.5t277.5 -107.5q176 0 279.5 107.5t103.5 324.5v882h196v-888q0 -149 -43 -265
t-121.5 -189t-183 -110.5t-231.5 -37.5z" />
    <glyph glyph-name="uhungarumlaut" unicode="&#x171;" horiz-adv-x="1155" 
d="M666 1186l125 284h208l-200 -284h-133zM348 1186l125 284h209l-203 -284h-131zM1004 1071v-1071h-185v147q-51 -75 -131 -122.5t-186 -47.5q-169 0 -264 105.5t-95 279.5v709h185v-670q0 -119 54.5 -186.5t168.5 -67.5q107 0 187.5 76t80.5 203v645h185z" />
    <glyph glyph-name="Uogonek" unicode="&#x172;" horiz-adv-x="1427" 
d="M629 -217q0 104 96 197h-12q-126 0 -230.5 37.5t-182.5 110.5t-121.5 189t-43.5 265v888h197v-882q0 -217 103.5 -324.5t277.5 -107.5q176 0 279.5 107.5t103.5 324.5v882h196v-888q0 -236 -104 -382.5t-285 -195.5q-75 -66 -107 -108t-32 -84q0 -34 23 -53t59 -19
q38 0 82 12v-119q-50 -14 -115 -14q-77 0 -130.5 45.5t-53.5 118.5z" />
    <glyph glyph-name="uogonek" unicode="&#x173;" horiz-adv-x="1155" 
d="M686 -217q0 66 33 119.5t100 109.5v135q-51 -75 -131 -122.5t-186 -47.5q-169 0 -264 105.5t-95 279.5v709h185v-670q0 -119 54.5 -186.5t168.5 -67.5q107 0 187.5 76t80.5 203v645h185v-1071h-48q-73 -64 -104 -105t-31 -83q0 -34 23 -53t59 -19q38 0 82 12v-119
q-50 -14 -115 -14q-77 0 -130.5 45.5t-53.5 118.5z" />
    <glyph glyph-name="Wcircumflex" unicode="&#x174;" horiz-adv-x="1886" 
d="M1053 1864l239 -297h-149l-201 178l-201 -178h-149l239 297h222zM858 1470h174l311 -1177l314 1177h194l-403 -1470h-193l-313 1145l-311 -1145h-193l-405 1470h203l313 -1177z" />
    <glyph glyph-name="wcircumflex" unicode="&#x175;" horiz-adv-x="1474" 
d="M846 1470l201 -284h-144l-158 160l-157 -160h-144l201 284h201zM664 1071h155l221 -799l224 799h184l-326 -1071h-161l-224 795l-223 -795h-162l-325 1071h190l225 -797z" />
    <glyph glyph-name="Ycircumflex" unicode="&#x176;" horiz-adv-x="1282" 
d="M750 1864l239 -297h-149l-201 178l-201 -178h-149l239 297h222zM643 797l420 673h209l-533 -852v-618h-196v618l-533 852h213z" />
    <glyph glyph-name="ycircumflex" unicode="&#x177;" horiz-adv-x="1038" 
d="M621 1470l200 -284h-143l-158 160l-158 -160h-143l201 284h201zM551 -117q-50 -132 -125 -198t-207 -66q-56 0 -100 8v160q44 -10 88 -10q62 0 98 28.5t68 106.5l51 127l-397 1032h194l301 -819l297 819h193z" />
    <glyph glyph-name="Ydieresis" unicode="&#x178;" horiz-adv-x="1282" 
d="M354 1575v213h205v-213h-205zM719 1575v213h205v-213h-205zM643 797l420 673h209l-533 -852v-618h-196v618l-533 852h213z" />
    <glyph glyph-name="Zacute" unicode="&#x179;" horiz-adv-x="1269" 
d="M504 1567l207 297h258l-318 -297h-147zM1198 172v-172h-1120v152l864 1146h-854v172h1102v-151l-864 -1147h872z" />
    <glyph glyph-name="zacute" unicode="&#x17a;" horiz-adv-x="1013" 
d="M403 1186l121 284h232l-207 -284h-146zM928 158v-158h-844v139l618 774h-610v158h830v-141l-607 -772h613z" />
    <glyph glyph-name="Zdotaccent" unicode="&#x17b;" horiz-adv-x="1269" 
d="M543 1575v213h205v-213h-205zM1198 172v-172h-1120v152l864 1146h-854v172h1102v-151l-864 -1147h872z" />
    <glyph glyph-name="zdotaccent" unicode="&#x17c;" horiz-adv-x="1013" 
d="M399 1257v213h201v-213h-201zM928 158v-158h-844v139l618 774h-610v158h830v-141l-607 -772h613z" />
    <glyph glyph-name="Zcaron" unicode="&#x17d;" horiz-adv-x="1269" 
d="M762 1569h-221l-240 297h150l200 -178l201 178h149zM1198 172v-172h-1120v152l864 1146h-854v172h1102v-151l-864 -1147h872z" />
    <glyph glyph-name="zcaron" unicode="&#x17e;" horiz-adv-x="1013" 
d="M610 1186h-200l-201 284h143l158 -159l158 159h143zM928 158v-158h-844v139l618 774h-610v158h830v-141l-607 -772h613z" />
    <glyph glyph-name="florin" unicode="&#x192;" horiz-adv-x="1122" 
d="M602 365q-25 -189 -120.5 -288.5t-250.5 -99.5q-144 0 -237 93l76 135q26 -32 63.5 -52t77.5 -20q160 0 199 236l55 366h-213v135h233l35 236q28 189 123 288t250 99q143 0 235 -92l-73 -135q-56 69 -142 69q-162 0 -198 -233l-35 -232h246v-135h-267z" />
    <glyph glyph-name="AEacute" unicode="&#x1fc;" horiz-adv-x="2107" 
d="M1393 1567l206 297h259l-318 -297h-147zM940 1470h1071v-172h-768v-452h649v-172h-649v-502h768v-172h-960v399h-570l-248 -399h-213zM590 571h461v742z" />
    <glyph glyph-name="aeacute" unicode="&#x1fd;" horiz-adv-x="1755" 
d="M795 1186l120 284h232l-207 -284h-145zM561 647h178v82q0 201 -215 201q-204 0 -243 -193l-175 47q34 140 148 224t278 84q248 0 334 -170q66 80 157.5 125t199.5 45q145 0 249.5 -70t154.5 -187t50 -268v-61h-772q7 -168 96.5 -268.5t229.5 -100.5q107 0 180 54.5
t98 150.5l160 -57q-48 -143 -163.5 -225.5t-274.5 -82.5q-130 0 -235 57.5t-171 160.5q-54 -97 -158 -155t-239 -58q-152 0 -255 84t-103 227q0 116 64.5 197t173.5 119t253 38zM1221 934q-118 0 -199.5 -76t-106.5 -211h576q-2 123 -70 205t-200 82zM455 133q122 0 203 78
t81 195v100h-174q-151 0 -232 -45.5t-81 -155.5q0 -81 55 -126.5t148 -45.5z" />
    <glyph glyph-name="Oslashacute" unicode="&#x1fe;" horiz-adv-x="1486" 
d="M621 1567l206 297h258l-317 -297h-147zM96 49l142 172q-162 208 -162 514q0 166 50.5 307.5t138.5 240.5t211.5 154.5t266.5 55.5q242 0 420 -154l121 146l115 -92l-135 -164q145 -203 145 -494q0 -221 -86 -394.5t-237.5 -268.5t-342.5 -95q-227 0 -401 138l-131 -158z
M272 735q0 -209 90 -364l685 827q-124 121 -304 121q-208 0 -339.5 -162t-131.5 -422zM1214 735q0 195 -77 340l-678 -819q119 -104 284 -104q208 0 339.5 161.5t131.5 421.5z" />
    <glyph glyph-name="oslashacute" unicode="&#x1ff;" horiz-adv-x="1155" 
d="M494 1186l120 284h232l-207 -284h-145zM80 535q0 248 139 402.5t359 154.5q161 0 286 -91l86 107l109 -86l-94 -119q110 -148 110 -368q0 -248 -138.5 -403t-358.5 -155q-160 0 -285 89l-86 -109l-109 86l97 119q-115 149 -115 373zM266 535q0 -131 45 -226l451 563
q-80 64 -184 64q-142 0 -227 -108.5t-85 -292.5zM889 535q0 131 -43 221l-449 -559q74 -62 181 -62q141 0 226 108.5t85 291.5z" />
    <glyph glyph-name="uni0218" unicode="&#x218;" horiz-adv-x="1202" 
d="M8 303l154 123q69 -132 187 -205.5t261 -73.5q147 0 242.5 70.5t95.5 192.5q0 49 -21.5 87.5t-42.5 60.5t-84.5 45.5t-92 31t-120.5 29.5q-7 2 -11 3l-10 2.5t-11 2.5q-46 11 -77 19t-74 21t-72 25.5t-64 31t-58 38.5t-47 47t-38 58t-22.5 70.5t-8.5 84.5q0 126 67.5 224
t181.5 150t253 52q185 0 322 -79.5t206 -209.5l-149 -119q-128 238 -383 238q-134 0 -220.5 -67.5t-86.5 -172.5q0 -29 5.5 -53t20 -43.5t28 -34t42 -28.5t48 -22.5t60.5 -20t65 -17.5t75 -18q188 -44 260 -72q177 -70 228 -205q24 -63 24 -143q0 -133 -73.5 -237
t-194.5 -158t-267 -54q-192 0 -358 89t-240 237zM510 -236v148h199v-125q0 -89 -62 -139.5t-160 -50.5v84q51 2 75.5 21t27.5 62h-80z" />
    <glyph glyph-name="uni0219" unicode="&#x219;" horiz-adv-x="995" 
d="M35 227l143 105q42 -93 132 -147t196 -54q101 0 168 43.5t67 126.5q0 54 -36 86.5t-75.5 44.5t-144.5 34q-14 3 -22 5q-154 34 -216 64q-138 68 -145 217v16q0 142 111.5 233t282.5 91q141 0 252.5 -62t160.5 -160l-131 -104q-42 82 -117 128t-174 46q-92 0 -148 -43
t-56 -115q0 -29 10.5 -50t30 -35.5t47.5 -25t65 -20t79 -18.5q3 0 4 -0.5t3 -1t4 -0.5q156 -37 212 -59q146 -59 176 -180q8 -35 8 -75q0 -100 -56.5 -178.5t-151 -120t-208.5 -41.5q-153 0 -282.5 65t-188.5 185zM406 -236v148h198v-125q0 -89 -61.5 -139.5t-159.5 -50.5
v84q51 2 75 21t27 62h-79z" />
    <glyph glyph-name="uni021A" unicode="&#x21a;" horiz-adv-x="1261" 
d="M1227 1298h-498v-1298h-197v1298h-497v172h1192v-172zM530 -236v148h199v-125q0 -89 -61.5 -139.5t-159.5 -50.5v84q51 2 75 21t27 62h-80z" />
    <glyph glyph-name="uni021B" unicode="&#x21b;" horiz-adv-x="698" 
d="M182 256v657h-166v158h166v313h183v-313h243v-158h-243v-628q0 -79 35.5 -106t113.5 -27q65 0 117 12v-158q-75 -16 -162 -16q-144 0 -215.5 59.5t-71.5 206.5zM322 -236v148h198v-125q0 -89 -61.5 -139.5t-159.5 -50.5v84q51 2 75 21t27 62h-79z" />
    <glyph glyph-name="uni0237" unicode="&#x237;" horiz-adv-x="491" 
d="M154 -55v1126h184v-1159q0 -140 -80.5 -213.5t-220.5 -73.5q-53 0 -103 6v160q34 -6 72 -6q79 0 113.5 38.5t34.5 121.5z" />
    <glyph glyph-name="circumflex" unicode="&#x2c6;" horiz-adv-x="1228" 
d="M715 1470l200 -284h-143l-158 160l-157 -160h-144l201 284h201z" />
    <glyph glyph-name="caron" unicode="&#x2c7;" horiz-adv-x="1228" 
d="M715 1186h-201l-201 284h144l157 -159l158 159h143z" />
    <glyph glyph-name="breve" unicode="&#x2d8;" horiz-adv-x="1228" 
d="M614 1309q64 0 105 42t41 119h129q0 -138 -74.5 -216t-200.5 -78t-200 78t-74 216h129q0 -77 40.5 -119t104.5 -42z" />
    <glyph glyph-name="dotaccent" unicode="&#x2d9;" horiz-adv-x="1228" 
d="M514 1257v213h201v-213h-201z" />
    <glyph glyph-name="ring" unicode="&#x2da;" horiz-adv-x="1228" 
d="M408 1366q0 83 59 141t147 58t147.5 -58t59.5 -141q0 -85 -59 -144t-148 -59q-88 0 -147 58.5t-59 144.5zM512 1366q0 -43 30 -74.5t72 -31.5t72.5 31.5t30.5 74.5q0 40 -30.5 71t-72.5 31t-72 -31t-30 -71z" />
    <glyph glyph-name="ogonek" unicode="&#x2db;" horiz-adv-x="1228" 
d="M457 -217q0 45 15 84t47.5 76t68.5 67.5t94 71.5l57 -72q-81 -69 -114 -112t-33 -86q0 -34 23 -53t59 -19q38 0 82 12v-119q-50 -14 -115 -14q-77 0 -130.5 45.5t-53.5 118.5z" />
    <glyph glyph-name="tilde" unicode="&#x2dc;" horiz-adv-x="1228" 
d="M485 1473q39 0 76 -20.5t61.5 -45.5t53.5 -45.5t53 -20.5q40 0 60.5 32t29.5 100h121q-9 -129 -61.5 -203t-137.5 -74q-39 0 -76 20t-61 44.5t-53 44.5t-53 20q-39 0 -59.5 -31.5t-28.5 -97.5h-121q8 130 59 203.5t137 73.5z" />
    <glyph glyph-name="hungarumlaut" unicode="&#x2dd;" horiz-adv-x="1228" 
d="M602 1186l125 284h209l-201 -284h-133zM285 1186l125 284h208l-202 -284h-131z" />
    <glyph glyph-name="gravecmb" unicode="&#x300;" horiz-adv-x="0" 
d="M176 1186h-145l-207 284h231z" />
    <glyph glyph-name="acutecmb" unicode="&#x301;" horiz-adv-x="0" 
d="M-176 1186l121 284h231l-207 -284h-145z" />
    <glyph glyph-name="circumflexcmb" unicode="&#x302;" horiz-adv-x="0" 
d="M100 1470l201 -284h-143l-158 160l-158 -160h-143l201 284h200z" />
    <glyph glyph-name="tildecmb" unicode="&#x303;" horiz-adv-x="0" 
d="M-129 1473q39 0 76 -20.5t61.5 -45.5t53.5 -45.5t53 -20.5q40 0 60.5 32t29.5 100h121q-9 -129 -61.5 -203t-137.5 -74q-39 0 -76 20t-61.5 44.5t-53.5 44.5t-53 20q-39 0 -59.5 -31.5t-28.5 -97.5h-121q8 130 59.5 203.5t137.5 73.5z" />
    <glyph glyph-name="macroncmb" unicode="&#x304;" horiz-adv-x="0" 
d="M281 1241h-562v148h562v-148z" />
    <glyph glyph-name="brevecmb" unicode="&#x306;" horiz-adv-x="0" 
d="M0 1309q64 0 104.5 42t40.5 119h129q0 -138 -74 -216t-200 -78t-200 78t-74 216h129q0 -77 40.5 -119t104.5 -42z" />
    <glyph glyph-name="dotaccentcmb" unicode="&#x307;" horiz-adv-x="0" 
d="M-100 1257v213h200v-213h-200z" />
    <glyph glyph-name="dieresiscmb" unicode="&#x308;" horiz-adv-x="0" 
d="M-279 1249v213h205v-213h-205zM74 1249v213h205v-213h-205z" />
    <glyph glyph-name="ringcmb" unicode="&#x30a;" horiz-adv-x="0" 
d="M-207 1366q0 83 59.5 141t147.5 58t147.5 -58t59.5 -141q0 -85 -59 -144t-148 -59t-148 59t-59 144zM-102 1366q0 -43 30 -74.5t72 -31.5t72 31.5t30 74.5q0 40 -30 71t-72 31t-72 -31t-30 -71z" />
    <glyph glyph-name="hungarumlautcmb" unicode="&#x30b;" horiz-adv-x="0" 
d="M-8 1186l125 284h209l-201 -284h-133zM-326 1186l125 284h209l-203 -284h-131z" />
    <glyph glyph-name="caroncmb" unicode="&#x30c;" horiz-adv-x="0" 
d="M100 1186h-200l-201 284h143l158 -159l158 159h143z" />
    <glyph glyph-name="commaturncmb" unicode="&#x312;" horiz-adv-x="0" 
d="M88 1333v-147h-199v125q0 89 62 139.5t160 50.5v-84q-51 -2 -75.5 -21.5t-27.5 -62.5h80z" />
    <glyph glyph-name="commaaccentcmb" unicode="&#x326;" horiz-adv-x="0" 
d="M-88 -236v148h199v-125q0 -89 -62 -139.5t-160 -50.5v84q51 2 75.5 21t27.5 62h-80z" />
    <glyph glyph-name="cedillacmb" unicode="&#x327;" horiz-adv-x="0" 
d="M214 -217q0 -77 -65.5 -124.5t-159.5 -47.5q-133 0 -203 80l70 96q54 -66 127 -66q43 0 69.5 17t26.5 51q0 27 -23 44.5t-56 25t-83 10.5l45 151h100l-22 -75q77 -10 125.5 -51t48.5 -111z" />
    <glyph glyph-name="ogonekcmb" unicode="&#x328;" horiz-adv-x="0" 
d="M-150 -217q0 85 54 150t172 149l57 -72q-81 -69 -114 -112t-33 -86q0 -34 23 -53t59 -19q38 0 82 12v-119q-50 -14 -115 -14q-77 0 -131 45.5t-54 118.5z" />
    <glyph glyph-name="baht" unicode="&#xe3f;" horiz-adv-x="1323" 
d="M162 0v1470h440v207h150v-207q216 -7 329 -105.5t113 -277.5q0 -130 -64.5 -208.5t-162.5 -112.5q128 -34 202 -128.5t74 -231.5q0 -191 -128.5 -298.5t-352.5 -107.5h-10v-209h-150v209h-440zM342 836h260v473h-260v-473zM1022 1071q0 110 -69.5 170t-200.5 68v-473
q131 8 200.5 67.5t69.5 167.5zM342 676v-514h260v514h-260zM768 676h-16v-514h16q144 0 222.5 70.5t78.5 187.5q0 116 -78.5 186t-222.5 70z" />
    <glyph glyph-name="Wgrave" unicode="&#x1e80;" horiz-adv-x="1886" 
d="M1028 1567h-147l-318 297h258zM858 1470h174l311 -1177l314 1177h194l-403 -1470h-193l-313 1145l-311 -1145h-193l-405 1470h203l313 -1177z" />
    <glyph glyph-name="wgrave" unicode="&#x1e81;" horiz-adv-x="1474" 
d="M805 1186h-146l-206 284h231zM664 1071h155l221 -799l224 799h184l-326 -1071h-161l-224 795l-223 -795h-162l-325 1071h190l225 -797z" />
    <glyph glyph-name="Wacute" unicode="&#x1e82;" horiz-adv-x="1886" 
d="M850 1567l207 297h258l-318 -297h-147zM858 1470h174l311 -1177l314 1177h194l-403 -1470h-193l-313 1145l-311 -1145h-193l-405 1470h203l313 -1177z" />
    <glyph glyph-name="wacute" unicode="&#x1e83;" horiz-adv-x="1474" 
d="M688 1186l121 284h231l-206 -284h-146zM664 1071h155l221 -799l224 799h184l-326 -1071h-161l-224 795l-223 -795h-162l-325 1071h190l225 -797z" />
    <glyph glyph-name="Wdieresis" unicode="&#x1e84;" horiz-adv-x="1886" 
d="M657 1575v213h205v-213h-205zM1022 1575v213h205v-213h-205zM858 1470h174l311 -1177l314 1177h194l-403 -1470h-193l-313 1145l-311 -1145h-193l-405 1470h203l313 -1177z" />
    <glyph glyph-name="wdieresis" unicode="&#x1e85;" horiz-adv-x="1474" 
d="M467 1249v213h205v-213h-205zM819 1249v213h205v-213h-205zM664 1071h155l221 -799l224 799h184l-326 -1071h-161l-224 795l-223 -795h-162l-325 1071h190l225 -797z" />
    <glyph glyph-name="Germandbls" unicode="&#x1e9e;" horiz-adv-x="1480" 
d="M1438 451q0 -141 -70 -251t-182.5 -166.5t-245.5 -56.5q-147 0 -266 64t-189 184l136 125q50 -98 134 -153.5t187 -55.5q130 0 219.5 82t89.5 223q0 151 -114 234.5t-316 83.5h-71v127l329 409h-721v-1300h-196v1470h1136v-159l-323 -396q207 -22 335 -144.5t128 -319.5z
" />
    <glyph glyph-name="Ygrave" unicode="&#x1ef2;" horiz-adv-x="1282" 
d="M774 1567h-147l-318 297h258zM643 797l420 673h209l-533 -852v-618h-196v618l-533 852h213z" />
    <glyph glyph-name="ygrave" unicode="&#x1ef3;" horiz-adv-x="1038" 
d="M614 1186h-145l-207 284h232zM551 -117q-50 -132 -125 -198t-207 -66q-56 0 -100 8v160q44 -10 88 -10q62 0 98 28.5t68 106.5l51 127l-397 1032h194l301 -819l297 819h193z" />
    <glyph glyph-name="thinspace" unicode="&#x2009;" horiz-adv-x="204" 
 />
    <glyph glyph-name="endash" unicode="&#x2013;" horiz-adv-x="1153" 
d="M104 522v152h947v-152h-947z" />
    <glyph glyph-name="emdash" unicode="&#x2014;" horiz-adv-x="2041" 
d="M104 522v152h1835v-152h-1835z" />
    <glyph glyph-name="quoteleft" unicode="&#x2018;" horiz-adv-x="393" 
d="M311 1196v-238h-233v252q0 117 71.5 187t194.5 73v-106q-139 -12 -139 -145v-23h106z" />
    <glyph glyph-name="quoteright" unicode="&#x2019;" horiz-adv-x="393" 
d="M82 1233v237h233v-251q0 -117 -71.5 -187.5t-194.5 -73.5v107q139 12 139 145v23h-106z" />
    <glyph glyph-name="quotesinglbase" unicode="&#x201a;" horiz-adv-x="393" 
d="M82 23v237h233v-252q0 -117 -71.5 -187t-194.5 -73v107q139 12 139 145v23h-106z" />
    <glyph glyph-name="quotedblleft" unicode="&#x201c;" horiz-adv-x="749" 
d="M311 1196v-238h-233v252q0 117 71.5 187t194.5 73v-106q-139 -12 -139 -145v-23h106zM668 1196v-238h-234v252q0 117 71.5 187t194.5 73v-106q-139 -12 -139 -145v-23h107z" />
    <glyph glyph-name="quotedblright" unicode="&#x201d;" horiz-adv-x="749" 
d="M438 1233v237h234v-251q0 -117 -71.5 -187.5t-194.5 -73.5v107q139 12 139 145v23h-107zM82 1233v237h233v-251q0 -117 -71.5 -187.5t-194.5 -73.5v107q139 12 139 145v23h-106z" />
    <glyph glyph-name="quotedblbase" unicode="&#x201e;" horiz-adv-x="749" 
d="M438 23v237h234v-252q0 -117 -71.5 -187t-194.5 -73v107q139 12 139 145v23h-107zM82 23v237h233v-252q0 -117 -71.5 -187t-194.5 -73v107q139 12 139 145v23h-106z" />
    <glyph glyph-name="dagger" unicode="&#x2020;" horiz-adv-x="790" 
d="M322 604v502h-267v149h267v256h147v-256h266v-149h-266v-502h-147z" />
    <glyph glyph-name="daggerdbl" unicode="&#x2021;" horiz-adv-x="790" 
d="M322 604v215h-267v142h267v196h-267v141h267v213h147v-213h266v-141h-266v-196h266v-142h-266v-215h-147z" />
    <glyph glyph-name="bullet" unicode="&#x2022;" horiz-adv-x="829" 
d="M416 909q132 0 220.5 -88t88.5 -225q0 -134 -88.5 -221.5t-220.5 -87.5t-222 87.5t-90 221.5q0 136 90 224.5t222 88.5z" />
    <glyph glyph-name="ellipsis" unicode="&#x2026;" horiz-adv-x="1284" 
d="M111 0v242h233v-242h-233zM524 0v242h234v-242h-234zM938 0v242h233v-242h-233z" />
    <glyph glyph-name="guilsinglleft" unicode="&#x2039;" horiz-adv-x="423" 
d="M55 453v184l314 281v-193l-181 -180l181 -180v-193z" />
    <glyph glyph-name="guilsinglright" unicode="&#x203a;" horiz-adv-x="423" 
d="M369 453l-314 -281v193l181 180l-181 180v193l314 -281v-184z" />
    <glyph glyph-name="fraction" unicode="&#x2044;" horiz-adv-x="382" 
d="M635 1470h162l-1047 -1470h-164z" />
    <glyph glyph-name="uni2070" unicode="&#x2070;" horiz-adv-x="778" 
d="M78 1063q0 189 82.5 304.5t226.5 115.5t226.5 -115.5t82.5 -304.5t-82.5 -304.5t-226.5 -115.5t-226.5 115.5t-82.5 304.5zM231 1063q0 -130 41.5 -206.5t114.5 -76.5q74 0 116 76.5t42 206.5q0 129 -42 206t-116 77q-73 0 -114.5 -77t-41.5 -206z" />
    <glyph glyph-name="uni2074" unicode="&#x2074;" horiz-adv-x="778" 
d="M586 655h-146v201h-385v113l336 501h195v-493h141v-121h-141v-201zM186 977h252v366z" />
    <glyph glyph-name="uni2075" unicode="&#x2075;" horiz-adv-x="778" 
d="M274 1014l-145 20l37 436h463v-131h-346l-21 -217q75 68 168 68q113 0 182.5 -74t69.5 -190q0 -121 -84.5 -202t-212.5 -81q-122 0 -205 65t-100 181l156 26q7 -64 47 -101.5t102 -37.5q63 0 105 42.5t42 105.5t-38.5 106t-100.5 43q-78 0 -119 -59z" />
    <glyph glyph-name="uni2076" unicode="&#x2076;" horiz-adv-x="778" 
d="M694 1292l-127 -49q-33 113 -143 113q-79 0 -130.5 -65.5t-51.5 -180.5q0 -35 2 -51q15 57 66.5 93t121.5 36q114 0 188 -73.5t74 -186.5q0 -123 -82 -204t-209 -81q-102 0 -174.5 56t-106.5 146.5t-34 205.5q0 194 95.5 313t242.5 119q203 0 268 -191zM551 922
q0 67 -42.5 111t-105.5 44q-65 0 -108 -44t-43 -111q0 -68 42.5 -112t106.5 -44q63 0 106.5 44.5t43.5 111.5z" />
    <glyph glyph-name="uni2077" unicode="&#x2077;" horiz-adv-x="778" 
d="M543 1341h-324v-124h-131v253h610v-129q-137 -148 -186 -305.5t-49 -380.5h-166q0 414 246 686z" />
    <glyph glyph-name="uni2078" unicode="&#x2078;" horiz-adv-x="778" 
d="M387 1483q114 0 192 -62.5t78 -165.5q0 -120 -118 -174q71 -23 115 -75t44 -123q0 -107 -88.5 -173.5t-222.5 -66.5t-222.5 66.5t-88.5 173.5q0 70 45 122.5t115 75.5q-117 55 -117 174q0 103 77 165.5t191 62.5zM387 1137q60 0 96.5 31t36.5 83t-36.5 83.5t-96.5 31.5
q-59 0 -95 -31.5t-36 -83.5t36 -83t95 -31zM387 1028q-69 0 -114.5 -37.5t-45.5 -95.5q0 -59 45 -95t115 -36t115 36t45 95q0 58 -45.5 95.5t-114.5 37.5z" />
    <glyph glyph-name="uni2079" unicode="&#x2079;" horiz-adv-x="778" 
d="M82 834l127 49q30 -113 143 -113q79 0 131 65.5t52 180.5q0 25 -3 49q-18 -57 -68.5 -92t-119.5 -35q-114 0 -188 73.5t-74 186.5q0 123 82 204t209 81q102 0 174.5 -56t106.5 -146.5t34 -205.5q0 -194 -95.5 -313t-242.5 -119q-203 0 -268 191zM225 1204
q0 -67 42.5 -112t105.5 -45q65 0 108 45t43 112q0 68 -42.5 112t-106.5 44q-63 0 -106.5 -44.5t-43.5 -111.5z" />
    <glyph glyph-name="uni2080" unicode="&#x2080;" horiz-adv-x="778" 
d="M78 162q0 189 82.5 304.5t226.5 115.5t226.5 -115.5t82.5 -304.5t-82.5 -304.5t-226.5 -115.5t-226.5 115.5t-82.5 304.5zM231 162q0 -130 41.5 -206.5t114.5 -76.5q74 0 116 76.5t42 206.5q0 129 -42 205.5t-116 76.5q-73 0 -114.5 -76.5t-41.5 -205.5z" />
    <glyph glyph-name="uni2081" unicode="&#x2081;" horiz-adv-x="778" 
d="M340 330h-205v106l86 4q78 3 113 32t45 101h117v-684h174v-135h-531v135h201v441z" />
    <glyph glyph-name="uni2082" unicode="&#x2082;" horiz-adv-x="778" 
d="M94 -121l277 219q74 59 106.5 107t32.5 106q0 59 -36.5 95t-96.5 36t-96.5 -38.5t-36.5 -96.5q0 -52 20 -88h-151q-19 55 -19 98q0 115 84 190t203 75q129 0 205 -71.5t76 -188.5q0 -89 -48.5 -162.5t-144.5 -147.5l-160 -123h371v-135h-586v125z" />
    <glyph glyph-name="uni2083" unicode="&#x2083;" horiz-adv-x="778" 
d="M395 -258q-125 0 -211 65.5t-104 186.5l158 24q7 -66 50.5 -104.5t104.5 -38.5q63 0 101 34t38 91q0 54 -41 85.5t-104 31.5h-84v112h82q58 0 96.5 29.5t38.5 79.5t-34 80.5t-91 30.5t-96.5 -36t-50.5 -96l-148 17q16 108 96.5 178t204.5 70t197.5 -65.5t73.5 -168.5
q0 -62 -42 -111t-100 -61q67 -19 110.5 -67.5t43.5 -124.5q0 -103 -79.5 -172.5t-209.5 -69.5z" />
    <glyph glyph-name="uni2084" unicode="&#x2084;" horiz-adv-x="778" 
d="M586 -246h-146v201h-385v113l336 501h195v-493h141v-121h-141v-201zM186 76h252v366z" />
    <glyph glyph-name="uni2085" unicode="&#x2085;" horiz-adv-x="778" 
d="M274 113l-145 20l37 436h463v-131h-346l-21 -217q75 68 168 68q113 0 182.5 -74t69.5 -190q0 -121 -84.5 -202t-212.5 -81q-122 0 -205 65t-100 181l156 26q7 -64 47 -101.5t102 -37.5q63 0 105 42.5t42 105.5t-38.5 106t-100.5 43q-78 0 -119 -59z" />
    <glyph glyph-name="uni2086" unicode="&#x2086;" horiz-adv-x="778" 
d="M694 391l-127 -49q-33 113 -143 113q-79 0 -130.5 -65.5t-51.5 -180.5q0 -35 2 -51q15 57 66.5 93t121.5 36q114 0 188 -73.5t74 -186.5q0 -123 -82 -204t-209 -81q-102 0 -174.5 56t-106.5 146.5t-34 205.5q0 194 95.5 313t242.5 119q203 0 268 -191zM551 20
q0 67 -42.5 111.5t-105.5 44.5q-65 0 -108 -44.5t-43 -111.5t42 -111t107 -44q64 0 107 44t43 111z" />
    <glyph glyph-name="uni2087" unicode="&#x2087;" horiz-adv-x="778" 
d="M543 440h-324v-125h-131v254h610v-129q-137 -148 -186 -305.5t-49 -380.5h-166q0 414 246 686z" />
    <glyph glyph-name="uni2088" unicode="&#x2088;" horiz-adv-x="778" 
d="M387 582q114 0 192 -62.5t78 -165.5q0 -120 -118 -174q71 -23 115 -75t44 -123q0 -107 -88.5 -173.5t-222.5 -66.5t-222.5 66.5t-88.5 173.5q0 70 45 122.5t115 75.5q-117 55 -117 174q0 103 77 165.5t191 62.5zM387 236q60 0 96.5 31t36.5 83t-36.5 83.5t-96.5 31.5
q-59 0 -95 -31.5t-36 -83.5t36 -83t95 -31zM387 127q-69 0 -114.5 -37.5t-45.5 -95.5q0 -59 45 -95t115 -36t115 36t45 95q0 58 -45.5 95.5t-114.5 37.5z" />
    <glyph glyph-name="uni2089" unicode="&#x2089;" horiz-adv-x="778" 
d="M82 -68l127 50q30 -113 143 -113q79 0 131 65.5t52 180.5q0 25 -3 49q-18 -57 -68.5 -92t-119.5 -35q-114 0 -188 73.5t-74 186.5q0 123 82 204t209 81q102 0 174.5 -56t106.5 -146.5t34 -205.5q0 -194 -95.5 -313t-242.5 -119q-204 0 -268 190zM225 303
q0 -67 42.5 -112.5t105.5 -45.5q65 0 108 45.5t43 112.5q0 68 -42.5 112t-106.5 44q-63 0 -106.5 -44.5t-43.5 -111.5z" />
    <glyph glyph-name="franc" unicode="&#x20a3;" horiz-adv-x="1251" 
d="M41 373v159h205v938h950v-172h-758v-419h641v-172h-641v-175h359v-159h-359v-373h-192v373h-205z" />
    <glyph glyph-name="naira" unicode="&#x20a6;" horiz-adv-x="1566" 
d="M41 512v141h248v176h-248v140h248v501h200l607 -1089v1089h184v-501h244v-140h-244v-176h246v-141h-246v-512h-166l-643 1155v-1155h-182v512h-248z" />
    <glyph glyph-name="peseta" unicode="&#x20a7;" horiz-adv-x="1515" 
d="M471 489v-489h-197v905h-233v150h233v415h445q225 0 366 -106.5t164 -308.5h226v-150h-226q-24 -199 -166 -307.5t-364 -108.5h-248zM471 1317v-262h596q-20 128 -111.5 195t-240.5 67h-244zM471 643h244q146 0 238 67.5t114 194.5h-596v-262z" />
    <glyph glyph-name="won" unicode="&#x20a9;" horiz-adv-x="1794" 
d="M41 553v139h272l-39 176h-233v142h203l-103 460h185l249 -1185l242 1185h170l240 -1185l254 1185h178l-103 -460h197v-142h-227l-39 -176h266v-139h-297l-121 -553h-192l-242 1188l-239 -1188h-197l-121 553h-303z" />
    <glyph glyph-name="dong" unicode="&#x20ab;" horiz-adv-x="1148" 
d="M471 164q-177 0 -282 123t-105 307q0 185 105 308.5t282 123.5q91 0 159.5 -35t106.5 -96v244h-338v143h338v188h183v-188h188v-143h-188v-959h-183v115q-38 -60 -107 -95.5t-159 -35.5zM741 621q0 127 -68.5 193.5t-166.5 66.5q-114 0 -177 -79t-63 -208
q0 -128 63 -206.5t177 -78.5q97 0 166 66t69 192v54zM152 -143v143h768v-143h-768z" />
    <glyph glyph-name="Euro" unicode="&#x20ac;" horiz-adv-x="1286" 
d="M33 512v141h143q-2 27 -2 82q0 32 4 94h-145v140h164q47 246 193.5 385t359.5 139q181 0 307 -94.5t184 -268.5l-176 -69q-40 132 -115.5 199t-199.5 67q-137 0 -229.5 -93t-129.5 -265h453l-31 -140h-440q-4 -62 -4 -94q0 -55 2 -82h405l-31 -141h-356
q35 -178 128.5 -273.5t232.5 -95.5q124 0 199.5 67.5t115.5 199.5l176 -70q-58 -174 -184 -268.5t-307 -94.5q-215 0 -362 142t-193 393h-162z" />
    <glyph glyph-name="peso" unicode="&#x20b1;" horiz-adv-x="1484" 
d="M483 489v-489h-194v737h-248v142h248v176h-248v139h248v276h395q181 0 310.5 -70.5t187.5 -205.5h260v-139h-225q4 -46 4 -74q0 -53 -9 -102h232v-142h-277q-62 -120 -188 -184t-295 -64h-201zM483 643h199q166 0 261 89t95 251t-94.5 248t-261.5 86h-199v-674z" />
    <glyph glyph-name="uni20B9" unicode="&#x20b9;" horiz-adv-x="1161" 
d="M94 922v157h611q-22 113 -106 174.5t-218 61.5h-287v155h998v-155h-351q114 -81 142 -236h209v-157h-209q-20 -131 -102.5 -224t-209.5 -135l457 -563h-225l-430 530h-11h-268v158h287q134 0 218 62t106 172h-611z" />
    <glyph glyph-name="uni20BA" unicode="&#x20ba;" horiz-adv-x="1316" 
d="M614 176q231 0 352 116.5t121 381.5h177q0 -324 -171 -499t-479 -175h-340v516l-233 -108v163l233 109v178l-233 -108v161l233 109v450h183v-378l397 182v-164l-397 -182v-178l397 182v-164l-397 -182v-410h157z" />
    <glyph glyph-name="uni20BD" unicode="&#x20bd;" horiz-adv-x="1320" 
d="M41 334v139h248v176h-248v142h248v679h489q233 0 366.5 -107t133.5 -306q0 -196 -133.5 -302t-366.5 -106h-295v-176h285v-139h-285v-334h-194v334h-248zM483 791h281q154 0 237.5 68t83.5 192q0 126 -82.5 192t-238.5 66h-281v-518z" />
    <glyph glyph-name="trademark" unicode="&#x2122;" horiz-adv-x="1476" 
d="M408 823h-148v514h-205v133h555v-133h-202v-514zM1079 821h-90l-158 463v-461h-131v647h195l143 -440l144 440h190v-647h-133v461z" />
    <glyph glyph-name="uni2153" unicode="&#x2153;" horiz-adv-x="1871" 
d="M340 1231h-205v106l86 4q78 3 112.5 32.5t45.5 101.5h117v-684h174v-136h-531v136h201v440zM1413 1470h162l-1047 -1470h-163zM1489 -12q-125 0 -211 65.5t-104 186.5l157 24q7 -66 51 -104.5t105 -38.5q63 0 101 34t38 91q0 54 -41 85t-104 31h-84v113h82
q58 0 96.5 29.5t38.5 79.5t-34 80t-91 30t-97.5 -35.5t-50.5 -95.5l-147 17q16 108 96.5 177.5t204.5 69.5t197 -65t73 -168q0 -63 -41.5 -111.5t-99.5 -60.5q66 -19 110 -68t44 -125q0 -103 -79.5 -172t-209.5 -69z" />
    <glyph glyph-name="uni2154" unicode="&#x2154;" horiz-adv-x="1892" 
d="M94 780l277 219q74 59 106.5 107t32.5 106q0 59 -36.5 95t-96.5 36t-96.5 -38.5t-36.5 -96.5q0 -52 20 -88h-151q-19 55 -19 99q0 115 84 189.5t203 74.5q129 0 205 -71.5t76 -188.5q0 -89 -48.5 -162.5t-144.5 -147.5l-160 -122h371v-136h-586v125zM1434 1470h161
l-1046 -1470h-164zM1509 -12q-125 0 -211 65.5t-104 186.5l158 24q7 -66 50.5 -104.5t104.5 -38.5q63 0 101.5 34t38.5 91q0 54 -41 85t-105 31h-84v113h82q58 0 96.5 29.5t38.5 79.5t-34 80t-91 30t-96.5 -35.5t-50.5 -95.5l-148 17q15 108 96.5 177.5t205.5 69.5t197 -65
t73 -168q0 -63 -41.5 -111.5t-99.5 -60.5q66 -19 109.5 -68t43.5 -125q0 -103 -79.5 -172t-209.5 -69z" />
    <glyph glyph-name="uni215B" unicode="&#x215b;" horiz-adv-x="1863" 
d="M340 1231h-205v106l86 4q78 3 112.5 32.5t45.5 101.5h117v-684h174v-136h-531v136h201v440zM1413 1470h162l-1047 -1470h-163zM1473 827q114 0 192 -62t78 -165q0 -119 -119 -174q71 -23 115.5 -75.5t44.5 -123.5q0 -107 -88.5 -173t-222.5 -66t-223 66t-89 173
q0 70 45 123t115 76q-117 55 -117 174q0 103 77.5 165t191.5 62zM1473 481q60 0 96.5 31.5t36.5 83.5t-36.5 83.5t-96.5 31.5q-59 0 -95.5 -31.5t-36.5 -83.5t36.5 -83.5t95.5 -31.5zM1473 373q-69 0 -114.5 -37.5t-45.5 -95.5q0 -59 45 -95t115 -36t114.5 36t44.5 95
q0 58 -45 95.5t-114 37.5z" />
    <glyph glyph-name="uni215C" unicode="&#x215c;" horiz-adv-x="1855" 
d="M395 643q-125 0 -211 65.5t-104 186.5l158 25q7 -66 50.5 -105t104.5 -39q63 0 101 34t38 91q0 54 -41 85.5t-104 31.5h-84v112h82q58 0 96.5 29.5t38.5 79.5t-34 80.5t-91 30.5t-96.5 -35.5t-50.5 -95.5l-148 16q16 108 96.5 178t204.5 70t197.5 -65.5t73.5 -168.5
q0 -62 -42 -111t-100 -61q67 -19 110.5 -67.5t43.5 -124.5q0 -103 -79.5 -172.5t-209.5 -69.5zM1401 1470h162l-1047 -1470h-164zM1464 827q114 0 192.5 -62t78.5 -165q0 -119 -119 -174q71 -23 115.5 -75.5t44.5 -123.5q0 -107 -89 -173t-223 -66t-222.5 66t-88.5 173
q0 70 45 123t115 76q-117 55 -117 174q0 103 77 165t191 62zM1464 481q60 0 96.5 31.5t36.5 83.5t-36.5 83.5t-96.5 31.5q-59 0 -95 -31.5t-36 -83.5t36 -83.5t95 -31.5zM1464 373q-69 0 -114 -37.5t-45 -95.5q0 -59 44.5 -95t114.5 -36t115 36t45 95q0 58 -45.5 95.5
t-114.5 37.5z" />
    <glyph glyph-name="uni215D" unicode="&#x215d;" horiz-adv-x="1826" 
d="M274 1014l-145 20l37 436h463v-131h-346l-21 -217q75 68 168 68q113 0 182.5 -74t69.5 -190q0 -121 -84.5 -202t-212.5 -81q-122 0 -205 65t-100 181l156 26q7 -64 47 -101.5t102 -37.5q63 0 105 42.5t42 105.5t-38.5 106t-100.5 43q-78 0 -119 -59zM1372 1470h162
l-1047 -1470h-163zM1436 827q114 0 192 -62t78 -165q0 -119 -119 -174q71 -23 115.5 -75.5t44.5 -123.5q0 -107 -88.5 -173t-222.5 -66t-223 66t-89 173q0 70 45 123t115 76q-117 55 -117 174q0 103 77.5 165t191.5 62zM1436 481q60 0 96.5 31.5t36.5 83.5t-36.5 83.5
t-96.5 31.5q-59 0 -95 -31.5t-36 -83.5t36 -83.5t95 -31.5zM1436 373q-69 0 -114.5 -37.5t-45.5 -95.5q0 -59 45 -95t115 -36t114.5 36t44.5 95q0 58 -45 95.5t-114 37.5z" />
    <glyph glyph-name="uni215E" unicode="&#x215e;" horiz-adv-x="1744" 
d="M543 1341h-324v-124h-131v253h610v-129q-137 -148 -186 -305.5t-49 -380.5h-166q0 414 246 686zM1290 1470h162l-1046 -1470h-164zM1354 827q114 0 192 -62t78 -165q0 -119 -119 -174q71 -23 115.5 -75.5t44.5 -123.5q0 -107 -88.5 -173t-222.5 -66t-223 66t-89 173
q0 70 45 123t115 76q-117 55 -117 174q0 103 77.5 165t191.5 62zM1354 481q60 0 96.5 31.5t36.5 83.5t-36.5 83.5t-96.5 31.5q-59 0 -95 -31.5t-36 -83.5t36 -83.5t95 -31.5zM1354 373q-69 0 -114.5 -37.5t-45.5 -95.5q0 -59 45 -95t115 -36t114.5 36t44.5 95q0 58 -45 95.5
t-114 37.5z" />
    <glyph glyph-name="arrowleft" unicode="&#x2190;" horiz-adv-x="1533" 
d="M737 219l-131 -127l-586 649l586 650l131 -127l-391 -430h1167v-185h-1167z" />
    <glyph glyph-name="arrowup" unicode="&#x2191;" horiz-adv-x="1339" 
d="M1319 905l-649 588l-650 -588l127 -129l431 393v-1169h184v1169l430 -393z" />
    <glyph glyph-name="arrowright" unicode="&#x2192;" horiz-adv-x="1533" 
d="M797 219l131 -127l585 649l-585 650l-131 -127l391 -430h-1168v-185h1168z" />
    <glyph glyph-name="arrowdown" unicode="&#x2193;" horiz-adv-x="1339" 
d="M1319 565l-649 -588l-650 588l127 129l431 -393v1169h184v-1169l430 393z" />
    <glyph glyph-name="arrowleftright" unicode="&#x2194;" horiz-adv-x="2107" 
d="M2087 741l-586 -649l-133 131l391 426h-1411l391 -426l-133 -131l-586 649l586 650l133 -131l-391 -426h1411l-391 426l133 131z" />
    <glyph glyph-name="arrowupdown" unicode="&#x2195;" horiz-adv-x="1339" 
d="M1319 195l-649 -586l-650 586l127 131l431 -392v1274l-431 -393l-127 131l650 588l649 -588l-127 -131l-430 393v-1274l430 392z" />
    <glyph glyph-name="arrowNW" unicode="&#x2196;" horiz-adv-x="1660" 
d="M342 537v622l1165 -1167l133 133l-1165 1165h621v180h-934v-933h180z" />
    <glyph glyph-name="arrowNE" unicode="&#x2197;" horiz-adv-x="1660" 
d="M1319 537v622l-1165 -1167l-134 133l1166 1165h-621v180h934v-933h-180z" />
    <glyph glyph-name="arrowSE" unicode="&#x2198;" horiz-adv-x="1660" 
d="M1319 934v-623l-1165 1168l-134 -133l1166 -1166h-621v-180h934v934h-180z" />
    <glyph glyph-name="arrowSW" unicode="&#x2199;" horiz-adv-x="1660" 
d="M342 934v-623l1165 1168l133 -133l-1165 -1166h621v-180h-934v934h180z" />
    <glyph glyph-name="minus" unicode="&#x2212;" 
d="M102 618v164h1041v-164h-1041z" />
    <glyph glyph-name="commaaccent" unicode="&#xf6c3;" horiz-adv-x="1228" 
d="M522 -236v148h199v-125q0 -89 -61.5 -139.5t-159.5 -50.5v84q51 2 75 21t27 62h-80z" />
    <glyph glyph-name="CR" horiz-adv-x="432" 
 />
    <glyph glyph-name="a.1" horiz-adv-x="1069" 
d="M926 233q0 -124 16 -233h-182q-4 34 -8 111q-50 -60 -135.5 -94.5t-188.5 -34.5q-151 0 -252.5 84t-101.5 225q0 78 29 137.5t85.5 100t127 67t165.5 45.5l267 53v66q0 86 -58 128t-160 42q-212 0 -233 -174h-180q12 164 128 250t296 86t282.5 -80t102.5 -226v-553z
M748 365v186l-218 -45q-67 -13 -112.5 -28.5t-84 -39t-57 -58t-18.5 -81.5q0 -77 53.5 -122.5t141.5 -45.5q121 0 208 66.5t87 167.5z" />
    <glyph glyph-name="g.1" horiz-adv-x="1126" 
d="M113 729q0 161 116 262t299 101q103 0 189.5 -35t142.5 -99q33 80 111 112t162 17v-186q-29 13 -59.5 15.5t-59 -6.5t-50 -35t-28.5 -66q8 -33 8 -80q0 -159 -117 -260.5t-299 -101.5q-99 0 -178 30q-35 -6 -60.5 -30.5t-25.5 -57.5q0 -37 27.5 -59.5t73.5 -22.5h391
q162 0 245.5 -66.5t83.5 -191.5q0 -172 -154.5 -266t-408.5 -94q-147 0 -257 31t-174 97t-64 161q0 78 42 133.5t111 85.5q-84 59 -84 159q0 65 37.5 114t97.5 75q-118 105 -118 264zM764 729q0 99 -66 158t-170 59q-105 0 -169 -59t-64 -158q0 -100 63.5 -157.5
t169.5 -57.5q105 0 170.5 58t65.5 157zM205 -68q0 -172 325 -172q177 0 279 49.5t102 139.5q0 65 -42.5 93t-133.5 28h-356q-80 0 -127 -37t-47 -101z" />
    <glyph glyph-name="aacute.1" horiz-adv-x="1069" 
d="M465 1186l121 284h231l-207 -284h-145zM926 233q0 -124 16 -233h-182q-4 34 -8 111q-50 -60 -135.5 -94.5t-188.5 -34.5q-151 0 -252.5 84t-101.5 225q0 78 29 137.5t85.5 100t127 67t165.5 45.5l267 53v66q0 86 -58 128t-160 42q-212 0 -233 -174h-180q12 164 128 250
t296 86t282.5 -80t102.5 -226v-553zM748 365v186l-218 -45q-67 -13 -112.5 -28.5t-84 -39t-57 -58t-18.5 -81.5q0 -77 53.5 -122.5t141.5 -45.5q121 0 208 66.5t87 167.5z" />
    <glyph glyph-name="abreve.1" horiz-adv-x="1069" 
d="M532 1309q64 0 105 42t41 119h129q0 -138 -74.5 -216t-200.5 -78t-200 78t-74 216h129q0 -77 40.5 -119t104.5 -42zM926 233q0 -124 16 -233h-182q-4 34 -8 111q-50 -60 -135.5 -94.5t-188.5 -34.5q-151 0 -252.5 84t-101.5 225q0 78 29 137.5t85.5 100t127 67
t165.5 45.5l267 53v66q0 86 -58 128t-160 42q-212 0 -233 -174h-180q12 164 128 250t296 86t282.5 -80t102.5 -226v-553zM748 365v186l-218 -45q-67 -13 -112.5 -28.5t-84 -39t-57 -58t-18.5 -81.5q0 -77 53.5 -122.5t141.5 -45.5q121 0 208 66.5t87 167.5z" />
    <glyph glyph-name="acircumflex.1" horiz-adv-x="1069" 
d="M633 1470l201 -284h-144l-158 160l-157 -160h-144l201 284h201zM926 233q0 -124 16 -233h-182q-4 34 -8 111q-50 -60 -135.5 -94.5t-188.5 -34.5q-151 0 -252.5 84t-101.5 225q0 78 29 137.5t85.5 100t127 67t165.5 45.5l267 53v66q0 86 -58 128t-160 42
q-212 0 -233 -174h-180q12 164 128 250t296 86t282.5 -80t102.5 -226v-553zM748 365v186l-218 -45q-67 -13 -112.5 -28.5t-84 -39t-57 -58t-18.5 -81.5q0 -77 53.5 -122.5t141.5 -45.5q121 0 208 66.5t87 167.5z" />
    <glyph glyph-name="adieresis.1" horiz-adv-x="1069" 
d="M250 1249v213h205v-213h-205zM602 1249v213h205v-213h-205zM926 233q0 -124 16 -233h-182q-4 34 -8 111q-50 -60 -135.5 -94.5t-188.5 -34.5q-151 0 -252.5 84t-101.5 225q0 78 29 137.5t85.5 100t127 67t165.5 45.5l267 53v66q0 86 -58 128t-160 42q-212 0 -233 -174
h-180q12 164 128 250t296 86t282.5 -80t102.5 -226v-553zM748 365v186l-218 -45q-67 -13 -112.5 -28.5t-84 -39t-57 -58t-18.5 -81.5q0 -77 53.5 -122.5t141.5 -45.5q121 0 208 66.5t87 167.5z" />
    <glyph glyph-name="agrave.1" horiz-adv-x="1069" 
d="M616 1186h-145l-207 284h232zM926 233q0 -124 16 -233h-182q-4 34 -8 111q-50 -60 -135.5 -94.5t-188.5 -34.5q-151 0 -252.5 84t-101.5 225q0 78 29 137.5t85.5 100t127 67t165.5 45.5l267 53v66q0 86 -58 128t-160 42q-212 0 -233 -174h-180q12 164 128 250t296 86
t282.5 -80t102.5 -226v-553zM748 365v186l-218 -45q-67 -13 -112.5 -28.5t-84 -39t-57 -58t-18.5 -81.5q0 -77 53.5 -122.5t141.5 -45.5q121 0 208 66.5t87 167.5z" />
    <glyph glyph-name="amacron.1" horiz-adv-x="1069" 
d="M813 1241h-561v148h561v-148zM926 233q0 -124 16 -233h-182q-4 34 -8 111q-50 -60 -135.5 -94.5t-188.5 -34.5q-151 0 -252.5 84t-101.5 225q0 78 29 137.5t85.5 100t127 67t165.5 45.5l267 53v66q0 86 -58 128t-160 42q-212 0 -233 -174h-180q12 164 128 250t296 86
t282.5 -80t102.5 -226v-553zM748 365v186l-218 -45q-67 -13 -112.5 -28.5t-84 -39t-57 -58t-18.5 -81.5q0 -77 53.5 -122.5t141.5 -45.5q121 0 208 66.5t87 167.5z" />
    <glyph glyph-name="aogonek.1" horiz-adv-x="1069" 
d="M639 -217q0 63 30 114.5t91 104.5q-4 32 -8 109q-50 -60 -135.5 -94.5t-188.5 -34.5q-151 0 -252.5 84t-101.5 225q0 78 29 137.5t85.5 100t127 67t165.5 45.5l267 53v66q0 86 -58 128t-160 42q-212 0 -233 -174h-180q12 164 128 250t296 86t282.5 -80t102.5 -226v-553
q0 -124 16 -233h-33q-73 -64 -104 -105t-31 -83q0 -34 23 -53t59 -19q38 0 82 12v-119q-50 -14 -115 -14q-77 0 -130.5 45.5t-53.5 118.5zM748 365v186l-218 -45q-67 -13 -112.5 -28.5t-84 -39t-57 -58t-18.5 -81.5q0 -77 53.5 -122.5t141.5 -45.5q121 0 208 66.5t87 167.5z
" />
    <glyph glyph-name="aring.1" horiz-adv-x="1069" 
d="M322 1366q0 83 59 141t147 58t147.5 -58t59.5 -141q0 -85 -59 -144t-148 -59q-88 0 -147 58.5t-59 144.5zM426 1366q0 -43 30 -74.5t72 -31.5t72.5 31.5t30.5 74.5q0 40 -30.5 71t-72.5 31t-72 -31t-30 -71zM926 233q0 -124 16 -233h-182q-4 34 -8 111
q-50 -60 -135.5 -94.5t-188.5 -34.5q-151 0 -252.5 84t-101.5 225q0 78 29 137.5t85.5 100t127 67t165.5 45.5l267 53v66q0 86 -58 128t-160 42q-212 0 -233 -174h-180q12 164 128 250t296 86t282.5 -80t102.5 -226v-553zM748 365v186l-218 -45q-67 -13 -112.5 -28.5
t-84 -39t-57 -58t-18.5 -81.5q0 -77 53.5 -122.5t141.5 -45.5q121 0 208 66.5t87 167.5z" />
    <glyph glyph-name="atilde.1" horiz-adv-x="1069" 
d="M403 1473q39 0 76 -20.5t61.5 -45.5t53.5 -45.5t53 -20.5q40 0 60.5 32t29.5 100h121q-9 -129 -61.5 -203t-137.5 -74q-39 0 -76 20t-61 44.5t-53 44.5t-53 20q-39 0 -59.5 -31.5t-28.5 -97.5h-121q8 130 59 203.5t137 73.5zM926 233q0 -124 16 -233h-182q-4 34 -8 111
q-50 -60 -135.5 -94.5t-188.5 -34.5q-151 0 -252.5 84t-101.5 225q0 78 29 137.5t85.5 100t127 67t165.5 45.5l267 53v66q0 86 -58 128t-160 42q-212 0 -233 -174h-180q12 164 128 250t296 86t282.5 -80t102.5 -226v-553zM748 365v186l-218 -45q-67 -13 -112.5 -28.5
t-84 -39t-57 -58t-18.5 -81.5q0 -77 53.5 -122.5t141.5 -45.5q121 0 208 66.5t87 167.5z" />
    <glyph glyph-name="ae.1" horiz-adv-x="1759" 
d="M1675 285q-50 -144 -165 -226t-275 -82q-130 0 -234.5 56.5t-171.5 159.5q-55 -96 -158 -153.5t-239 -57.5q-152 0 -255 84t-103 227q0 172 135.5 263t355.5 91h178v105q0 178 -213 178q-212 0 -233 -174h-180q12 164 128 250t296 86q112 0 198 -43.5t131 -128.5
q140 172 357 172q145 0 250 -70t155.5 -187t50.5 -268v-61h-772q7 -168 96 -268.5t228 -100.5q107 0 180 54.5t98 150.5zM1227 934q-118 0 -199 -75.5t-106 -211.5h575q-3 123 -71.5 205t-198.5 82zM743 406v100h-172q-153 0 -233 -45.5t-80 -155.5q0 -81 54.5 -126.5
t146.5 -45.5q123 0 203.5 78t80.5 195z" />
    <glyph glyph-name="aeacute.1" horiz-adv-x="1759" 
d="M795 1186l120 284h232l-207 -284h-145zM1675 285q-50 -144 -165 -226t-275 -82q-130 0 -234.5 56.5t-171.5 159.5q-55 -96 -158 -153.5t-239 -57.5q-152 0 -255 84t-103 227q0 172 135.5 263t355.5 91h178v105q0 178 -213 178q-212 0 -233 -174h-180q12 164 128 250
t296 86q112 0 198 -43.5t131 -128.5q140 172 357 172q145 0 250 -70t155.5 -187t50.5 -268v-61h-772q7 -168 96 -268.5t228 -100.5q107 0 180 54.5t98 150.5zM1227 934q-118 0 -199 -75.5t-106 -211.5h575q-3 123 -71.5 205t-198.5 82zM743 406v100h-172q-153 0 -233 -45.5
t-80 -155.5q0 -81 54.5 -126.5t146.5 -45.5q123 0 203.5 78t80.5 195z" />
    <glyph glyph-name="gbreve.1" horiz-adv-x="1126" 
d="M551 1309q64 0 104.5 42t40.5 119h129q0 -138 -74 -216t-200 -78t-200.5 78t-74.5 216h130q0 -77 40.5 -119t104.5 -42zM113 729q0 161 116 262t299 101q103 0 189.5 -35t142.5 -99q33 80 111 112t162 17v-186q-29 13 -59.5 15.5t-59 -6.5t-50 -35t-28.5 -66q8 -33 8 -80
q0 -159 -117 -260.5t-299 -101.5q-99 0 -178 30q-35 -6 -60.5 -30.5t-25.5 -57.5q0 -37 27.5 -59.5t73.5 -22.5h391q162 0 245.5 -66.5t83.5 -191.5q0 -172 -154.5 -266t-408.5 -94q-147 0 -257 31t-174 97t-64 161q0 78 42 133.5t111 85.5q-84 59 -84 159q0 65 37.5 114
t97.5 75q-118 105 -118 264zM764 729q0 99 -66 158t-170 59q-105 0 -169 -59t-64 -158q0 -100 63.5 -157.5t169.5 -57.5q105 0 170.5 58t65.5 157zM205 -68q0 -172 325 -172q177 0 279 49.5t102 139.5q0 65 -42.5 93t-133.5 28h-356q-80 0 -127 -37t-47 -101z" />
    <glyph glyph-name="gcircumflex.1" horiz-adv-x="1126" 
d="M653 1470l201 -284h-143l-158 160l-158 -160h-143l201 284h200zM113 729q0 161 116 262t299 101q103 0 189.5 -35t142.5 -99q33 80 111 112t162 17v-186q-29 13 -59.5 15.5t-59 -6.5t-50 -35t-28.5 -66q8 -33 8 -80q0 -159 -117 -260.5t-299 -101.5q-99 0 -178 30
q-35 -6 -60.5 -30.5t-25.5 -57.5q0 -37 27.5 -59.5t73.5 -22.5h391q162 0 245.5 -66.5t83.5 -191.5q0 -172 -154.5 -266t-408.5 -94q-147 0 -257 31t-174 97t-64 161q0 78 42 133.5t111 85.5q-84 59 -84 159q0 65 37.5 114t97.5 75q-118 105 -118 264zM764 729q0 99 -66 158
t-170 59q-105 0 -169 -59t-64 -158q0 -100 63.5 -157.5t169.5 -57.5q105 0 170.5 58t65.5 157zM205 -68q0 -172 325 -172q177 0 279 49.5t102 139.5q0 65 -42.5 93t-133.5 28h-356q-80 0 -127 -37t-47 -101z" />
    <glyph glyph-name="gcommaaccent.1" horiz-adv-x="1126" 
d="M647 1333v-147h-198v125q0 89 61.5 139.5t159.5 50.5v-84q-51 -2 -75.5 -21.5t-27.5 -62.5h80zM113 729q0 161 116 262t299 101q103 0 189.5 -35t142.5 -99q33 80 111 112t162 17v-186q-29 13 -59.5 15.5t-59 -6.5t-50 -35t-28.5 -66q8 -33 8 -80q0 -159 -117 -260.5
t-299 -101.5q-99 0 -178 30q-35 -6 -60.5 -30.5t-25.5 -57.5q0 -37 27.5 -59.5t73.5 -22.5h391q162 0 245.5 -66.5t83.5 -191.5q0 -172 -154.5 -266t-408.5 -94q-147 0 -257 31t-174 97t-64 161q0 78 42 133.5t111 85.5q-84 59 -84 159q0 65 37.5 114t97.5 75
q-118 105 -118 264zM764 729q0 99 -66 158t-170 59q-105 0 -169 -59t-64 -158q0 -100 63.5 -157.5t169.5 -57.5q105 0 170.5 58t65.5 157zM205 -68q0 -172 325 -172q177 0 279 49.5t102 139.5q0 65 -42.5 93t-133.5 28h-356q-80 0 -127 -37t-47 -101z" />
    <glyph glyph-name="gdotaccent.1" horiz-adv-x="1126" 
d="M444 1257v213h201v-213h-201zM113 729q0 161 116 262t299 101q103 0 189.5 -35t142.5 -99q33 80 111 112t162 17v-186q-29 13 -59.5 15.5t-59 -6.5t-50 -35t-28.5 -66q8 -33 8 -80q0 -159 -117 -260.5t-299 -101.5q-99 0 -178 30q-35 -6 -60.5 -30.5t-25.5 -57.5
q0 -37 27.5 -59.5t73.5 -22.5h391q162 0 245.5 -66.5t83.5 -191.5q0 -172 -154.5 -266t-408.5 -94q-147 0 -257 31t-174 97t-64 161q0 78 42 133.5t111 85.5q-84 59 -84 159q0 65 37.5 114t97.5 75q-118 105 -118 264zM764 729q0 99 -66 158t-170 59q-105 0 -169 -59
t-64 -158q0 -100 63.5 -157.5t169.5 -57.5q105 0 170.5 58t65.5 157zM205 -68q0 -172 325 -172q177 0 279 49.5t102 139.5q0 65 -42.5 93t-133.5 28h-356q-80 0 -127 -37t-47 -101z" />
    <glyph glyph-name="idotaccent" horiz-adv-x="491" 
d="M145 1257v213h201v-213h-201zM338 1071v-1071h-184v1071h184z" />
    <glyph glyph-name="ordfeminine.1" horiz-adv-x="835" 
d="M700 874q0 -105 11 -172h-152q-2 24 -6 76q-36 -41 -96 -65.5t-133 -24.5q-110 0 -183 61t-73 162q0 57 21.5 100t63.5 72.5t93.5 48t120.5 31.5l180 35v43q0 57 -37 85t-104 28q-144 0 -156 -117h-154q10 121 95.5 184.5t220.5 63.5q134 0 211 -59t77 -166v-386z
M547 969v116l-146 -28q-90 -16 -134 -46t-44 -91q0 -51 34 -80t93 -29q81 0 139 44.5t58 113.5zM68 418v141h641v-141h-641z" />
    <glyph glyph-name="a.ord" horiz-adv-x="817" 
d="M319 688q-110 0 -181.5 60.5t-71.5 162.5q0 57 21.5 100t63.5 72.5t93.5 48t120.5 31.5l176 33v29q0 129 -142 129q-132 0 -163 -123l-148 31q27 99 111.5 161t206.5 62q137 0 212.5 -64.5t75.5 -187.5v-356q0 -70 80 -54v-121q-186 -30 -221 84q-36 -45 -97 -71.5
t-137 -26.5zM541 967v116l-144 -28q-88 -17 -133 -46.5t-45 -88.5q0 -51 34 -80t93 -29q81 0 138 44t57 112z" />
    <glyph glyph-name="a.1.ord" horiz-adv-x="835" 
d="M700 874q0 -105 11 -172h-152q-2 24 -6 76q-36 -41 -96 -65.5t-133 -24.5q-110 0 -183 61t-73 162q0 57 21.5 100t63.5 72.5t93.5 48t120.5 31.5l180 35v43q0 57 -37 85t-104 28q-144 0 -156 -117h-154q10 121 95.5 184.5t220.5 63.5q134 0 211 -59t77 -166v-386z
M547 969v116l-146 -28q-90 -16 -134 -46t-44 -91q0 -51 34 -80t93 -29q81 0 139 44.5t58 113.5z" />
    <glyph glyph-name="b.ord" horiz-adv-x="942" 
d="M535 686q-76 0 -135.5 33t-94.5 90v-107h-155v1053h155v-391q34 57 94 89t136 32q154 0 242.5 -115t88.5 -285t-88.5 -284.5t-242.5 -114.5zM303 1110v-51q0 -114 58.5 -176t140.5 -62q97 0 151 72.5t54 191.5q0 120 -53.5 192.5t-151.5 72.5q-82 0 -140.5 -61.5
t-58.5 -178.5z" />
    <glyph glyph-name="c.ord" horiz-adv-x="806" 
d="M229 1085q0 -122 58.5 -193t156.5 -71q71 0 117 42t62 112l135 -57q-28 -102 -111 -167t-205 -65q-162 0 -264 111t-102 288q0 178 102 289t264 111q123 0 204.5 -62.5t109.5 -162.5l-133 -62q-16 69 -62 111.5t-117 42.5q-97 0 -156 -72.5t-59 -194.5z" />
    <glyph glyph-name="d.ord" horiz-adv-x="942" 
d="M408 686q-154 0 -243 114.5t-89 284.5t89 285t243 115q76 0 135 -32t94 -89v391h156v-1053h-156v107q-35 -57 -94 -90t-135 -33zM639 1110q0 117 -58.5 178.5t-140.5 61.5q-97 0 -150.5 -72.5t-53.5 -192.5q0 -119 53.5 -191.5t150.5 -72.5q82 0 140.5 62t58.5 176v51z
" />
    <glyph glyph-name="e.ord" horiz-adv-x="843" 
d="M442 686q-164 0 -265 110t-101 289q0 173 101.5 286.5t260.5 113.5q158 0 246 -106t88 -273v-47h-547q7 -112 66.5 -177t150.5 -65q73 0 122.5 36t66.5 101l135 -47q-35 -103 -122 -162t-202 -59zM436 1356q-79 0 -132.5 -49t-70.5 -140h381q-2 81 -47 135t-131 54z" />
    <glyph glyph-name="f.ord" horiz-adv-x="466" 
d="M461 1765v-131q-40 4 -58 4q-56 0 -84 -28.5t-28 -93.5v-46h166v-131h-166v-637h-156v637h-112v131h112v56q0 116 63 179.5t187 63.5q47 0 76 -4z" />
    <glyph glyph-name="g.ord" horiz-adv-x="944" 
d="M793 776q0 -167 -101 -259.5t-268 -92.5q-131 0 -220 58t-120 163l147 47q19 -68 70.5 -105.5t126.5 -37.5q97 0 152 53t55 162v80q-30 -54 -90.5 -87.5t-136.5 -33.5q-152 0 -240 109t-88 272t88 272t240 109q76 0 136.5 -33.5t90.5 -87.5v106h158v-694zM637 1116
q0 113 -57 174.5t-138 61.5q-97 0 -150.5 -67t-53.5 -181t53.5 -181t150.5 -67q81 0 138 60t57 171v29z" />
    <glyph glyph-name="g.1.ord" horiz-adv-x="819" 
d="M84 1225q0 115 85 187.5t220 72.5q155 0 242 -90q27 54 82 76.5t116 11.5v-150q-39 22 -82.5 9t-56.5 -62q6 -24 6 -55q0 -117 -85 -189.5t-222 -72.5q-72 0 -125 20q-53 -15 -53 -57q0 -23 18 -38.5t47 -15.5h287q116 0 177 -48.5t61 -139.5q0 -125 -113.5 -192.5
t-302.5 -67.5q-164 0 -263 51.5t-99 153.5q0 53 30 92t78 61q-61 46 -61 117q0 89 98 137q-84 71 -84 189zM545 1225q0 65 -42.5 103t-111.5 38q-70 0 -112.5 -38t-42.5 -103q0 -67 42.5 -105.5t112.5 -38.5q69 0 111.5 39t42.5 105zM174 653q0 -112 221 -112
q119 0 186.5 32t67.5 91q0 42 -27 60.5t-85 18.5h-250q-52 0 -82.5 -24.5t-30.5 -65.5z" />
    <glyph glyph-name="h.ord" horiz-adv-x="925" 
d="M150 702v1053h155v-385q35 50 93.5 82.5t133.5 32.5q120 0 188 -76t68 -201v-506h-157v465q0 79 -36.5 126.5t-111.5 47.5q-71 0 -124.5 -50.5t-53.5 -135.5v-453h-155z" />
    <glyph glyph-name="i.ord" horiz-adv-x="448" 
d="M141 1591v164h166v-164h-166zM303 1470v-768h-158v768h158z" />
    <glyph glyph-name="j.ord" horiz-adv-x="385" 
d="M76 1591v164h168v-164h-168zM82 670v800h156v-819q0 -105 -61 -161t-167 -56q-26 0 -80 4v129q16 -2 52 -2q53 0 76.5 25t23.5 80z" />
    <glyph glyph-name="k.ord" horiz-adv-x="849" 
d="M305 1755v-625l320 340h190l-295 -301l318 -467h-181l-247 357l-105 -109v-248h-155v1053h155z" />
    <glyph glyph-name="l.ord" horiz-adv-x="454" 
d="M305 1755v-1053h-155v1053h155z" />
    <glyph glyph-name="m.ord" horiz-adv-x="1378" 
d="M305 1157v-455h-155v768h155v-100q34 50 90.5 82.5t130.5 32.5t129.5 -33.5t83.5 -91.5q38 52 100 88.5t144 36.5q117 0 186.5 -76.5t69.5 -200.5v-506h-158v465q0 80 -34.5 127t-106.5 47q-66 0 -117 -50.5t-51 -133.5v-455h-156v465q0 80 -34.5 127t-106.5 47
q-67 0 -118.5 -50.5t-51.5 -133.5z" />
    <glyph glyph-name="n.ord" horiz-adv-x="925" 
d="M150 702v768h155v-100q35 50 93.5 82.5t133.5 32.5q120 0 188 -76t68 -201v-506h-157v465q0 79 -36.5 126.5t-111.5 47.5q-71 0 -124.5 -50.5t-53.5 -135.5v-453h-155z" />
    <glyph glyph-name="o.ord" horiz-adv-x="876" 
d="M801 1085q0 -178 -100.5 -288.5t-262.5 -110.5q-161 0 -261.5 110.5t-100.5 288.5q0 180 100 290t262 110t262.5 -110.5t100.5 -289.5zM233 1085q0 -124 55.5 -195t149.5 -71q95 0 151 71t56 195t-56.5 196.5t-150.5 72.5t-149.5 -72.5t-55.5 -196.5z" />
    <glyph glyph-name="p.ord" horiz-adv-x="942" 
d="M535 686q-76 0 -135.5 33t-94.5 90v-369h-155v1030h155v-106q34 57 94 89t136 32q154 0 242.5 -115t88.5 -285t-88.5 -284.5t-242.5 -114.5zM303 1110v-51q0 -114 58.5 -176t140.5 -62q97 0 151 72.5t54 191.5q0 120 -53.5 192.5t-151.5 72.5q-82 0 -140.5 -61.5
t-58.5 -178.5z" />
    <glyph glyph-name="q.ord" horiz-adv-x="942" 
d="M408 686q-154 0 -243 114.5t-89 284.5t89 285t243 115q76 0 135 -32t94 -89v106h156v-1030h-156v369q-35 -57 -94 -90t-135 -33zM639 1110q0 117 -58.5 178.5t-140.5 61.5q-97 0 -150.5 -72.5t-53.5 -192.5q0 -119 53.5 -191.5t150.5 -72.5q82 0 140.5 62t58.5 176v51z
" />
    <glyph glyph-name="r.ord" horiz-adv-x="612" 
d="M567 1473v-154q-23 4 -65 4q-84 0 -140.5 -58t-56.5 -153v-410h-155v768h155v-127q28 60 82.5 97t126.5 37q25 0 53 -4z" />
    <glyph glyph-name="s.ord" horiz-adv-x="751" 
d="M29 852l100 94q35 -62 102.5 -98.5t141.5 -36.5q66 0 109.5 27.5t43.5 81.5q0 21 -7.5 36.5t-19.5 25t-35 18t-46 14t-60 13.5q-16 3 -24 5l-55.5 12t-51 14t-50 19.5t-40.5 26t-34.5 35.5t-20 47t-8.5 61q0 105 83 171.5t210 66.5q102 0 183.5 -42t119.5 -108l-97 -90
q-73 117 -211 117q-60 0 -97.5 -27.5t-37.5 -72.5q0 -23 10 -39t33.5 -26.5t48 -17.5t66.5 -16q7 -1 10 -2q127 -29 174 -52q111 -54 111 -175q0 -111 -89.5 -179.5t-221.5 -68.5q-107 0 -201.5 43.5t-138.5 122.5z" />
    <glyph glyph-name="t.ord" horiz-adv-x="526" 
d="M129 891v448h-115v131h115v220h154v-220h170v-131h-170v-417q0 -54 24 -72.5t78 -18.5q47 0 82 9v-133q-60 -13 -123 -13q-109 0 -162 45t-53 152z" />
    <glyph glyph-name="u.ord" horiz-adv-x="925" 
d="M776 1470v-768h-155v101q-82 -117 -226 -117q-120 0 -188 75.5t-68 201.5v507h156v-475q0 -77 37 -122.5t112 -45.5q70 0 123.5 50.5t53.5 134.5v458h155z" />
    <glyph glyph-name="v.ord" horiz-adv-x="770" 
d="M461 702h-152l-286 768h163l201 -575l201 575h160z" />
    <glyph glyph-name="w.ord" horiz-adv-x="1087" 
d="M485 1470h125l148 -544l151 544h156l-234 -768h-137l-149 535l-152 -535h-137l-233 768h159l154 -544z" />
    <glyph glyph-name="x.ord" horiz-adv-x="770" 
d="M578 702l-195 283l-197 -283h-170l279 400l-256 368h176l172 -253l174 253h170l-254 -368l279 -400h-178z" />
    <glyph glyph-name="y.ord" horiz-adv-x="770" 
d="M428 637q-40 -104 -97 -155.5t-159 -51.5q-38 0 -78 6v131q33 -8 64 -8q42 0 67.5 20t46.5 72l33 80l-282 739h163l201 -559l201 559h160z" />
    <glyph glyph-name="z.ord" horiz-adv-x="778" 
d="M696 834v-132h-616v117l424 520h-418v131h606v-116l-413 -520h417z" />
    <glyph glyph-name="caron.Slovak" horiz-adv-x="1228" 
d="M483 1110l47 360h211l-133 -360h-125z" />
    <glyph glyph-name="commaturn" horiz-adv-x="1228" 
d="M705 1333v-147h-199v125q0 89 61.5 139.5t159.5 50.5v-84q-51 -1 -75 -21t-27 -63h80z" />
    <glyph glyph-name="guilsinglleft.cap" horiz-adv-x="423" 
d="M55 594v184l314 281v-193l-181 -180l181 -180v-193z" />
    <glyph glyph-name="guilsinglright.cap" horiz-adv-x="423" 
d="M369 594l-314 -281v193l181 180l-181 180v193l314 -281v-184z" />
    <glyph glyph-name="guillemotleft.cap" horiz-adv-x="802" 
d="M55 594v184l314 281v-193l-181 -180l181 -180v-193zM434 594v184l314 281v-193l-181 -180l181 -180v-193z" />
    <glyph glyph-name="guillemotright.cap" horiz-adv-x="802" 
d="M748 594l-314 -281v193l180 180l-180 180v193l314 -281v-184zM369 594l-314 -281v193l181 180l-181 180v193l314 -281v-184z" />
    <glyph glyph-name="slash.cap" horiz-adv-x="823" 
d="M20 -123l594 1712h189l-594 -1712h-189z" />
    <glyph glyph-name="backslash.cap" horiz-adv-x="823" 
d="M803 -123h-189l-594 1712h189z" />
    <glyph glyph-name="bar.cap" horiz-adv-x="512" 
d="M166 -123v1712h180v-1712h-180z" />
    <glyph glyph-name="periodcentered.cap" horiz-adv-x="440" 
d="M102 614v242h234v-242h-234z" />
    <glyph glyph-name="bullet.cap" horiz-adv-x="829" 
d="M416 1051q132 0 220.5 -88.5t88.5 -225.5q0 -134 -88.5 -221.5t-220.5 -87.5t-222 87.5t-90 221.5q0 136 90 225t222 89z" />
    <glyph glyph-name="hyphen.cap" horiz-adv-x="768" 
d="M104 655v166h560v-166h-560z" />
    <glyph glyph-name="endash.cap" horiz-adv-x="1153" 
d="M104 664v151h947v-151h-947z" />
    <glyph glyph-name="emdash.cap" horiz-adv-x="2041" 
d="M104 664v151h1835v-151h-1835z" />
    <glyph glyph-name="parenleft.cap" horiz-adv-x="641" 
d="M295 725q0 -242 90.5 -465.5t241.5 -390.5h-193q-72 77 -132 165.5t-110.5 195.5t-79 234.5t-28.5 260.5t28.5 260.5t79 234.5t110.5 195.5t132 165.5h193q-152 -169 -242 -391t-90 -465z" />
    <glyph glyph-name="parenright.cap" horiz-adv-x="641" 
d="M346 725q0 243 -90 465t-242 391h193q72 -77 132 -165.5t110.5 -195.5t79 -234.5t28.5 -260.5t-28.5 -260.5t-79 -234.5t-110.5 -195.5t-132 -165.5h-193q151 167 241.5 390.5t90.5 465.5z" />
    <glyph glyph-name="bracketleft.cap" horiz-adv-x="645" 
d="M311 1427v-1407h299v-151h-485v1712h485v-154h-299z" />
    <glyph glyph-name="bracketright.cap" horiz-adv-x="645" 
d="M334 1427h-299v154h485v-1712h-485v151h299v1407z" />
    <glyph glyph-name="braceleft.cap" horiz-adv-x="747" 
d="M41 649v152h96q125 0 125 162v274q0 165 98.5 254.5t268.5 89.5h82v-154h-52q-117 0 -171 -54.5t-54 -176.5v-233q0 -178 -139 -238q139 -60 139 -238v-233q0 -122 54 -176.5t171 -54.5h52v-154h-82q-170 0 -268.5 89.5t-98.5 254.5v274q0 162 -125 162h-96z" />
    <glyph glyph-name="braceright.cap" horiz-adv-x="747" 
d="M707 649h-97q-125 0 -125 -162v-274q0 -165 -98 -254.5t-268 -89.5h-82v154h51q117 0 171 54.5t54 176.5v233q0 177 140 238q-140 61 -140 238v233q0 122 -54 176.5t-171 54.5h-51v154h82q170 0 268 -89.5t98 -254.5v-274q0 -162 125 -162h97v-152z" />
    <glyph glyph-name="at.cap" horiz-adv-x="1816" 
d="M1333 451q98 0 171 108t73 295q0 257 -170.5 409t-441.5 152q-148 0 -280.5 -56t-228.5 -153t-152 -233t-56 -289q0 -197 89 -344t243 -222t352 -75q278 0 479 137l76 -123q-221 -161 -553 -161q-179 0 -334 54t-270 153.5t-180.5 249.5t-65.5 333q0 179 68.5 340.5
t185.5 278.5t282 185.5t351 68.5q159 0 299 -50t243 -139t162.5 -220t59.5 -286q0 -106 -24 -197t-64.5 -155t-94.5 -109.5t-114 -67.5t-123 -22q-185 0 -232 138q-41 -67 -114 -105.5t-158 -38.5q-138 0 -226.5 94t-88.5 256q0 136 54 253t149 187t208 70q92 0 155 -42
t85 -103l27 129h165l-100 -551q-13 -80 11.5 -114.5t82.5 -34.5zM1075 694q23 122 23 156q0 71 -43 120.5t-117 49.5q-113 0 -185.5 -104t-72.5 -254q0 -96 45.5 -150.5t126.5 -54.5q83 0 142 64t81 173z" />
    <glyph glyph-name="Euro.lt" 
d="M43 512v141h143q-2 27 -2 82q0 32 4 94h-145v140h162q47 246 187.5 385t344.5 139q175 0 295.5 -94.5t175.5 -268.5l-170 -69q-40 133 -110.5 199.5t-190.5 66.5q-132 0 -221 -93t-125 -265h463l-33 -140h-448q-4 -62 -4 -94q0 -55 2 -82h415l-30 -141h-367
q34 -176 124 -272.5t224 -96.5q120 0 190.5 66.5t110.5 200.5l170 -70q-55 -174 -175.5 -268.5t-295.5 -94.5q-205 0 -346.5 142t-187.5 393h-160z" />
    <glyph glyph-name="dollar.lt" 
d="M37 301l147 123q124 -244 373 -279v535q-57 13 -96 23t-90 27.5t-85.5 36.5t-71.5 48t-58.5 64t-35.5 83t-14 105q0 172 128 285t323 131v194h150v-196q157 -17 273.5 -90t172.5 -187l-139 -121q-101 203 -307 240v-492q57 -12 97.5 -22.5t92 -28.5t87 -38t72 -50.5
t59 -67.5t36.5 -87.5t14 -110.5q0 -180 -129.5 -297.5t-328.5 -138.5v-199h-150v197q-175 15 -313.5 98.5t-206.5 214.5zM283 1083q0 -50 20 -87t60 -62t85 -41t109 -31v465q-122 -12 -198 -77t-76 -167zM985 412q0 52 -20.5 92t-61 66.5t-86 44t-110.5 32.5v-502
q125 18 201.5 87t76.5 180z" />
    <glyph glyph-name="cent.lt" 
d="M573 -217v201q-198 31 -318 183t-120 378q0 224 120 376t318 183v219h144v-215q150 -13 253.5 -97.5t145.5 -217.5l-151 -80q-23 97 -86 161.5t-162 77.5v-817q99 13 162 78t86 162l151 -80q-42 -133 -145.5 -217.5t-253.5 -97.5v-197h-144zM311 545q0 -160 69.5 -266.5
t192.5 -137.5v805q-123 -31 -192.5 -137t-69.5 -264z" />
    <glyph glyph-name="sterling.lt" 
d="M154 604v148h161q-42 77 -64 140t-22 132q0 202 134.5 335.5t347.5 133.5q205 0 330.5 -129.5t125.5 -329.5q0 -87 -28 -172h-181q33 76 33 162q0 134 -74 219.5t-206 85.5q-134 0 -215.5 -87.5t-81.5 -225.5q0 -47 14.5 -97t29 -80.5t44.5 -86.5h323v-148h-256
q31 -91 31 -180q0 -61 -16 -133q57 -47 89 -71t86.5 -47t108.5 -23q94 0 140 59t49 180h162q0 -188 -87.5 -300t-238.5 -112q-109 0 -193.5 45.5t-171.5 124.5q-99 -170 -266 -170q-106 0 -174.5 64t-67.5 168q0 100 72 165.5t184 65.5q87 0 166 -47v21q0 90 -49 190h-239z
M170 211q0 -42 27.5 -68t68.5 -26q99 0 150 133q-76 59 -137 59q-47 0 -78 -26t-31 -72z" />
    <glyph glyph-name="yen.lt" 
d="M164 387v141h368v168h-368v142h291l-406 632h211l367 -598l366 598h205l-405 -632h292v-142h-370v-168h370v-141h-370v-387h-183v387h-368z" />
    <glyph glyph-name="florin.lt" 
d="M674 365q-25 -189 -120.5 -288.5t-250.5 -99.5q-144 0 -237 93l75 135q26 -32 64 -52t78 -20q159 0 198 236l56 366h-213v135h233l35 236q28 189 123 288t250 99q143 0 235 -92l-74 -135q-56 69 -141 69q-163 0 -199 -233l-34 -232h245v-135h-266z" />
    <glyph glyph-name="baht.lt" 
d="M125 0v1470h405v207h150v-207q213 -9 323.5 -107t110.5 -276q0 -130 -64 -208.5t-161 -112.5q127 -34 201.5 -128.5t74.5 -231.5q0 -191 -129.5 -298.5t-353.5 -107.5h-2v-209h-150v209h-405zM305 838h225v469h-225v-469zM936 1071q0 107 -65.5 166t-190.5 68v-465
q125 9 190.5 67.5t65.5 163.5zM305 674v-510h225v510h-225zM682 674h-2v-510h2q144 0 222.5 69.5t78.5 186.5q0 116 -78.5 185t-222.5 69z" />
    <glyph glyph-name="dong.lt" 
d="M518 164q-178 0 -283.5 123t-105.5 307q0 186 105.5 309t283.5 123q91 0 159.5 -35t106.5 -96v244h-338v143h338v188h181v-188h190v-143h-190v-959h-181v115q-38 -60 -107 -95.5t-159 -35.5zM788 621q0 127 -68.5 193.5t-166.5 66.5q-115 0 -177.5 -78.5t-62.5 -208.5
q0 -129 62.5 -207t177.5 -78q97 0 166 66t69 192v54zM199 -143v143h766v-143h-766z" />
    <glyph glyph-name="franc.lt" 
d="M61 330v159h205v981h901v-172h-708v-419h592v-172h-592v-218h323v-159h-323v-330h-193v330h-205z" />
    <glyph glyph-name="naira.lt" 
d="M33 512v141h157v176h-157v140h157v501h209l471 -1036v1036h183v-501h157v-140h-157v-176h159v-141h-159v-512h-168l-510 1124v-1124h-185v512h-157z" />
    <glyph glyph-name="peseta.lt" 
d="M399 461v-461h-196v891h-158v149h158v430h344q225 0 366 -110.5t164 -319.5h156v-149h-156q-23 -206 -165.5 -318t-364.5 -112h-148zM399 1317v-277h498q-20 135 -113 206t-241 71h-144zM399 614h144q146 0 238 71.5t114 205.5h-496v-277z" />
    <glyph glyph-name="peso.lt" 
d="M399 489v-489h-196v737h-158v142h158v176h-158v139h158v276h327q181 0 310.5 -70.5t185.5 -205.5h184v-139h-149q4 -46 4 -74q0 -58 -8 -102h155v-142h-200q-62 -120 -187.5 -184t-294.5 -64h-131zM399 643h127q166 0 261.5 89t95.5 251t-95 248t-262 86h-127v-674z" />
    <glyph glyph-name="uni20BD.lt" 
d="M59 334v139h158v176h-158v142h158v679h453q234 0 366.5 -106.5t132.5 -306.5q0 -197 -133 -302.5t-366 -105.5h-256v-176h282v-139h-282v-334h-197v334h-158zM414 791h241q155 0 239.5 68.5t84.5 191.5q0 125 -84 191.5t-240 66.5h-241v-518z" />
    <glyph glyph-name="uni20B9.lt" 
d="M111 922v157h622q-22 113 -105.5 174.5t-217.5 61.5h-299v155h1024v-155h-365q113 -80 141 -236h224v-157h-224q-20 -131 -102 -224t-209 -135l469 -563h-225l-441 530h-12h-280v158h299q133 0 217 62t106 172h-622z" />
    <glyph glyph-name="uni20BA.lt" 
d="M549 176q221 0 335.5 120t114.5 378h175q0 -318 -162.5 -496t-462.5 -178h-326v494l-176 -86v163l176 86v179l-176 -86v161l176 88v471h183v-395l344 168v-164l-344 -168v-178l344 168v-164l-344 -168v-393h143z" />
    <glyph glyph-name="won.lt" 
d="M14 512v141h195l-23 176h-172v140h154l-64 501h158l131 -1177l168 932h129l168 -932l129 1177h154l-64 -501h154v-140h-172l-23 -176h195v-141h-211l-66 -512h-145l-186 1022l-187 -1022h-145l-66 512h-211z" />
    <glyph glyph-name="zero.slash" horiz-adv-x="1275" 
d="M78 735q0 341 151 549.5t410 208.5q171 0 298.5 -96t194 -267t66.5 -395t-66.5 -395t-194 -267t-298.5 -96q-259 0 -410 208.5t-151 549.5zM266 735q0 -120 21 -219l655 596q-47 103 -124 159t-179 56q-119 0 -204 -76t-127 -208t-42 -308zM1010 735q0 120 -21 219
l-653 -596q47 -103 124 -159t179 -56q177 0 274 162t97 430z" />
    <glyph glyph-name="zero.lt" 
d="M78 735q0 224 64.5 395t189 267t291.5 96t291 -96t188.5 -267t64.5 -395t-64.5 -395t-188.5 -267t-291 -96t-291.5 96t-189 267t-64.5 395zM270 735q0 -173 40.5 -305t121 -207.5t191.5 -75.5t191.5 75.5t120.5 207.5t40 305t-40 305t-120.5 207.5t-191.5 75.5
t-191.5 -75.5t-121 -207.5t-40.5 -305z" />
    <glyph glyph-name="zero.slash.lt" 
d="M78 735q0 224 64.5 395t189 267t291.5 96t291 -96t188.5 -267t64.5 -395t-64.5 -395t-188.5 -267t-291 -96t-291.5 96t-189 267t-64.5 395zM264 735q0 -107 19 -211l635 580q-45 108 -120.5 167.5t-174.5 59.5q-169 0 -264 -164t-95 -432zM981 735q0 112 -18 211
l-635 -579q45 -108 120.5 -168t174.5 -60q169 0 263.5 164t94.5 432z" />
    <glyph glyph-name="one.lt" 
d="M625 1479h147v-1315h354v-164h-944v164h400v917h-383v144l184 10q126 8 180.5 61.5t61.5 182.5z" />
    <glyph glyph-name="two.lt" 
d="M111 162l434 360q71 58 115.5 98t95.5 93.5t79 98t47 99.5t19 111q0 136 -81 219.5t-214 83.5q-131 0 -214 -87.5t-83 -215.5q0 -81 31 -160h-184q-31 85 -31 170q0 129 64 235t175.5 166t245.5 60q221 0 353.5 -127.5t132.5 -331.5q0 -73 -20.5 -142t-53 -125
t-85.5 -115.5t-104 -106t-122 -103.5l-330 -270h743v-172h-1013v162z" />
    <glyph glyph-name="three.lt" 
d="M635 -23q-217 0 -367.5 116.5t-183.5 330.5l188 41q23 -151 121.5 -237.5t237.5 -86.5q143 0 230 76t87 205q0 126 -91 193t-236 67h-158v166h162q132 0 210 60.5t78 170.5q0 114 -75 181t-201 67q-132 0 -220.5 -81t-113.5 -220l-176 35q30 190 167.5 311t346.5 121
q211 0 334 -111.5t123 -289.5q0 -115 -68 -203t-166 -121q120 -34 197.5 -123.5t77.5 -232.5q0 -185 -140 -310t-364 -125z" />
    <glyph glyph-name="four.lt" 
d="M920 0h-179v385h-696v152l631 933h248v-923h270v-162h-274v-385zM244 547h495v737z" />
    <glyph glyph-name="five.lt" 
d="M362 684l-178 31l64 755h801v-172h-650l-41 -444q120 115 293 115q212 0 343.5 -139.5t131.5 -352.5q0 -138 -66 -252.5t-183.5 -181t-262.5 -66.5q-211 0 -351.5 114t-176.5 321l188 39q23 -142 114 -226t226 -84q139 0 233.5 95.5t94.5 236.5q0 142 -87.5 239
t-225.5 97q-88 0 -157 -34.5t-110 -90.5z" />
    <glyph glyph-name="six.lt" 
d="M1155 1153l-160 -68q-33 112 -110 178t-199 66q-173 0 -287 -156.5t-114 -410.5v-21q54 102 158.5 167t238.5 65q204 0 341.5 -141.5t137.5 -348.5q0 -215 -146.5 -360.5t-363.5 -145.5q-137 0 -243.5 58.5t-172 161t-98.5 235.5t-33 289q0 347 164.5 559.5t423.5 212.5
q182 0 298.5 -90.5t164.5 -249.5zM981 473q0 143 -94.5 240.5t-233.5 97.5q-140 0 -235.5 -98t-95.5 -240t94.5 -238t234.5 -96q139 0 234.5 96t95.5 238z" />
    <glyph glyph-name="seven.lt" 
d="M969 1300h-705v-251h-172v421h1086v-170q-177 -197 -279.5 -399.5t-143 -413.5t-40.5 -487h-199q0 418 113 732t340 568z" />
    <glyph glyph-name="eight.lt" 
d="M623 1493q203 0 335 -109t132 -284q0 -110 -60.5 -193.5t-169.5 -126.5q137 -41 222 -140t85 -234q0 -127 -70 -224.5t-193.5 -149.5t-280.5 -52q-239 0 -392 117.5t-153 308.5q0 135 85 234t222 140q-109 43 -169 126.5t-60 193.5q0 175 132 284t335 109zM623 858
q131 0 210.5 65.5t79.5 174.5q0 107 -80 173t-210 66q-129 0 -210 -66t-81 -173q0 -108 80.5 -174t210.5 -66zM623 696q-155 0 -254 -77.5t-99 -200.5q0 -126 98.5 -204.5t254.5 -78.5t254 78.5t98 204.5q0 123 -98.5 200.5t-253.5 77.5z" />
    <glyph glyph-name="nine.lt" 
d="M90 317l160 68q33 -112 110 -178t199 -66q173 0 287.5 157t114.5 411v20q-54 -102 -159 -166.5t-239 -64.5q-204 0 -341.5 141t-137.5 348q0 215 146.5 360.5t363.5 145.5q137 0 243.5 -58t172 -161t98.5 -235.5t33 -288.5q0 -347 -164.5 -560t-423.5 -213
q-182 0 -298.5 90.5t-164.5 249.5zM264 997q0 -143 94.5 -240.5t233.5 -97.5q140 0 236 98t96 240t-95 238t-235 96q-139 0 -234.5 -96t-95.5 -238z" />
    <glyph glyph-name="period.tab" horiz-adv-x="622" 
d="M193 0v242h233v-242h-233z" />
    <glyph glyph-name="comma.tab" horiz-adv-x="622" 
d="M193 0v242h233v-254q0 -119 -71 -188t-195 -72v106q139 6 139 150v16h-106z" />
    <glyph glyph-name="colon.tab" horiz-adv-x="622" 
d="M193 745v242h233v-242h-233zM193 0v242h233v-242h-233z" />
    <glyph glyph-name="semicolon.tab" horiz-adv-x="622" 
d="M193 745v242h233v-242h-233zM193 0v242h233v-254q0 -119 -71 -188t-195 -72v106q139 6 139 150v16h-106z" />
    <glyph glyph-name="space.tab" horiz-adv-x="622" 
 />
    <glyph glyph-name="zero.dnom" horiz-adv-x="778" 
d="M78 408q0 189 82.5 304t226.5 115t226.5 -115t82.5 -304t-82.5 -304.5t-226.5 -115.5t-226.5 115.5t-82.5 304.5zM231 408q0 -130 41.5 -206.5t114.5 -76.5q74 0 116 76.5t42 206.5q0 129 -42 205.5t-116 76.5q-73 0 -114.5 -76.5t-41.5 -205.5z" />
    <glyph glyph-name="one.dnom" horiz-adv-x="778" 
d="M340 575h-205v107l86 4q78 3 113 32t45 101h117v-684h174v-135h-531v135h201v440z" />
    <glyph glyph-name="two.dnom" horiz-adv-x="778" 
d="M94 125l277 219q74 59 106.5 107t32.5 106q0 59 -36.5 95t-96.5 36t-96.5 -38.5t-36.5 -96.5q0 -52 20 -88h-151q-19 55 -19 98q0 115 84 189.5t203 74.5q129 0 205 -71.5t76 -188.5q0 -89 -48.5 -162t-144.5 -147l-160 -123h371v-135h-586v125z" />
    <glyph glyph-name="three.dnom" horiz-adv-x="778" 
d="M395 -12q-125 0 -211 65.5t-104 186.5l158 24q7 -66 50.5 -104.5t104.5 -38.5q63 0 101 34t38 91q0 54 -41 85t-104 31h-84v113h82q58 0 96.5 29.5t38.5 79.5t-34 80t-91 30t-96.5 -35.5t-50.5 -95.5l-148 17q16 108 96.5 177.5t204.5 69.5t197.5 -65t73.5 -168
q0 -62 -42 -111t-100 -61q66 -19 110 -68t44 -125q0 -103 -79.5 -172t-209.5 -69z" />
    <glyph glyph-name="four.dnom" horiz-adv-x="778" 
d="M586 0h-146v201h-385v112l336 502h195v-493h141v-121h-141v-201zM186 322h252v366z" />
    <glyph glyph-name="five.dnom" horiz-adv-x="778" 
d="M274 358l-145 21l37 436h463v-131h-346l-21 -217q75 68 168 68q113 0 182.5 -74t69.5 -191q0 -121 -84.5 -201.5t-212.5 -80.5q-123 0 -205.5 64.5t-99.5 180.5l156 27q7 -64 47 -101.5t102 -37.5q63 0 105 42t42 105t-38.5 106.5t-100.5 43.5q-77 0 -119 -60z" />
    <glyph glyph-name="six.dnom" horiz-adv-x="778" 
d="M694 637l-127 -49q-33 112 -143 112q-79 0 -130.5 -65t-51.5 -180q0 -36 2 -52q15 57 66.5 93t121.5 36q114 0 188 -73.5t74 -186.5q0 -123 -82 -203.5t-209 -80.5q-102 0 -174.5 55.5t-106.5 146t-34 205.5q0 194 95.5 313t242.5 119q204 0 268 -190zM551 266
q0 67 -42.5 111.5t-105.5 44.5q-65 0 -108 -44.5t-43 -111.5t42 -111t107 -44q64 0 107 44t43 111z" />
    <glyph glyph-name="seven.dnom" horiz-adv-x="778" 
d="M543 686h-324v-125h-131v254h610v-129q-137 -148 -186 -305.5t-49 -380.5h-166q0 414 246 686z" />
    <glyph glyph-name="eight.dnom" horiz-adv-x="778" 
d="M387 827q114 0 192 -62t78 -165q0 -120 -118 -174q70 -23 114.5 -75.5t44.5 -123.5q0 -107 -88.5 -173t-222.5 -66t-222.5 66t-88.5 173q0 70 45 123t115 76q-117 55 -117 174q0 103 77 165t191 62zM387 481q60 0 96.5 31.5t36.5 83.5t-36.5 83.5t-96.5 31.5
q-59 0 -95 -31.5t-36 -83.5t36 -83.5t95 -31.5zM387 373q-69 0 -114.5 -37.5t-45.5 -95.5q0 -59 45 -95t115 -36t115 36t45 95q0 58 -45.5 95.5t-114.5 37.5z" />
    <glyph glyph-name="nine.dnom" horiz-adv-x="778" 
d="M82 178l127 49q30 -112 143 -112q79 0 131 65t52 180q0 26 -3 50q-18 -57 -68.5 -92t-119.5 -35q-114 0 -188 73.5t-74 186.5q0 123 82 203.5t209 80.5q102 0 174.5 -55.5t106.5 -146t34 -205.5q0 -194 -95.5 -313t-242.5 -119q-204 0 -268 190zM225 549
q0 -67 42.5 -112.5t105.5 -45.5q65 0 108 45.5t43 112.5q0 68 -42.5 112t-106.5 44q-63 0 -106.5 -44.5t-43.5 -111.5z" />
    <glyph glyph-name="percent.lt" 
d="M29 1137q0 161 68 258.5t188 97.5t188 -97.5t68 -258.5t-68 -258t-188 -97t-188 97t-68 258zM45 0l981 1470h174l-981 -1470h-174zM406 1137q0 107 -30.5 168t-90.5 61t-91.5 -61t-31.5 -168t31.5 -167.5t91.5 -60.5t90.5 60.5t30.5 167.5zM1214 334q0 -161 -67 -259
t-186 -98q-121 0 -188.5 97.5t-67.5 259.5q0 161 67.5 257.5t188.5 96.5q120 0 186.5 -96.5t66.5 -257.5zM838 334q0 -108 31 -169t92 -61q59 0 89.5 61.5t30.5 168.5t-30.5 167t-89.5 60q-61 0 -92 -60t-31 -167z" />
    <glyph glyph-name="colon.mid" horiz-adv-x="456" 
d="M111 973v241h233v-241h-233zM111 227v242h233v-242h-233z" />
    <glyph glyph-name="commaaboverightcmb" horiz-adv-x="0" 
d="M-129 1110l47 360h211l-133 -360h-125z" />
    <glyph glyph-name="nbspace" horiz-adv-x="432" 
 />
    </font>
</defs>
</svg>
