<svg width="110" height="111" viewBox="0 0 110 111" fill="none" xmlns="http://www.w3.org/2000/svg">
<path d="M83.6368 58.1976C84.5252 57.7483 85.2644 57.0514 85.7651 56.191C86.2658 55.3306 86.5065 54.3436 86.4582 53.3493C86.41 52.355 86.0747 51.396 85.493 50.5882C84.9112 49.7804 84.108 49.1583 83.1803 48.7973C83.509 47.5719 83.3737 46.2683 82.8003 45.1365C82.2269 44.0047 81.2559 43.1245 80.0734 42.6646C80.273 41.9197 80.3028 41.1395 80.1607 40.3815C80.0185 39.6235 79.7081 38.9071 79.2522 38.2851C78.7963 37.6631 78.2066 37.1514 77.5266 36.7876C76.8466 36.4239 76.0937 36.2174 75.3232 36.1834L86.2474 27.58C86.5281 27.3589 86.7329 27.0559 86.8334 26.713C86.9339 26.3702 86.925 26.0045 86.808 25.6669C86.691 25.3293 86.4718 25.0366 86.1807 24.8294C85.8896 24.6222 85.5412 24.5109 85.1839 24.5109H72.3197C72.3358 24.4658 72.3558 24.4228 72.3709 24.3769C72.6883 23.4077 72.7112 22.3661 72.4367 21.3839C72.1622 20.4017 71.6026 19.523 70.8287 18.8588C70.0547 18.1947 69.1012 17.775 68.0888 17.6527C67.0763 17.5305 66.0503 17.7113 65.1405 18.1722L61.4562 20.0387L56.6312 5.56386C56.5169 5.22161 56.2979 4.92397 56.0051 4.71306C55.7124 4.50216 55.3607 4.38867 54.9999 4.38867C54.6391 4.38867 54.2874 4.50216 53.9946 4.71306C53.7019 4.92397 53.4828 5.22161 53.3686 5.56386L47.0528 24.5109H24.8156C24.4584 24.511 24.1101 24.6223 23.819 24.8295C23.528 25.0367 23.3088 25.3294 23.1918 25.6669C23.0748 26.0044 23.066 26.37 23.1664 26.7128C23.2668 27.0557 23.4715 27.3587 23.7521 27.5798L32.4742 34.449L29.0979 37.075C28.0618 37.8756 27.2237 38.9037 26.6485 40.0799C26.0732 41.2561 25.7761 42.5489 25.7803 43.8583V58.4109C25.782 59.7173 25.2861 60.9753 24.3935 61.9292L2.17969 85.7292L4.69293 88.0746L26.9065 64.2749C28.3941 62.685 29.2206 60.5884 29.2178 58.4111V43.8583C29.2153 43.0726 29.3935 42.2969 29.7387 41.5912C30.0839 40.8855 30.5868 40.2686 31.2085 39.7883L42.2203 31.2233L43.1259 33.4875C43.5014 34.4243 43.5934 35.4508 43.3905 36.4395C43.1876 37.4282 42.6986 38.3354 41.9844 39.0485L36.5962 44.4368C36.2739 44.7592 36.0928 45.1963 36.0928 45.6521C36.0928 46.1079 36.2739 46.545 36.5962 46.8674C37.4285 47.6993 38.1291 48.6533 38.6739 49.6964L34.4372 62.0993C34.3198 62.4431 34.3144 62.8151 34.4216 63.1622C34.5288 63.5092 34.7432 63.8133 35.034 64.0309C35.3248 64.2485 35.6771 64.3684 36.0403 64.3734C36.4034 64.3783 36.7589 64.2681 37.0555 64.0585L54.9999 51.3797L70.2121 62.1281L66.2908 64.7063L46.5645 70.7758C44.6402 71.3693 42.9849 72.6185 41.8865 74.3061L20.9016 106.59L23.7837 108.464L44.7686 76.1798C45.4277 75.1672 46.4208 74.4176 47.5753 74.0614L67.5358 67.9199C67.6911 67.8722 67.8388 67.8027 67.9745 67.7134L78.4576 60.8212L83.6368 58.1976ZM35.2695 32.275L29.7759 27.9484H40.832L35.2695 32.275ZM59.7043 25.3441C59.774 25.1293 59.8856 24.9306 60.0326 24.7592C60.1797 24.5879 60.3592 24.4474 60.5609 24.3459L66.6938 21.2389C67.1005 21.0328 67.5723 20.9968 68.0055 21.1387C68.4387 21.2805 68.7978 21.5887 69.0038 21.9953C69.2098 22.402 69.2459 22.8738 69.104 23.307C68.9622 23.7402 68.654 24.0993 68.2474 24.3053L62.1144 27.4122C61.8112 27.5658 61.4692 27.626 61.1317 27.5853C60.7943 27.5446 60.4765 27.4047 60.2185 27.1833C59.9605 26.9619 59.774 26.6691 59.6824 26.3417C59.5909 26.0143 59.5985 25.6671 59.7043 25.3441ZM70.1532 57.8779L55.9916 47.8715C55.7015 47.6666 55.3551 47.5566 54.9999 47.5566C54.6447 47.5566 54.2983 47.6666 54.0082 47.8715L39.4052 58.1892L45.1104 41.4872C45.2054 41.2058 45.2253 40.9044 45.1684 40.6128C46.0714 39.4319 46.652 38.0366 46.8534 36.5637C47.0548 35.0909 46.8701 33.5909 46.3174 32.2109L44.6124 27.9482H48.2916C48.6524 27.9482 49.004 27.8348 49.2966 27.6238C49.5893 27.4129 49.8082 27.1153 49.9223 26.773L54.9999 11.54L58.3751 21.6651C57.3598 22.3758 56.6352 23.4291 56.3345 24.6313C56.0337 25.8336 56.177 27.104 56.738 28.209C57.3563 29.4286 58.4337 30.3528 59.7332 30.7783C61.0327 31.2039 62.448 31.096 63.668 30.4784L68.749 27.9046V27.9482H80.2238L65.4522 39.5816C65.195 39.785 65.0014 40.0579 64.8946 40.3679C64.7877 40.6779 64.7719 41.0121 64.8492 41.3308C64.3677 41.9654 64.0401 42.7031 63.8923 43.4858C63.7445 44.2685 63.7805 45.0749 63.9974 45.8413C64.2143 46.6077 64.6063 47.3133 65.1424 47.9025C65.6785 48.4916 66.3441 48.9482 67.0868 49.2362C66.7569 50.4622 66.8919 51.7669 67.4658 52.8994C68.0398 54.0318 69.0122 54.9121 70.196 55.3709C69.9753 56.1902 69.9606 57.0513 70.153 57.8777L70.1532 57.8779ZM69.7365 45.9721L69.7356 45.9725C69.3293 46.1751 68.8593 46.2088 68.4282 46.066C67.9972 45.9233 67.6402 45.6158 67.4351 45.2107C67.2301 44.8055 67.1936 44.3358 67.3338 43.9039C67.4739 43.472 67.7793 43.1131 68.1831 42.9056L74.3161 39.7988C74.5177 39.6936 74.7382 39.6294 74.9649 39.61C75.1915 39.5907 75.4197 39.6165 75.6363 39.686C75.8529 39.7555 76.0535 39.8673 76.2265 40.0149C76.3996 40.1625 76.5416 40.3429 76.6444 40.5458C76.7472 40.7487 76.8087 40.97 76.8253 41.1969C76.842 41.4237 76.8134 41.6516 76.7413 41.8673C76.6692 42.083 76.555 42.2823 76.4053 42.4536C76.2557 42.6248 76.0735 42.7647 75.8694 42.865L69.7365 45.9721ZM70.5335 51.3486C70.3275 50.942 70.2914 50.4702 70.4332 50.0369C70.5751 49.6037 70.8832 49.2446 71.2898 49.0386L77.4229 45.9317C77.8291 45.7285 78.2993 45.6943 78.7307 45.8367C79.162 45.979 79.5195 46.2864 79.7249 46.6915C79.9303 47.0966 79.967 47.5666 79.827 47.9987C79.687 48.4308 79.3815 48.7899 78.9775 48.9975L78.9764 48.998L72.8435 52.105C72.4368 52.3105 71.9652 52.3463 71.5321 52.2045C71.099 52.0626 70.7399 51.7548 70.5335 51.3486ZM73.6404 57.4813C73.4345 57.0747 73.3985 56.603 73.5404 56.1699C73.6822 55.7368 73.9903 55.3777 74.3968 55.1717L80.5298 52.0646C80.7311 51.9626 80.9506 51.9013 81.1756 51.8841C81.4007 51.8669 81.6269 51.8942 81.8414 51.9645C82.0559 52.0347 82.2545 52.1465 82.4258 52.2935C82.5971 52.4405 82.7378 52.6198 82.8398 52.8211C82.9418 53.0225 83.0031 53.2419 83.0203 53.467C83.0375 53.692 83.0102 53.9183 82.9399 54.1328C82.8697 54.3473 82.7579 54.5458 82.6109 54.7171C82.4639 54.8884 82.2847 55.0291 82.0833 55.1311L75.9504 58.238C75.5436 58.4434 75.072 58.4791 74.6389 58.3372C74.2059 58.1954 73.8468 57.8876 73.6404 57.4813Z" fill="url(#paint0_linear_2732_6367)"/>
<path d="M65.8066 11.2821L72.6805 4.4082L75.1108 6.83852L68.2369 13.7122L65.8066 11.2821ZM78.0802 16.7744L90.1155 8.18408L92.1127 10.9822L80.0774 19.5725L78.0802 16.7744ZM90.6717 23.3132L104.42 19.8692L105.255 23.2036L91.5071 26.6475L90.6717 23.3132ZM89.0015 38.7548L89.7475 35.3998L105.213 38.8386L104.467 42.1936L89.0015 38.7548ZM89.4484 54.0586L91.119 51.0542L106.585 59.6542L104.914 62.6586L89.4484 54.0586ZM83.0171 67.5751L85.2996 65.0072L100.76 78.7497L98.4774 81.3175L83.0171 67.5751ZM68.9051 77.3161L72.0263 75.8758L82.3375 98.2206L79.2163 99.6609L68.9051 77.3161ZM44.7923 98.3568L51.6623 77.7247L54.9245 78.811L48.0545 99.443L44.7923 98.3568ZM28.2106 7.50883L30.2078 4.7107L42.2432 13.301L40.246 16.0991L28.2106 7.50883ZM5.84197 14.3696L7.90447 11.6196L21.6545 21.9321L19.592 24.6821L5.84197 14.3696ZM4.82812 38.7342L5.50187 35.362L22.6967 38.7974L22.0229 42.1696L4.82812 38.7342ZM5.84197 61.4634L19.592 51.1509L21.6545 53.9009L7.90447 64.2134L5.84197 61.4634Z" fill="url(#paint1_linear_2732_6367)"/>
<defs>
<linearGradient id="paint0_linear_2732_6367" x1="44.5412" y1="-27.1751" x2="44.5412" y2="117.848" gradientUnits="userSpaceOnUse">
<stop stop-color="#0735FA"/>
<stop offset="1" stop-color="#9473E4"/>
</linearGradient>
<linearGradient id="paint1_linear_2732_6367" x1="55.7066" y1="-24.4799" x2="55.7066" y2="108.249" gradientUnits="userSpaceOnUse">
<stop stop-color="#0735FA"/>
<stop offset="1" stop-color="#9473E4"/>
</linearGradient>
</defs>
</svg>
