<svg width="111" height="111" viewBox="0 0 111 111" fill="none" xmlns="http://www.w3.org/2000/svg">
<mask id="mask0_2732_6376" style="mask-type:luminance" maskUnits="userSpaceOnUse" x="0" y="0" width="111" height="111">
<path d="M0.5 0.963211H110.5V110.963H0.5V0.963211Z" fill="white"/>
</mask>
<g mask="url(#mask0_2732_6376)">
<path d="M42.3944 79.2793C62.5095 79.2793 78.8162 62.9727 78.8162 42.8575C78.8162 22.7424 62.5095 6.43578 42.3944 6.43578C22.2793 6.43578 5.97266 22.7424 5.97266 42.8575C5.97266 62.9727 22.2793 79.2793 42.3944 79.2793Z" stroke="url(#paint0_linear_2732_6376)" stroke-width="4.5" stroke-miterlimit="10"/>
<mask id="path-3-inside-1_2732_6376" fill="white">
<path d="M41.0684 81.507C41.8949 85.6928 42.3948 89.93 42.3948 94.226V107.74H68.176V96.6107C74.3508 98.4794 84.1539 100.865 93.9571 100.865V84.752L105 78.3067C105 78.3067 94.2682 68.9131 93.964 59.3853C93.6278 48.8582 88.4731 39.1595 80.0441 33.9859"/>
</mask>
<path d="M42.3948 107.74V112.24H37.8948V107.74H42.3948ZM68.176 107.74H72.676V112.24H68.176V107.74ZM68.176 96.6107H63.676V90.5473L69.4794 92.3036L68.176 96.6107ZM93.9571 100.865H98.4571V105.365H93.9571V100.865ZM93.9571 84.752H89.4571V82.1681L91.6888 80.8655L93.9571 84.752ZM105 78.3067L107.964 74.9206L112.671 79.0403L107.269 82.1932L105 78.3067ZM93.964 59.3853L98.4617 59.2416V59.2417L93.964 59.3853ZM45.4831 80.6353C46.3543 85.0472 46.8948 89.581 46.8948 94.226H37.8948C37.8948 90.2789 37.4355 86.3385 36.6536 82.3787L45.4831 80.6353ZM46.8948 94.226V107.74H37.8948V94.226H46.8948ZM42.3948 103.24H68.176V112.24H42.3948V103.24ZM63.676 107.74V96.6107H72.676V107.74H63.676ZM69.4794 92.3036C75.4772 94.1188 84.7943 96.3653 93.9571 96.3653V105.365C83.5134 105.365 73.2244 102.84 66.8725 100.918L69.4794 92.3036ZM89.4571 100.865V84.752H98.4571V100.865H89.4571ZM91.6888 80.8655L102.732 74.4202L107.269 82.1932L96.2255 88.6385L91.6888 80.8655ZM105 78.3067C102.036 81.6928 102.036 81.6921 102.035 81.6913C102.034 81.691 102.033 81.6902 102.033 81.6896C102.031 81.6883 102.03 81.687 102.028 81.6854C102.025 81.6824 102.02 81.6787 102.016 81.6745C102.006 81.6661 101.994 81.6553 101.979 81.6423C101.95 81.6163 101.911 81.5811 101.862 81.537C101.765 81.449 101.629 81.3254 101.462 81.1686C101.127 80.8551 100.662 80.4071 100.108 79.8429C99.0044 78.7192 97.5262 77.1096 96.0287 75.1617C93.1643 71.4358 89.6651 65.7563 89.4663 59.5289L98.4617 59.2417C98.5671 62.5421 100.586 66.3233 103.164 69.6762C104.387 71.2677 105.611 72.6019 106.53 73.5373C106.986 74.0026 107.362 74.3629 107.615 74.6004C107.742 74.719 107.837 74.8066 107.897 74.8608C107.927 74.8879 107.948 74.9066 107.96 74.9167C107.965 74.9217 107.969 74.9246 107.969 74.9252C107.97 74.9256 107.97 74.9254 107.969 74.9246C107.968 74.9242 107.968 74.9237 107.967 74.923C107.966 74.9227 107.966 74.9221 107.966 74.9219C107.965 74.9213 107.964 74.9206 105 78.3067ZM89.4663 59.5289C89.1721 50.3167 84.6691 42.1047 77.6901 37.8211L82.3981 30.1507C92.277 36.2143 98.0835 47.3996 98.4617 59.2416L89.4663 59.5289Z" fill="url(#paint1_linear_2732_6376)" mask="url(#path-3-inside-1_2732_6376)"/>
<path d="M25.8737 29.1812L25.8736 29.1813C24.8308 32.8962 25.2955 36.3849 26.7419 39.278C29.5161 44.8269 31.7538 50.9085 31.7538 57.4724V59.9434H40.1444V52.5254V48.8848L43.3987 50.512L43.399 50.5121L43.3994 50.5123L43.4 50.5126L43.4007 50.513L43.4065 50.5158L43.4484 50.5363C43.4881 50.5555 43.551 50.5855 43.6355 50.625C43.8045 50.7039 44.0597 50.82 44.3885 50.9609C45.0473 51.2432 45.9954 51.6226 47.1343 52.0022C48.8402 52.5708 50.9072 53.1172 53.035 53.3628V46.0801V44.6895L54.2788 44.0677L57.4084 42.5029C57.2455 42.3531 57.0812 42.196 56.9167 42.0315C55.0601 40.1749 53.035 37.2194 53.035 33.1895C53.035 24.3212 44.715 17.3897 35.4045 19.8189C30.8807 20.9992 27.1376 24.6777 25.8737 29.1812Z" stroke="url(#paint2_linear_2732_6376)" stroke-width="4.5" stroke-miterlimit="10"/>
</g>
<defs>
<linearGradient id="paint0_linear_2732_6376" x1="42.3944" y1="104.986" x2="42.3944" y2="-2.78782" gradientUnits="userSpaceOnUse">
<stop stop-color="#0735FA"/>
<stop offset="1" stop-color="#9473E4"/>
</linearGradient>
<linearGradient id="paint1_linear_2732_6376" x1="73.0343" y1="130.108" x2="73.0343" y2="27.3359" gradientUnits="userSpaceOnUse">
<stop stop-color="#0735FA"/>
<stop offset="1" stop-color="#9473E4"/>
</linearGradient>
<linearGradient id="paint2_linear_2732_6376" x1="42.3945" y1="75.8764" x2="42.3945" y2="13.0085" gradientUnits="userSpaceOnUse">
<stop stop-color="#0735FA"/>
<stop offset="1" stop-color="#9473E4"/>
</linearGradient>
</defs>
</svg>
