<svg width="110" height="111" viewBox="0 0 110 111" fill="none" xmlns="http://www.w3.org/2000/svg">
<path d="M50.447 67.9941H24.0625C23.6067 67.9941 23.1695 67.8131 22.8472 67.4907C22.5248 67.1684 22.3438 66.7312 22.3438 66.2754C22.3438 65.8195 22.5248 65.3824 22.8472 65.06C23.1695 64.7377 23.6067 64.5566 24.0625 64.5566H50.447C50.9029 64.5566 51.34 64.7377 51.6624 65.06C51.9847 65.3824 52.1658 65.8195 52.1658 66.2754C52.1658 66.7312 51.9847 67.1684 51.6624 67.4907C51.34 67.8131 50.9029 67.9941 50.447 67.9941ZM50.447 47.3691H24.0625C23.6067 47.3691 23.1695 47.1881 22.8472 46.8657C22.5248 46.5434 22.3438 46.1062 22.3438 45.6504C22.3438 45.1945 22.5248 44.7574 22.8472 44.435C23.1695 44.1127 23.6067 43.9316 24.0625 43.9316H50.447C50.9029 43.9316 51.34 44.1127 51.6624 44.435C51.9847 44.7574 52.1658 45.1945 52.1658 45.6504C52.1658 46.1062 51.9847 46.5434 51.6624 46.8657C51.34 47.1881 50.9029 47.3691 50.447 47.3691ZM48.125 57.6816H13.75C13.2942 57.6816 12.857 57.5006 12.5347 57.1782C12.2123 56.8559 12.0312 56.4187 12.0312 55.9629C12.0312 55.507 12.2123 55.0699 12.5347 54.7475C12.857 54.4252 13.2942 54.2441 13.75 54.2441H48.125C48.5808 54.2441 49.018 54.4252 49.3403 54.7475C49.6627 55.0699 49.8438 55.507 49.8438 55.9629C49.8438 56.4187 49.6627 56.8559 49.3403 57.1782C49.018 57.5006 48.5808 57.6816 48.125 57.6816ZM65.3125 62.6695C61.8973 62.6695 58.4375 60.3663 58.4375 55.9629C58.4375 51.5595 61.8973 49.2563 65.3125 49.2563C68.7277 49.2563 72.1875 51.5595 72.1875 55.9629C72.1875 60.3663 68.7277 62.6695 65.3125 62.6695ZM65.3125 52.6938C63.7261 52.6938 61.875 53.5498 61.875 55.9629C61.875 58.376 63.7261 59.232 65.3125 59.232C66.8989 59.232 68.75 58.376 68.75 55.9629C68.75 53.5498 66.8989 52.6938 65.3125 52.6938Z" fill="url(#paint0_linear_2732_6389)"/>
<path d="M68.958 54.0362C68.6177 54.0369 68.2849 53.9366 68.0018 53.7478C67.7187 53.5591 67.498 53.2905 67.3678 52.9762C67.2376 52.6618 67.2038 52.3159 67.2705 51.9822C67.3373 51.6486 67.5017 51.3423 67.7428 51.1023L77.4658 41.3793C77.6254 41.2197 77.8148 41.0931 78.0233 41.0068C78.2318 40.9204 78.4553 40.876 78.6809 40.876C78.9066 40.876 79.1301 40.9204 79.3386 41.0068C79.5471 41.0931 79.7365 41.2197 79.8961 41.3793C80.0557 41.5389 80.1823 41.7283 80.2686 41.9368C80.355 42.1453 80.3994 42.3688 80.3994 42.5945C80.3994 42.8201 80.355 43.0436 80.2686 43.2521C80.1823 43.4606 80.0557 43.65 79.8961 43.8096L70.1731 53.5326C70.0137 53.6924 69.8243 53.8192 69.6158 53.9056C69.4073 53.992 69.1837 54.0364 68.958 54.0362ZM59.2367 63.7591C58.8965 63.7599 58.5637 63.6595 58.2806 63.4708C57.9974 63.2821 57.7768 63.0135 57.6466 62.6991C57.5164 62.3848 57.4825 62.0388 57.5493 61.7052C57.616 61.3716 57.7804 61.0653 58.0216 60.8252L60.4519 58.3932C60.6115 58.2336 60.8009 58.107 61.0094 58.0207C61.2179 57.9343 61.4414 57.8899 61.667 57.8899C61.8927 57.8899 62.1162 57.9343 62.3247 58.0207C62.5332 58.107 62.7226 58.2336 62.8822 58.3932C63.0418 58.5528 63.1683 58.7422 63.2547 58.9507C63.3411 59.1592 63.3855 59.3827 63.3855 59.6084C63.3855 59.834 63.3411 60.0575 63.2547 60.266C63.1683 60.4745 63.0418 60.6639 62.8822 60.8235L60.4519 63.2555C60.2925 63.4154 60.1031 63.5422 59.8945 63.6286C59.686 63.715 59.4625 63.7594 59.2367 63.7591ZM65.3125 88.6191C64.8567 88.6191 64.4195 88.4381 64.0972 88.1157C63.7748 87.7934 63.5938 87.3562 63.5938 86.9004V81.7441C63.5938 81.2883 63.7748 80.8511 64.0972 80.5288C64.4195 80.2065 64.8567 80.0254 65.3125 80.0254C65.7683 80.0254 66.2055 80.2065 66.5278 80.5288C66.8502 80.8511 67.0312 81.2883 67.0312 81.7441V86.9004C67.0312 87.3562 66.8502 87.7934 66.5278 88.1157C66.2055 88.4381 65.7683 88.6191 65.3125 88.6191ZM87.1888 79.5579C86.963 79.5581 86.7395 79.5138 86.5309 79.4273C86.3224 79.3409 86.133 79.2141 85.9736 79.0543L82.3281 75.4071C82.1686 75.2475 82.042 75.0581 81.9556 74.8496C81.8692 74.6411 81.8248 74.4176 81.8248 74.192C81.8248 73.9663 81.8692 73.7428 81.9556 73.5343C82.042 73.3258 82.1686 73.1364 82.3281 72.9768C82.4877 72.8172 82.6771 72.6906 82.8856 72.6043C83.0941 72.5179 83.3176 72.4735 83.5433 72.4735C83.769 72.4735 83.9924 72.5179 84.2009 72.6043C84.4094 72.6906 84.5989 72.8172 84.7584 72.9768L88.4039 76.624C88.6451 76.864 88.8094 77.1703 88.8762 77.5039C88.943 77.8376 88.9091 78.1835 88.7789 78.4979C88.6487 78.8122 88.428 79.0808 88.1449 79.2696C87.8618 79.4583 87.529 79.5586 87.1888 79.5579ZM83.5416 39.4526C83.2013 39.4533 82.8685 39.353 82.5854 39.1642C82.3023 38.9755 82.0816 38.7069 81.9514 38.3926C81.8212 38.0782 81.7874 37.7323 81.8541 37.3986C81.9209 37.065 82.0853 36.7587 82.3264 36.5187L85.9719 32.8715C86.1315 32.7119 86.3209 32.5853 86.5294 32.499C86.7379 32.4126 86.9614 32.3681 87.187 32.3681C87.4127 32.3681 87.6362 32.4126 87.8447 32.499C88.0532 32.5853 88.2426 32.7119 88.4022 32.8715C88.5618 33.0311 88.6884 33.2205 88.7747 33.429C88.8611 33.6375 88.9055 33.861 88.9055 34.0866C88.9055 34.3123 88.8611 34.5358 88.7747 34.7443C88.6884 34.9528 88.5618 35.1422 88.4022 35.3018L84.7567 38.949C84.5973 39.1088 84.4079 39.2356 84.1994 39.322C83.9908 39.4084 83.7673 39.4528 83.5416 39.4526ZM65.3125 31.9004C64.8567 31.9004 64.4195 31.7193 64.0972 31.397C63.7748 31.0747 63.5938 30.6375 63.5938 30.1816V25.0254C63.5938 24.5695 63.7748 24.1324 64.0972 23.8101C64.4195 23.4877 64.8567 23.3066 65.3125 23.3066C65.7683 23.3066 66.2055 23.4877 66.5278 23.8101C66.8502 24.1324 67.0312 24.5695 67.0312 25.0254V30.1816C67.0312 30.6375 66.8502 31.0747 66.5278 31.397C66.2055 31.7193 65.7683 31.9004 65.3125 31.9004ZM96.25 57.6816H91.0938C90.6379 57.6816 90.2007 57.5006 89.8784 57.1782C89.5561 56.8559 89.375 56.4187 89.375 55.9629C89.375 55.507 89.5561 55.0699 89.8784 54.7475C90.2007 54.4252 90.6379 54.2441 91.0938 54.2441H96.25C96.7058 54.2441 97.143 54.4252 97.4653 54.7475C97.7877 55.0699 97.9688 55.507 97.9688 55.9629C97.9688 56.4187 97.7877 56.8559 97.4653 57.1782C97.143 57.5006 96.7058 57.6816 96.25 57.6816ZM52.9186 37.0566H34.375C33.9192 37.0566 33.482 36.8756 33.1597 36.5532C32.8373 36.2309 32.6562 35.7937 32.6562 35.3379C32.6562 34.882 32.8373 34.4449 33.1597 34.1225C33.482 33.8002 33.9192 33.6191 34.375 33.6191H52.9186C53.3744 33.6191 53.8116 33.8002 54.1339 34.1225C54.4563 34.4449 54.6373 34.882 54.6373 35.3379C54.6373 35.7937 54.4563 36.2309 54.1339 36.5532C53.8116 36.8756 53.3744 37.0566 52.9186 37.0566ZM52.9186 78.3066H34.375C33.9192 78.3066 33.482 78.1256 33.1597 77.8032C32.8373 77.4809 32.6562 77.0437 32.6562 76.5879C32.6562 76.132 32.8373 75.6949 33.1597 75.3726C33.482 75.0502 33.9192 74.8691 34.375 74.8691H52.9186C53.3744 74.8691 53.8116 75.0502 54.1339 75.3726C54.4563 75.6949 54.6373 76.132 54.6373 76.5879C54.6373 77.0437 54.4563 77.4809 54.1339 77.8032C53.8116 78.1256 53.3744 78.3066 52.9186 78.3066Z" fill="url(#paint1_linear_2732_6389)"/>
<path d="M65.205 88.5869C60.1673 88.5869 55.0781 87.4267 50.3516 84.9912C49.9463 84.7825 49.6406 84.4213 49.5017 83.9871C49.3628 83.5529 49.402 83.0813 49.6108 82.6761C49.8196 82.2708 50.1808 81.9651 50.6149 81.8262C51.0491 81.6873 51.5207 81.7265 51.9259 81.9353C65.4078 88.8825 82.2017 84.2281 90.1595 71.3392C98.1397 58.4125 94.8002 41.2955 82.5575 32.37C73.6905 25.9075 61.6661 24.9725 51.9259 29.9895C51.7253 30.0929 51.5062 30.1557 51.2813 30.1745C51.0563 30.1932 50.8299 30.1674 50.6149 30.0986C50.4 30.0298 50.2006 29.9194 50.0283 29.7735C49.856 29.6277 49.7142 29.4494 49.6108 29.2487C49.5074 29.0481 49.4446 28.829 49.4258 28.6041C49.4071 28.3791 49.4329 28.1527 49.5017 27.9377C49.5705 27.7228 49.6809 27.5234 49.8268 27.3511C49.9726 27.1788 50.1509 27.037 50.3516 26.9336C61.2364 21.3236 74.6702 22.3669 84.5822 29.5908C98.2669 39.5664 102.002 58.6978 93.0831 73.1439C86.9798 83.0336 76.2222 88.5869 65.205 88.5869Z" fill="url(#paint2_linear_2732_6389)"/>
<defs>
<linearGradient id="paint0_linear_2732_6389" x1="42.1094" y1="36.634" x2="42.1094" y2="70.1637" gradientUnits="userSpaceOnUse">
<stop stop-color="#0735FA"/>
<stop offset="1" stop-color="#9473E4"/>
</linearGradient>
<linearGradient id="paint1_linear_2732_6389" x1="65.3125" y1="3.49875" x2="65.3125" y2="94.508" gradientUnits="userSpaceOnUse">
<stop stop-color="#0735FA"/>
<stop offset="1" stop-color="#9473E4"/>
</linearGradient>
<linearGradient id="paint2_linear_2732_6389" x1="73.6716" y1="3.56454" x2="73.6716" y2="94.4689" gradientUnits="userSpaceOnUse">
<stop stop-color="#0735FA"/>
<stop offset="1" stop-color="#9473E4"/>
</linearGradient>
</defs>
</svg>
