<svg width="111" height="111" viewBox="0 0 111 111" fill="none" xmlns="http://www.w3.org/2000/svg">
<path d="M93.3125 2.68164H69.25C66.4072 2.68164 64.0938 4.99508 64.0938 7.83789V11.2754C60.3022 11.2754 57.2188 14.3588 57.2188 18.1504C57.2188 21.942 60.3022 25.0254 64.0938 25.0254V33.6191H77.8438V30.1816C77.8438 28.2859 79.3855 26.7441 81.2812 26.7441C83.177 26.7441 84.7188 28.2859 84.7188 30.1816V33.6191H93.3125C96.1553 33.6191 98.4688 31.3057 98.4688 28.4629V7.83789C98.4688 4.99508 96.1553 2.68164 93.3125 2.68164ZM95.0312 28.4629C95.0312 29.4099 94.2612 30.1816 93.3125 30.1816H88.1562C88.1562 26.3901 85.0728 23.3066 81.2812 23.3066C77.4897 23.3066 74.4062 26.3901 74.4062 30.1816H67.5312V21.5879H64.0938C62.198 21.5879 60.6562 20.0462 60.6562 18.1504C60.6562 16.2546 62.198 14.7129 64.0938 14.7129H67.5312V7.83789C67.5312 6.89086 68.3013 6.11914 69.25 6.11914H93.3125C94.2612 6.11914 95.0312 6.89086 95.0312 7.83789V28.4629Z" fill="url(#paint0_linear_2732_6398)"/>
<path d="M64.0938 37.0566C60.3022 37.0566 57.2188 40.1401 57.2188 43.9316H50.3438V35.3379H46.9063C45.0105 35.3379 43.4688 33.7962 43.4688 31.9004C43.4688 30.0046 45.0105 28.4629 46.9063 28.4629H50.3438V12.9941H45.7358C27.4277 12.9941 12.5313 27.8905 12.5313 46.1987C12.5228 51.1183 13.6117 55.9779 15.7185 60.4235C17.8254 64.8691 20.8972 68.7889 24.7104 71.8974L31.4375 77.4026V82.0621C30.4351 82.4155 29.5666 83.0703 28.9511 83.9369C28.3357 84.8035 28.0035 85.8392 28 86.9021C28 89.2791 29.6243 91.266 31.8157 91.859C31.5768 92.452 31.4375 93.0965 31.4375 93.7754C31.4375 96.0476 32.9243 97.9588 34.9679 98.6446C35.6794 104.605 40.7583 109.244 46.9063 109.244C53.0543 109.244 58.1332 104.605 58.8447 98.6446C59.8693 98.3055 60.7615 97.653 61.395 96.7792C62.0285 95.9054 62.3713 94.8546 62.375 93.7754C62.375 93.0965 62.2358 92.452 61.9969 91.8573C63.089 91.5647 64.0544 90.9208 64.744 90.0249C65.4337 89.129 65.8092 88.031 65.8125 86.9004C65.8091 85.8375 65.4769 84.8017 64.8615 83.9352C64.246 83.0686 63.3775 82.4137 62.375 82.0604V77.4009L69.1022 71.8957C72.9155 68.7877 75.9875 64.8683 78.0944 60.4229C80.2013 55.9775 81.29 51.1181 81.2813 46.1987V43.9316H70.9688C70.9688 40.1401 67.8854 37.0566 64.0938 37.0566ZM45.7358 16.4316H46.9063V25.0254C43.1147 25.0254 40.0313 28.1088 40.0313 31.9004C40.0313 35.692 43.1147 38.7754 46.9063 38.7754V43.9316H40.0313C40.0313 40.1401 36.9479 37.0566 33.1563 37.0566C29.3647 37.0566 26.2813 40.1401 26.2813 43.9316H16.0547C17.2166 28.5729 30.0849 16.4316 45.7358 16.4316ZM26.8863 69.2368C23.6207 66.5754 20.96 63.2484 19.0816 59.4776C17.2032 55.7068 16.1502 51.5789 15.9929 47.3691H29.7188V43.9316C29.7188 42.0359 31.2605 40.4941 33.1563 40.4941C35.0521 40.4941 36.5938 42.0359 36.5938 43.9316V47.3691H46.9063V54.2441C43.1147 54.2441 40.0313 57.3276 40.0313 61.1191C40.0313 64.9107 43.1147 67.9941 46.9063 67.9941V81.7441H34.875V75.7732L26.8863 69.2368ZM46.9063 105.807C44.9263 105.803 43.0079 105.118 41.4743 103.866C39.9406 102.613 38.8853 100.871 38.4861 98.9316H55.3265C54.9273 100.871 53.872 102.613 52.3383 103.866C50.8046 105.118 48.8863 105.803 46.9063 105.807ZM57.2188 95.4941H36.5938C36.1513 95.4743 35.7334 95.2846 35.4272 94.9645C35.1211 94.6443 34.9502 94.2184 34.9502 93.7754C34.9502 93.3324 35.1211 92.9065 35.4272 92.5863C35.7334 92.2662 36.1513 92.0764 36.5938 92.0566H57.2188C57.6613 92.0764 58.0792 92.2662 58.3854 92.5863C58.6915 92.9065 58.8624 93.3324 58.8624 93.7754C58.8624 94.2184 58.6915 94.6443 58.3854 94.9645C58.0792 95.2846 57.6613 95.4743 57.2188 95.4941ZM60.6563 88.6191H33.1563C32.7138 88.5993 32.2959 88.4096 31.9897 88.0895C31.6836 87.7693 31.5127 87.3434 31.5127 86.9004C31.5127 86.4574 31.6836 86.0315 31.9897 85.7113C32.2959 85.3912 32.7138 85.2014 33.1563 85.1816H60.6563C61.0988 85.2014 61.5167 85.3912 61.8229 85.7113C62.129 86.0315 62.2999 86.4574 62.2999 86.9004C62.2999 87.3434 62.129 87.7693 61.8229 88.0895C61.5167 88.4096 61.0988 88.5993 60.6563 88.6191ZM66.9263 69.2368L58.9375 75.7732V81.7441H50.3438V64.5566H46.9063C45.0105 64.5566 43.4688 63.0149 43.4688 61.1191C43.4688 59.2234 45.0105 57.6816 46.9063 57.6816H50.3438V47.3691H60.6563V43.9316C60.6563 42.0359 62.198 40.4941 64.0938 40.4941C65.9896 40.4941 67.5313 42.0359 67.5313 43.9316V47.3691H77.8197C77.6624 51.5789 76.6094 55.7068 74.731 59.4776C72.8526 63.2484 70.1919 66.5754 66.9263 69.2368Z" fill="url(#paint1_linear_2732_6398)"/>
<defs>
<linearGradient id="paint0_linear_2732_6398" x1="77.8438" y1="-6.70104" x2="77.8438" y2="36.4086" gradientUnits="userSpaceOnUse">
<stop stop-color="#0735FA"/>
<stop offset="1" stop-color="#9473E4"/>
</linearGradient>
<linearGradient id="paint1_linear_2732_6398" x1="46.9063" y1="-16.1964" x2="46.9063" y2="117.922" gradientUnits="userSpaceOnUse">
<stop stop-color="#0735FA"/>
<stop offset="1" stop-color="#9473E4"/>
</linearGradient>
</defs>
</svg>
