<svg width="18" height="18" viewBox="0 0 18 18" fill="none" xmlns="http://www.w3.org/2000/svg">
<g clip-path="url(#clip0_2007_20170)">
<path d="M17.9823 5.29205C17.9401 4.33561 17.7855 3.67813 17.5639 3.10835C17.3353 2.50358 16.9837 1.96214 16.523 1.51201C16.0729 1.05489 15.5278 0.699676 14.9301 0.474702C14.3571 0.253174 13.7029 0.0984567 12.7465 0.0563313C11.783 0.0105489 11.4771 0 9.03325 0C6.58942 0 6.28353 0.0105489 5.32354 0.0527447C4.36714 0.0949404 3.70963 0.249728 3.14002 0.471115C2.53507 0.699676 1.99363 1.05131 1.54351 1.51201C1.08639 1.9621 0.731346 2.50713 0.506196 3.1049C0.284669 3.67813 0.129986 4.3321 0.0878255 5.28846C0.0420782 6.25204 0.0314941 6.55792 0.0314941 9.00176C0.0314941 11.4456 0.0420782 11.7515 0.0842388 12.7115C0.126435 13.6679 0.281223 14.3254 0.502785 14.8952C0.731346 15.4999 1.08639 16.0414 1.54351 16.4915C1.99363 16.9486 2.53866 17.3038 3.13643 17.5288C3.70959 17.7503 4.36356 17.9051 5.32013 17.9472C6.27995 17.9895 6.586 17.9999 9.02984 17.9999C11.4737 17.9999 11.7796 17.9895 12.7396 17.9472C13.696 17.905 14.3535 17.7504 14.9231 17.5288C15.5213 17.2975 16.0646 16.9438 16.5182 16.4902C16.9718 16.0367 17.3256 15.4934 17.5569 14.8952C17.7783 14.322 17.9331 13.6679 17.9753 12.7115C18.0175 11.7515 18.028 11.4456 18.028 9.00176C18.028 6.55792 18.0244 6.252 17.9823 5.29205ZM16.3614 12.6411C16.3226 13.5202 16.175 13.9949 16.0519 14.3114C15.7494 15.0955 15.1271 15.7179 14.3429 16.0204C14.0264 16.1435 13.5483 16.2911 12.6726 16.3297C11.7232 16.372 11.4385 16.3824 9.03684 16.3824C6.63516 16.3824 6.34686 16.372 5.40087 16.3297C4.52179 16.2911 4.04709 16.1435 3.73062 16.0204C3.34041 15.8761 2.98523 15.6476 2.69689 15.3487C2.39801 15.0568 2.16945 14.7052 2.02521 14.315C1.90214 13.9985 1.75449 13.5202 1.71591 12.6447C1.67358 11.6953 1.66317 11.4104 1.66317 9.00876C1.66317 6.60708 1.67358 6.31878 1.71591 5.37296C1.75449 4.49388 1.90214 4.01918 2.02521 3.70271C2.16945 3.31233 2.39801 2.95722 2.70048 2.66881C2.99219 2.36992 3.34382 2.14136 3.73421 1.9973C4.05067 1.87423 4.52896 1.72654 5.40445 1.68783C6.35386 1.64563 6.63875 1.63508 9.04025 1.63508C11.4455 1.63508 11.7302 1.64563 12.6762 1.68783C13.5553 1.72658 14.03 1.87419 14.3465 1.99726C14.7367 2.14136 15.0919 2.36992 15.3802 2.66881C15.6791 2.9607 15.9076 3.31233 16.0519 3.70271C16.175 4.01918 16.3226 4.49729 16.3613 5.37296C16.4035 6.32236 16.4141 6.60708 16.4141 9.00876C16.4141 11.4104 16.4035 11.6917 16.3614 12.6411Z" fill="white"/>
<path d="M9.03337 4.37752C6.4806 4.37752 4.40942 6.44856 4.40942 9.00147C4.40942 11.5544 6.4806 13.6254 9.03337 13.6254C11.5862 13.6254 13.6573 11.5544 13.6573 9.00147C13.6573 6.44856 11.5862 4.37752 9.03337 4.37752ZM9.03337 12.0009C7.37726 12.0009 6.03389 10.6577 6.03389 9.00147C6.03389 7.34522 7.37726 6.00206 9.03334 6.00206C10.6896 6.00206 12.0328 7.34522 12.0328 9.00147C12.0328 10.6577 10.6896 12.0009 9.03337 12.0009ZM14.9198 4.19467C14.9198 4.79083 14.4364 5.27418 13.8401 5.27418C13.244 5.27418 12.7606 4.79083 12.7606 4.19467C12.7606 3.59845 13.244 3.11523 13.8401 3.11523C14.4364 3.11523 14.9198 3.59841 14.9198 4.19467Z" fill="white"/>
</g>
<defs>
<clipPath id="clip0_2007_20170">
<rect width="18" height="18" fill="white"/>
</clipPath>
</defs>
</svg>
