<svg width="18" height="18" viewBox="0 0 18 18" fill="none" xmlns="http://www.w3.org/2000/svg">
<path d="M16.2 16.2008V10.9268C16.2 8.33478 15.642 6.35478 12.618 6.35478C11.16 6.35478 10.188 7.14678 9.79205 7.90278H9.75605V6.58878H6.89405V16.2008H9.88205V11.4308C9.88205 10.1708 10.116 8.96478 11.664 8.96478C13.194 8.96478 13.212 10.3868 13.212 11.5028V16.1828H16.2V16.2008ZM2.03405 6.58878H5.02205V16.2008H2.03405V6.58878ZM3.52805 1.80078C2.57405 1.80078 1.80005 2.57478 1.80005 3.52878C1.80005 4.48278 2.57405 5.27478 3.52805 5.27478C4.48205 5.27478 5.25605 4.48278 5.25605 3.52878C5.25605 2.57478 4.48205 1.80078 3.52805 1.80078Z" fill="white"/>
</svg>
